<svg width="13" height="13" viewBox="0 0 13 13" fill="none" xmlns="http://www.w3.org/2000/svg">
<path fill-rule="evenodd" clip-rule="evenodd" d="M0 5.77778C0 3.05428 -8.60956e-08 1.69217 0.846444 0.846444C1.69289 0.00072217 3.05428 0 5.77778 0H7.22222C9.94572 0 11.3078 -8.60956e-08 12.1536 0.846444C12.9993 1.69289 13 3.05428 13 5.77778V7.22222C13 9.94572 13 11.3078 12.1536 12.1536C11.3071 12.9993 9.94572 13 7.22222 13H5.77778C3.05428 13 1.69217 13 0.846444 12.1536C0.00072217 11.3071 0 9.94572 0 7.22222V5.77778ZM10.8333 3.25C10.8333 3.53732 10.7192 3.81287 10.516 4.01603C10.3129 4.2192 10.0373 4.33333 9.75 4.33333C9.46268 4.33333 9.18713 4.2192 8.98397 4.01603C8.7808 3.81287 8.66667 3.53732 8.66667 3.25C8.66667 2.96268 8.7808 2.68713 8.98397 2.48397C9.18713 2.2808 9.46268 2.16667 9.75 2.16667C10.0373 2.16667 10.3129 2.2808 10.516 2.48397C10.7192 2.68713 10.8333 2.96268 10.8333 3.25ZM7.94444 7.22222C7.94444 7.60531 7.79226 7.97271 7.52138 8.2436C7.25049 8.51448 6.88309 8.66667 6.5 8.66667C6.11691 8.66667 5.74951 8.51448 5.47862 8.2436C5.20774 7.97271 5.05556 7.60531 5.05556 7.22222C5.05556 6.83913 5.20774 6.47173 5.47862 6.20085C5.74951 5.92996 6.11691 5.77778 6.5 5.77778C6.88309 5.77778 7.25049 5.92996 7.52138 6.20085C7.79226 6.47173 7.94444 6.83913 7.94444 7.22222ZM9.38889 7.22222C9.38889 7.9884 9.08452 8.7232 8.54275 9.26498C8.00098 9.80675 7.26618 10.1111 6.5 10.1111C5.73382 10.1111 4.99902 9.80675 4.45725 9.26498C3.91548 8.7232 3.61111 7.9884 3.61111 7.22222C3.61111 6.45604 3.91548 5.72124 4.45725 5.17947C4.99902 4.6377 5.73382 4.33333 6.5 4.33333C7.26618 4.33333 8.00098 4.6377 8.54275 5.17947C9.08452 5.72124 9.38889 6.45604 9.38889 7.22222Z" fill="#636846"/>
</svg>
