<svg xmlns="http://www.w3.org/2000/svg" version="1.1" viewBox="-5.0 -10.0 110.0 135.0">
 <path d="m79.793 68.762c-1.0312-2.1992-3.6602-3.1484-5.8594-2.1172l-13.086 6.1367c-0.71094-0.72266-1.6719-1.2031-2.7617-1.2969l-11.047-0.94141c-0.74219-0.0625-1.3438-0.32812-1.8867-0.83984-1.8672-1.7461-4.3008-2.707-6.8555-2.707h-0.089844c-2.6914 0.023437-6.8008 2.2148-9.0938 4.3242l-0.48828-1.043c-0.22266-0.47656-0.79297-0.68359-1.2734-0.46094l-7 3.2812c-0.47656 0.22266-0.68359 0.79297-0.46094 1.2734l7.0703 15.074c0.16406 0.34766 0.50781 0.55078 0.86719 0.55078 0.13672 0 0.27344-0.027344 0.40625-0.089844l7-3.2812c0.23047-0.10938 0.40625-0.30078 0.49219-0.53906 0.085938-0.23828 0.074219-0.5-0.035156-0.73047l-0.25781-0.54688 1.8164-0.72656 22.336 0.44922c0.97656 0.019531 1.8594-0.21484 2.6992-0.71484l15.465-9.2383c2.1562-1.2891 3.0117-3.7344 2.0352-5.8164zm-51.496 19.012-6.2578-13.344 5.2695-2.4727 6.2578 13.344zm48.484-14.836-15.465 9.2383c-0.53516 0.32031-1.0508 0.46094-1.6797 0.44531l-22.531-0.45312c-0.125 0-0.25391 0.019531-0.375 0.066406l-2.0977 0.83984-4.6523-9.9219c1.7773-1.8867 5.9258-4.2266 8.2461-4.2461h0.074219c2.0664 0 4.0352 0.77734 5.5469 2.1914 0.86328 0.80859 1.8516 1.2461 3.0312 1.3477l11.047 0.94141c0.76562 0.066406 1.4258 0.47266 1.832 1.0586 0.007813 0.015626 0.019532 0.03125 0.03125 0.046876 0.30078 0.45312 0.46094 1.0078 0.41016 1.5938-0.054688 0.66016-0.36719 1.2617-0.87891 1.6914-0.51172 0.42969-1.1562 0.63672-1.8164 0.58203l-7.25-0.61719c-0.52734-0.042969-0.98828 0.34375-1.0352 0.87109-0.046875 0.52734 0.34375 0.98828 0.87109 1.0352l7.25 0.61719c0.12891 0.011719 0.25391 0.015625 0.37891 0.015625 1.0352 0 2.0273-0.36328 2.832-1.0391 0.90234-0.76172 1.4531-1.8242 1.5547-2.9922 0.054687-0.64062-0.03125-1.2656-0.23438-1.8359l12.875-6.0391c1.2461-0.58594 2.7344-0.046875 3.3164 1.1992 0.625 1.332-0.17188 2.6992-1.2812 3.3633zm-35.191-40.527-2.9297 2.457c-1.0469 0.87891-1.3125 2.3789-0.62891 3.5625l1.9102 3.3125-0.66406 3.7656c-0.23828 1.3477 0.52344 2.6641 1.8086 3.1328l2.7305 0.99219-7.1758 13.691c-0.003906 0.011719-0.007813 0.019531-0.015625 0.03125-0.007812 0.015625-0.015625 0.03125-0.019531 0.046875-0.007813 0.015625-0.011719 0.03125-0.019531 0.046875-0.003907 0.011719-0.007813 0.027343-0.015626 0.039062-0.003906 0.019531-0.011718 0.035157-0.015624 0.054688-0.003907 0.011719-0.007813 0.023437-0.007813 0.035156-0.003906 0.019531-0.007813 0.035156-0.007813 0.054687-0.003906 0.011719-0.003906 0.027344-0.003906 0.039063-0.003906 0.015625-0.003906 0.035156-0.003906 0.050781v0.042969 0.046875c0 0.015625 0.003906 0.03125 0.003906 0.050781 0 0.015625 0.003906 0.027344 0.003906 0.039063 0.003907 0.015625 0.003907 0.035156 0.007813 0.050781 0.003906 0.011719 0.007813 0.027344 0.007813 0.039063 0.003906 0.015624 0.007812 0.03125 0.011718 0.050781 0.003906 0.015625 0.011719 0.03125 0.015625 0.042969 0.003907 0.015624 0.011719 0.027343 0.015625 0.042968 0.007813 0.019532 0.015625 0.035156 0.023438 0.054688 0.003906 0.007812 0.007812 0.015625 0.011718 0.023437 0 0.003907 0.003907 0.003907 0.003907 0.007813 0.011719 0.019531 0.023437 0.039062 0.035156 0.058594 0.003906 0.007812 0.007813 0.015624 0.015625 0.023437 0.011719 0.019531 0.027344 0.035156 0.039062 0.054687 0.003907 0.007813 0.011719 0.015626 0.015626 0.019532 0.011718 0.015625 0.027343 0.03125 0.042968 0.046875 0.007813 0.007812 0.015625 0.015625 0.019532 0.023437 0.011718 0.011719 0.027343 0.023438 0.039062 0.039063 0.011719 0.007812 0.019531 0.019531 0.027344 0.027343 0.011718 0.011719 0.023437 0.019532 0.039062 0.027344 0.011719 0.007813 0.023438 0.019532 0.039063 0.027344 0.011719 0.007812 0.023437 0.015625 0.039062 0.023438 0.015625 0.007812 0.027344 0.015624 0.042969 0.023437 0.003906 0.003906 0.007812 0.003906 0.007812 0.003906 0.007813 0.003907 0.015626 0.007813 0.023438 0.011719 0.019531 0.011719 0.042969 0.019531 0.066406 0.027344 0.015625 0.003906 0.027344 0.011718 0.039063 0.015625 0.019531 0.007812 0.039062 0.011719 0.058593 0.019531 0.015626 0.003906 0.027344 0.007812 0.042969 0.011719 0.023438 0.007812 0.050781 0.011719 0.074219 0.015625 0.015625 0.003906 0.027344 0.003906 0.042969 0.003906 0.027343 0.003906 0.054687 0.003906 0.082031 0.003906h0.011719 0.019531c0.03125 0 0.0625-0.003906 0.089844-0.007812 0.011718 0 0.019531-0.003906 0.03125-0.003906 0.035156-0.007813 0.074218-0.011719 0.11328-0.023438 0.035156-0.011719 0.074219-0.023438 0.10938-0.039062 0.011719-0.003907 0.019531-0.011719 0.03125-0.015626 0.015625-0.007812 0.027344-0.011718 0.042969-0.019531l3.9531-2.0312 0.57812 4.4062s0.003906 0.007813 0.003906 0.011719c0.007813 0.054688 0.019531 0.10547 0.035156 0.15625 0.003907 0.007812 0.003907 0.011719 0.007813 0.019531 0.015625 0.050781 0.035156 0.097657 0.0625 0.14453 0.003906 0.003907 0.003906 0.007813 0.003906 0.007813 0.023438 0.046875 0.054688 0.089844 0.085938 0.12891 0.003906 0.003907 0.003906 0.003907 0.007812 0.007813 0.03125 0.039062 0.070312 0.078125 0.10547 0.11328 0.003906 0.003906 0.007812 0.007813 0.015625 0.011719 0.035156 0.03125 0.078125 0.0625 0.12109 0.085937 0.007812 0.003907 0.015624 0.007813 0.023437 0.015625 0.011719 0.007813 0.023437 0.015625 0.035156 0.019532 0.03125 0.015624 0.0625 0.03125 0.09375 0.042968 0.003907 0.003906 0.007813 0.003906 0.011719 0.003906 0.046875 0.019532 0.097656 0.03125 0.14453 0.039063 0.011719 0.003906 0.023438 0.003906 0.039063 0.007813 0.050781 0.007812 0.10156 0.015624 0.15234 0.015624h0.015624c0.035157 0 0.074219-0.003906 0.10938-0.007812h0.003906 0.007812c0.035156-0.003906 0.074219-0.011719 0.10938-0.023438 0.007813-0.003906 0.019531-0.003906 0.027344-0.007812 0.03125-0.007812 0.058594-0.019531 0.089844-0.03125 0.007812-0.003906 0.015625-0.007812 0.023437-0.007812 0.035156-0.015626 0.070313-0.03125 0.10547-0.054688 0.003906 0 0.003906-0.003906 0.003906-0.003906 0.03125-0.019532 0.058594-0.039063 0.089844-0.0625 0.011719-0.007813 0.019531-0.015625 0.027344-0.023438 0.023437-0.019531 0.042969-0.039062 0.066406-0.058594 0.007813-0.007812 0.015625-0.015624 0.023437-0.019531 0.027344-0.027343 0.050782-0.054687 0.070313-0.085937 0.007813-0.007813 0.011719-0.019532 0.019531-0.027344 0.019532-0.027344 0.035156-0.054688 0.050782-0.082031 0.003906-0.003907 0.007812-0.011719 0.007812-0.015625l6.9492-13.262 2.3789-0.86719 2.3789 0.86719 6.9492 13.262c0.003906 0.003906 0.007812 0.011718 0.007812 0.015625 0.015626 0.027343 0.03125 0.054687 0.050782 0.082031 0.007812 0.007812 0.011718 0.019531 0.019531 0.027344 0.023437 0.03125 0.046875 0.058594 0.070313 0.085937 0.007812 0.007813 0.015624 0.011719 0.019531 0.019531 0.019531 0.019532 0.042969 0.039063 0.066406 0.058594 0.007813 0.007813 0.019531 0.015625 0.027344 0.023438 0.027343 0.023437 0.058593 0.042968 0.089843 0.0625l0.003907 0.003906c0.035156 0.019531 0.070312 0.039062 0.10547 0.054688 0.007812 0.003906 0.015624 0.007812 0.023437 0.007812 0.027344 0.011719 0.058594 0.023438 0.089844 0.03125 0.007812 0.003906 0.019531 0.003906 0.027343 0.007812 0.035157 0.007813 0.070313 0.015626 0.10938 0.023438h0.007812 0.003906c0.035156 0.003906 0.074219 0.007812 0.10938 0.007812h0.015625c0.050782 0 0.10156-0.007812 0.15234-0.015624 0.011719-0.003907 0.023438-0.003907 0.035156-0.007813 0.050782-0.011719 0.097656-0.023437 0.14453-0.039063 0.003906 0 0.007812-0.003906 0.011718-0.003906 0.03125-0.011718 0.066406-0.027344 0.097656-0.042968 0.011719-0.007813 0.023438-0.015626 0.035157-0.019532 0.007812-0.003906 0.015625-0.007812 0.023437-0.011718 0.042969-0.027344 0.085938-0.054688 0.12109-0.089844 0.003906-0.003906 0.007812-0.007813 0.011719-0.011719 0.039062-0.035156 0.074219-0.070313 0.10938-0.11328 0.003906-0.003906 0.003906-0.003906 0.003906-0.007813 0.03125-0.039062 0.0625-0.085937 0.085938-0.13281 0.003906-0.003907 0.003906-0.003907 0.003906-0.007813 0.023437-0.046875 0.046875-0.09375 0.0625-0.14453 0.003906-0.007813 0.003906-0.011719 0.007812-0.019531 0.015625-0.050782 0.027344-0.10547 0.035156-0.15625 0-0.003906 0.003907-0.007813 0.003907-0.011719l0.57812-4.4062 3.9531 2.0312c0.015625 0.007813 0.027343 0.011719 0.042969 0.019531 0.011718 0.003906 0.019531 0.007813 0.03125 0.011719 0.074218 0.03125 0.14844 0.050781 0.22656 0.0625 0.007812 0 0.015625 0.003906 0.023438 0.003906 0.035156 0.003907 0.066406 0.007813 0.10156 0.007813h0.015625 0.007813c0.070312 0 0.14062-0.007813 0.20703-0.023438 0.011719-0.003906 0.019531-0.007812 0.03125-0.007812 0.023437-0.007813 0.046875-0.015625 0.070312-0.023438 0.011719-0.003906 0.019531-0.007812 0.03125-0.011718 0.027344-0.011719 0.050781-0.023438 0.078125-0.035157 0.003906-0.003906 0.011719-0.003906 0.015625-0.007812 0.003907 0 0.003907-0.003907 0.007813-0.003907 0.019531-0.011718 0.039062-0.023437 0.058594-0.035156 0.007812-0.003906 0.015624-0.007812 0.023437-0.015625 0.019531-0.011719 0.035156-0.027343 0.054687-0.039062 0.007813-0.007813 0.015626-0.011719 0.023438-0.015625 0.015625-0.011719 0.027344-0.023438 0.042969-0.039063 0.007812-0.007812 0.019531-0.015625 0.027343-0.023437 0.011719-0.011719 0.019532-0.023438 0.03125-0.035156 0.011719-0.011719 0.023438-0.023438 0.03125-0.035157 0.007813-0.007812 0.015626-0.019531 0.019532-0.027343 0.011718-0.015626 0.023437-0.03125 0.035156-0.046876 0.007812-0.007812 0.011719-0.019531 0.015625-0.027343 0.011719-0.019531 0.023437-0.035157 0.03125-0.054688 0-0.003906 0.003906-0.003906 0.003906-0.007812 0.003907-0.007813 0.007813-0.015625 0.011719-0.027344 0.007812-0.015625 0.015625-0.035156 0.023438-0.050781 0.007812-0.015625 0.011718-0.027344 0.015624-0.042969 0.003907-0.015625 0.011719-0.027344 0.015626-0.042969 0.003906-0.015625 0.007812-0.03125 0.011718-0.050781 0.003906-0.011719 0.007813-0.027344 0.007813-0.039063 0.003906-0.015624 0.007812-0.035156 0.007812-0.050781 0.003907-0.011719 0.003907-0.027343 0.003907-0.039062 0.003906-0.015625 0.003906-0.03125 0.003906-0.050781v-0.046876-0.042968c0-0.015625-0.003906-0.03125-0.003906-0.050782 0-0.011718-0.003907-0.027343-0.003907-0.039062-0.003906-0.019531-0.003906-0.035156-0.007812-0.054688-0.003907-0.011718-0.007813-0.023437-0.007813-0.039062-0.003906-0.015625-0.007812-0.035156-0.015625-0.050781-0.003906-0.015625-0.007812-0.027344-0.015625-0.039063-0.003906-0.015625-0.011718-0.03125-0.015625-0.046875-0.007812-0.015625-0.015625-0.03125-0.023437-0.046875-0.003906-0.007812-0.007813-0.019531-0.011719-0.027344l-7.1758-13.691 2.7305-0.99219c1.2852-0.46875 2.0469-1.7852 1.8086-3.1328l-0.66406-3.7656 1.9102-3.3125c0.68359-1.1836 0.42188-2.6836-0.62891-3.5625l-2.9297-2.457-0.66406-3.7656c-0.23828-1.3477-1.4023-2.3242-2.7695-2.3242h-3.8242l-2.9297-2.457c-1.0469-0.87891-2.5703-0.87891-3.6172 0l-2.9297 2.457h-3.8242c-1.3672 0-2.5312 0.97656-2.7695 2.3242l-0.66406 3.7656zm2.3711 31.344-0.32422-2.4609 3.2461-6.1953c0.24609-0.46875 0.066407-1.0469-0.40234-1.2891-0.46875-0.24609-1.0469-0.066406-1.2891 0.40234l-3.2461 6.1953-2.207 1.1328 5.5352-10.562 1.3203 2.2852c0.46484 0.80078 1.2695 1.2969 2.1406 1.3906zm17.934-12.777 5.5352 10.562-2.207-1.1328-3.2461-6.1953c-0.24609-0.46875-0.82422-0.64844-1.2891-0.40234-0.46875 0.24609-0.64844 0.82422-0.40234 1.2891l3.2461 6.1953-0.32422 2.4609-4.7734-9.1016c0.87109-0.09375 1.6758-0.58984 2.1406-1.3906zm-18.816-17.32c0.035156-0.027344 0.070313-0.0625 0.10156-0.097656 0.050781-0.058594 0.097656-0.12109 0.13281-0.1875 0.019531-0.039063 0.039062-0.078125 0.054688-0.12109 0.019531-0.054688 0.035156-0.11328 0.046874-0.17188l0.72266-4.1016c0.078125-0.4375 0.44141-0.74219 0.88672-0.74219h4.1641c0.058594 0 0.11328-0.003906 0.17188-0.015625s0.11719-0.027344 0.17188-0.046875c0.046875-0.019531 0.09375-0.039063 0.13672-0.066406 0.050781-0.027344 0.097656-0.0625 0.14453-0.10156l3.1914-2.6797c0.33984-0.28516 0.81641-0.28516 1.1562 0l3.1914 2.6797c0.039063 0.035156 0.085938 0.066406 0.12891 0.09375 0.066406 0.039063 0.13281 0.070313 0.20312 0.089844h0.003906c0.03125 0.011719 0.0625 0.019531 0.097656 0.023438 0.0625 0.011718 0.12891 0.019531 0.19531 0.019531h4.1641c0.44531 0 0.80859 0.30469 0.88672 0.74219l0.72266 4.1016c0.007813 0.054687 0.023438 0.10938 0.042969 0.16016 0.023437 0.066406 0.054687 0.125 0.089844 0.18359 0.019531 0.03125 0.039062 0.058593 0.0625 0.089843 0.042969 0.054688 0.089843 0.10156 0.14062 0.14453l3.1914 2.6797c0.33984 0.28516 0.42188 0.75391 0.19922 1.1406l-2.082 3.6094c-0.027344 0.046875-0.050782 0.097657-0.070313 0.15234s-0.035156 0.10938-0.046875 0.16406c-0.007812 0.054687-0.015625 0.10937-0.015625 0.16406 0 0.058594 0.003906 0.11719 0.015625 0.17188l0.72266 4.1016c0.078125 0.4375-0.16016 0.85156-0.57812 1.0039l-3.9141 1.4258c-0.050781 0.015625-0.097657 0.039063-0.14062 0.0625-0.058594 0.03125-0.11328 0.070313-0.16016 0.11328-0.039063 0.03125-0.074219 0.070313-0.10547 0.10938-0.035157 0.042969-0.070313 0.089844-0.097657 0.14062l-2.082 3.6094c-0.22266 0.38672-0.66797 0.54688-1.0898 0.39453l-3.9141-1.4258c-0.050781-0.019531-0.10156-0.03125-0.15625-0.042969-0.058594-0.011718-0.11719-0.015624-0.17578-0.015624s-0.11719 0.003906-0.17578 0.015624c-0.054687 0.011719-0.10547 0.023438-0.15625 0.042969l-3.9141 1.4258c-0.41797 0.15234-0.86328-0.011718-1.0898-0.39453l-2.082-3.6094c-0.027344-0.046875-0.054687-0.089844-0.089844-0.13281-0.050781-0.0625-0.10547-0.11328-0.16797-0.16016-0.015624-0.011719-0.035156-0.023438-0.054687-0.035157-0.0625-0.039062-0.12891-0.070312-0.19531-0.09375l-3.9141-1.4258c-0.41797-0.15234-0.65625-0.5625-0.57812-1.0039l0.72266-4.1016c0.011719-0.058593 0.015625-0.11328 0.015625-0.17188s-0.003906-0.11328-0.015625-0.16406c-0.007812-0.054688-0.023437-0.10547-0.042969-0.15625-0.019531-0.054688-0.046874-0.10547-0.074218-0.15625l-2.082-3.6094c-0.22266-0.38672-0.14062-0.85547 0.19922-1.1406l3.1914-2.6797zm10.504 15.457c5.6133 0 10.18-4.5664 10.18-10.18 0-5.6133-4.5664-10.18-10.18-10.18s-10.18 4.5664-10.18 10.18c0 5.6133 4.5664 10.18 10.18 10.18zm0-18.445c4.5586 0 8.2656 3.707 8.2656 8.2656s-3.707 8.2656-8.2656 8.2656c-4.5586 0-8.2656-3.707-8.2656-8.2656s3.707-8.2656 8.2656-8.2656zm-5.0898 8.8086c-0.39453-0.35156-0.42578-0.95703-0.074219-1.3516 0.35156-0.39453 0.95703-0.42578 1.3516-0.074219l2.5508 2.2812 4.6406-4.7891c0.36719-0.37891 0.97266-0.39062 1.3516-0.019531 0.37891 0.36719 0.39062 0.97266 0.019531 1.3516l-5.2812 5.4492c-0.1875 0.19141-0.4375 0.28906-0.6875 0.28906-0.22656 0-0.45312-0.082031-0.63672-0.24219zm16.809-14.391 2.543 1.8398-0.97656 2.9844c-0.12891 0.39453 0.011718 0.82812 0.34766 1.0703 0.16797 0.12109 0.36328 0.18359 0.5625 0.18359 0.19531 0 0.39453-0.0625 0.5625-0.18359l2.5352-1.8516 2.5352 1.8516c0.33594 0.24219 0.78906 0.24609 1.125 0 0.33594-0.24219 0.47656-0.67578 0.34766-1.0703l-0.97656-2.9844 2.543-1.8398c0.33594-0.24219 0.47656-0.67578 0.34766-1.0703s-0.49609-0.66016-0.91016-0.66016h-0.003907l-3.1406 0.007812-0.96484-2.9883c-0.12891-0.39453-0.49609-0.66406-0.91016-0.66406-0.41406 0-0.78125 0.26953-0.91016 0.66406l-0.96484 2.9883-3.1406-0.007812h-0.003906c-0.41406 0-0.78125 0.26562-0.91016 0.66016s0.011719 0.82812 0.34766 1.0703zm4.3945 0.1875h0.003907c0.41406 0 0.78125-0.26953 0.91016-0.66406l0.26953-0.83203 0.26953 0.83203c0.12891 0.39453 0.49609 0.66406 0.91016 0.66406h0.003906l0.875-0.003907-0.70703 0.51172c-0.33594 0.24219-0.47656 0.67578-0.34766 1.0703l0.27344 0.83203-0.70703-0.51562c-0.33594-0.24609-0.78906-0.24609-1.1289 0l-0.70703 0.51562 0.27344-0.83203c0.12891-0.39453-0.011719-0.82812-0.34766-1.0703l-0.70703-0.51172 0.875 0.003907zm-38.988-0.1875 2.543 1.8398-0.97656 2.9844c-0.12891 0.39453 0.011718 0.82812 0.34766 1.0703 0.16797 0.12109 0.36328 0.18359 0.5625 0.18359 0.19531 0 0.39453-0.0625 0.5625-0.18359l2.5352-1.8516 2.5352 1.8516c0.33594 0.24219 0.78906 0.24609 1.125 0 0.33594-0.24219 0.47656-0.67578 0.34766-1.0703l-0.97656-2.9844 2.543-1.8398c0.33594-0.24219 0.47656-0.67578 0.34766-1.0703s-0.49609-0.66016-0.91016-0.66016h-0.003907l-3.1406 0.007812-0.96484-2.9883c-0.12891-0.39453-0.49609-0.66406-0.91016-0.66406-0.41406 0-0.78125 0.26953-0.91016 0.66406l-0.96484 2.9883-3.1406-0.007812h-0.003906c-0.41406 0-0.78125 0.26562-0.91016 0.66016s0.011719 0.82812 0.34766 1.0703zm4.3945 0.1875h0.003907c0.41406 0 0.78125-0.26953 0.91016-0.66406l0.26953-0.83203 0.26953 0.83203c0.12891 0.39453 0.49609 0.66406 0.91016 0.66406h0.003906l0.875-0.003907-0.70703 0.51172c-0.33594 0.24219-0.47656 0.67578-0.34766 1.0703l0.27344 0.83203-0.70703-0.51562c-0.33594-0.24609-0.78906-0.24609-1.1289 0l-0.70703 0.51562 0.27344-0.83203c0.12891-0.39453-0.011719-0.82812-0.34766-1.0703l-0.70703-0.51172 0.875 0.003907zm11.465-8.9609 3.3398 2.418-1.2812 3.918c-0.12891 0.39453 0.011719 0.82812 0.34766 1.0703 0.33594 0.24219 0.78906 0.24219 1.125 0l3.332-2.4297 3.332 2.4297c0.16797 0.12109 0.36719 0.18359 0.5625 0.18359 0.19922 0 0.39453-0.0625 0.5625-0.18359 0.33594-0.24219 0.47656-0.67578 0.34766-1.0703l-1.2812-3.918 3.3398-2.418c0.33594-0.24219 0.47656-0.67578 0.34766-1.0703-0.12891-0.39453-0.49609-0.66016-0.91016-0.66016h-0.003907l-4.125 0.007813-1.2656-3.9258c-0.12891-0.39453-0.49609-0.66406-0.91016-0.66406-0.41406 0-0.78125 0.26953-0.91016 0.66406l-1.2656 3.9258-4.125-0.007813h-0.003906c-0.41406 0-0.78125 0.26562-0.91016 0.66016-0.12891 0.39453 0.011718 0.82812 0.34766 1.0703zm5.3789 0.19141h0.003907c0.41406 0 0.78125-0.26953 0.91016-0.66406l0.57031-1.7695 0.57031 1.7695c0.12891 0.39453 0.49609 0.66406 0.91016 0.66406h0.003906l1.8594-0.003906-1.5078 1.0898c-0.33594 0.24219-0.47656 0.67578-0.34766 1.0703l0.57812 1.7656-1.5039-1.0977c-0.16797-0.12109-0.36719-0.18359-0.5625-0.18359-0.19922 0-0.39453 0.0625-0.5625 0.18359l-1.5039 1.0977 0.57812-1.7656c0.12891-0.39453-0.011718-0.82812-0.34766-1.0703l-1.5078-1.0898z"/>
<text x="0.0" y="117.5" font-size="5.0" font-weight="bold" font-family="Arbeit Regular, Helvetica, Arial-Unicode, Arial, Sans-serif" fill="#000000">Created by imnurull2305</text><text x="0.0" y="122.5" font-size="5.0" font-weight="bold" font-family="Arbeit Regular, Helvetica, Arial-Unicode, Arial, Sans-serif" fill="#000000">from Noun Project</text></svg>