<svg xmlns="http://www.w3.org/2000/svg" version="1.1" viewBox="-5.0 -10.0 110.0 135.0">
 <path d="m50 41.078c6.5078 0 11.805-5.2969 11.805-11.805 0-6.5078-5.2969-11.805-11.805-11.805s-11.805 5.2969-11.805 11.805c0 6.5078 5.2969 11.805 11.805 11.805zm0-21.695c5.4531 0 9.8906 4.4375 9.8906 9.8906 0 5.4531-4.4375 9.8906-9.8906 9.8906s-9.8906-4.4375-9.8906-9.8906c0-5.4531 4.4375-9.8906 9.8906-9.8906zm-6.6133 9.9141c0.32422-0.41406 0.92578-0.48828 1.3438-0.16406l3.3633 2.6328 7.0977-6.9375c0.37891-0.36719 0.98438-0.36328 1.3516 0.015625 0.36719 0.37891 0.36328 0.98438-0.015625 1.3516l-7.6992 7.5234c-0.18359 0.17969-0.42578 0.27344-0.66797 0.27344-0.20703 0-0.41406-0.066407-0.58984-0.20313l-4.0234-3.1484c-0.41406-0.32422-0.48828-0.92578-0.16406-1.3438zm-11.945 30.09c0 0.015625 0 0.03125 0.003906 0.046875 0 0.015625 0.003907 0.027344 0.003907 0.042968 0.003906 0.015626 0.003906 0.03125 0.007812 0.050782 0.003907 0.015625 0.007813 0.027344 0.011719 0.042968 0.003906 0.015626 0.007812 0.03125 0.011719 0.046876 0.003906 0.015624 0.011719 0.03125 0.015625 0.046874 0.003906 0.011719 0.007812 0.027344 0.015625 0.039063 0.007812 0.019531 0.015625 0.035156 0.023437 0.054687 0.003906 0.007813 0.007813 0.015626 0.011719 0.023438 0 0.003906 0.003906 0.003906 0.003906 0.007812 0.011719 0.019532 0.023438 0.039063 0.03125 0.058594 0.003907 0.007813 0.011719 0.015625 0.015625 0.023438 0.011719 0.019531 0.023438 0.035156 0.035156 0.050781 0.007813 0.007813 0.011719 0.015625 0.019532 0.027344 0.011718 0.015625 0.023437 0.027343 0.035156 0.039062 0.007812 0.011719 0.019531 0.019531 0.027344 0.03125 0.011718 0.011719 0.019531 0.019531 0.03125 0.027344 0.011718 0.011719 0.027344 0.023437 0.039062 0.035156 0.007813 0.007813 0.015625 0.011719 0.023438 0.019531 0.015625 0.011719 0.035156 0.027344 0.050781 0.039063 0.007813 0.003906 0.015625 0.011719 0.023437 0.015625 0.019532 0.011719 0.039063 0.023438 0.058594 0.035156 0.003906 0 0.003906 0.003906 0.007813 0.003906 0.003906 0.003907 0.011719 0.003907 0.015625 0.007813 0.023437 0.011719 0.050781 0.023437 0.078125 0.035156 0.011719 0.003907 0.023437 0.007813 0.03125 0.011719 0.023437 0.007812 0.046875 0.015625 0.070312 0.023438 0.011719 0.003906 0.019531 0.007812 0.03125 0.007812 0.066407 0.015625 0.13672 0.023438 0.20703 0.023438h0.007813 0.011719c0.035156 0 0.066406-0.003907 0.10156-0.007813 0.007813 0 0.015625-0.003906 0.023438-0.003906 0.078125-0.011719 0.15234-0.03125 0.22656-0.0625 0.007813-0.003907 0.019532-0.007813 0.027344-0.011719 0.015625-0.007812 0.03125-0.011719 0.046875-0.019531l3.9883-2.0508 0.58594 4.4492s0.003906 0.007813 0.003906 0.011719c0.007812 0.054687 0.019531 0.10547 0.035156 0.15625 0.003906 0.007813 0.003906 0.011719 0.007813 0.019531 0.015625 0.050782 0.035156 0.097656 0.0625 0.14453 0.003906 0.003906 0.003906 0.007812 0.003906 0.007812 0.023437 0.046875 0.054687 0.089844 0.085937 0.12891 0.003907 0.003906 0.003907 0.007813 0.007813 0.007813 0.03125 0.039062 0.066406 0.074219 0.10547 0.10938 0.003906 0.003906 0.011718 0.007812 0.015625 0.011718 0.035156 0.03125 0.078125 0.058594 0.11719 0.085938 0.007813 0.003906 0.015625 0.011719 0.023438 0.015625 0.011718 0.007813 0.023437 0.015625 0.035156 0.019531 0.03125 0.015625 0.0625 0.03125 0.09375 0.042969 0.003906 0.003906 0.007812 0.003906 0.011719 0.007813 0.046875 0.019531 0.097656 0.03125 0.14453 0.039062 0.011719 0.003906 0.023438 0.003906 0.035156 0.007812 0.050782 0.007813 0.10156 0.015626 0.15234 0.015626 0.019531 0 0.039062-0.003907 0.054688-0.003907 0.023437 0 0.046874 0 0.070312-0.003906 0.003906 0 0.007812 0 0.011719-0.003906 0.035156-0.003907 0.070312-0.011719 0.10547-0.019531 0.011718-0.003907 0.019531-0.003907 0.027343-0.007813 0.03125-0.007813 0.058594-0.019531 0.089844-0.03125 0.007813-0.003906 0.015625-0.007813 0.023437-0.007813 0.035157-0.015624 0.070313-0.03125 0.10547-0.054687l0.003907-0.003906c0.03125-0.019531 0.0625-0.039063 0.089843-0.0625 0.007813-0.007813 0.019531-0.015625 0.027344-0.023438 0.023437-0.019531 0.046875-0.039062 0.066406-0.0625 0.007813-0.007812 0.011719-0.011719 0.019531-0.019531 0.027344-0.027344 0.050782-0.058594 0.074219-0.089844 0.007813-0.007812 0.011719-0.015625 0.019531-0.023437 0.019532-0.027344 0.035157-0.058594 0.054688-0.085938 0.003906-0.003906 0.007812-0.007812 0.007812-0.011719l8.2031-15.648 1.0898 0.79297c0.44922 0.32812 0.97656 0.49219 1.5078 0.49219 0.52734 0 1.0547-0.16406 1.5078-0.49219l1.0898-0.79297 8.2031 15.648s0.003906 0.007813 0.007813 0.011719c0.015624 0.03125 0.035156 0.058594 0.054687 0.085938 0.007813 0.007812 0.011719 0.015625 0.019531 0.023437 0.023438 0.03125 0.046875 0.058594 0.074219 0.089844 0.007813 0.007812 0.011719 0.011719 0.019531 0.019531 0.019532 0.019531 0.042969 0.042969 0.066406 0.0625 0.007813 0.007813 0.019532 0.015625 0.027344 0.023438 0.027344 0.023437 0.058594 0.042969 0.089844 0.0625 0.003906 0 0.003906 0.003906 0.003906 0.003906 0.035156 0.019531 0.070313 0.035156 0.10547 0.054687 0.007813 0.003907 0.015625 0.007813 0.023437 0.011719 0.027344 0.011719 0.058594 0.023438 0.089844 0.03125 0.011719 0.003907 0.019532 0.007813 0.027344 0.007813 0.035156 0.007812 0.070312 0.015625 0.10547 0.019531 0.003906 0 0.007812 0.003906 0.011719 0.003906 0.023437 0.003907 0.046874 0.003907 0.070312 0.003907 0.019531 0 0.039062 0.003906 0.058594 0.003906 0.050781 0 0.10156-0.007813 0.15625-0.015625 0.011718-0.003907 0.023437-0.003907 0.035156-0.007813 0.050781-0.011718 0.097656-0.023437 0.14453-0.039062 0.003907 0 0.007813-0.003906 0.011719-0.003906 0.03125-0.011719 0.0625-0.027344 0.09375-0.042969 0.011719-0.007813 0.023438-0.015625 0.035156-0.019531 0.007813-0.003907 0.015625-0.007813 0.023438-0.015626 0.042968-0.027343 0.082031-0.054687 0.12109-0.085937 0.003906-0.003906 0.007812-0.007813 0.015624-0.011719 0.039063-0.035156 0.074219-0.070312 0.10938-0.11328 0.003906-0.003906 0.003906-0.003906 0.003906-0.007813 0.03125-0.039062 0.0625-0.085937 0.085937-0.13281 0-0.003906 0.003907-0.003906 0.003907-0.007812 0.023437-0.046876 0.046874-0.09375 0.0625-0.14453 0.003906-0.007812 0.003906-0.011718 0.007812-0.015625 0.015625-0.050781 0.027344-0.10547 0.035156-0.15625 0-0.003906 0.003906-0.007812 0.003906-0.011719l0.58594-4.4492 3.9883 2.0508c0.015625 0.007813 0.027344 0.011719 0.042969 0.019531 0.011719 0.003906 0.019531 0.007813 0.027344 0.011719 0.074218 0.03125 0.14844 0.050781 0.22656 0.0625 0.007813 0 0.015625 0.003906 0.023438 0.003906 0.03125 0.003907 0.066406 0.007813 0.097656 0.007813h0.015625 0.007813c0.035156 0 0.066406-0.003906 0.10156-0.007813h0.007812c0.03125-0.003906 0.066407-0.011719 0.097657-0.019531 0.011719-0.003906 0.023437-0.007812 0.035156-0.007812 0.023437-0.007813 0.046875-0.011719 0.070313-0.019532 0.011718-0.003906 0.023437-0.007812 0.03125-0.011718 0.027343-0.011719 0.050781-0.023438 0.078124-0.035157 0.003907-0.003906 0.011719-0.003906 0.015626-0.007812 0.003906 0 0.003906-0.003907 0.007812-0.003907 0.019531-0.011718 0.039062-0.023437 0.058594-0.035156 0.007812-0.003906 0.015625-0.007812 0.023437-0.011718 0.019531-0.011719 0.035157-0.027344 0.054688-0.039063 0.007812-0.003906 0.015625-0.011719 0.019531-0.015625 0.015625-0.011719 0.03125-0.027344 0.046875-0.039062 0.007813-0.007813 0.015625-0.015626 0.023437-0.023438 0.011719-0.011719 0.023438-0.023438 0.03125-0.035156 0.011719-0.011719 0.019532-0.023438 0.03125-0.035156 0.007813-0.011719 0.015626-0.019532 0.023438-0.03125 0.011719-0.015626 0.023438-0.03125 0.03125-0.046876 0.007812-0.007812 0.011719-0.019531 0.019531-0.027343 0.011719-0.015625 0.019531-0.035157 0.03125-0.054688 0-0.003906 0.003907-0.003906 0.003907-0.007812 0.003906-0.007813 0.007812-0.019531 0.011718-0.027344 0.007813-0.015625 0.015625-0.03125 0.023438-0.050781 0.007812-0.015625 0.011718-0.027344 0.015625-0.042969 0.003906-0.015625 0.011719-0.027344 0.015625-0.042969s0.007812-0.03125 0.011718-0.050781c0.003907-0.011719 0.007813-0.027344 0.007813-0.039063 0.003906-0.015624 0.007813-0.035156 0.007813-0.050781 0.003906-0.011719 0.003906-0.027343 0.003906-0.039062 0.003906-0.015625 0.003906-0.03125 0.003906-0.050781v-0.046876c0-0.015624 0-0.03125-0.003906-0.042968 0-0.015625-0.003906-0.03125-0.003906-0.050782 0-0.011718-0.003907-0.027343-0.003907-0.039062-0.003906-0.019531-0.003906-0.035156-0.007812-0.054688-0.003907-0.011718-0.007813-0.027343-0.007813-0.039062-0.003906-0.015625-0.007812-0.035156-0.015625-0.050781-0.003906-0.015625-0.011719-0.027344-0.015625-0.042969s-0.011718-0.03125-0.015625-0.042969c-0.007812-0.015625-0.015625-0.03125-0.023437-0.050781-0.003906-0.007812-0.007813-0.019531-0.011719-0.027344l-7.2969-13.918c0.51172-0.3125 0.90625-0.79688 1.1016-1.3984l1.4219-4.3711 3.7188-2.7031c0.90234-0.65234 1.2734-1.8047 0.92969-2.8633l-1.4219-4.3711 1.4219-4.3711c0.34375-1.0586-0.03125-2.2109-0.92969-2.8633l-3.7188-2.7031-1.4219-4.3711c-0.34375-1.0586-1.3242-1.7695-2.4375-1.7695h-4.5977l-3.7188-2.7031c-0.90234-0.65234-2.1094-0.65234-3.0117 0l-3.7188 2.7031h-4.5977c-1.1133 0-2.0938 0.71094-2.4375 1.7695l-1.4219 4.3711-3.7188 2.7031c-0.90234 0.65625-1.2734 1.8047-0.92969 2.8633l1.4219 4.3711-1.4219 4.3711c-0.34375 1.0586 0.03125 2.2109 0.92969 2.8633l3.7188 2.7031 1.4219 4.3711c0.19531 0.59766 0.59375 1.0859 1.1016 1.3984l-7.2969 13.918c-0.003907 0.011719-0.007813 0.019532-0.015625 0.03125-0.007813 0.015625-0.015625 0.03125-0.019532 0.046875-0.007812 0.015625-0.011718 0.03125-0.019531 0.046875-0.003906 0.011719-0.007812 0.027344-0.011719 0.039063-0.007812 0.019531-0.011718 0.035156-0.015624 0.054687-0.003907 0.011719-0.007813 0.023438-0.007813 0.035156-0.003906 0.019532-0.007813 0.035157-0.007813 0.054688-0.003906 0.011719-0.003906 0.023438-0.003906 0.035156-0.003906 0.019532-0.003906 0.035156-0.003906 0.054688v0.039062 0.046875zm7.4688-0.035157-0.32812-2.5 3.2695-6.2383c0.24609-0.46875 0.066407-1.0469-0.40234-1.2891-0.46875-0.24609-1.0469-0.066407-1.2891 0.40234l-3.2695 6.2383-2.2422 1.1523 6.1641-11.762h3.9688l1.0664 0.77344-6.9297 13.223zm20.281-13.996 6.1641 11.762-2.2422-1.1523-3.2695-6.2383c-0.24609-0.46875-0.82422-0.64844-1.2891-0.40234-0.46875 0.24609-0.64844 0.82422-0.40234 1.2891l3.2695 6.2383-0.32812 2.5-6.9297-13.223 1.0664-0.77344h3.9688zm-21.145-7.0195c-0.03125-0.09375-0.074219-0.1875-0.13281-0.26953-0.0625-0.089844-0.14062-0.16406-0.22656-0.22656l-3.9609-2.8789c-0.23437-0.17188-0.32422-0.44922-0.23437-0.72656l1.5117-4.6562c0.03125-0.097656 0.050782-0.19531 0.050782-0.30078 0-0.10547-0.015626-0.21094-0.050782-0.3125l-1.5117-4.6562c-0.089844-0.27734 0-0.55469 0.23437-0.72656l3.9609-2.8789c0.078125-0.058594 0.15234-0.125 0.21094-0.20703 0.066406-0.089844 0.11328-0.18359 0.14844-0.28906l1.5117-4.6562c0.089844-0.27734 0.32812-0.44922 0.61719-0.44922h4.8984c0.10156-0.003906 0.20312-0.011718 0.30078-0.046874 0.10156-0.03125 0.19531-0.082032 0.28125-0.14453l3.9609-2.8789c0.23437-0.17188 0.52734-0.17188 0.76562 0l3.9609 2.8789c0.078125 0.058594 0.17188 0.10547 0.26953 0.14062 0.10156 0.035157 0.21094 0.050781 0.3125 0.050781h4.8984c0.28906 0 0.52734 0.17188 0.61719 0.44922l1.5117 4.6562c0.03125 0.097657 0.078125 0.19141 0.13672 0.27344 0.0625 0.085937 0.13672 0.16016 0.22266 0.21875l3.9609 2.8789c0.23437 0.17188 0.32422 0.44922 0.23437 0.72656l-1.5117 4.6562c-0.035156 0.097656-0.050782 0.20312-0.050782 0.3125 0 0.10156 0.019532 0.20312 0.050782 0.30078l1.5117 4.6562c0.089844 0.27734 0 0.55469-0.23437 0.72656l-3.9609 2.8789c-0.082031 0.058593-0.15234 0.12891-0.21484 0.21094-0.066406 0.085937-0.11328 0.18359-0.14453 0.28516l-1.5117 4.6562c-0.089844 0.27734-0.32812 0.44922-0.61719 0.44922h-0.035157-0.007812-4.8555c-0.097656 0-0.19922 0.011719-0.29297 0.042969-0.10547 0.03125-0.19922 0.082031-0.28516 0.14453l-3.9609 2.8789c-0.23438 0.17188-0.52734 0.17188-0.76562 0l-3.9609-2.8789c-0.078125-0.058594-0.17188-0.10547-0.26562-0.14062-0.10156-0.035156-0.20703-0.046875-0.3125-0.050781h-4.8555-0.007812-0.035156c-0.28906 0-0.52734-0.17188-0.61719-0.44922l-1.5117-4.6562zm42.504 6.7148c-2.0352-0.64062-4.2109 0.49219-4.8516 2.5234l-3.6367 11.535c-0.88281 0.054687-1.7148 0.40234-2.3711 1.0039l-6.8984 6.3203c-0.4375 0.40234-0.91797 0.60938-1.5078 0.65234-2.2148 0.16406-4.2578 1.1641-5.75 2.8125-1.5039 1.6641-2.4961 5.3633-2.5469 8.0156l-0.73438-0.23047c-0.24219-0.074219-0.50391-0.054688-0.73047 0.0625-0.22656 0.11719-0.39453 0.32031-0.46875 0.5625l-1.0508 3.3281-1.0508-3.3281c-0.074219-0.24219-0.24609-0.44531-0.46875-0.5625-0.22656-0.11719-0.48828-0.14062-0.73047-0.0625l-0.73438 0.23047c-0.050781-2.6523-1.043-6.3516-2.5469-8.0156-1.4922-1.6484-3.5312-2.6484-5.75-2.8125-0.59375-0.042969-1.0703-0.25-1.5078-0.65234l-6.8984-6.3203c-0.66016-0.60156-1.4883-0.94922-2.3711-1.0039l-3.6367-11.535c-0.64062-2.0352-2.8164-3.168-4.8516-2.5234-1.9258 0.60547-2.9961 2.6094-2.5508 4.7617l3.1016 14.883c0.17578 0.83594 0.54688 1.5391 1.1367 2.1562l13.023 13.59 0.51953 1.3633-0.33594 0.10547c-0.24219 0.074219-0.44531 0.24609-0.5625 0.46875-0.11719 0.22656-0.14062 0.48828-0.0625 0.73047l1.9609 6.2227c0.12891 0.40625 0.50781 0.66797 0.91016 0.66797 0.09375 0 0.19141-0.015625 0.28906-0.046875l13.113-4.1367 13.113 4.1367c0.097657 0.03125 0.19141 0.046875 0.28906 0.046875 0.40625 0 0.78125-0.26172 0.91016-0.66797l1.9609-6.2227c0.074218-0.24219 0.054687-0.50391-0.0625-0.73047-0.11719-0.22656-0.32031-0.39453-0.5625-0.46875l-0.33594-0.10547 0.51953-1.3633 13.023-13.59c0.58984-0.61719 0.96094-1.3203 1.1367-2.1562l3.1016-14.883c0.44922-2.1523-0.625-4.1523-2.5508-4.7617zm-44.672 34.527c-0.046875-0.12109-0.11328-0.23047-0.20312-0.32031l-13.16-13.73c-0.34375-0.35938-0.54297-0.73828-0.64453-1.2266l-3.1016-14.883c-0.21094-1.0039 0.15234-2.1992 1.2539-2.5469 0.49609-0.15625 1.0234-0.10938 1.4883 0.13281 0.46484 0.24219 0.80859 0.64844 0.96484 1.1445l3.5703 11.316c-0.44922 0.21094-0.85547 0.50781-1.1992 0.88672-0.69531 0.75781-1.0547 1.7461-1.0078 2.7812 0.046875 1.0352 0.48828 1.9883 1.2461 2.6836l4.5273 4.1484c0.39062 0.35547 0.99219 0.32812 1.3516-0.058594 0.35547-0.39062 0.32812-0.99219-0.058594-1.3516l-4.5273-4.1484c-0.38281-0.35156-0.60547-0.83203-0.62891-1.3555-0.023438-0.52344 0.15625-1.0234 0.50781-1.4062 0.35156-0.38281 0.83203-0.60547 1.3555-0.62891 0.52344-0.023437 1.0234 0.15625 1.4062 0.50781l6.8984 6.3203c0.76172 0.69531 1.6289 1.0742 2.6602 1.1484 1.7227 0.12891 3.3125 0.90625 4.4727 2.1875 1.2734 1.4102 2.168 5.1719 2.0469 7.3359l-8.5898 2.7109-0.62891-1.6523zm1.3438 8.2656-1.3867-4.3984 11.578-3.6523 1.3867 4.3984zm25.555 0-11.578-3.6523 1.3867-4.3984 11.578 3.6523zm18.453-38.422-3.1016 14.883c-0.10156 0.48828-0.30078 0.86328-0.64453 1.2266l-13.16 13.73c-0.089844 0.09375-0.15625 0.20312-0.20312 0.32031l-0.62891 1.6523-8.5898-2.7109c-0.12109-2.1641 0.77344-5.9258 2.0469-7.3359 1.1602-1.2812 2.75-2.0586 4.4727-2.1875 1.0273-0.078125 1.8984-0.45312 2.6602-1.1484l6.8984-6.3203c0.38281-0.35156 0.88281-0.53125 1.4062-0.50781 0.52344 0.023437 1.0078 0.24609 1.3555 0.62891 0.35156 0.38281 0.53125 0.88281 0.50781 1.4062-0.023438 0.52344-0.24609 1.0078-0.62891 1.3555l-4.5273 4.1484c-0.39062 0.35547-0.41406 0.96094-0.058594 1.3516 0.35547 0.39063 0.96094 0.41406 1.3516 0.058594l4.5273-4.1484c0.75781-0.69531 1.2031-1.6484 1.2461-2.6836 0.046875-1.0352-0.3125-2.0234-1.0078-2.7812-0.34375-0.375-0.75391-0.67578-1.1992-0.88672l3.5703-11.316c0.15625-0.49609 0.49609-0.90234 0.96484-1.1445 0.46484-0.24219 0.99609-0.28906 1.4883-0.13281 1.0977 0.34766 1.4609 1.543 1.2539 2.5469z"/>
<text x="0.0" y="117.5" font-size="5.0" font-weight="bold" font-family="Arbeit Regular, Helvetica, Arial-Unicode, Arial, Sans-serif" fill="#000000">Created by imnurull2305</text><text x="0.0" y="122.5" font-size="5.0" font-weight="bold" font-family="Arbeit Regular, Helvetica, Arial-Unicode, Arial, Sans-serif" fill="#000000">from Noun Project</text></svg>