<svg xmlns="http://www.w3.org/2000/svg" version="1.1" viewBox="-5.0 -10.0 110.0 135.0">
 <path d="m47.832 40.664c0-7.7422-6.2969-14.039-14.039-14.039-7.7422 0-14.039 6.3008-14.039 14.039 0 7.7422 6.2969 14.039 14.039 14.039 7.7422 0 14.039-6.2969 14.039-14.039zm-14.039 12.129c-6.6875 0-12.129-5.4414-12.129-12.129s5.4414-12.129 12.129-12.129 12.129 5.4414 12.129 12.129-5.4414 12.129-12.129 12.129zm6.6211-15.234h-0.003906l-4.3672 0.007812-1.3398-4.1562c-0.12891-0.39453-0.49609-0.66406-0.91016-0.66406-0.41406 0-0.78125 0.26953-0.91016 0.66406l-1.3438 4.1562-4.3672-0.007812h-0.003906c-0.41406 0-0.78125 0.26562-0.91016 0.66016-0.12891 0.39453 0.011719 0.82812 0.34766 1.0703l3.5391 2.5586-1.3594 4.1523c-0.12891 0.39453 0.011719 0.82812 0.34766 1.0703 0.16797 0.12109 0.36328 0.18359 0.5625 0.18359 0.19531 0 0.39453-0.0625 0.5625-0.18359l3.5273-2.5742 3.5273 2.5742c0.33594 0.24219 0.78906 0.24609 1.125 0 0.33594-0.24219 0.47656-0.67578 0.34766-1.0703l-1.3594-4.1523 3.5391-2.5586c0.33594-0.24219 0.47656-0.67578 0.34766-1.0703s-0.49609-0.66016-0.91016-0.66016zm-4.6641 3.1523c-0.33594 0.24219-0.47656 0.67578-0.34766 1.0703l0.65234 1.9961-1.6992-1.2383c-0.33594-0.24609-0.78906-0.24609-1.1289 0l-1.6992 1.2383 0.65234-1.9961c0.12891-0.39453-0.011719-0.82812-0.34766-1.0703l-1.7031-1.2305 2.1016 0.003906h0.003906c0.41406 0 0.78125-0.26953 0.91016-0.66406l0.64453-2 0.64453 2c0.12891 0.39453 0.49609 0.66406 0.91016 0.66406h0.003906l2.1016-0.003906-1.7031 1.2305zm21.781 35.504c0.003906-0.015625 0.011719-0.027344 0.015625-0.042969s0.007813-0.03125 0.011719-0.050781c0.003906-0.011719 0.007812-0.027344 0.007812-0.039063 0.003906-0.015625 0.007813-0.035156 0.007813-0.050781 0.003906-0.015625 0.003906-0.027344 0.003906-0.039062 0.003906-0.015626 0.003906-0.03125 0.003906-0.050782v-0.046875-0.042969c0-0.015624-0.003906-0.035156-0.003906-0.050781 0-0.011719-0.003906-0.027343-0.003906-0.039062-0.003907-0.019531-0.003907-0.035157-0.007813-0.054688-0.003906-0.011719-0.007812-0.023437-0.007812-0.035156-0.003906-0.019531-0.007813-0.035156-0.015625-0.054687-0.003907-0.011719-0.007813-0.027344-0.015625-0.039063-0.007813-0.015625-0.011719-0.03125-0.019532-0.046875-0.007812-0.015625-0.015624-0.03125-0.019531-0.046875-0.003906-0.011719-0.007812-0.019531-0.015625-0.03125l-10.395-19.828 4.3047-1.5664c1.6406-0.59766 2.6094-2.2773 2.3086-3.9961l-0.96875-5.4883 2.7852-4.8242c0.87109-1.5117 0.53516-3.4219-0.80078-4.5469l-4.2695-3.582-0.96875-5.4844c-0.30469-1.7188-1.7891-2.9688-3.5352-2.9688h-5.5703l-4.2695-3.582c-1.3359-1.1211-3.2773-1.1211-4.6133 0l-4.2695 3.582h-5.5703c-1.7461 0-3.2305 1.2461-3.5352 2.9688l-0.96875 5.4883-4.2695 3.582c-1.3359 1.1211-1.6758 3.0312-0.80078 4.5469l2.7852 4.8242-0.96875 5.4883c-0.30469 1.7188 0.66797 3.3984 2.3086 3.9961l4.3047 1.5664-10.395 19.828c-0.003906 0.011719-0.007812 0.019531-0.015624 0.03125-0.007813 0.015625-0.015626 0.03125-0.019532 0.046875-0.007812 0.015625-0.011718 0.03125-0.019531 0.046875-0.003906 0.011719-0.007813 0.027344-0.015625 0.039063-0.003906 0.019531-0.011719 0.035156-0.015625 0.054687-0.003906 0.011719-0.007813 0.023438-0.007813 0.035157-0.003906 0.019531-0.007812 0.035156-0.007812 0.054687-0.003906 0.011719-0.003906 0.027344-0.003906 0.039063-0.003906 0.015624-0.003906 0.035156-0.003906 0.050781v0.042969 0.046874c0 0.015626 0.003906 0.03125 0.003906 0.050782 0 0.015625 0.003906 0.027344 0.003906 0.039062 0.003906 0.015625 0.003906 0.035156 0.007812 0.050782 0.003907 0.011718 0.007813 0.027343 0.007813 0.039062 0.003906 0.015625 0.007813 0.03125 0.011719 0.050781 0.003906 0.015625 0.011718 0.03125 0.015625 0.042969 0.003906 0.015625 0.011719 0.027344 0.015625 0.042969 0.007812 0.019531 0.015625 0.035156 0.023437 0.054687 0.003907 0.007813 0.007813 0.015625 0.011719 0.023438 0 0.003906 0.003906 0.003906 0.003906 0.007812 0.011719 0.019532 0.023438 0.039063 0.03125 0.058594 0.003906 0.007812 0.011719 0.015625 0.015625 0.023438 0.011719 0.019531 0.023438 0.035156 0.039063 0.050781 0.007812 0.007812 0.011718 0.015625 0.019531 0.023437 0.011719 0.015625 0.023437 0.027344 0.039063 0.042969 0.007812 0.007813 0.015624 0.019531 0.023437 0.027344 0.011719 0.011719 0.023437 0.023437 0.035156 0.03125 0.011719 0.011719 0.023438 0.019531 0.035157 0.03125 0.011718 0.007812 0.023437 0.015625 0.03125 0.023437 0.015624 0.011719 0.027343 0.023438 0.042968 0.03125 0.011719 0.007813 0.023438 0.011719 0.03125 0.019532 0.015625 0.011718 0.03125 0.019531 0.050782 0.027343 0.003906 0 0.003906 0.003907 0.007812 0.003907 0.007812 0.003906 0.015625 0.007812 0.019531 0.007812 0.023438 0.011719 0.046875 0.023438 0.070313 0.03125 0.011718 0.003906 0.023437 0.011719 0.035156 0.015625 0.019531 0.007813 0.042969 0.015625 0.066406 0.019531 0.011719 0.003906 0.023438 0.007813 0.039063 0.011719 0.03125 0.007813 0.058593 0.011719 0.089843 0.015625 0.007813 0 0.011719 0.003906 0.019532 0.003906 0.03125 0.003906 0.0625 0.003906 0.097656 0.007813h0.007812 0.015626c0.03125 0 0.0625-0.003907 0.097656-0.007813 0.007812 0 0.015625-0.003906 0.027344-0.003906 0.074218-0.011719 0.15234-0.03125 0.22656-0.0625 0.011719-0.003906 0.019531-0.007812 0.03125-0.015625 0.015625-0.007813 0.027344-0.011719 0.042969-0.019531l6.1172-3.1406 0.89453 6.8164s0.003906 0.007813 0.003906 0.011719c0.007812 0.054687 0.019531 0.10547 0.035156 0.15625 0.003906 0.007812 0.003906 0.011718 0.007812 0.019531 0.015626 0.050781 0.035157 0.097656 0.0625 0.14453 0.003907 0.003906 0.003907 0.007813 0.003907 0.007813 0.023437 0.046875 0.054687 0.089843 0.085937 0.12891l0.007813 0.007813c0.03125 0.039062 0.070312 0.078124 0.10938 0.11328 0.003906 0.003906 0.007812 0.007812 0.015625 0.011719 0.035156 0.03125 0.078125 0.0625 0.12109 0.085937 0.007813 0.003906 0.015626 0.007813 0.023438 0.015625 0.011719 0.007812 0.023438 0.015625 0.035156 0.019531 0.03125 0.015625 0.0625 0.03125 0.09375 0.042969 0.003906 0.003906 0.007813 0.003906 0.011719 0.003906 0.046875 0.019532 0.097656 0.03125 0.14453 0.039063 0.011719 0.003906 0.023438 0.003906 0.039063 0.007812 0.050781 0.007813 0.10156 0.015625 0.15234 0.015625h0.015626c0.035156 0 0.074218-0.003906 0.10937-0.007812h0.003907 0.007812c0.035157-0.003906 0.074219-0.011719 0.10938-0.023438 0.007813-0.003906 0.019532-0.003906 0.027344-0.007812 0.03125-0.007813 0.058594-0.019532 0.089844-0.03125 0.007812-0.003906 0.015625-0.007813 0.023437-0.007813 0.035157-0.015625 0.070313-0.03125 0.10547-0.054687 0.003906 0 0.003906-0.003906 0.003906-0.003906 0.03125-0.019532 0.0625-0.039063 0.089844-0.0625 0.007812-0.007813 0.019531-0.015626 0.027344-0.023438 0.023437-0.019531 0.046875-0.039062 0.066406-0.058594 0.007812-0.007812 0.015625-0.011718 0.019531-0.019531 0.027344-0.027344 0.050781-0.054687 0.070313-0.085937 0.007812-0.007813 0.011718-0.019532 0.019531-0.027344 0.019531-0.027344 0.035156-0.054688 0.050781-0.085938 0.003906-0.003906 0.007813-0.007812 0.007813-0.015625l9.9336-18.949 3.6602-1.332 3.6602 1.332 9.9336 18.949c0.003906 0.003907 0.007812 0.011719 0.007812 0.015625 0.015625 0.027344 0.03125 0.054688 0.050781 0.082032 0.007813 0.007812 0.011719 0.019531 0.019532 0.027343 0.023437 0.03125 0.046875 0.058594 0.070312 0.085938 0.007813 0.007812 0.015625 0.011719 0.019532 0.019531 0.019531 0.019531 0.042968 0.039062 0.066406 0.058594 0.007812 0.007812 0.019531 0.015625 0.027344 0.023437 0.027343 0.023438 0.058593 0.042969 0.089843 0.0625l0.003907 0.003907c0.035156 0.019531 0.070312 0.039062 0.10547 0.054687 0.007813 0.003906 0.015625 0.007813 0.023438 0.007813 0.027344 0.011718 0.058594 0.023437 0.089844 0.03125 0.007812 0.003906 0.019531 0.003906 0.027343 0.007812 0.035157 0.007812 0.070313 0.015625 0.10938 0.023438h0.007813 0.003906c0.035156 0.003906 0.074219 0.007812 0.10938 0.007812h0.015625c0.050781 0 0.10156-0.007812 0.15234-0.015625 0.011719-0.003906 0.027343-0.003906 0.039062-0.007813 0.050781-0.011718 0.097657-0.023437 0.14453-0.039062 0.003907-0.003906 0.007813-0.003906 0.011719-0.003906 0.03125-0.011719 0.0625-0.027344 0.09375-0.042969 0.011719-0.007813 0.023438-0.015625 0.035157-0.019531 0.007812-0.003906 0.015624-0.007813 0.023437-0.015625 0.042969-0.027344 0.082031-0.054688 0.12109-0.085938 0.003906-0.003906 0.007812-0.007812 0.015625-0.011719 0.039062-0.035156 0.074218-0.070312 0.10938-0.11328l0.007812-0.007812c0.03125-0.039063 0.0625-0.085938 0.085938-0.12891 0.003906-0.003906 0.003906-0.007812 0.003906-0.007812 0.023437-0.046875 0.046875-0.09375 0.0625-0.14453 0.003906-0.007813 0.003906-0.011719 0.007813-0.019531 0.015624-0.050782 0.027343-0.10547 0.035156-0.15625 0-0.003907 0.003906-0.007813 0.003906-0.011719l0.89453-6.8164 6.1172 3.1406c0.015625 0.007812 0.027343 0.011718 0.042969 0.019531 0.011718 0.003906 0.019531 0.007812 0.027343 0.011719 0.074219 0.03125 0.15234 0.050781 0.22656 0.0625 0.007812 0 0.015625 0.003906 0.019531 0.003906 0.035156 0.003906 0.070313 0.007812 0.10547 0.007812h0.011718 0.007813c0.070313 0 0.14062-0.007812 0.21094-0.023437 0.011719-0.003907 0.019532-0.003907 0.03125-0.007813 0.023438-0.007812 0.050782-0.015625 0.074219-0.023437 0.011719-0.003907 0.019531-0.007813 0.03125-0.011719 0.027344-0.011719 0.050781-0.023438 0.078125-0.035156 0.003906-0.003906 0.011719-0.003906 0.015625-0.007813 0.003907 0 0.003907-0.003906 0.007813-0.003906 0.019531-0.011719 0.039062-0.023437 0.054687-0.03125 0.007813-0.003906 0.015625-0.011719 0.027344-0.015625 0.015625-0.011719 0.03125-0.023438 0.050781-0.035156 0.007813-0.007813 0.019532-0.011719 0.027344-0.019532 0.011719-0.011718 0.027344-0.023437 0.039062-0.035156 0.011719-0.011718 0.023438-0.019531 0.03125-0.027344 0.007813-0.007812 0.019532-0.019531 0.027344-0.027343 0.011719-0.015625 0.023438-0.027344 0.035156-0.039063 0.007813-0.007812 0.011719-0.015625 0.019532-0.027344 0.011718-0.015624 0.027344-0.035156 0.035156-0.050781 0.003906-0.007812 0.011719-0.015625 0.015625-0.023437 0.011719-0.019532 0.023437-0.039063 0.03125-0.058594 0-0.003906 0.003906-0.003906 0.003906-0.007812 0.003907-0.007813 0.007813-0.015626 0.011719-0.023438 0.007812-0.019531 0.015625-0.035156 0.023438-0.054688 0.007812-0.015624 0.011718-0.027343 0.015624-0.042968zm-7.5195-4.7891-4.6641-8.9023c-0.24609-0.46875-0.82422-0.64844-1.2891-0.40234-0.46875 0.24609-0.64844 0.82422-0.40234 1.2891l4.6641 8.9023-0.64062 4.8711-7.6562-14.605c1.3359 0.089844 2.6445-0.57422 3.3438-1.7852l2.2344-3.8711 8.7812 16.75-4.3711-2.2422zm-30.102 5.7578-0.64062-4.8711 4.6641-8.9023c0.24609-0.46875 0.066406-1.0469-0.40234-1.2891-0.46875-0.24609-1.0469-0.066406-1.2891 0.40234l-4.6641 8.9023-4.3711 2.2422 8.7812-16.75 2.2344 3.8711c0.65625 1.1406 1.8555 1.7969 3.1055 1.7969 0.078125 0 0.16016-0.003907 0.23828-0.011719l-7.6562 14.605zm14.062-18.676h-0.003906c-0.058594-0.011718-0.11719-0.015624-0.17578-0.015624-0.058594 0-0.11719 0.003906-0.17578 0.015624h-0.003907c-0.050781 0.011719-0.10547 0.023438-0.15234 0.042969l-5.5586 2.0234c-0.78125 0.28125-1.6133-0.019531-2.0273-0.73828l-2.957-5.1211c-0.027344-0.050782-0.0625-0.097656-0.097657-0.14062-0.042968-0.054688-0.09375-0.10156-0.14844-0.14062h-0.003906c-0.023438-0.019532-0.046875-0.035156-0.074219-0.050782-0.058594-0.035156-0.12109-0.066406-0.1875-0.089843l-5.5547-2.0234c-0.77734-0.28516-1.2227-1.0508-1.0781-1.8672l1.0273-5.8242c0.011719-0.058594 0.015625-0.11719 0.015625-0.17969 0-0.046876-0.003906-0.09375-0.011718-0.14063-0.011719-0.0625-0.027344-0.125-0.050782-0.1875-0.019531-0.050781-0.042968-0.097656-0.070312-0.14453l-2.957-5.1211c-0.41406-0.71875-0.26172-1.5898 0.375-2.125l4.5312-3.8008c0.035157-0.03125 0.070313-0.0625 0.10156-0.097656 0.050781-0.054688 0.09375-0.11719 0.12891-0.17969 0.023438-0.042968 0.042969-0.085937 0.058594-0.12891 0.019531-0.054687 0.035156-0.10938 0.042969-0.16406l1.0273-5.8242c0.14453-0.81641 0.82422-1.3867 1.6523-1.3867h5.9141c0.054687 0 0.11719-0.003906 0.17578-0.015625s0.11328-0.027343 0.16797-0.046875c0.050781-0.019531 0.10156-0.042968 0.14844-0.070312h0.003907c0.046874-0.027344 0.09375-0.058594 0.13281-0.09375l4.5312-3.8008c0.63672-0.53125 1.5234-0.53125 2.1562 0l4.5312 3.8008c0.039062 0.035156 0.085938 0.066406 0.13281 0.09375 0.0625 0.035156 0.125 0.066406 0.19141 0.085937 0.039062 0.011719 0.074219 0.023438 0.11328 0.03125 0.0625 0.011719 0.12109 0.015625 0.1875 0.015625h5.9141c0.82813 0 1.5078 0.57031 1.6523 1.3867l1.0273 5.8242c0.007812 0.054687 0.023438 0.10938 0.042969 0.16406 0.023437 0.0625 0.050781 0.12109 0.085937 0.17578 0.019532 0.03125 0.039063 0.0625 0.0625 0.089843 0.042969 0.054688 0.089844 0.10156 0.14062 0.14453l4.5273 3.8008c0.63672 0.53125 0.78906 1.4062 0.375 2.125l-2.957 5.1211c-0.027344 0.046874-0.050782 0.097656-0.070313 0.15234-0.023437 0.058594-0.039062 0.12109-0.046875 0.18359-0.007812 0.042969-0.011718 0.085937-0.011718 0.12891 0 0.066407 0.003906 0.12891 0.015624 0.19141l1.0273 5.8242c0.14453 0.81641-0.30078 1.5859-1.0781 1.8672l-5.5586 2.0234c-0.046876 0.015625-0.09375 0.039063-0.14063 0.0625-0.0625 0.035157-0.12109 0.074219-0.17578 0.12109-0.03125 0.027344-0.058593 0.058594-0.085937 0.089844-0.039063 0.046875-0.074219 0.097656-0.10547 0.15234l-2.957 5.1211c-0.41406 0.71875-1.2461 1.0195-2.0273 0.73828l-5.5547-2.0234c-0.050781-0.019531-0.10156-0.03125-0.15625-0.042969zm55.324-11.215-2.9883-3.5352c0.89453-1.0195 1.4375-2.2891 1.5508-3.6641 0.14062-1.6953-0.38672-3.3477-1.4883-4.6484-1.1016-1.3008-2.6406-2.0938-4.3398-2.2344-1.375-0.11328-2.7188 0.21094-3.8711 0.92187l-2.9648-3.5039c-0.51562-0.60938-1.2383-0.98047-2.0352-1.0469-0.80078-0.066406-1.5742 0.17969-2.1836 0.69531-1.2617 1.0664-1.418 2.9609-0.35156 4.2188l0.60156 0.71094-10.055 12.809c-0.31641-0.12109-0.6875-0.070313-0.96484 0.16016l-5.7227 4.8398c-1.3984 1.1836-1.5742 3.2852-0.39062 4.6836l5.0078 5.918c0.65625 0.77344 1.5938 1.1758 2.5391 1.1758 0.75781 0 1.5195-0.25781 2.1445-0.78516l0.22656-0.19141 7.6641 9.0547c0.53906 0.63672 1.293 1.0234 2.1289 1.0938 0.089843 0.007812 0.17969 0.011718 0.26562 0.011718 0.73828 0 1.4453-0.25781 2.0117-0.73828 0.63672-0.53906 1.0234-1.293 1.0938-2.1289 0.070313-0.83594-0.1875-1.6445-0.72656-2.2773l-7.6641-9.0547 0.72266-0.60938c0.27734-0.23438 0.38672-0.58984 0.32031-0.92188l14.297-7.8008 0.60156 0.71094c0.51563 0.60938 1.2383 0.98047 2.0352 1.0469 0.085937 0.007813 0.17188 0.011719 0.25391 0.011719 0.70703 0 1.3828-0.24609 1.9258-0.70703 0.60938-0.51562 0.98047-1.2383 1.0469-2.0352 0.066407-0.80078-0.17969-1.5742-0.69531-2.1836zm-7.4219-12.176c1.1875 0.097656 2.2656 0.65625 3.0352 1.5664 0.76953 0.91016 1.1406 2.0664 1.0391 3.2539-0.070313 0.86328-0.38672 1.668-0.90234 2.3398l-5.6328-6.6562c0.74609-0.39844 1.5938-0.57422 2.457-0.50391zm-21.309 27.27-5.0078-5.918c-0.50391-0.59375-0.42969-1.4844 0.16406-1.9883l4.9922-4.2227 6.8281 8.0703-2.5039 2.1172-1.5312 1.2969-0.95312 0.80859c-0.59375 0.50391-1.4844 0.42969-1.9883-0.16406zm6.7617-1.3672 7.6641 9.0547c0.20703 0.24609 0.30859 0.55859 0.28125 0.88281-0.027344 0.32422-0.17578 0.61719-0.42188 0.82422-0.24609 0.20703-0.55859 0.30859-0.88281 0.28125s-0.61719-0.17578-0.82422-0.42188l-7.6641-9.0547 0.84766-0.71484 1.0078-0.85156zm1.3438-4.3164-6.1641-7.2852 9.9844-12.715 10.375 12.262-14.191 7.7422zm19.418-7.3867c-0.023438 0.28906-0.15625 0.55078-0.37891 0.73438-0.21875 0.18359-0.49609 0.27344-0.78906 0.25-0.28906-0.023437-0.55078-0.15625-0.73438-0.37891l-1.1055-1.3047-11.887-14.047-0.007812-0.007812-1.1016-1.3047c-0.38672-0.45312-0.32813-1.1406 0.12891-1.5234 0.19531-0.16406 0.4375-0.25391 0.69531-0.25391 0.03125 0 0.0625 0 0.09375 0.003906 0.28906 0.023437 0.55078 0.15625 0.73438 0.37891l3.5352 4.1797 7 8.2695 3.5625 4.207c0.18359 0.21875 0.27344 0.5 0.25 0.78906z"/>
<text x="0.0" y="117.5" font-size="5.0" font-weight="bold" font-family="Arbeit Regular, Helvetica, Arial-Unicode, Arial, Sans-serif" fill="#000000">Created by imnurull2305</text><text x="0.0" y="122.5" font-size="5.0" font-weight="bold" font-family="Arbeit Regular, Helvetica, Arial-Unicode, Arial, Sans-serif" fill="#000000">from Noun Project</text></svg>