<svg xmlns="http://www.w3.org/2000/svg" version="1.1" viewBox="-5.0 -10.0 110.0 135.0">
 <path d="m23.816 59.559c-1.6016 0-2.9062 1.3047-2.9062 2.9062 0 1.6016 1.3047 2.9062 2.9062 2.9062 1.6016 0 2.9062-1.3047 2.9062-2.9062 0-1.6016-1.3047-2.9062-2.9062-2.9062zm0 4.8516c-1.0742 0-1.9492-0.875-1.9492-1.9492 0-1.0742 0.875-1.9492 1.9492-1.9492 1.0742 0 1.9492 0.875 1.9492 1.9492 0 1.0742-0.875 1.9492-1.9492 1.9492zm-7.1758-16.477c0.089844 0.13672 0.23828 0.21875 0.40234 0.21875h4.8164c0.26562 0 0.48047-0.21484 0.48047-0.48047v-8.2344c0-0.019531-0.007813-0.035156-0.011719-0.050781-0.003906-0.03125-0.007813-0.058594-0.019531-0.089844-0.007813-0.03125-0.019532-0.058594-0.035156-0.085937-0.015626-0.027344-0.03125-0.050782-0.050782-0.074219-0.019531-0.023438-0.039062-0.046875-0.066406-0.066407-0.023438-0.019531-0.046875-0.035156-0.074219-0.050781-0.027343-0.015625-0.058593-0.027343-0.089843-0.035156-0.015626-0.003906-0.027344-0.015625-0.046876-0.019531-0.039062-0.007813-0.91797-0.17578-1.2812 0.33203-0.91406 1.2695-3.9375 7.8906-4.0664 8.1719-0.066406 0.14844-0.054687 0.32031 0.03125 0.45703zm4.7422-7.9688v7.2344h-3.5938c1.1055-2.4023 2.9102-6.2031 3.5938-7.2344zm2.5508 8.1914h8.0156c0.26172 0 0.47656-0.21094 0.48047-0.47266l0.125-8.2344c0-0.12891-0.046876-0.25-0.13672-0.34375-0.089844-0.089844-0.21094-0.14453-0.33984-0.14453h-8.1406c-0.26562 0-0.48047 0.21484-0.48047 0.48047v8.2344c0 0.26562 0.21484 0.48047 0.48047 0.48047zm7.543-0.96094h-7.0664v-7.2773h7.1758zm35.836 12.363c-1.6016 0-2.9062 1.3047-2.9062 2.9062 0 1.6016 1.3047 2.9062 2.9062 2.9062s2.9062-1.3047 2.9062-2.9062c0-1.6016-1.3047-2.9062-2.9062-2.9062zm0 4.8516c-1.0742 0-1.9492-0.875-1.9492-1.9492 0-1.0742 0.875-1.9492 1.9492-1.9492s1.9492 0.875 1.9492 1.9492c0 1.0742-0.875 1.9492-1.9492 1.9492zm-23.191-28.809v16.969c0 0.26563-0.21484 0.48047-0.48047 0.48047s-0.48047-0.21484-0.48047-0.48047v-16.969c0-0.26562 0.21484-0.48047 0.48047-0.48047s0.48047 0.21484 0.48047 0.48047zm7.6211 0v16.969c0 0.26563-0.21484 0.48047-0.48047 0.48047s-0.48047-0.21484-0.48047-0.48047v-16.969c0-0.26562 0.21484-0.48047 0.48047-0.48047s0.48047 0.21484 0.48047 0.48047zm7.625 0v16.016c0 0.26562-0.21484 0.48047-0.48047 0.48047s-0.48047-0.21484-0.48047-0.48047v-16.016c0-0.26562 0.21484-0.48047 0.48047-0.48047s0.48047 0.21484 0.48047 0.48047zm7.6211 0v16.969c0 0.26563-0.21484 0.48047-0.48047 0.48047-0.26562 0-0.48047-0.21484-0.48047-0.48047v-16.969c0-0.26562 0.21484-0.48047 0.48047-0.48047 0.26563 0 0.48047 0.21484 0.48047 0.48047zm7.625 0v16.969c0 0.26563-0.21484 0.48047-0.48047 0.48047-0.26562 0-0.48047-0.21484-0.48047-0.48047v-16.969c0-0.26562 0.21484-0.48047 0.48047-0.48047 0.26563 0 0.48047 0.21484 0.48047 0.48047zm11.281 1.2109c0.26562 0 0.48047-0.21484 0.48047-0.48047s-0.21484-0.48047-0.48047-0.48047h-3.707v-3.3672c0-1.043-0.90234-1.8906-2.0078-1.8906h-42.75c-1.1055 0-2.0078 0.84766-2.0078 1.8906v2.9023h-14.867c-0.76172 0-1.4258 0.37891-1.7773 1.0117l-7.1836 12.91c-0.15625 0.28125-0.23047 0.5625-0.23047 0.87891v5.75c-0.042969 0.015625-0.10547 0.03125-0.15234 0.039062-0.21484 0.050782-0.78906 0.19141-0.78906 0.78906v3.6914c0 1.5312 1.1289 2.4844 2.9492 2.4844h3.5273c0.24609 3.6055 3.25 6.4609 6.918 6.4609 3.6641 0 6.668-2.8594 6.918-6.4609h29.664c0.24609 3.6055 3.25 6.4609 6.918 6.4609 3.6641 0 6.668-2.8594 6.918-6.4609h5.9453c1.1055 0 2.0078-0.84766 2.0078-1.8906v-24.238zm-62.078 31.633c-3.3008 0-5.9844-2.6836-5.9844-5.9844 0-3.3008 2.6836-5.9844 5.9844-5.9844 3.3008 0 5.9844 2.6836 5.9844 5.9844 0 3.3008-2.6836 5.9844-5.9844 5.9844zm11.602-6.4609h-4.6875c-0.24609-3.6055-3.25-6.4609-6.918-6.4609-3.6641 0-6.668 2.8594-6.918 6.4609h-3.5273c-0.91016 0-1.9922-0.26562-1.9922-1.5273v-3.5352c0.019531-0.003906 0.039062-0.007813 0.054688-0.015625 0.24219-0.058594 0.88672-0.21484 0.88672-0.92188v-5.7969c0-0.15625 0.03125-0.27344 0.10938-0.41406l7.1836-12.91c0.18359-0.33203 0.52734-0.51953 0.94141-0.51953h14.867zm31.895 6.4609c-3.3008 0-5.9844-2.6836-5.9844-5.9844 0-3.2969 2.6836-5.9844 5.9844-5.9844s5.9844 2.6836 5.9844 5.9844c0 3.3008-2.6836 5.9844-5.9844 5.9844zm13.914-7.3945c0 0.51562-0.47266 0.93359-1.0508 0.93359h-5.9453c-0.24609-3.6055-3.25-6.4609-6.918-6.4609-3.6641 0-6.668 2.8594-6.918 6.4609h-24.02v-29.496c0-0.51562 0.47266-0.93359 1.0508-0.93359h42.75c0.57812 0 1.0508 0.41797 1.0508 0.93359v3.3672h-1.75c-0.26562 0-0.48047 0.21484-0.48047 0.48047 0 0.26562 0.21484 0.48047 0.48047 0.48047h1.75v24.238zm8.3555-20.855c0 0.26563-0.21484 0.48047-0.48047 0.48047h-5.8047c-0.26562 0-0.48047-0.21484-0.48047-0.48047 0-0.26562 0.21484-0.48047 0.48047-0.48047h5.8047c0.26563 0 0.48047 0.21484 0.48047 0.48047zm-6.918-6.9375c0-0.26562 0.21484-0.48047 0.48047-0.48047h5.8047c0.26562 0 0.48047 0.21484 0.48047 0.48047 0 0.26563-0.21484 0.48047-0.48047 0.48047h-5.8047c-0.26562 0-0.48047-0.21484-0.48047-0.48047z"/>
<text x="0.0" y="117.5" font-size="5.0" font-weight="bold" font-family="Arbeit Regular, Helvetica, Arial-Unicode, Arial, Sans-serif" fill="#000000">Created by Arfan Haq</text><text x="0.0" y="122.5" font-size="5.0" font-weight="bold" font-family="Arbeit Regular, Helvetica, Arial-Unicode, Arial, Sans-serif" fill="#000000">from Noun Project</text></svg>