<svg xmlns="http://www.w3.org/2000/svg" version="1.1" viewBox="-5.0 -10.0 110.0 135.0">
 <path d="m39.539 29.879v-6.1914c0-0.82812 0.67188-1.5 1.5-1.5 0.82813 0 1.5 0.67188 1.5 1.5v6.1914c0 0.82812-0.67187 1.5-1.5 1.5-0.82812 0-1.5-0.66797-1.5-1.5zm-9.2695 2.3516c0.28125 0.48047 0.78125 0.75 1.3008 0.75 0.25 0 0.51172-0.058594 0.75-0.19922 0.71875-0.41016 0.96094-1.3281 0.55078-2.0508l-3.0898-5.3594c-0.41016-0.71875-1.3281-0.96094-2.0508-0.55078-0.71875 0.41016-0.96094 1.3281-0.55078 2.0508zm19.492 0.55078c0.23828 0.14062 0.48828 0.19922 0.75 0.19922 0.51953 0 1.0195-0.26953 1.3008-0.75l3.0898-5.3594c0.41016-0.71875 0.17188-1.6289-0.55078-2.0508-0.71875-0.41016-1.6289-0.17187-2.0508 0.55078l-3.0898 5.3594c-0.42188 0.71094-0.17188 1.6289 0.55078 2.0508zm30.129 16.949c-7.3594 0-13.352-5.9805-13.352-13.34s5.9883-13.352 13.352-13.352c7.3594 0 13.34 5.9883 13.34 13.352 0 7.3477-5.9805 13.34-13.34 13.34zm0-3c5.6992 0 10.34-4.6406 10.34-10.34 0-5.7109-4.6406-10.352-10.34-10.352-5.7109 0-10.352 4.6406-10.352 10.352 0 5.6992 4.6523 10.34 10.352 10.34zm18.109 9.8711v1.8789c0 1.4102-0.57031 2.6797-1.5 3.6094 0.92188 0.92188 1.4805 2.1914 1.4805 3.5898v1.8789c0 1.3984-0.57031 2.6719-1.4805 3.5898 0.92969 0.92187 1.5 2.1992 1.5 3.6094v1.8789c0 2.8086-2.2891 5.1016-5.1016 5.1016h-89.398c-0.46094 0-0.89844-0.21094-1.1797-0.57812-0.28125-0.35938-0.37891-0.83984-0.26953-1.2891l3.6406-14.539c0.17188-0.67188 0.76953-1.1406 1.4492-1.1406h7.7109l3.3516-13.41c0.17188-0.67188 0.76953-1.1406 1.4492-1.1406h7.7109l3.3516-13.398c0.17188-0.67188 0.76953-1.1406 1.4492-1.1406h17.762c0.69141 0 1.2891 0.46875 1.4492 1.1406l3.3516 13.398h7.7109c0.69141 0 1.2891 0.46875 1.4492 1.1289l0.35938 1.4492c0.76953-0.46875 1.6719-0.73047 2.6289-0.73047h3.0508c-4.8984-3.2383-8.1406-8.8086-8.1406-15.109 0-9.9883 8.1289-18.109 18.109-18.109 9.9844 0 18.105 8.1289 18.105 18.121 0 6.3086-3.2383 11.871-8.1406 15.109h3.0391c2.8125 0 5.1016 2.2891 5.1016 5.1016zm-18.109-5.1016c8.3281 0 15.109-6.7812 15.109-15.109s-6.7812-15.121-15.109-15.121-15.121 6.7812-15.121 15.121c0.011719 8.3281 6.7891 15.109 15.121 15.109zm10.828 16.531v1.6211h2.1719c1.1484 0 2.0898-0.94141 2.0898-2.0898v-1.8789c0-1.1602-0.94141-2.1016-2.0898-2.1016l-26-0.003906c-1.1484 0-2.0898 0.94141-2.0898 2.1016v1.8789c0 1.1484 0.94141 2.0898 2.0898 2.0898h2.1719v-1.6211c0-0.82812 0.67188-1.5 1.5-1.5s1.5 0.67188 1.5 1.5v1.6211h3.2188v-1.6211c0-0.82812 0.67188-1.5 1.5-1.5s1.5 0.67188 1.5 1.5v1.6211h3.2305v-1.6211c0-0.82812 0.67188-1.5 1.5-1.5s1.5 0.67188 1.5 1.5v1.6211h3.2188v-1.6211c0-0.82812 0.67188-1.5 1.5-1.5 0.82031 0.003906 1.4883 0.67188 1.4883 1.5039zm-37.168-15.383h-7.7109l-2.8789 11.539h19.059c0.25-0.80078 0.67969-1.5195 1.2617-2.1016-0.92188-0.92188-1.5-2.1992-1.5-3.6094v-1.875c0-0.42969 0.050781-0.85156 0.16016-1.25l-0.67969-2.6992h-7.6094c-0.042969-0.011719-0.074219-0.003906-0.10156-0.003906zm-23.109-3.0078h6.9609c0.039062 0 0.078125 0 0.12891 0.011719h7.0195c0.039063 0 0.078125-0.011719 0.12891-0.011719h6.9609l-2.8789-11.539h-15.434zm8.8789 3.0078 1.7109 6.8594 1.7109-6.8594zm-21.391 11.543h21.191l-2.8789-11.539h-7.7109c-0.03125 0-0.058594 0-0.089844-0.011719h-7.6094zm8.6719 14.539-2.8789-11.539h-15.422l-2.8789 11.539zm3.6367-11.551h-3.4297l1.7109 6.8594zm21.391 11.551-2.8906-11.539h-15.422l-2.8906 11.539zm3.6406-11.551h-3.4297l1.7188 6.8594zm0.19922 11.551h6.7617c-0.28906-0.64062-0.44922-1.3516-0.44922-2.1016v-1.8789c0-1.4102 0.57031-2.6797 1.5-3.6094-0.92188-0.92188-1.4805-2.1914-1.4805-3.5898v-0.37109h-3.4414zm39.531-3.9805c0-1.1602-0.94141-2.1016-2.1016-2.1016h-26.02c-1.1602 0-2.1016 0.94141-2.1016 2.1016v1.8789c0 1.1602 0.94141 2.1016 2.1016 2.1016h2.1797v-1.6289c0-0.82812 0.67188-1.5 1.5-1.5s1.5 0.67188 1.5 1.5v1.6289h3.2305v-1.6289c0-0.82812 0.67188-1.5 1.5-1.5 0.82813 0 1.5 0.67188 1.5 1.5v1.6289h3.2305v-1.6289c0-0.82812 0.67188-1.5 1.5-1.5s1.5 0.67188 1.5 1.5v1.6289h3.2305v-1.6289c0-0.82812 0.67188-1.5 1.5-1.5s1.5 0.67188 1.5 1.5v1.6289h2.1797c1.1602 0 2.1016-0.94141 2.1016-2.1016v-1.8789zm0-18.148c0-1.1602-0.94141-2.1016-2.1016-2.1016h-26.02c-0.89844 0-1.6719 0.57031-1.9688 1.3711-0.011718 0.03125-0.019531 0.050781-0.03125 0.078125-0.070312 0.21094-0.10938 0.42969-0.10938 0.66016v1.8789c0 1.1602 0.94141 2.1016 2.1016 2.1016h2.1836v-1.6289c0-0.82813 0.67187-1.5 1.5-1.5 0.82812 0 1.5 0.67187 1.5 1.5v1.6289h3.2305v-1.6289c0-0.82813 0.67188-1.5 1.5-1.5s1.5 0.67187 1.5 1.5v1.6289h3.2305v-1.6289c0-0.82813 0.67188-1.5 1.5-1.5s1.5 0.67187 1.5 1.5v1.6289h3.2305v-1.6289c0-0.82813 0.67188-1.5 1.5-1.5s1.5 0.67187 1.5 1.5v1.6289h2.1836c1.1602 0 2.1016-0.94141 2.1016-2.1016l-0.011719-1.8867zm-13.422-12.75v-1.2383c1.3281-0.67188 2.25-2.0508 2.25-3.6406 0-2.0703-1.5391-3.7891-3.5586-4.0391-0.089843-0.019532-0.17969-0.03125-0.26953-0.039063-0.57031-0.019531-1.0391-0.5-1.0391-1.0703 0-0.58984 0.48828-1.0781 1.0781-1.0781h0.60156c0.26172 0 0.51172 0.10156 0.69922 0.26953 0.62109 0.55078 1.5703 0.48828 2.1211-0.12891 0.55078-0.62109 0.48828-1.5703-0.12891-2.1211-0.5-0.44141-1.1016-0.75-1.7383-0.89844v-0.92188c0-0.82812-0.67188-1.5-1.5-1.5s-1.5 0.67188-1.5 1.5l-0.003906 1.0547c-1.5312 0.58984-2.6289 2.0703-2.6289 3.8086 0 2.0898 1.5586 3.8086 3.6016 4.0391 0.078125 0.019532 0.16016 0.03125 0.23828 0.03125 0.57031 0.03125 1.0312 0.51172 1.0312 1.0781 0 0.58984-0.48047 1.0781-1.0781 1.0781h-0.60156c-0.26172 0-0.51172-0.10156-0.69922-0.26953-0.62109-0.55078-1.5703-0.48828-2.1211 0.12891-0.55078 0.62109-0.48828 1.5703 0.12891 2.1211 0.60156 0.53125 1.3398 0.85938 2.1211 0.96875v0.85156c0 0.82812 0.67188 1.5 1.5 1.5 0.82812 0.015624 1.4961-0.65625 1.4961-1.4844z"/>
<text x="0.0" y="117.5" font-size="5.0" font-weight="bold" font-family="Arbeit Regular, Helvetica, Arial-Unicode, Arial, Sans-serif" fill="#000000">Created by nangicon</text><text x="0.0" y="122.5" font-size="5.0" font-weight="bold" font-family="Arbeit Regular, Helvetica, Arial-Unicode, Arial, Sans-serif" fill="#000000">from Noun Project</text></svg>