<svg xmlns="http://www.w3.org/2000/svg" version="1.1" viewBox="-5.0 -10.0 110.0 135.0">
 <path d="m67.188 6.25h21.875v9.375h-3.125v16.617l7.0078 3.8906c0.49609 0.27734 0.80469 0.80078 0.80469 1.3672v9.375c0 0.55469-0.29297 1.0664-0.76953 1.3477-0.47656 0.28125-1.0664 0.28516-1.5508 0.019532l-2.3672-1.3164v37.449c2.5898 0 4.6875 2.0977 4.6875 4.6875s-2.0977 4.6875-4.6875 4.6875h-81.25c-0.86328 0-1.5625-0.69922-1.5625-1.5625v-6.25c0-0.86328 0.69922-1.5625 1.5625-1.5625h3.125v-37.449l-2.3672 1.3164c-0.48437 0.26562-1.0742 0.26172-1.5508-0.019532-0.47656-0.28125-0.76953-0.79297-0.76953-1.3477v-9.375c0-0.56641 0.30859-1.0898 0.80469-1.3672l41.43-23.016c0.94141-0.52344 2.0898-0.52344 3.0312 0l18.797 10.441v-7.9336h-3.125zm3.125 6.25h15.625v-3.125h-15.625zm3.125 3.125v9.375h-0.53125l9.9062 5.5039v-14.879zm-59.375 29.566v39.184h6.25v-26.562c0-0.86328 0.69922-1.5625 1.5625-1.5625h18.75c0.86328 0 1.5625 0.69922 1.5625 1.5625v26.562h24.273c1.082-1.8672 3.1016-3.125 5.4141-3.125 0.47266 0 0.93359 0.050781 1.375 0.15234 0.29297 0.066406 0.73047 0.058594 1.1797-0.070313 0.46094-0.12891 0.75781-0.32812 0.89062-0.48438 1.4336-1.6641 3.5586-2.7227 5.9297-2.7227 1.7578 0 3.3828 0.58203 4.6875 1.5625v-34.496l-35.938-19.965zm54.688 42.309c0-1.7266 1.3984-3.125 3.125-3.125 0.23828 0 0.46875 0.027344 0.69141 0.078125 0.87891 0.19531 1.8516 0.12891 2.7109-0.10938 0.85156-0.24219 1.7617-0.69922 2.4141-1.457 0.86328-1.0039 2.1367-1.6367 3.5586-1.6367 2.5898 0 4.6875 2.0977 4.6875 4.6875 0 1.3789 1.4102 2.1445 2.5273 1.6797 0.18359-0.074219 0.38281-0.11719 0.59766-0.11719 0.86328 0 1.5625 0.69922 1.5625 1.5625s-0.69922 1.5625-1.5625 1.5625h-17.188c-1.7266 0-3.125-1.3984-3.125-3.125zm-2.2891 3.125c-0.53125-0.91797-0.83594-1.9883-0.83594-3.125h-56.25v3.125zm-27.398-6.25v-25h-15.625v25zm-29.688-45.957v5.8008l39.109-21.727c0.94141-0.52344 2.0898-0.52344 3.0312 0l39.109 21.727v-5.8008l-40.625-22.566zm40.625-0.91797c-1.7266 0-3.125 1.3984-3.125 3.125s1.3984 3.125 3.125 3.125 3.125-1.3984 3.125-3.125-1.3984-3.125-3.125-3.125zm-6.25 3.125c0-3.4531 2.7969-6.25 6.25-6.25s6.25 2.7969 6.25 6.25-2.7969 6.25-6.25 6.25-6.25-2.7969-6.25-6.25zm10.938 15.625h25v18.75h-25zm3.125 3.125v4.6875h7.8125v-4.6875zm10.938 0v4.6875h7.8125v-4.6875zm7.8125 7.8125h-7.8125v4.6875h7.8125zm-10.938 4.6875v-4.6875h-7.8125v4.6875z" fill-rule="evenodd"/>
 <path d="m34.375 70.312c-0.86328 0-1.5625 0.69922-1.5625 1.5625s0.69922 1.5625 1.5625 1.5625h1.5625c0.86328 0 1.5625-0.69922 1.5625-1.5625s-0.69922-1.5625-1.5625-1.5625z"/>
<text x="0.0" y="117.5" font-size="5.0" font-weight="bold" font-family="Arbeit Regular, Helvetica, Arial-Unicode, Arial, Sans-serif" fill="#000000">Created by Kawalan Icon</text><text x="0.0" y="122.5" font-size="5.0" font-weight="bold" font-family="Arbeit Regular, Helvetica, Arial-Unicode, Arial, Sans-serif" fill="#000000">from Noun Project</text></svg>