<svg xmlns="http://www.w3.org/2000/svg" version="1.1" viewBox="-5.0 -10.0 110.0 135.0">
 <path d="m52.371 61.512v2.8086c0 0.82813-0.67188 1.5-1.5 1.5-0.37109 0-0.69922-0.12891-0.96094-0.35156l-13.422-9.8594c-0.67188-0.48828-0.80859-1.4219-0.32031-2.0898 0.089843-0.12891 0.21094-0.25 0.33984-0.33984l13.48-9.8984c0.66016-0.48828 1.6016-0.35156 2.0898 0.32031 0.19141 0.26953 0.28906 0.57813 0.28906 0.87891v2.8203h7.7305c3.7617 0 7.1914 1.5391 9.6719 4.0195l0.078125 0.089844c2.4297 2.4688 3.9414 5.8594 3.9414 9.5781 0 3.7617-1.5391 7.1914-4.0195 9.6719-2.4805 2.4805-5.9102 4.0195-9.6719 4.0195h-1.8281c-0.82812 0-1.5-0.67188-1.5-1.5 0-0.82813 0.67188-1.5 1.5-1.5h0.19141c1.3203-0.070313 2.5195-0.62891 3.4102-1.5195 0.91016-0.91016 1.4805-2.1719 1.4805-3.5586 0-1.3984-0.57031-2.6719-1.4883-3.5898l-0.070312-0.070313c-0.91016-0.87891-2.1602-1.4297-3.5195-1.4297zm-37.648-38.898h25.57l2.0703-16.109h-18.359zm28.59 0h13.379l-2.0703-16.109h-9.2383zm16.398 0h25.57l-9.2812-16.109h-18.359zm26.66 3h-26.488l0.011719 9.0898c0 0.82812-0.67188 1.5-1.5 1.5h-16.781c-0.82812 0-1.5-0.67188-1.5-1.5v-9.0898h-26.48v57.969h13.57c-0.64062-1.5703-0.98828-3.2891-0.98828-5.0781 0-3.7695 1.5391-7.1914 4.0195-9.6719l0.089844-0.078125c2.4805-2.4414 5.8711-3.9414 9.5898-3.9414h1.8203c0.82812 0 1.5 0.67188 1.5 1.5 0 0.82031-0.67188 1.5-1.5 1.5h-0.16016c-1.3398 0.058594-2.5508 0.62891-3.4414 1.5195-0.92187 0.92188-1.4805 2.1719-1.4805 3.5586 0 1.3906 0.57031 2.6719 1.4883 3.5898l0.070313 0.070312c0.91016 0.87891 2.1602 1.4219 3.5195 1.4219h5.8984v-2.8086c0-0.82812 0.67188-1.5 1.5-1.5 0.37109 0 0.69922 0.12891 0.96094 0.35156l13.031 9.5703h23.25zm-29.48 0h-13.781v7.5898h13.781zm-28.02 60.969h-16.738c-0.82812 0-1.5-0.67188-1.5-1.5v-60.969c0-0.32031 0.10156-0.62109 0.28125-0.87109l10.941-18.98c0.26953-0.48047 0.78125-0.75 1.2891-0.75l53.719-0.011719c0.60156 0 1.1289 0.35938 1.3594 0.87891l10.949 18.988c0.12891 0.23047 0.19922 0.48828 0.19922 0.73828v60.969c0 0.82812-0.67188 1.5-1.5 1.5h-24.75l-13.109 9.6289c-0.66016 0.48828-1.6016 0.33984-2.0898-0.32031-0.19141-0.26953-0.28906-0.57812-0.28906-0.89062v-2.8086h-7.7188c-3.7695 0-7.1992-1.5391-9.6797-4.0195l-0.078125-0.089843c-0.46094-0.46875-0.87891-0.96875-1.2812-1.5zm21.762-8.4609v1.3516c0 0.82812-0.67187 1.5-1.5 1.5h-7.3984c-2.1797 0-4.1602-0.87109-5.6211-2.2891l-0.089843-0.078125c-1.4609-1.4609-2.3711-3.4883-2.3711-5.7109 0-1.3008 0.30859-2.5312 0.87109-3.6211-0.76953 0.44922-1.4688 0.98828-2.0898 1.6016l-0.070313 0.078125c-1.9414 1.9414-3.1484 4.6094-3.1484 7.5508 0 2.9102 1.1797 5.5508 3.0703 7.4805l0.078125 0.070313c1.9297 1.9414 4.6094 3.1406 7.5508 3.1406h9.2188c0.82813 0 1.5 0.67188 1.5 1.5v1.3516l9.4688-6.9609-9.4688-6.9609zm-1.2617-16.762v-1.3516c0-0.82031 0.67188-1.5 1.5-1.5h7.3984c2.1797 0 4.1602 0.87891 5.6211 2.2891l0.089844 0.089844c1.4609 1.4609 2.3711 3.4805 2.3711 5.7109 0 1.2891-0.30859 2.5195-0.85156 3.6094 0.78125-0.46875 1.5-1.0312 2.1484-1.6719 1.9414-1.9414 3.1406-4.6094 3.1406-7.5508 0-2.9102-1.1719-5.5508-3.0703-7.4805l-0.070312-0.070312c-1.9414-1.9414-4.6094-3.1406-7.5508-3.1406h-9.2305c-0.82813 0-1.5-0.67969-1.5-1.5v-1.3594l-9.4688 6.9609 9.4688 6.9609z"/>
<text x="0.0" y="117.5" font-size="5.0" font-weight="bold" font-family="Arbeit Regular, Helvetica, Arial-Unicode, Arial, Sans-serif" fill="#000000">Created by Yuniarti Pahlevie</text><text x="0.0" y="122.5" font-size="5.0" font-weight="bold" font-family="Arbeit Regular, Helvetica, Arial-Unicode, Arial, Sans-serif" fill="#000000">from Noun Project</text></svg>