<svg xmlns="http://www.w3.org/2000/svg" version="1.1" viewBox="-5.0 -10.0 110.0 135.0">
 <path d="m40.477 4.7148c-2.1953 0-4.3633 0.49609-6.3438 1.4531-4.3945 2.1211-8.5273 4.7578-12.305 7.8555-1.7578-1.4609-4.3281-1.375-5.9844 0.19922-1.6602 1.5703-1.8789 4.1328-0.51562 5.9648-3.8477 4.2266-7.0898 8.9648-9.6328 14.078-1.8203 3.6562-2.0234 7.9062-0.5625 11.719 1.457 3.8125 4.4492 6.8398 8.2422 8.3438 3.793 1.5078 8.043 1.3555 11.723-0.41797 5.1367-2.4766 9.9102-5.6562 14.176-9.4453l18.258 18.512-0.125 0.125c-1.2773 1.2578-1.5352 3.2188-0.63281 4.7656 0.90625 1.543 2.7461 2.2773 4.4648 1.7812 3.8789 9.2109 11.145 16.578 20.301 20.582-0.52344 1.7148 0.1875 3.5625 1.7188 4.4883 1.5352 0.92969 3.5 0.69531 4.7734-0.56641l6.6328-6.5469 0.003907 0.003906c1.2734-1.2578 1.5352-3.2188 0.62891-4.7617-0.90234-1.5469-2.7383-2.2812-4.4609-1.7852-3.8789-9.2109-11.148-16.578-20.305-20.582 0.51953-1.7109-0.1875-3.5586-1.7188-4.4844-1.5312-0.92188-3.4961-0.69141-4.7695 0.5625l-0.13281 0.12891-18.391-18.645c3.1484-3.7461 5.8438-7.8516 8.0234-12.23 2.25-4.5234 2.0039-9.8906-0.65625-14.188-2.6641-4.2969-7.3555-6.9102-12.41-6.9102zm-0.078124 2.0859h0.15625c4.3125 0.039063 8.3008 2.293 10.555 5.9688s2.457 8.25 0.53516 12.109c-4.6094 9.2695-11.555 17.18-20.148 22.949 2.0469-3.6992 2.3867-8.1094 0.92969-12.078-1.4531-3.9727-4.5586-7.1172-8.5117-8.6211-3.957-1.5039-8.3672-1.2188-12.094 0.78516 5.875-8.5234 13.867-15.371 23.188-19.867 1.6836-0.8125 3.5234-1.2383 5.3906-1.2461zm-0.23438 2.0859h-0.003906c-1.4688 0.042969-2.918 0.39453-4.2422 1.0312l-0.003907 0.003906v0.003906c-2.0898 1.0078-4.1172 2.1406-6.0703 3.3945-0.24219 0.15625-0.3125 0.47656-0.15625 0.71875 0.15625 0.24609 0.48047 0.3125 0.72266 0.15625 1.918-1.2305 3.9102-2.3438 5.9648-3.332 2.6094-1.2578 5.6523-1.2422 8.2461 0.046875 0.25391 0.10547 0.54688 0 0.67188-0.24609 0.12109-0.24609 0.03125-0.54687-0.20703-0.68359-1.5273-0.76172-3.2148-1.1367-4.9219-1.0898zm-11.938 5.8008c-0.14453-0.007812-0.28516 0.042969-0.39062 0.14062-0.10156 0.10156-0.16016 0.23828-0.16016 0.37891-0.007812 0.14453 0.042969 0.28516 0.14062 0.38672 0.097656 0.10547 0.23438 0.16406 0.37891 0.16406 0.14063 0 0.27734-0.058593 0.37891-0.16406 0.097656-0.10156 0.14844-0.24219 0.14062-0.38672 0-0.27344-0.21484-0.5-0.48828-0.51953zm-9.3672 0.39062c0.45703-0.011719 0.90625 0.10156 1.3008 0.33203-1.168 1.0312-2.3008 2.1016-3.3867 3.2188-0.38672-0.74219-0.36328-1.6328 0.058593-2.3555 0.42578-0.71875 1.1914-1.1719 2.0273-1.1953zm-0.21875 13.18h-0.003906c3.3359-0.023437 6.5391 1.2852 8.9062 3.6328 2.3633 2.3477 3.6953 5.543 3.6953 8.8789 0.007813 3.3242-1.3047 6.5156-3.6523 8.8672-2.3477 2.3555-5.5352 3.6797-8.8594 3.6797-3.3242 0-6.5117-1.3242-8.8594-3.6797-2.3438-2.3516-3.6602-5.543-3.6484-8.8672 0-6.875 5.5469-12.461 12.418-12.512zm25.48 11.363 18.277 18.531-3.4062 3.3633-18.211-18.461-0.003906-0.003907c1.1602-1.0977 2.2734-2.2422 3.3438-3.4297zm22.688 17.895c0.73438 0.019531 1.3828 0.47656 1.6523 1.1602 0.26562 0.67969 0.10156 1.457-0.42188 1.9727l-6.6328 6.543v-0.003906c-0.72656 0.66797-1.8516 0.64453-2.543-0.058594-0.69141-0.70312-0.70312-1.8281-0.023437-2.543l6.6328-6.543 0.003906 0.003906c0.35156-0.35156 0.83594-0.54297 1.332-0.53125zm2.5625 4.7461c8.9023 3.8047 15.957 10.953 19.633 19.91l-6.3594 6.2773c-8.9062-3.8008-15.961-10.949-19.641-19.906zm0.125 5.8477v-0.003906c-0.16797-0.003907-0.33203 0.058593-0.45703 0.17969-0.12109 0.11719-0.1875 0.27734-0.1875 0.44922-0.003906 0.16406 0.0625 0.32422 0.17969 0.44531 0.11719 0.11719 0.27734 0.18359 0.44531 0.18359 0.16797 0 0.32813-0.066406 0.44531-0.18359 0.11719-0.12109 0.17969-0.28125 0.17969-0.44531 0-0.33984-0.26562-0.61719-0.60547-0.62891zm3.2695 3.3125c-0.17188-0.007813-0.33984 0.054687-0.46094 0.17188-0.125 0.11719-0.19531 0.28125-0.19531 0.45312 0 0.16797 0.0625 0.33203 0.17969 0.44922 0.11719 0.12109 0.28125 0.1875 0.44922 0.1875s0.32812-0.066406 0.44531-0.1875c0.11719-0.11719 0.18359-0.28125 0.17969-0.44922 0-0.33594-0.26562-0.61328-0.59766-0.625zm3.2656 3.3086h-0.003906c-0.16797-0.007813-0.33203 0.058593-0.45312 0.17578-0.12109 0.11719-0.19141 0.28125-0.19141 0.44922-0.011718 0.17188 0.050782 0.34375 0.16797 0.46875 0.11719 0.12891 0.28516 0.19922 0.45703 0.19922 0.17188 0 0.33984-0.070313 0.45703-0.19922 0.11719-0.125 0.17969-0.29688 0.16797-0.46875 0-0.33594-0.26562-0.60938-0.60156-0.625zm3.1914 3.293h-0.003906c-0.33203 0.027343-0.58594 0.3125-0.57422 0.64453-0.003906 0.16797 0.0625 0.33203 0.17969 0.45312 0.11719 0.11719 0.27734 0.1875 0.44922 0.1875 0.16797 0 0.32812-0.070313 0.44531-0.1875 0.11719-0.12109 0.18359-0.28516 0.17969-0.45312 0.003906-0.17578-0.066407-0.35156-0.19531-0.47266-0.12891-0.125-0.30469-0.1875-0.48438-0.17187zm3.3398 3.3281c-0.17188-0.007812-0.33594 0.054688-0.46094 0.17188-0.125 0.12109-0.19141 0.28516-0.19141 0.45312 0 0.16797 0.0625 0.32813 0.17969 0.44531 0.12109 0.11719 0.27734 0.18359 0.44531 0.18359 0.16797 0 0.32422-0.066407 0.44141-0.18359 0.12109-0.11719 0.18359-0.27734 0.18359-0.44531 0-0.33203-0.26172-0.60937-0.59766-0.625zm9.3789 1.6406v0.003906c0.73047 0.019531 1.3828 0.47266 1.6523 1.1562 0.26562 0.68359 0.10156 1.457-0.42188 1.9727l-6.6328 6.5469c-0.72656 0.67578-1.8555 0.65234-2.5508-0.054687-0.69531-0.70313-0.70312-1.8359-0.015625-2.5508l6.6328-6.5469v0.003907c0.31641-0.3125 0.73047-0.49609 1.1719-0.52344 0.054687-0.003906 0.10938-0.007812 0.16406-0.003906z"/>
<text x="0.0" y="117.5" font-size="5.0" font-weight="bold" font-family="Arbeit Regular, Helvetica, Arial-Unicode, Arial, Sans-serif" fill="#000000">Created by L&#234; Kh&#7855;c B&#7843;o Tho&#7841;i</text><text x="0.0" y="122.5" font-size="5.0" font-weight="bold" font-family="Arbeit Regular, Helvetica, Arial-Unicode, Arial, Sans-serif" fill="#000000">from Noun Project</text></svg>