<svg xmlns="http://www.w3.org/2000/svg" version="1.1" viewBox="-5.0 -10.0 110.0 135.0">
 <path d="m29.227 72.027h20.551v-7.2773c0-3.0195 2.457-5.4766 5.4805-5.4766h2.2734v-13.301h-50.285c-0.011719 0-0.023438 0.011719-0.023438 0.023438v5.0547l0.015625 0.023438 10.992 4.0703c5.4375 2.0156 10.996 4.9727 10.996 11.645zm21.527 1.9531h-22.504c-0.53906 0-0.97656-0.4375-0.97656-0.97656v-6.2148c0-5.457-4.6719-7.9414-9.7227-9.8125l-10.992-4.0703c-0.78516-0.29297-1.2891-1.0156-1.2891-1.8516v-5.0547c0-1.0898 0.88672-1.9766 1.9766-1.9766h50.762c0.8125 0 1.4766 0.66406 1.4766 1.4766v14.254c0 0.8125-0.66016 1.4766-1.4766 1.4766h-2.75c-1.9453 0-3.5273 1.582-3.5273 3.5234v8.25c0 0.53906-0.4375 0.97656-0.97656 0.97656z" fill-rule="evenodd"/>
 <path d="m64.262 46.727h0.003906zm0 13.754h-5.75c-0.53906 0-0.97656-0.4375-0.97656-0.97656 0-0.53906 0.4375-0.97656 0.97656-0.97656h5.2773v-11.801h-5.2773c-0.53906 0-0.97656-0.4375-0.97656-0.97656s0.4375-0.97656 0.97656-0.97656h5.75c0.81641 0 1.4766 0.66406 1.4766 1.4766v12.754c0 0.8125-0.66016 1.4766-1.4766 1.4766z" fill-rule="evenodd"/>
 <path d="m64.762 59.824c-0.53906 0-0.97656-0.43359-0.97656-0.97266 0-0.53906 0.43359-0.97656 0.97266-0.98047 11.266-0.019532 23.797-6.7148 28.004-10.297l0.007812-0.027344-0.066406-0.99219 0.042969 0.97656c-7.9961 0.36328-24.391-0.035156-28.016-0.14844-0.53906-0.019531-0.96094-0.46875-0.94531-1.0078 0.019532-0.53906 0.46875-0.96484 1.0078-0.94531 3.6133 0.11719 19.934 0.51172 27.863 0.15234 0.85547-0.039062 1.6172 0.45312 1.9297 1.25 0.3125 0.80078 0.09375 1.6758-0.55859 2.2305-3.9492 3.3633-16.805 10.746-29.266 10.766 0 0-0.003907 0 0 0z" fill-rule="evenodd"/>
 <path d="m53.133 79.984c-0.38672 0-0.75781-0.23438-0.90625-0.61719l-2.375-6c-0.19922-0.50391 0.046876-1.0703 0.55078-1.2656 0.5-0.19922 1.0664 0.046876 1.2656 0.55078l2.375 6c0.19922 0.50391-0.046875 1.0703-0.55078 1.2695-0.11719 0.046875-0.23828 0.070313-0.35938 0.070313zm-27.258 0c-0.12109 0-0.24219-0.023437-0.35938-0.070313-0.5-0.19922-0.74609-0.76562-0.55078-1.2656l2.375-6c0.19922-0.50391 0.76562-0.75 1.2656-0.55078 0.5 0.19531 0.74609 0.76562 0.55078 1.2656l-2.375 6c-0.15234 0.38281-0.51953 0.61719-0.90625 0.61719z" fill-rule="evenodd"/>
 <path d="m23.309 79.984c-0.28125 0-0.51953 0.23828-0.51953 0.51953v3.5117c0 0.28125 0.23828 0.51953 0.51953 0.51953h32.395c0.28125 0 0.51953-0.23828 0.51953-0.51953v-3.5117c0-0.28125-0.23828-0.51953-0.51953-0.51953zm32.395 6.5039h-32.395c-1.3633 0-2.4727-1.1094-2.4727-2.4727v-3.5117c0-1.3633 1.1094-2.4727 2.4727-2.4727h32.395c1.3633 0 2.4727 1.1094 2.4727 2.4727v3.5117c0 1.3633-1.1094 2.4727-2.4727 2.4727z" fill-rule="evenodd"/>
 <path d="m42.18 16.719-7.9531 2.1289c-0.16016 0.042969-0.26172 0.19141-0.24219 0.35547 0.72266 6.7578 2.4844 13.332 5.2383 19.547 0.066406 0.15234 0.22656 0.22656 0.38672 0.18359l7.9531-2.1328c0.16016-0.042969 0.26172-0.1875 0.24219-0.35547-0.72266-6.7539-2.4844-13.328-5.2383-19.543-0.066406-0.15234-0.22656-0.23047-0.38672-0.18359zm-2.6641 24.18c-0.88672 0-1.707-0.51563-2.0781-1.3594-2.832-6.3984-4.6484-13.168-5.3945-20.125-0.12109-1.1289 0.58594-2.1562 1.6797-2.4492l7.9492-2.1328c1.0938-0.29297 2.2227 0.24609 2.6797 1.2812 2.832 6.3984 4.6484 13.168 5.3906 20.129 0.12109 1.125-0.58594 2.1562-1.6797 2.4492l-7.9531 2.1289c-0.19922 0.050782-0.40234 0.078126-0.60156 0.078126z" fill-rule="evenodd"/>
 <path d="m47.836 31.227c-0.42969 0-0.82422-0.28906-0.94141-0.72266-0.14062-0.51953 0.16797-1.0586 0.69141-1.1953l28.023-7.5078-1.6367-6.1133-28.02 7.5078c-0.51953 0.13672-1.0547-0.17187-1.1953-0.69141-0.13672-0.51953 0.17188-1.0547 0.69141-1.1953l28.965-7.7617c0.51953-0.14062 1.0547 0.16797 1.1953 0.69141l2.1445 8c0.066406 0.25 0.03125 0.51562-0.097656 0.74219-0.12891 0.22266-0.34375 0.38672-0.59375 0.45703l-28.965 7.7578c-0.085937 0.023438-0.17188 0.035157-0.25391 0.035157z" fill-rule="evenodd"/>
 <path d="m32.609 39.227c-0.30859 0-0.60938-0.14453-0.80078-0.41406l-3-4.2539c-0.3125-0.44141-0.20703-1.0508 0.23438-1.3594 0.44141-0.3125 1.0508-0.20703 1.3594 0.23438l3 4.25c0.3125 0.44141 0.20703 1.0508-0.23438 1.3633-0.17188 0.12109-0.36719 0.17969-0.5625 0.17969z" fill-rule="evenodd"/>
 <path d="m30.578 41.855c-0.13672 0-0.27734-0.027344-0.41016-0.089844l-4.7227-2.1797c-0.48828-0.22656-0.70312-0.80859-0.47656-1.2969 0.22656-0.49219 0.80469-0.70312 1.2969-0.47656l4.7227 2.1797c0.48828 0.22656 0.70312 0.80469 0.47656 1.2969-0.16406 0.35938-0.51562 0.56641-0.88672 0.56641z" fill-rule="evenodd"/>
<text x="0.0" y="117.5" font-size="5.0" font-weight="bold" font-family="Arbeit Regular, Helvetica, Arial-Unicode, Arial, Sans-serif" fill="#000000">Created by Maan Icons</text><text x="0.0" y="122.5" font-size="5.0" font-weight="bold" font-family="Arbeit Regular, Helvetica, Arial-Unicode, Arial, Sans-serif" fill="#000000">from Noun Project</text></svg>