<svg xmlns="http://www.w3.org/2000/svg" data-name="Layer 1" viewBox="0 0 128 160" x="0px" y="0px"><title>Business Elements 02 solid</title><path d="M103.41,90.24H82.07V81.81c0-3.66-1.72-4.61-3.83-4.61H49.76c-2.11,0-3.83.95-3.83,4.61L46,90.24H24.57A6.58954,6.58954,0,0,0,18,96.85v16.52A6.61089,6.61089,0,0,0,24.59,120H26v3.76A4.12576,4.12576,0,0,0,30,128H98a4.12576,4.12576,0,0,0,4-4.24V120h1.43a6.58954,6.58954,0,0,0,6.57-6.61V96.87A6.61086,6.61086,0,0,0,103.41,90.24ZM90,103.08a2,2,0,0,1,4,0v4a2,2,0,0,1-4,0Zm-8,0a2,2,0,0,1,4,0v4a2,2,0,0,1-4,0Zm-8,0a2,2,0,0,1,4,0v4a2,2,0,0,1-4,0Zm-6-2a2.00591,2.00591,0,0,1,2,2v4a2,2,0,0,1-4,0v-4A2.00591,2.00591,0,0,1,68,101.08ZM64,87a2,2,0,1,1-2,2A2.00587,2.00587,0,0,1,64,87Zm-6,16.08a2,2,0,0,1,4,0v4a2,2,0,0,1-4,0Zm-8,0a2,2,0,0,1,4,0v4a2,2,0,0,1-4,0Zm-8,0a2,2,0,0,1,4,0v4a2,2,0,0,1-4,0Zm-8,0a2,2,0,0,1,4,0v4a2,2,0,0,1-4,0ZM98,123.76a.35349.35349,0,0,1-.07.24H30.07a.35349.35349,0,0,1-.07-.24V120H98Z"/><path d="M47.52,51.41a73.25483,73.25483,0,0,1,6.17,21.78H74.31a74.112,74.112,0,0,1,6.67-22.92,22.26386,22.26386,0,0,1,3.28-4.89,27.1642,27.1642,0,1,0-40.16.87A19.15637,19.15637,0,0,1,47.52,51.41Z"/><text x="0" y="143" fill="#000000" font-size="5px" font-weight="bold" font-family="'Helvetica Neue', Helvetica, Arial-Unicode, Arial, Sans-serif">Created by WEBTECHOPS LLP</text><text x="0" y="148" fill="#000000" font-size="5px" font-weight="bold" font-family="'Helvetica Neue', Helvetica, Arial-Unicode, Arial, Sans-serif">from the Noun Project</text></svg>