<svg width="95" height="78" viewBox="0 0 95 78" fill="none" xmlns="http://www.w3.org/2000/svg">
<path d="M55.874 32.4429C56.8662 32.4429 57.6746 33.2564 57.6748 34.2505V49.2915C57.6747 50.2852 56.8709 51.0991 55.874 51.0991H52.9873C51.084 51.0991 49.5334 52.6556 49.5332 54.5669V63.272C49.5332 63.9777 48.9627 64.5531 48.2578 64.5532H24.6289C23.9237 64.5532 23.3535 63.9777 23.3535 63.272V56.7144C23.3534 53.9199 22.1685 51.8906 20.3252 50.3081C18.4715 48.7168 15.9547 47.5807 13.3076 46.5952L1.7666 42.3003H1.76562C0.843671 41.9546 0.25 41.0982 0.25 40.1118V34.7788L0.261719 34.5405C0.38072 33.3649 1.37181 32.443 2.5752 32.4429H55.874ZM2.80176 39.9517L14.1963 44.1929C17.0569 45.2585 19.9797 46.5836 22.1885 48.5415C24.4069 50.508 25.9043 53.1138 25.9043 56.7153V61.9917H46.9824V54.563C46.9825 51.2399 49.6736 48.5347 52.9873 48.5347H55.124V34.9995H2.80176V39.9517Z" fill="#636846" stroke="#636846" stroke-width="0.5"/>
<path d="M62.4404 33.2354L62.625 33.2451C63.5346 33.3381 64.241 34.1114 64.2412 35.043V48.501C64.2412 49.4948 63.4373 50.3096 62.4404 50.3096H56.4033C55.6981 50.3096 55.1279 49.734 55.1279 49.0283C55.1282 48.3228 55.6982 47.748 56.4033 47.748H61.6943V35.7959H56.4033C55.6981 35.7959 55.1279 35.2213 55.1279 34.5156C55.128 33.81 55.6981 33.2354 56.4033 33.2354H62.4404Z" fill="#636846" stroke="#636846" stroke-width="0.5"/>
<path d="M63.0059 33.9272C66.8011 34.0509 83.9282 34.4671 92.2422 34.0884C93.2476 34.0423 94.1457 34.6253 94.5127 35.5659L94.5742 35.7437C94.8451 36.637 94.5741 37.5866 93.8555 38.2007L93.8545 38.1997C91.7576 39.9942 87.324 42.8418 81.7793 45.2427C76.233 47.6442 69.5526 49.61 62.9648 49.6206H62.6533L62.6621 49.5776C62.1047 49.4416 61.6904 48.9412 61.6904 48.3394C61.6905 47.6346 62.2552 47.0603 62.96 47.0552H62.9609C68.8302 47.0449 75.0427 45.2853 80.3457 43.0513C85.2644 40.9791 89.3782 38.5066 91.6914 36.6685C83.0725 37.0026 66.6314 36.6042 62.9248 36.4878H62.9238C62.2199 36.4622 61.6702 35.8727 61.6904 35.1675V35.1655C61.7157 34.4634 62.298 33.9037 63.0049 33.9282L63.0059 33.9272Z" fill="#636846" stroke="#636846" stroke-width="0.5"/>
<path d="M47.7974 62.0874C48.4525 61.8263 49.1907 62.1511 49.4497 62.8091L51.9438 69.1401C52.2032 69.7994 51.8826 70.5429 51.2251 70.8042L51.2241 70.8032C51.0727 70.8639 50.9148 70.896 50.7554 70.896H50.5044V70.8589C50.0966 70.7758 49.733 70.4966 49.5708 70.0776L47.0776 63.7466C46.8185 63.0877 47.1376 62.3434 47.7974 62.0864V62.0874ZM23.4946 62.686C23.7914 62.109 24.4781 61.8388 25.0923 62.0835C25.7478 62.3408 26.0671 63.0881 25.813 63.7417V63.7427L23.3188 70.0737C23.1538 70.4906 22.7939 70.7705 22.3862 70.854L22.3872 70.8872H22.1353C22.0154 70.8872 21.8959 70.8699 21.7798 70.8354L21.6646 70.7954C21.0119 70.5341 20.6913 69.792 20.9458 69.1372L20.9468 69.1362L23.4399 62.8052L23.4946 62.686Z" fill="#636846" stroke="#636846" stroke-width="0.5"/>
<path d="M53.4551 68.3262C55.0257 68.3262 56.3008 69.6102 56.3008 71.1855V74.8906C56.3008 76.466 55.0257 77.75 53.4551 77.75H19.4414C17.8707 77.75 16.5947 76.466 16.5947 74.8906V71.1855C16.5947 69.6101 17.8707 68.3262 19.4414 68.3262H53.4551ZM19.4414 70.8867C19.2853 70.8867 19.1455 71.0257 19.1455 71.1855V74.8906C19.1455 75.0505 19.2853 75.1895 19.4414 75.1895H53.4551C53.6111 75.1894 53.75 75.0505 53.75 74.8906V71.1855C53.75 71.0257 53.6111 70.8868 53.4551 70.8867H19.4414Z" fill="#636846" stroke="#636846" stroke-width="0.5"/>
<path d="M36.4487 29.6445C35.423 29.6412 34.4752 29.0416 34.0464 28.0625L33.4995 26.7871C30.8278 20.3904 29.0998 13.6588 28.3628 6.75293C28.2227 5.44004 29.0423 4.2417 30.3101 3.90039L38.6567 1.65039V1.64941C39.9247 1.30832 41.2348 1.9377 41.7642 3.14258L42.311 4.41699C44.9828 10.8139 46.7107 17.546 47.4438 24.4561C47.584 25.7647 46.7645 26.9672 45.4966 27.3086L37.146 29.5547L37.1431 29.5557C36.9182 29.6133 36.6867 29.6438 36.4575 29.6445L36.4585 29.6455H36.4497L36.4487 29.6445ZM39.3247 4.12207L39.3198 4.12305L30.9692 6.36914C30.9203 6.38235 30.8922 6.42451 30.8979 6.47363V6.47656C31.654 13.5814 33.4974 20.4932 36.3784 27.0273L36.3794 27.0293C36.3986 27.0734 36.4396 27.0948 36.4907 27.0811L44.8413 24.8301C44.8915 24.8165 44.9187 24.7781 44.9126 24.7256V24.7236C44.1566 17.6229 42.3132 10.7109 39.4321 4.17676L39.4312 4.1748C39.4097 4.12559 39.3671 4.1096 39.3247 4.12207Z" fill="#636846" stroke="#636846" stroke-width="0.5"/>
<path d="M73.0332 0.294922C73.6717 0.121234 74.3258 0.468151 74.5557 1.07617L74.5957 1.20117L76.8477 9.64258C76.9342 9.97018 76.8879 10.318 76.7207 10.6133L76.7197 10.6143C76.5511 10.907 76.2719 11.1214 75.9482 11.2129L75.9453 11.2139L45.5322 19.3984L45.5332 19.3994C45.423 19.4296 45.3107 19.4453 45.2012 19.4453H45.1348L45.1221 19.4375C44.5878 19.4069 44.1101 19.0371 43.9639 18.4932C43.781 17.8137 44.1813 17.1064 44.8662 16.9258L74.0488 9.06836L72.459 3.10059L43.2812 10.958H43.2793C42.6002 11.1374 41.9029 10.7321 41.7197 10.0518L41.7188 10.0508C41.5408 9.37114 41.942 8.66906 42.6211 8.48438H42.6221L73.0332 0.295898V0.294922Z" fill="#636846" stroke="#636846" stroke-width="0.5"/>
<path d="M25.3169 21.0698C25.893 20.6604 26.6885 20.7976 27.0923 21.3765L30.2427 25.8608C30.6501 26.4392 30.5122 27.2375 29.937 27.647L29.936 27.6479C29.7141 27.8049 29.4601 27.8815 29.2056 27.8823V27.8833C29.2043 27.8833 29.2029 27.8833 29.2017 27.8833L29.2007 27.8823C28.7996 27.8809 28.4089 27.6916 28.1606 27.3403L28.1597 27.3394L25.0112 22.8511C24.6042 22.2732 24.7397 21.4746 25.3169 21.0688V21.0698Z" fill="#636846" stroke="#636846" stroke-width="0.5"/>
<path d="M20.9556 26.5386C21.2328 25.9334 21.9147 25.6521 22.5278 25.8638L22.6499 25.9126L27.6089 28.2124L27.7241 28.2739C28.279 28.6043 28.5069 29.3071 28.231 29.9106C28.0162 30.3833 27.5558 30.6558 27.0728 30.6558C26.8962 30.6557 26.7122 30.6195 26.5366 30.5366L21.5786 28.2378L21.5776 28.2368C20.9407 27.9396 20.6616 27.1786 20.9565 26.5386H20.9556Z" fill="#636846" stroke="#636846" stroke-width="0.5"/>
</svg>
