<svg width="78" height="80" viewBox="0 0 78 80" fill="none" xmlns="http://www.w3.org/2000/svg">
<path d="M46.2281 51.6362C46.2281 53.2603 45.0847 54.6599 43.4643 55.2784V56.8016C43.4643 57.4916 42.8132 58.0515 42.0106 58.0515C41.208 58.0515 40.5568 57.4916 40.5568 56.8016V55.6006C39.5497 55.542 38.5805 55.2002 37.8158 54.6176C37.2139 54.1587 37.1571 53.3775 37.6909 52.8502C38.2247 52.3327 39.1333 52.2838 39.7466 52.7428C39.97 52.9088 40.3486 53.1106 40.8824 53.1106H41.6207C42.5709 53.1106 43.347 52.4433 43.347 51.6264C43.347 50.842 42.6087 50.1845 41.7001 50.1422C41.6244 50.1422 41.5563 50.1325 41.4881 50.1162C39.1409 49.9079 37.3388 48.2154 37.3388 46.1583C37.3388 44.3844 38.7056 42.8676 40.5757 42.3598L40.5682 41.0026C40.5682 40.3125 41.2193 39.7527 42.0219 39.7527C42.8246 39.7527 43.4757 40.3125 43.4757 41.0026V42.2524C44.32 42.3761 45.1037 42.6951 45.7549 43.1931C46.3568 43.652 46.4061 44.443 45.8722 44.9605C45.3384 45.478 44.4184 45.5203 43.8165 45.0614C43.506 44.827 43.1085 44.6936 42.692 44.6936H41.9538C41.0035 44.6936 40.2275 45.3608 40.2275 46.1777C40.2275 46.9622 40.9733 47.6262 41.8857 47.6619C41.9614 47.6619 42.0522 47.6782 42.1279 47.688C44.4449 47.9093 46.2281 49.5954 46.2281 51.6362ZM68.909 28.3544C68.3752 27.8369 67.4553 27.7881 66.8533 28.247C66.2513 28.7059 66.1945 29.4969 66.7284 30.0144C72.0891 35.232 75.0346 41.9373 75.0346 48.9124C75.0346 64.6758 60.1178 77.5003 41.7798 77.5003C24.5961 77.5003 10.3383 66.2839 8.68392 51.7346L12.6969 54.6836C13.3065 55.1327 14.2189 55.0677 14.7414 54.5404C15.2638 54.0163 15.1881 53.2254 14.5748 52.7827L8.0025 47.9492C7.71099 47.7311 7.3324 47.6335 6.94628 47.6498C6.56012 47.6758 6.20803 47.832 5.95819 48.0827L0.347461 53.7331C-0.17499 54.2571 -0.0992779 55.048 0.514035 55.4907C0.786619 55.6893 1.12357 55.7902 1.45294 55.7902C1.86182 55.7902 2.2669 55.6404 2.55839 55.3475L5.80673 52.0796C7.66563 67.8688 23.1465 80 41.7801 80C61.7163 80 77.9396 66.0531 77.9396 48.9033C77.9434 41.3292 74.7329 34.0281 68.9102 28.3554L68.909 28.3544ZM6.94879 31.4953V10.0718C6.94879 8.52892 8.41391 7.27905 10.2047 7.27905H20.0894C21.884 7.27905 23.3453 8.52892 23.3453 10.0718V10.5958H25.9425C27.7635 10.5958 29.3044 10.1694 30.7771 9.26127L31.5343 8.79583C31.8636 8.59728 32.193 8.41175 32.5223 8.24575L31.7992 4.88344C31.6554 4.21619 31.2162 2.19163 32.9805 0.82461C34.2109 -0.132289 35.9865 -0.259276 37.3797 0.515401L38.1823 0.958063C38.4436 1.10779 38.7237 1.10779 38.9774 0.958063L39.8027 0.508893C41.0142 -0.158354 42.5172 -0.158354 43.7287 0.508893L44.5427 0.951555C44.8039 1.10128 45.084 1.10128 45.3377 0.951555L46.1517 0.502385C47.5562 -0.272275 49.3318 -0.138822 50.5622 0.818111C51.7358 1.71643 52.1334 3.08354 51.7358 4.86719L51.3383 6.68341H54.7797C57.657 6.68341 59.9929 8.6917 59.9929 11.1654C59.9929 12.0637 59.6824 12.9067 59.141 13.6163C60.856 14.3486 62.0373 15.8751 62.0373 17.6328C62.0373 19.3904 60.856 20.9072 59.141 21.6493C59.6749 22.3588 59.9929 23.1921 59.9929 24.1002C59.9929 25.7243 58.9858 27.15 57.4714 27.9409C58.0923 28.683 58.4709 29.5912 58.4709 30.5643C58.4709 31.723 57.956 32.7809 57.1155 33.5816C58.1036 34.4734 59.0653 35.3717 59.9663 36.3645C63.8242 40.5567 65.8571 45.2635 65.8571 49.9697C65.8571 60.8019 55.0526 69.616 41.7709 69.616C28.4823 69.616 17.6778 60.8019 17.6778 49.9697C17.6778 44.2379 20.7103 38.4959 26.2339 33.8122C26.6125 33.4868 26.9911 33.1775 27.3583 32.8618C27.718 32.5624 28.0663 32.2695 28.4032 31.9798C27.8202 31.8626 27.2106 31.8138 26.5633 31.8138H23.315C23.1295 33.2069 21.7552 34.2973 20.0781 34.2973H10.1933C8.41021 34.294 6.94879 33.0382 6.94879 31.4953ZM57.6946 37.9107C56.7254 36.8529 55.6691 35.8764 54.5749 34.9032C54.1585 34.9943 53.7231 35.0464 53.2764 35.0464H46.0075C43.1302 35.0464 40.7943 33.0381 40.7943 30.5709C40.7943 28.9468 41.8014 27.5211 43.3158 26.7302C42.6949 25.9881 42.3163 25.0799 42.3163 24.1068C42.3163 24.0417 42.3163 23.9733 42.3277 23.9147H37.5878C36.823 27.456 34.6613 29.9981 32.0906 32.338C32.0906 32.3478 32.0793 32.3478 32.0793 32.3543C31.2274 33.1387 30.3151 33.8971 29.4027 34.6555C29.0354 34.9647 28.6644 35.2804 28.2897 35.5961C23.3263 39.8112 20.5929 44.921 20.5929 49.9796C20.5929 59.4386 30.0993 67.1261 41.7784 67.1261C53.4581 67.1261 62.9639 59.4349 62.9639 49.9796C62.9564 45.8264 61.136 41.66 57.6946 37.9107ZM43.6907 30.5709C43.6907 31.6613 44.7281 32.5532 45.9964 32.5532H53.2653C54.5336 32.5532 55.5709 31.6613 55.5709 30.5709C55.5709 29.4806 54.5336 28.5887 53.2653 28.5887H45.9964C44.7281 28.5887 43.6907 29.4806 43.6907 30.5709ZM47.5258 26.089H54.7947C56.063 26.089 57.1004 25.1972 57.1004 24.1068C57.1004 23.0164 56.063 22.1246 54.7947 22.1246H49.2976C48.5329 22.2906 47.7453 22.3069 46.9807 22.1734C45.9547 22.3817 45.2089 23.1824 45.2089 24.097C45.2202 25.1972 46.2575 26.089 47.5258 26.089ZM44.0958 20.738C43.5733 20.2302 43.1834 19.6216 42.9828 18.9478L41.7826 15.0908L38.6706 15.8069C38.6404 16.9396 38.3223 18.0137 37.7582 18.9739C37.8642 19.8331 37.9021 20.6501 37.8832 21.4151H43.369C43.5848 21.1644 43.827 20.9398 44.0958 20.738ZM56.8425 15.6571H52.7424L53.0415 16.6238C53.3595 17.6654 53.2346 18.7167 52.75 19.6248H56.8311C58.0994 19.6248 59.1367 18.733 59.1367 17.6426C59.1481 16.549 58.1108 15.6571 56.8425 15.6571ZM50.8116 9.19943L50.7813 9.34916L51.9739 13.1638H54.8057C56.074 13.1638 57.1113 12.272 57.1113 11.1816C57.1113 10.0912 56.074 9.19942 54.8057 9.19942L50.8116 9.19943ZM34.6455 4.42452L35.2853 7.3083L43.7165 5.36842C45.1589 5.03642 46.6733 5.20893 47.9794 5.85013C48.1649 5.94127 48.3466 6.04868 48.5207 6.15934L48.8993 4.42777C49.1908 3.12908 48.782 2.81011 48.6267 2.69621C48.3655 2.48789 48.0172 2.46186 47.7257 2.63111L46.9117 3.07377C45.7003 3.74102 44.1972 3.74102 42.9782 3.07377L42.1642 2.63111C41.903 2.48138 41.6228 2.48138 41.3616 2.63111L40.5363 3.08028C39.3248 3.74753 37.8218 3.74753 36.6103 3.08028L35.8077 2.63762C35.5086 2.47162 35.1679 2.4944 34.9067 2.70271C34.7628 2.80687 34.3653 3.1063 34.6455 4.42452ZM23.3448 13.0986V29.3144H26.5703C28.0354 29.3144 29.3605 29.5227 30.6591 29.9719C32.8511 27.8628 34.4678 25.6462 34.8652 22.5638C34.8652 22.5313 34.8766 22.4987 34.8766 22.4727C34.9069 22.2318 34.9258 21.991 34.9447 21.7306C33.5591 22.5541 31.8819 23.039 30.0685 23.039C29.2659 23.039 28.6147 22.4792 28.6147 21.7892C28.6147 21.0991 29.2659 20.5393 30.0685 20.5393C33.1995 20.5393 35.7474 18.3488 35.7474 15.6472V14.84C35.7474 14.2737 36.1941 13.7822 36.8226 13.6325L42.4144 12.3403C42.7816 12.2557 43.1791 12.298 43.5198 12.464C43.8492 12.63 44.1028 12.9066 44.1975 13.2224L45.7762 18.2869C45.9314 18.7947 46.3176 19.2211 46.8514 19.4879C47.3852 19.7548 48.0061 19.8199 48.5967 19.6865C49.8271 19.4033 50.554 18.313 50.2247 17.2518L47.7828 9.40107C47.3966 8.16095 45.9012 7.41886 44.4588 7.75083L35.9102 9.71679C34.8843 9.95764 34.0779 10.2831 33.2261 10.8072L32.4689 11.2726C30.5003 12.4802 28.3687 13.0726 25.9382 13.0726L23.3449 13.0824L23.3448 13.0986ZM9.85558 31.495C9.85558 31.6545 10.0222 31.7945 10.2039 31.7945H20.0886C20.2742 31.7945 20.4369 31.6512 20.4369 31.495V10.0714C20.4369 9.91193 20.2704 9.77197 20.0886 9.77197H10.2039C10.0184 9.77197 9.85558 9.91519 9.85558 10.0714V31.495Z" fill="#636846"/>
</svg>
