<svg width="127" height="79" viewBox="0 0 127 79" fill="none" xmlns="http://www.w3.org/2000/svg">
<mask id="path-1-outside-1_140_235" maskUnits="userSpaceOnUse" x="-0.5" y="-0.5" width="128" height="80" fill="black">
<rect fill="white" x="-0.5" y="-0.5" width="128" height="80"/>
<path d="M21.8026 58.7181C19.2553 58.7181 17.1804 61.3404 17.1804 64.5592C17.1804 67.7782 19.2555 70.4003 21.8026 70.4003C24.3499 70.4003 26.4248 67.778 26.4248 64.5592C26.4248 61.3402 24.3497 58.7181 21.8026 58.7181ZM21.8026 68.4692C20.0941 68.4692 18.7025 66.7106 18.7025 64.5515C18.7025 62.3925 20.0941 60.6339 21.8026 60.6339C23.5111 60.6339 24.9027 62.3925 24.9027 64.5515C24.9027 66.7106 23.5111 68.4692 21.8026 68.4692ZM10.3898 35.3524C10.5327 35.6272 10.7687 35.7921 11.0297 35.7921H18.69C19.1124 35.7921 19.4541 35.3603 19.4541 34.8264V18.2763C19.4541 18.237 19.4417 18.2056 19.4355 18.1742C19.4293 18.1114 19.4231 18.0565 19.4044 17.9936C19.392 17.9308 19.3734 17.8759 19.3485 17.8209C19.3237 17.766 19.2988 17.7189 19.2678 17.6718C19.2367 17.6246 19.2056 17.5775 19.1621 17.5383C19.1249 17.499 19.0876 17.4676 19.0441 17.4362C19.0006 17.4048 18.9509 17.3813 18.9012 17.3656C18.8764 17.3577 18.8577 17.3342 18.8267 17.3263C18.7645 17.3106 17.3667 16.973 16.789 17.9936C15.3352 20.5452 10.5265 33.8528 10.3215 34.4182C10.2159 34.7165 10.2345 35.0619 10.3712 35.3367L10.3898 35.3524ZM17.9321 19.3361V33.8764H12.2163C13.9745 29.0481 16.8448 21.4089 17.9321 19.3361ZM21.989 35.7998H34.7375C35.1538 35.7998 35.4955 35.3759 35.5017 34.8499L35.7005 18.2997C35.7005 18.0406 35.6259 17.7972 35.483 17.6088C35.3402 17.4282 35.1476 17.3183 34.9425 17.3183H21.9952C21.5728 17.3183 21.2311 17.7501 21.2311 18.284V34.8342C21.2311 35.368 21.5728 35.7998 21.9952 35.7998H21.989ZM33.9859 33.8685H22.747V19.242H34.1599L33.9859 33.8685ZM90.9817 58.7166C88.4344 58.7166 86.3595 61.3389 86.3595 64.5577C86.3595 67.7767 88.4346 70.3988 90.9817 70.3988C93.5288 70.3988 95.6039 67.7765 95.6039 64.5577C95.6039 61.3387 93.5288 58.7166 90.9817 58.7166ZM90.9817 68.4677C89.2732 68.4677 87.8816 66.7091 87.8816 64.5501C87.8816 62.391 89.2732 60.6324 90.9817 60.6324C92.6902 60.6324 94.0818 62.391 94.0818 64.5501C94.0818 66.7091 92.6902 68.4677 90.9817 68.4677ZM54.0973 10.5651V44.6708C54.0973 45.2046 53.7556 45.6364 53.3331 45.6364C52.9106 45.6364 52.5689 45.2046 52.5689 44.6708V10.5651C52.5689 10.0313 52.9106 9.59946 53.3331 9.59946C53.7556 9.59946 54.0973 10.0313 54.0973 10.5651ZM66.2183 10.5651V44.6708C66.2183 45.2046 65.8766 45.6364 65.4542 45.6364C65.0317 45.6364 64.69 45.2046 64.69 44.6708V10.5651C64.69 10.0313 65.0317 9.59946 65.4542 9.59946C65.8766 9.59946 66.2183 10.0313 66.2183 10.5651ZM78.3456 10.5651V42.7553C78.3456 43.2892 78.0039 43.721 77.5814 43.721C77.159 43.721 76.8173 43.2892 76.8173 42.7553V10.5651C76.8173 10.0313 77.159 9.59946 77.5814 9.59946C78.0039 9.59946 78.3456 10.0313 78.3456 10.5651ZM90.4667 10.5651V44.6708C90.4667 45.2046 90.125 45.6364 89.7025 45.6364C89.2801 45.6364 88.9384 45.2046 88.9384 44.6708V10.5651C88.9384 10.0313 89.28 9.59946 89.7025 9.59946C90.125 9.59946 90.4667 10.0313 90.4667 10.5651ZM102.594 10.5651V44.6708C102.594 45.2046 102.252 45.6364 101.83 45.6364C101.407 45.6364 101.066 45.2046 101.066 44.6708V10.5651C101.066 10.0313 101.407 9.59946 101.83 9.59946C102.252 9.59946 102.594 10.0313 102.594 10.5651ZM120.536 12.9989C120.958 12.9989 121.3 12.5671 121.3 12.0332C121.3 11.4993 120.958 11.0675 120.536 11.0675H114.64V4.29988C114.64 2.20357 113.205 0.5 111.447 0.5H43.4545C41.6963 0.5 40.2612 2.20369 40.2612 4.29988V10.1331H16.6158C15.4043 10.1331 14.3481 10.8947 13.7891 12.1665L2.36381 38.1141C2.1153 38.6793 1.99726 39.2446 1.99726 39.8806V51.4374C1.92892 51.4688 1.82951 51.5002 1.75497 51.5159C1.41327 51.6179 0.5 51.9006 0.5 53.1018V60.521C0.5 63.5986 2.29547 65.5144 5.19059 65.5144H10.8006C11.192 72.761 15.9696 78.5 21.8034 78.5C27.6311 78.5 32.4087 72.753 32.8063 65.5144H79.9857C80.3771 72.761 85.1547 78.5 90.9886 78.5C96.8162 78.5 101.594 72.753 101.991 65.5144H111.447C113.205 65.5144 114.641 63.8107 114.641 61.7145V12.9991L120.536 12.9989ZM21.8032 76.5774C16.5534 76.5774 12.2853 71.1837 12.2853 64.5495C12.2853 57.9153 16.5534 52.5215 21.8032 52.5215C27.053 52.5215 31.3212 57.9153 31.3212 64.5495C31.3212 71.1837 27.053 76.5774 21.8032 76.5774ZM40.2558 63.5918H32.8005C32.4091 56.3451 27.6315 50.6061 21.7977 50.6061C15.9701 50.6061 11.1925 56.3532 10.7949 63.5918H5.18482C3.73724 63.5918 2.0163 63.0579 2.0163 60.5221V53.4167C2.04736 53.4089 2.07843 53.401 2.10328 53.3853C2.48847 53.2676 3.51357 52.9535 3.51357 51.5325V39.8814C3.51357 39.5674 3.56328 39.3318 3.68754 39.0492L15.1128 13.1017C15.4048 12.4343 15.9515 12.0575 16.6101 12.0575H40.2555L40.2558 63.5918ZM90.9836 76.5774C85.7338 76.5774 81.4656 71.1837 81.4656 64.5495C81.4656 57.9231 85.7338 52.5215 90.9836 52.5215C96.2334 52.5215 100.502 57.9153 100.502 64.5495C100.502 71.1837 96.2334 76.5774 90.9836 76.5774ZM113.113 61.7153C113.113 62.7517 112.362 63.5917 111.442 63.5917H101.986C101.595 56.3451 96.8173 50.6061 90.9834 50.6061C85.1558 50.6061 80.3782 56.3532 79.9806 63.5917H41.7777V4.30838C41.7777 3.27204 42.5295 2.43198 43.449 2.43198H111.441C112.361 2.43198 113.112 3.27204 113.112 4.30838V11.076H110.329C109.907 11.076 109.565 11.5078 109.565 12.0417C109.565 12.5756 109.907 13.0074 110.329 13.0074H113.112V61.7228L113.113 61.7153ZM126.402 19.7993C126.402 20.3332 126.061 20.765 125.638 20.765H116.406C115.984 20.765 115.642 20.3332 115.642 19.7993C115.642 19.2655 115.984 18.8336 116.406 18.8336H125.638C126.061 18.8336 126.402 19.2654 126.402 19.7993ZM115.4 5.8558C115.4 5.32194 115.741 4.89012 116.164 4.89012H125.396C125.818 4.89012 126.16 5.32192 126.16 5.8558C126.16 6.38968 125.818 6.82149 125.396 6.82149H116.164C115.741 6.82149 115.4 6.38968 115.4 5.8558Z"/>
</mask>
<path d="M21.8026 58.7181C19.2553 58.7181 17.1804 61.3404 17.1804 64.5592C17.1804 67.7782 19.2555 70.4003 21.8026 70.4003C24.3499 70.4003 26.4248 67.778 26.4248 64.5592C26.4248 61.3402 24.3497 58.7181 21.8026 58.7181ZM21.8026 68.4692C20.0941 68.4692 18.7025 66.7106 18.7025 64.5515C18.7025 62.3925 20.0941 60.6339 21.8026 60.6339C23.5111 60.6339 24.9027 62.3925 24.9027 64.5515C24.9027 66.7106 23.5111 68.4692 21.8026 68.4692ZM10.3898 35.3524C10.5327 35.6272 10.7687 35.7921 11.0297 35.7921H18.69C19.1124 35.7921 19.4541 35.3603 19.4541 34.8264V18.2763C19.4541 18.237 19.4417 18.2056 19.4355 18.1742C19.4293 18.1114 19.4231 18.0565 19.4044 17.9936C19.392 17.9308 19.3734 17.8759 19.3485 17.8209C19.3237 17.766 19.2988 17.7189 19.2678 17.6718C19.2367 17.6246 19.2056 17.5775 19.1621 17.5383C19.1249 17.499 19.0876 17.4676 19.0441 17.4362C19.0006 17.4048 18.9509 17.3813 18.9012 17.3656C18.8764 17.3577 18.8577 17.3342 18.8267 17.3263C18.7645 17.3106 17.3667 16.973 16.789 17.9936C15.3352 20.5452 10.5265 33.8528 10.3215 34.4182C10.2159 34.7165 10.2345 35.0619 10.3712 35.3367L10.3898 35.3524ZM17.9321 19.3361V33.8764H12.2163C13.9745 29.0481 16.8448 21.4089 17.9321 19.3361ZM21.989 35.7998H34.7375C35.1538 35.7998 35.4955 35.3759 35.5017 34.8499L35.7005 18.2997C35.7005 18.0406 35.6259 17.7972 35.483 17.6088C35.3402 17.4282 35.1476 17.3183 34.9425 17.3183H21.9952C21.5728 17.3183 21.2311 17.7501 21.2311 18.284V34.8342C21.2311 35.368 21.5728 35.7998 21.9952 35.7998H21.989ZM33.9859 33.8685H22.747V19.242H34.1599L33.9859 33.8685ZM90.9817 58.7166C88.4344 58.7166 86.3595 61.3389 86.3595 64.5577C86.3595 67.7767 88.4346 70.3988 90.9817 70.3988C93.5288 70.3988 95.6039 67.7765 95.6039 64.5577C95.6039 61.3387 93.5288 58.7166 90.9817 58.7166ZM90.9817 68.4677C89.2732 68.4677 87.8816 66.7091 87.8816 64.5501C87.8816 62.391 89.2732 60.6324 90.9817 60.6324C92.6902 60.6324 94.0818 62.391 94.0818 64.5501C94.0818 66.7091 92.6902 68.4677 90.9817 68.4677ZM54.0973 10.5651V44.6708C54.0973 45.2046 53.7556 45.6364 53.3331 45.6364C52.9106 45.6364 52.5689 45.2046 52.5689 44.6708V10.5651C52.5689 10.0313 52.9106 9.59946 53.3331 9.59946C53.7556 9.59946 54.0973 10.0313 54.0973 10.5651ZM66.2183 10.5651V44.6708C66.2183 45.2046 65.8766 45.6364 65.4542 45.6364C65.0317 45.6364 64.69 45.2046 64.69 44.6708V10.5651C64.69 10.0313 65.0317 9.59946 65.4542 9.59946C65.8766 9.59946 66.2183 10.0313 66.2183 10.5651ZM78.3456 10.5651V42.7553C78.3456 43.2892 78.0039 43.721 77.5814 43.721C77.159 43.721 76.8173 43.2892 76.8173 42.7553V10.5651C76.8173 10.0313 77.159 9.59946 77.5814 9.59946C78.0039 9.59946 78.3456 10.0313 78.3456 10.5651ZM90.4667 10.5651V44.6708C90.4667 45.2046 90.125 45.6364 89.7025 45.6364C89.2801 45.6364 88.9384 45.2046 88.9384 44.6708V10.5651C88.9384 10.0313 89.28 9.59946 89.7025 9.59946C90.125 9.59946 90.4667 10.0313 90.4667 10.5651ZM102.594 10.5651V44.6708C102.594 45.2046 102.252 45.6364 101.83 45.6364C101.407 45.6364 101.066 45.2046 101.066 44.6708V10.5651C101.066 10.0313 101.407 9.59946 101.83 9.59946C102.252 9.59946 102.594 10.0313 102.594 10.5651ZM120.536 12.9989C120.958 12.9989 121.3 12.5671 121.3 12.0332C121.3 11.4993 120.958 11.0675 120.536 11.0675H114.64V4.29988C114.64 2.20357 113.205 0.5 111.447 0.5H43.4545C41.6963 0.5 40.2612 2.20369 40.2612 4.29988V10.1331H16.6158C15.4043 10.1331 14.3481 10.8947 13.7891 12.1665L2.36381 38.1141C2.1153 38.6793 1.99726 39.2446 1.99726 39.8806V51.4374C1.92892 51.4688 1.82951 51.5002 1.75497 51.5159C1.41327 51.6179 0.5 51.9006 0.5 53.1018V60.521C0.5 63.5986 2.29547 65.5144 5.19059 65.5144H10.8006C11.192 72.761 15.9696 78.5 21.8034 78.5C27.6311 78.5 32.4087 72.753 32.8063 65.5144H79.9857C80.3771 72.761 85.1547 78.5 90.9886 78.5C96.8162 78.5 101.594 72.753 101.991 65.5144H111.447C113.205 65.5144 114.641 63.8107 114.641 61.7145V12.9991L120.536 12.9989ZM21.8032 76.5774C16.5534 76.5774 12.2853 71.1837 12.2853 64.5495C12.2853 57.9153 16.5534 52.5215 21.8032 52.5215C27.053 52.5215 31.3212 57.9153 31.3212 64.5495C31.3212 71.1837 27.053 76.5774 21.8032 76.5774ZM40.2558 63.5918H32.8005C32.4091 56.3451 27.6315 50.6061 21.7977 50.6061C15.9701 50.6061 11.1925 56.3532 10.7949 63.5918H5.18482C3.73724 63.5918 2.0163 63.0579 2.0163 60.5221V53.4167C2.04736 53.4089 2.07843 53.401 2.10328 53.3853C2.48847 53.2676 3.51357 52.9535 3.51357 51.5325V39.8814C3.51357 39.5674 3.56328 39.3318 3.68754 39.0492L15.1128 13.1017C15.4048 12.4343 15.9515 12.0575 16.6101 12.0575H40.2555L40.2558 63.5918ZM90.9836 76.5774C85.7338 76.5774 81.4656 71.1837 81.4656 64.5495C81.4656 57.9231 85.7338 52.5215 90.9836 52.5215C96.2334 52.5215 100.502 57.9153 100.502 64.5495C100.502 71.1837 96.2334 76.5774 90.9836 76.5774ZM113.113 61.7153C113.113 62.7517 112.362 63.5917 111.442 63.5917H101.986C101.595 56.3451 96.8173 50.6061 90.9834 50.6061C85.1558 50.6061 80.3782 56.3532 79.9806 63.5917H41.7777V4.30838C41.7777 3.27204 42.5295 2.43198 43.449 2.43198H111.441C112.361 2.43198 113.112 3.27204 113.112 4.30838V11.076H110.329C109.907 11.076 109.565 11.5078 109.565 12.0417C109.565 12.5756 109.907 13.0074 110.329 13.0074H113.112V61.7228L113.113 61.7153ZM126.402 19.7993C126.402 20.3332 126.061 20.765 125.638 20.765H116.406C115.984 20.765 115.642 20.3332 115.642 19.7993C115.642 19.2655 115.984 18.8336 116.406 18.8336H125.638C126.061 18.8336 126.402 19.2654 126.402 19.7993ZM115.4 5.8558C115.4 5.32194 115.741 4.89012 116.164 4.89012H125.396C125.818 4.89012 126.16 5.32192 126.16 5.8558C126.16 6.38968 125.818 6.82149 125.396 6.82149H116.164C115.741 6.82149 115.4 6.38968 115.4 5.8558Z" fill="#636846"/>
<path d="M21.8026 58.7181C19.2553 58.7181 17.1804 61.3404 17.1804 64.5592C17.1804 67.7782 19.2555 70.4003 21.8026 70.4003C24.3499 70.4003 26.4248 67.778 26.4248 64.5592C26.4248 61.3402 24.3497 58.7181 21.8026 58.7181ZM21.8026 68.4692C20.0941 68.4692 18.7025 66.7106 18.7025 64.5515C18.7025 62.3925 20.0941 60.6339 21.8026 60.6339C23.5111 60.6339 24.9027 62.3925 24.9027 64.5515C24.9027 66.7106 23.5111 68.4692 21.8026 68.4692ZM10.3898 35.3524C10.5327 35.6272 10.7687 35.7921 11.0297 35.7921H18.69C19.1124 35.7921 19.4541 35.3603 19.4541 34.8264V18.2763C19.4541 18.237 19.4417 18.2056 19.4355 18.1742C19.4293 18.1114 19.4231 18.0565 19.4044 17.9936C19.392 17.9308 19.3734 17.8759 19.3485 17.8209C19.3237 17.766 19.2988 17.7189 19.2678 17.6718C19.2367 17.6246 19.2056 17.5775 19.1621 17.5383C19.1249 17.499 19.0876 17.4676 19.0441 17.4362C19.0006 17.4048 18.9509 17.3813 18.9012 17.3656C18.8764 17.3577 18.8577 17.3342 18.8267 17.3263C18.7645 17.3106 17.3667 16.973 16.789 17.9936C15.3352 20.5452 10.5265 33.8528 10.3215 34.4182C10.2159 34.7165 10.2345 35.0619 10.3712 35.3367L10.3898 35.3524ZM17.9321 19.3361V33.8764H12.2163C13.9745 29.0481 16.8448 21.4089 17.9321 19.3361ZM21.989 35.7998H34.7375C35.1538 35.7998 35.4955 35.3759 35.5017 34.8499L35.7005 18.2997C35.7005 18.0406 35.6259 17.7972 35.483 17.6088C35.3402 17.4282 35.1476 17.3183 34.9425 17.3183H21.9952C21.5728 17.3183 21.2311 17.7501 21.2311 18.284V34.8342C21.2311 35.368 21.5728 35.7998 21.9952 35.7998H21.989ZM33.9859 33.8685H22.747V19.242H34.1599L33.9859 33.8685ZM90.9817 58.7166C88.4344 58.7166 86.3595 61.3389 86.3595 64.5577C86.3595 67.7767 88.4346 70.3988 90.9817 70.3988C93.5288 70.3988 95.6039 67.7765 95.6039 64.5577C95.6039 61.3387 93.5288 58.7166 90.9817 58.7166ZM90.9817 68.4677C89.2732 68.4677 87.8816 66.7091 87.8816 64.5501C87.8816 62.391 89.2732 60.6324 90.9817 60.6324C92.6902 60.6324 94.0818 62.391 94.0818 64.5501C94.0818 66.7091 92.6902 68.4677 90.9817 68.4677ZM54.0973 10.5651V44.6708C54.0973 45.2046 53.7556 45.6364 53.3331 45.6364C52.9106 45.6364 52.5689 45.2046 52.5689 44.6708V10.5651C52.5689 10.0313 52.9106 9.59946 53.3331 9.59946C53.7556 9.59946 54.0973 10.0313 54.0973 10.5651ZM66.2183 10.5651V44.6708C66.2183 45.2046 65.8766 45.6364 65.4542 45.6364C65.0317 45.6364 64.69 45.2046 64.69 44.6708V10.5651C64.69 10.0313 65.0317 9.59946 65.4542 9.59946C65.8766 9.59946 66.2183 10.0313 66.2183 10.5651ZM78.3456 10.5651V42.7553C78.3456 43.2892 78.0039 43.721 77.5814 43.721C77.159 43.721 76.8173 43.2892 76.8173 42.7553V10.5651C76.8173 10.0313 77.159 9.59946 77.5814 9.59946C78.0039 9.59946 78.3456 10.0313 78.3456 10.5651ZM90.4667 10.5651V44.6708C90.4667 45.2046 90.125 45.6364 89.7025 45.6364C89.2801 45.6364 88.9384 45.2046 88.9384 44.6708V10.5651C88.9384 10.0313 89.28 9.59946 89.7025 9.59946C90.125 9.59946 90.4667 10.0313 90.4667 10.5651ZM102.594 10.5651V44.6708C102.594 45.2046 102.252 45.6364 101.83 45.6364C101.407 45.6364 101.066 45.2046 101.066 44.6708V10.5651C101.066 10.0313 101.407 9.59946 101.83 9.59946C102.252 9.59946 102.594 10.0313 102.594 10.5651ZM120.536 12.9989C120.958 12.9989 121.3 12.5671 121.3 12.0332C121.3 11.4993 120.958 11.0675 120.536 11.0675H114.64V4.29988C114.64 2.20357 113.205 0.5 111.447 0.5H43.4545C41.6963 0.5 40.2612 2.20369 40.2612 4.29988V10.1331H16.6158C15.4043 10.1331 14.3481 10.8947 13.7891 12.1665L2.36381 38.1141C2.1153 38.6793 1.99726 39.2446 1.99726 39.8806V51.4374C1.92892 51.4688 1.82951 51.5002 1.75497 51.5159C1.41327 51.6179 0.5 51.9006 0.5 53.1018V60.521C0.5 63.5986 2.29547 65.5144 5.19059 65.5144H10.8006C11.192 72.761 15.9696 78.5 21.8034 78.5C27.6311 78.5 32.4087 72.753 32.8063 65.5144H79.9857C80.3771 72.761 85.1547 78.5 90.9886 78.5C96.8162 78.5 101.594 72.753 101.991 65.5144H111.447C113.205 65.5144 114.641 63.8107 114.641 61.7145V12.9991L120.536 12.9989ZM21.8032 76.5774C16.5534 76.5774 12.2853 71.1837 12.2853 64.5495C12.2853 57.9153 16.5534 52.5215 21.8032 52.5215C27.053 52.5215 31.3212 57.9153 31.3212 64.5495C31.3212 71.1837 27.053 76.5774 21.8032 76.5774ZM40.2558 63.5918H32.8005C32.4091 56.3451 27.6315 50.6061 21.7977 50.6061C15.9701 50.6061 11.1925 56.3532 10.7949 63.5918H5.18482C3.73724 63.5918 2.0163 63.0579 2.0163 60.5221V53.4167C2.04736 53.4089 2.07843 53.401 2.10328 53.3853C2.48847 53.2676 3.51357 52.9535 3.51357 51.5325V39.8814C3.51357 39.5674 3.56328 39.3318 3.68754 39.0492L15.1128 13.1017C15.4048 12.4343 15.9515 12.0575 16.6101 12.0575H40.2555L40.2558 63.5918ZM90.9836 76.5774C85.7338 76.5774 81.4656 71.1837 81.4656 64.5495C81.4656 57.9231 85.7338 52.5215 90.9836 52.5215C96.2334 52.5215 100.502 57.9153 100.502 64.5495C100.502 71.1837 96.2334 76.5774 90.9836 76.5774ZM113.113 61.7153C113.113 62.7517 112.362 63.5917 111.442 63.5917H101.986C101.595 56.3451 96.8173 50.6061 90.9834 50.6061C85.1558 50.6061 80.3782 56.3532 79.9806 63.5917H41.7777V4.30838C41.7777 3.27204 42.5295 2.43198 43.449 2.43198H111.441C112.361 2.43198 113.112 3.27204 113.112 4.30838V11.076H110.329C109.907 11.076 109.565 11.5078 109.565 12.0417C109.565 12.5756 109.907 13.0074 110.329 13.0074H113.112V61.7228L113.113 61.7153ZM126.402 19.7993C126.402 20.3332 126.061 20.765 125.638 20.765H116.406C115.984 20.765 115.642 20.3332 115.642 19.7993C115.642 19.2655 115.984 18.8336 116.406 18.8336H125.638C126.061 18.8336 126.402 19.2654 126.402 19.7993ZM115.4 5.8558C115.4 5.32194 115.741 4.89012 116.164 4.89012H125.396C125.818 4.89012 126.16 5.32192 126.16 5.8558C126.16 6.38968 125.818 6.82149 125.396 6.82149H116.164C115.741 6.82149 115.4 6.38968 115.4 5.8558Z" stroke="#636846" mask="url(#path-1-outside-1_140_235)"/>
</svg>
