<svg width="72" height="82" viewBox="0 0 72 82" fill="none" xmlns="http://www.w3.org/2000/svg">
<path d="M38.1367 51.154V53.6307C38.1367 54.3609 37.5228 54.9534 36.7661 54.9534C36.4271 54.9534 36.1273 54.8397 35.8881 54.6434L23.6242 45.9493C23.0103 45.5188 22.8854 44.6955 23.3315 44.1065C23.4136 43.9929 23.5243 43.8861 23.6421 43.8069L35.959 35.0784C36.5622 34.6479 37.4224 34.7684 37.8684 35.3609C38.0433 35.5986 38.1326 35.8707 38.1326 36.1359V38.6229H45.1961C48.6332 38.6229 51.767 39.98 54.0334 42.1673L54.1048 42.2465C56.3249 44.4235 57.7061 47.4133 57.7061 50.6925C57.7061 54.0095 56.2998 57.0339 54.0335 59.2212C51.767 61.4085 48.6332 62.7656 45.1961 62.7656H43.5257C42.769 62.7656 42.1551 62.1731 42.1551 61.4429C42.1551 60.7126 42.769 60.1202 43.5257 60.1202H43.7006C44.907 60.0582 46.0027 59.5656 46.8166 58.7803C47.6482 57.9777 48.1693 56.8651 48.1693 55.6423C48.1693 54.4092 47.6482 53.2862 46.8094 52.4768L46.7452 52.4148C45.9136 51.6398 44.7714 51.1541 43.5294 51.1541L38.1367 51.154ZM3.7371 16.8537H27.1008L28.9925 2.64876H12.2176L3.7371 16.8537ZM29.8603 16.8537H42.0849L40.1932 2.64876H31.752L29.8603 16.8537ZM44.8434 16.8537H68.2071L59.7268 2.64876H42.9518L44.8434 16.8537ZM69.2031 19.4991H45.0006L45.0113 27.5145C45.0113 28.2448 44.3974 28.8372 43.6407 28.8372H28.3076C27.5509 28.8372 26.937 28.2448 26.937 27.5145V19.4991H2.74181V70.6163H15.1409C14.5556 69.2316 14.2379 67.716 14.2379 66.1384C14.2379 62.8145 15.6442 59.797 17.9106 57.6097L17.9927 57.5408C20.2592 55.388 23.3572 54.0653 26.7551 54.0653H28.4183C29.175 54.0653 29.7889 54.6578 29.7889 55.388C29.7889 56.1113 29.175 56.7107 28.4183 56.7107H28.272C27.0478 56.7624 25.9413 57.2653 25.1275 58.0506C24.2852 58.8635 23.7748 59.9658 23.7748 61.1886C23.7748 62.4148 24.2959 63.5447 25.1346 64.3541L25.1989 64.4161C26.0305 65.1911 27.1727 65.6699 28.4147 65.6699H33.8042V63.1933C33.8042 62.463 34.4181 61.8706 35.1748 61.8706C35.5138 61.8706 35.8136 61.9842 36.0528 62.1806L47.9594 70.6197H69.2034L69.2031 19.4991ZM42.2667 19.4991H29.6748V26.1918H42.2667V19.4991ZM16.6644 73.2617H1.37058C0.613908 73.2617 0 72.6692 0 71.939V18.1764C0 17.894 0.0927971 17.6287 0.256983 17.4083L10.254 0.671685C10.5002 0.248006 10.9678 0.0103338 11.4318 0.0103338L60.5158 0C61.0655 0 61.5473 0.316902 61.7579 0.775025L71.7622 17.5187C71.88 17.7219 71.9442 17.9492 71.9442 18.1697V71.9323C71.9442 72.6625 71.3303 73.255 70.5737 73.255H47.9592L35.9812 81.7458C35.378 82.1763 34.5178 82.0454 34.0718 81.4633C33.8969 81.2256 33.8076 80.9535 33.8076 80.678V78.2013H26.7548C23.3106 78.2013 20.1768 76.8441 17.9103 74.6569L17.8389 74.5777C17.4178 74.1644 17.0359 73.7235 16.6683 73.255L16.6644 73.2617ZM36.5487 65.8009V66.9927C36.5487 67.7229 35.9348 68.3154 35.1781 68.3154H28.4181C26.4264 68.3154 24.6168 67.5473 23.282 66.2969L23.1999 66.228C21.865 64.9398 21.0334 63.152 21.0334 61.1921C21.0334 60.045 21.3153 58.9601 21.8293 57.999C21.1262 58.3951 20.4872 58.8705 19.9198 59.4113L19.8556 59.4802C18.0817 61.1921 16.9788 63.5448 16.9788 66.1385C16.9788 68.7047 18.0567 71.0332 19.7842 72.7348L19.8556 72.7968C21.6188 74.5088 24.0673 75.5662 26.7549 75.5662H35.1783C35.9349 75.5662 36.5488 76.1587 36.5488 76.8889V78.0808L45.2006 71.9426L36.5488 65.8045L36.5487 65.8009ZM35.3958 51.0201V49.8282C35.3958 49.1049 36.0098 48.5055 36.7664 48.5055H43.5265C45.5181 48.5055 47.3277 49.2806 48.6626 50.5241L48.7447 50.6033C50.0795 51.8915 50.9112 53.6724 50.9112 55.6392C50.9112 56.7759 50.6292 57.8609 50.1331 58.822C50.8469 58.4086 51.5037 57.9126 52.0961 57.3477C53.87 55.6357 54.9657 53.2831 54.9657 50.6894C54.9657 48.1231 53.895 45.7947 52.1604 44.0931L52.0961 44.031C50.3222 42.3191 47.8844 41.2617 45.1968 41.2617H36.7627C36.0061 41.2617 35.3922 40.6623 35.3922 39.939V38.7402L26.7404 44.8784L35.3922 51.0165L35.3958 51.0201Z" fill="#636846"/>
</svg>
