<svg width="80" height="80" viewBox="0 0 80 80" fill="none" xmlns="http://www.w3.org/2000/svg">
<path fill-rule="evenodd" clip-rule="evenodd" d="M55.6712 0H75.6557V8.57146H72.8007V23.7642L79.2029 27.3213C79.6561 27.5749 79.938 28.0535 79.938 28.5714V37.1428C79.938 37.65 79.6704 38.1178 79.235 38.375C78.7996 38.6322 78.2608 38.6357 77.8182 38.3929L75.6556 37.1893V71.4285C78.0216 71.4285 79.938 73.3464 79.938 75.7143C79.938 78.0821 78.0216 80 75.6556 80H1.42749C0.638819 80 2.74445e-05 79.3607 2.74445e-05 78.5714V72.8571C2.74445e-05 72.0678 0.638819 71.4285 1.42749 71.4285H4.28242V37.1893L2.1198 38.3929C1.67729 38.6357 1.13844 38.6322 0.703025 38.375C0.26765 38.1179 0 37.65 0 37.1428V28.5714C0 28.0535 0.281921 27.575 0.735146 27.3213L38.5846 6.27806C39.4447 5.79948 40.4938 5.79948 41.3539 6.27806L58.5264 15.8242V8.57055H55.6714L55.6712 0ZM58.5261 5.71431H72.8007V2.85715H58.5261V5.71431ZM61.381 8.57146V17.1429H60.8957L69.9458 22.1751V8.57137L61.381 8.57146ZM7.13738 35.6034V71.4289H12.8472V47.1435C12.8472 46.3542 13.486 45.7149 14.2747 45.7149H31.4043C32.1929 45.7149 32.8317 46.3542 32.8317 47.1435V71.4289H55.007C55.9955 69.7217 57.8405 68.5717 59.9532 68.5717C60.385 68.5717 60.8061 68.6181 61.2094 68.711C61.477 68.7717 61.8767 68.7646 62.2871 68.6467C62.7082 68.5288 62.9794 68.3467 63.1007 68.2038C64.4105 66.6824 66.3518 65.7145 68.518 65.7145C70.1239 65.7145 71.6084 66.2467 72.8004 67.1431V35.6038L39.9682 17.35L7.13738 35.6034ZM57.0991 74.286C57.0991 72.7074 58.3766 71.4289 59.954 71.4289C60.1717 71.4289 60.3822 71.4539 60.5857 71.5003C61.3886 71.6789 62.2772 71.6182 63.0623 71.4003C63.8402 71.1789 64.6717 70.761 65.2677 70.0682C66.0564 69.1503 67.2198 68.5718 68.5188 68.5718C70.8848 68.5718 72.8012 70.4897 72.8012 72.8575C72.8012 74.1182 74.0895 74.8182 75.1101 74.3932C75.2778 74.3254 75.4598 74.2861 75.6561 74.2861C76.4448 74.2861 77.0835 74.9254 77.0835 75.7147C77.0835 76.5039 76.4448 77.1432 75.6561 77.1432H59.9535C58.3761 77.1432 57.0991 75.8646 57.0991 74.286ZM55.0078 77.1432C54.5225 76.3039 54.2441 75.3253 54.2441 74.286H2.85541V77.1432H55.0078ZM29.9776 71.4289V48.5716H15.703V71.4289H29.9776ZM2.85536 29.4109V34.7145L38.5844 14.8497C39.4445 14.3711 40.4936 14.3711 41.3537 14.8497L77.0828 34.7145V29.4109L39.9687 8.77901L2.85536 29.4109ZM39.9694 28.5716C38.392 28.5716 37.1145 29.8501 37.1145 31.4287C37.1145 33.0073 38.392 34.2859 39.9694 34.2859C41.5468 34.2859 42.8243 33.0073 42.8243 31.4287C42.8243 29.8501 41.5468 28.5716 39.9694 28.5716ZM34.2596 31.4287C34.2596 28.2716 36.8147 25.7144 39.9694 25.7144C43.1241 25.7144 45.6793 28.2716 45.6793 31.4287C45.6793 34.5859 43.1241 37.143 39.9694 37.143C36.8147 37.143 34.2596 34.5859 34.2596 31.4287ZM44.2523 45.7145H67.0917V62.8574H44.2523V45.7145ZM47.1072 48.5717V52.8574H54.2445V48.5717H47.1072ZM57.0999 48.5717V52.8574H64.2372V48.5717H57.0999ZM64.2372 55.7145H57.0999V60.0003H64.2372V55.7145ZM54.2445 60.0003V55.7145H47.1072V60.0003H54.2445Z" fill="#636846"/>
</svg>
