<svg width="81" height="77" viewBox="0 0 81 77" fill="none" xmlns="http://www.w3.org/2000/svg">
<mask id="path-1-outside-1_140_229" maskUnits="userSpaceOnUse" x="-0.699707" y="-0.700195" width="82" height="78" fill="black">
<rect fill="white" x="-0.699707" y="-0.700195" width="82" height="78"/>
<path d="M75.3294 32.2422C72.9513 31.6188 70.4083 32.721 69.6601 34.7026L65.367 46.0403C64.3605 46.0885 63.3674 46.4114 62.5702 47.02L54.4471 53.2211C53.9261 53.6182 53.3516 53.826 52.648 53.8705C50.0472 54.0338 47.6512 55.0098 45.901 56.6204C44.124 58.257 42.9617 61.9087 42.9127 64.5064L41.9997 64.2652C41.7236 64.191 41.4252 64.2132 41.1669 64.3246C40.9086 64.4359 40.7171 64.6289 40.6325 64.859L39.3632 68.2175L38.094 64.859C37.9114 64.3802 37.3013 64.1168 36.7268 64.2652L35.8138 64.5064C35.7649 61.9087 34.5981 58.257 32.8256 56.6204C31.0753 55.0098 28.6794 54.03 26.0785 53.8705C25.3749 53.826 24.8004 53.6219 24.2794 53.2211L16.1563 47.02C15.3814 46.4299 14.4016 46.0848 13.3595 46.0403L9.06643 34.7026C8.31825 32.7209 5.7709 31.6187 3.39713 32.2422C1.14809 32.8323 -0.103268 34.7843 0.417751 36.881L4.06956 51.484C4.27442 52.2967 4.70639 52.9869 5.39673 53.5881L20.7388 66.9294L21.3668 68.3062L20.9348 68.4175C20.3603 68.5697 20.0441 69.0781 20.2222 69.5568L22.5335 75.6615C22.6181 75.8916 22.8141 76.0846 23.0679 76.1959C23.2238 76.2627 23.3975 76.2998 23.5712 76.2998C23.6825 76.2998 23.7939 76.285 23.9007 76.259L39.3546 72.1954L54.8084 76.259C54.9153 76.2887 55.0267 76.2998 55.138 76.2998C55.3117 76.2998 55.4854 76.2664 55.6412 76.1959C55.8995 76.0846 56.091 75.8916 56.1757 75.6615L58.4869 69.5568C58.6695 69.0781 58.3489 68.5696 57.7744 68.4175L57.3424 68.3062L57.9703 66.9294L73.3125 53.5881C74.0027 52.9869 74.4392 52.3003 74.6396 51.484L78.2914 36.881C78.8169 34.7843 77.5611 32.836 75.3121 32.2422H75.3294ZM22.6985 66.1061C22.6451 65.9911 22.5694 65.8871 22.4669 65.8018L6.96863 52.3265C6.55891 51.9703 6.32288 51.5955 6.19818 51.1094L2.54638 36.5064C2.29699 35.5081 2.73342 34.3169 4.04719 33.9755C5.27631 33.6526 6.59459 34.2241 6.98199 35.2483L11.1949 46.3817C10.6605 46.5895 10.1751 46.8827 9.76095 47.2538C8.94597 47.9923 8.53182 48.9535 8.58073 49.9629C8.63417 50.9686 9.15078 51.8964 10.037 52.5755L15.3678 56.6466C15.8131 56.9843 16.499 56.962 16.9087 56.5909C17.314 56.2198 17.2828 55.6483 16.8419 55.3069L11.5111 51.2358C11.0524 50.8869 10.7852 50.4045 10.7585 49.8849C10.7317 49.3617 10.9455 48.8644 11.3641 48.4821C11.7828 48.0998 12.3572 47.8772 12.9852 47.855C13.6132 47.8327 14.2099 48.0108 14.6687 48.3597L22.7918 54.5608C23.6825 55.2399 24.6979 55.6073 25.9003 55.6815C27.9401 55.8077 29.8194 56.5759 31.191 57.8376C32.7007 59.2292 33.7606 62.9515 33.6092 65.0779L23.4375 67.7499L22.6849 66.1022L22.6985 66.1061ZM24.2884 74.2444L22.6317 69.8728L36.3355 66.273L37.9922 70.6447L24.2884 74.2444ZM54.4299 74.2444L40.7261 70.6447L42.3828 66.273L56.0866 69.8728L54.4299 74.2444ZM76.1713 36.5063L72.5195 51.1093C72.3993 51.5954 72.1633 51.9702 71.7491 52.3265L56.2508 65.8017C56.1483 65.8908 56.0726 65.9947 56.0192 66.106L55.2666 67.7537L45.0948 65.0818C44.9434 62.9516 46.0033 59.2332 47.5131 57.8415C48.8847 56.5761 50.7641 55.8116 52.8038 55.6854C54.0062 55.6112 55.0216 55.2438 55.9123 54.5646L64.0354 48.3635C64.5654 47.959 65.2601 47.7957 65.9236 47.8699C65.9414 47.8736 65.9592 47.8736 65.9815 47.8774C66.4848 47.9442 66.9702 48.1446 67.3398 48.4823C68.2127 49.2764 68.1459 50.5122 67.1928 51.2358L61.862 55.3069C61.4167 55.6446 61.39 56.2198 61.7952 56.591C62.2005 56.9621 62.8908 56.9843 63.3362 56.6466L68.667 52.5756C70.5063 51.1727 70.631 48.7866 68.9475 47.2539C68.5334 46.8753 68.0435 46.5859 67.5135 46.3818L71.7265 35.2483C72.1139 34.2241 73.4322 33.6526 74.6613 33.9755C75.975 34.3206 76.4116 35.5119 76.1621 36.5102L76.1713 36.5063ZM12.5409 20.6788C12.5409 20.7122 12.5454 20.7493 12.5543 20.7864V20.7902C12.5632 20.8236 12.5721 20.857 12.581 20.8904C12.5855 20.8978 12.5855 20.9052 12.5899 20.9126C12.5988 20.9386 12.6122 20.9683 12.6255 20.9943C12.63 21.0017 12.6345 21.0091 12.6389 21.0165C12.6701 21.0759 12.7102 21.1353 12.7636 21.1909L38.4828 49.7175L38.4872 49.7213L38.5006 49.7324L38.5139 49.7435C38.5273 49.7584 38.5451 49.7769 38.5585 49.7918L38.603 49.8289C38.6208 49.8437 38.6386 49.8548 38.6565 49.8697C38.6654 49.8771 38.6787 49.8845 38.6876 49.892C38.6921 49.8957 38.6965 49.8957 38.701 49.8994C38.7054 49.9031 38.7099 49.9068 38.7188 49.9105C38.7233 49.9142 38.7322 49.9179 38.7366 49.9216C38.7633 49.9402 38.7945 49.955 38.8257 49.9699C38.8346 49.9736 38.848 49.981 38.8569 49.9847C38.8658 49.9884 38.8702 49.9922 38.8791 49.9959C38.9192 50.0144 38.9593 50.0293 39.0038 50.0404H39.0083C39.0127 50.0404 39.0172 50.0441 39.0216 50.0441C39.035 50.0478 39.0484 50.0515 39.0617 50.0552C39.0974 50.0627 39.1285 50.0701 39.1642 50.0775C39.1731 50.0812 39.182 50.0812 39.1909 50.0812C39.1998 50.0812 39.2087 50.0849 39.2221 50.0849C39.271 50.0924 39.32 50.0961 39.369 50.0961H39.3735H39.3779C39.4269 50.0961 39.4759 50.0924 39.5249 50.0849C39.5338 50.0849 39.5427 50.0812 39.5561 50.0812C39.565 50.0812 39.5739 50.0775 39.5828 50.0775C39.6184 50.0701 39.6496 50.0664 39.6852 50.0552C39.6986 50.0515 39.7119 50.0478 39.7253 50.0441C39.7297 50.0441 39.7342 50.0404 39.7387 50.0404C39.7431 50.0404 39.7431 50.0404 39.7431 50.0367C39.7832 50.0256 39.8277 50.0107 39.8678 49.9922C39.8767 49.9884 39.8812 49.9847 39.8901 49.981C39.9034 49.9773 39.9123 49.9699 39.9213 49.9662C39.9524 49.9513 39.9792 49.9365 40.0103 49.9179C40.0148 49.9142 40.0237 49.9105 40.0281 49.9068C40.0326 49.9031 40.037 49.8994 40.0415 49.8957C40.046 49.892 40.0504 49.8882 40.0549 49.8882C40.0638 49.8808 40.0771 49.8734 40.086 49.866C40.1038 49.8511 40.1217 49.84 40.1395 49.8252L40.1885 49.7843C40.2063 49.7695 40.2196 49.7547 40.233 49.7361L40.2642 49.7101L65.9833 21.1835C66.0323 21.1279 66.0724 21.0685 66.108 21.0091C66.1125 21.0017 66.117 20.9943 66.1214 20.9868C66.1348 20.9609 66.1481 20.9349 66.157 20.9052C66.1615 20.8978 66.1615 20.8904 66.1659 20.8829C66.1793 20.8495 66.1882 20.8161 66.1927 20.7827V20.779C66.2016 20.7456 66.2016 20.7085 66.206 20.6714V20.6454C66.206 20.6194 66.206 20.5935 66.2016 20.5675C66.2016 20.5564 66.1971 20.5452 66.1971 20.5341C66.1927 20.5044 66.1882 20.4747 66.1793 20.445C66.1793 20.4376 66.1748 20.4339 66.1748 20.4302C66.1659 20.3968 66.1526 20.3634 66.1392 20.33C66.1348 20.3226 66.1303 20.3151 66.1259 20.304C66.1125 20.278 66.0991 20.252 66.0858 20.2261C66.0813 20.2224 66.0813 20.2149 66.0769 20.2112L59.6461 10.1504C59.6238 10.117 59.6016 10.0873 59.5749 10.0539C59.5659 10.0465 59.5615 10.0391 59.5526 10.0316C59.5303 10.0094 59.508 9.98711 59.4858 9.96484C59.4769 9.95742 59.4724 9.95 59.4635 9.94629C59.4323 9.92031 59.4012 9.89433 59.3655 9.87207C59.3566 9.86836 59.3522 9.86465 59.3477 9.86093C59.321 9.84238 59.2898 9.82382 59.2587 9.80898C59.2497 9.80527 59.2408 9.79785 59.2319 9.79414C59.1963 9.77558 59.1562 9.76074 59.1206 9.74589C59.1206 9.74589 59.1161 9.74589 59.1161 9.74218C59.0761 9.72734 59.0315 9.7162 58.987 9.70507C58.9781 9.70136 58.9692 9.70136 58.9603 9.69765C58.9246 9.69023 58.889 9.6828 58.8534 9.67909C58.84 9.67538 58.8311 9.67538 58.8178 9.67538C58.7732 9.67167 58.7287 9.66796 58.6842 9.66796H20.0866C20.0421 9.66796 19.9975 9.67167 19.953 9.67538C19.9396 9.67538 19.9307 9.67909 19.9174 9.67909C19.8817 9.6828 19.8461 9.69023 19.8105 9.69765C19.8016 9.70136 19.7927 9.70136 19.7838 9.70507C19.7392 9.7162 19.6991 9.72734 19.6546 9.74218C19.6546 9.74218 19.6502 9.74218 19.6502 9.74589C19.6101 9.76074 19.5744 9.77558 19.5388 9.79414C19.5299 9.79785 19.521 9.80527 19.5121 9.80898C19.4809 9.82382 19.4497 9.84238 19.423 9.86093C19.4141 9.86465 19.4097 9.86836 19.4052 9.87207C19.374 9.89433 19.3384 9.92031 19.3072 9.94629C19.2983 9.95371 19.2939 9.96113 19.285 9.96484C19.2627 9.98711 19.2404 10.0094 19.2182 10.0316C19.2093 10.0391 19.2048 10.0465 19.1959 10.0539C19.1692 10.0836 19.1469 10.117 19.1246 10.1504L12.6939 20.2112C12.6939 20.2112 12.6894 20.2224 12.685 20.2261C12.6672 20.252 12.6538 20.278 12.6449 20.304C12.6404 20.3114 12.636 20.3188 12.6315 20.33C12.6182 20.3634 12.6048 20.3968 12.5959 20.4302C12.5959 20.4376 12.5915 20.4413 12.5915 20.445C12.5825 20.4747 12.5781 20.5044 12.5736 20.5341C12.5736 20.5452 12.5692 20.5564 12.5692 20.5675C12.5647 20.5935 12.5647 20.6194 12.5647 20.6454V20.6714L12.5409 20.6788ZM47.1801 19.7399H41.1769L45.7952 12.5182L50.4134 19.7399H47.1801ZM28.3106 19.7399L32.9288 12.5182L37.5471 19.7399H28.3106ZM39.3596 21.5547H45.8127L39.3596 45.1088L32.9065 21.5547H39.3596ZM48.0483 21.5547H62.9093L41.5589 45.2352L48.0483 21.5547ZM52.2257 18.7157L47.6074 11.4939H56.8395L52.2212 18.7157H52.2257ZM39.3598 18.7157L34.7416 11.4939H43.9736L39.3554 18.7157H39.3598ZM26.494 18.7157L21.8757 11.4939H31.1078L26.4895 18.7157H26.494ZM26.494 21.5547H30.6714L37.16 45.2352L15.8097 21.5547H26.494ZM54.043 19.7399L58.6612 12.5182L63.2795 19.7399H54.043ZM20.0628 12.5182L24.681 19.7399H15.4489L20.0672 12.5182H20.0628ZM80.225 9.19676C80.225 9.1745 80.2206 9.14852 80.2206 9.12625V9.1077C80.2117 9.02234 80.1849 8.94441 80.1493 8.86648C80.1092 8.78112 80.0558 8.70318 79.989 8.63639C79.9845 8.63268 79.9801 8.62525 79.9756 8.62154C79.9623 8.61041 79.9489 8.59928 79.9356 8.58814C79.9222 8.57701 79.9133 8.56959 79.9044 8.55846C79.8955 8.55103 79.8866 8.54732 79.8821 8.5399C79.8643 8.52506 79.8465 8.51021 79.8287 8.49908L79.8242 8.49537C79.7262 8.42857 79.6149 8.38033 79.4947 8.34321C79.4813 8.3395 79.4724 8.33579 79.459 8.33208C79.4546 8.33208 79.4546 8.33208 79.4501 8.32837C79.4189 8.32094 79.3833 8.31352 79.3521 8.3061C79.3165 8.29868 79.2809 8.29497 79.2453 8.29126C77.7667 8.16879 75.9898 7.02211 74.6181 5.29647C73.5805 3.99388 72.8679 2.49093 72.6141 1.06959C72.6007 1.01022 72.5874 0.947124 72.5606 0.891462C72.5517 0.869196 72.5384 0.846929 72.5295 0.824664C72.525 0.820953 72.525 0.81353 72.5206 0.809819C72.5072 0.783842 72.4894 0.761575 72.476 0.739308C72.476 0.735597 72.4716 0.735598 72.4716 0.735598C72.4582 0.717042 72.4404 0.698487 72.427 0.676221C72.4226 0.67251 72.4181 0.665088 72.4137 0.661377C72.4003 0.646533 72.387 0.635399 72.3736 0.620554C72.3647 0.609421 72.3558 0.602 72.3469 0.594577L72.2712 0.531489C72.2667 0.527778 72.2623 0.527779 72.2623 0.524068C72.1108 0.412734 71.9238 0.334803 71.71 0.308829H71.7056H71.7011C71.6744 0.305118 71.6432 0.301406 71.6165 0.301406H71.5987C71.4473 0.293984 71.3003 0.31254 71.1667 0.353362C71.1623 0.353362 71.1623 0.357072 71.1578 0.357072C71.1266 0.368205 71.0955 0.375628 71.0687 0.38676C71.0509 0.394183 71.0287 0.405317 71.0108 0.412739C70.9975 0.42016 70.9886 0.423872 70.9752 0.427583C70.9574 0.438716 70.9396 0.449849 70.9173 0.457271C70.9084 0.464694 70.895 0.468404 70.8861 0.475826C70.8683 0.486959 70.855 0.498093 70.8416 0.505514C70.8282 0.512937 70.8149 0.520359 70.806 0.531493C70.7926 0.538914 70.7837 0.550047 70.7748 0.55747C70.7614 0.568602 70.7436 0.579735 70.7303 0.59458C70.7214 0.602002 70.7169 0.605713 70.7125 0.613136C70.6946 0.627979 70.6813 0.646535 70.6635 0.66138C70.659 0.66509 70.659 0.668801 70.6546 0.672513C70.6367 0.691068 70.6189 0.713334 70.6056 0.735601C70.6056 0.739312 70.6011 0.739311 70.6011 0.743022C70.5833 0.765289 70.5699 0.787555 70.5566 0.813533C70.5521 0.824667 70.5477 0.832088 70.5432 0.843222C70.5343 0.861777 70.5254 0.87662 70.5165 0.895176C70.4898 0.950842 70.472 1.01021 70.4631 1.07331C70.2092 2.49835 69.4967 3.9976 68.459 5.30019C67.0829 7.02582 65.3105 8.17251 63.8319 8.29497H63.8274C63.8007 8.29868 63.774 8.30239 63.7517 8.3061C63.7428 8.30981 63.7294 8.30981 63.7205 8.30981C63.7116 8.31352 63.7027 8.31352 63.6938 8.31724C63.2396 8.4063 62.9011 8.72545 62.8566 9.1114V9.12996C62.8521 9.15223 62.8521 9.17449 62.8521 9.20047C62.8521 9.22274 62.8566 9.245 62.8566 9.26727V9.28953C62.8655 9.3452 62.8744 9.39716 62.8922 9.45283C62.8922 9.45654 62.8966 9.46025 62.8966 9.46396C62.9145 9.5122 62.9367 9.56044 62.9634 9.60498C62.9679 9.6124 62.9724 9.61612 62.9724 9.62354C62.9991 9.66807 63.0302 9.70518 63.0659 9.74601C63.0703 9.75343 63.0792 9.75714 63.0837 9.76456C63.1193 9.80167 63.1594 9.83507 63.1995 9.86848C63.2084 9.87219 63.2128 9.87961 63.2173 9.88332C63.2618 9.91672 63.3064 9.9427 63.3553 9.96868C63.3642 9.97239 63.3687 9.9761 63.3732 9.97981C63.4221 10.0058 63.4756 10.0281 63.5335 10.0466C63.5424 10.0503 63.5468 10.0503 63.5557 10.054C63.6136 10.0726 63.6715 10.0874 63.7294 10.0949C63.7339 10.0949 63.7428 10.0948 63.7472 10.0986C63.774 10.1023 63.8051 10.106 63.8319 10.1097C65.3104 10.2322 67.0829 11.3788 68.459 13.1045C69.4967 14.4071 70.2093 15.91 70.463 17.3314C70.472 17.3833 70.4898 17.4353 70.5076 17.4835C70.512 17.4872 70.512 17.4909 70.512 17.4984C70.5298 17.5429 70.5566 17.5874 70.5833 17.6282C70.5877 17.6357 70.5922 17.6431 70.5966 17.6505C70.6234 17.6876 70.6545 17.7284 70.6902 17.7618C70.6991 17.7693 70.7035 17.7767 70.7124 17.7841C70.7481 17.8175 70.7881 17.8509 70.8282 17.8806C70.8327 17.8843 70.8416 17.888 70.846 17.8954C70.8906 17.9251 70.9351 17.9548 70.9841 17.9808C70.9885 17.9845 70.993 17.9845 70.993 17.9845C71.042 18.0105 71.0954 18.029 71.1533 18.0476C71.1578 18.0476 71.1578 18.0513 71.1622 18.0513C71.2157 18.0662 71.2691 18.081 71.327 18.0884C71.3404 18.0921 71.3493 18.0921 71.3626 18.0958C71.3715 18.0958 71.376 18.0996 71.3849 18.0996C71.4339 18.107 71.4829 18.107 71.5319 18.1107H71.5452H71.5586C71.6076 18.1107 71.6566 18.107 71.7056 18.0996C71.7145 18.0996 71.7189 18.0958 71.7278 18.0958C71.7412 18.0921 71.7501 18.0921 71.7634 18.0884C71.8213 18.0773 71.8748 18.0662 71.9282 18.0513C71.9327 18.0513 71.9327 18.0476 71.9371 18.0476C71.995 18.029 72.044 18.0105 72.0974 17.9845C72.1019 17.9808 72.1064 17.9808 72.1064 17.9808C72.1553 17.9548 72.2043 17.9288 72.2444 17.8954C72.2489 17.8917 72.2578 17.888 72.2622 17.8806C72.3023 17.8509 72.3424 17.8175 72.378 17.7841C72.3869 17.7767 72.3914 17.7693 72.4003 17.7618C72.4359 17.7284 72.4671 17.6876 72.4938 17.6505C72.4982 17.6431 72.5027 17.6357 72.5072 17.6282C72.5339 17.5874 72.5606 17.5429 72.5784 17.4984C72.5829 17.4946 72.5829 17.4909 72.5829 17.4835C72.6051 17.4353 72.6185 17.3833 72.6274 17.3314C72.8813 15.9063 73.5938 14.4071 74.6314 13.1045C76.0075 11.3788 77.78 10.2322 79.2586 10.1097C79.2898 10.106 79.3165 10.1023 79.3432 10.0986C79.3477 10.0986 79.3566 10.0986 79.361 10.0949C79.4234 10.0837 79.4813 10.0689 79.5347 10.054C79.5436 10.0503 79.5481 10.0503 79.557 10.0466C79.6149 10.0281 79.6638 10.0058 79.7173 9.97981C79.7262 9.9761 79.7306 9.97239 79.7351 9.96868C79.7841 9.9427 79.8331 9.91301 79.8731 9.87961C79.8821 9.8759 79.8865 9.86848 79.891 9.86477C79.931 9.83137 79.9711 9.79797 80.0067 9.76085C80.0112 9.75343 80.0201 9.74972 80.0246 9.74229C80.0602 9.70518 80.0914 9.66436 80.1181 9.61983C80.1225 9.6124 80.127 9.60869 80.127 9.60127C80.1537 9.55674 80.176 9.5085 80.1938 9.46025C80.1938 9.45654 80.1982 9.45283 80.1982 9.44912C80.2161 9.39716 80.2294 9.3415 80.2339 9.28582V9.26356C80.2383 9.24129 80.2383 9.21902 80.2383 9.19676L80.225 9.19676ZM72.7967 12.0914C72.3113 12.7037 71.8837 13.3532 71.5319 14.0249C71.1756 13.3569 70.7525 12.7038 70.2671 12.0914C69.2784 10.8519 68.1072 9.86103 66.8914 9.19676C68.1072 8.5362 69.2785 7.54532 70.2671 6.30211C70.7525 5.68979 71.18 5.04038 71.5319 4.36861C71.8882 5.03661 72.3112 5.68972 72.7967 6.30211C73.7854 7.54162 74.9566 8.5325 76.1724 9.19676C74.9566 9.85733 73.7853 10.8482 72.7967 12.0914Z"/>
</mask>
<path d="M75.3294 32.2422C72.9513 31.6188 70.4083 32.721 69.6601 34.7026L65.367 46.0403C64.3605 46.0885 63.3674 46.4114 62.5702 47.02L54.4471 53.2211C53.9261 53.6182 53.3516 53.826 52.648 53.8705C50.0472 54.0338 47.6512 55.0098 45.901 56.6204C44.124 58.257 42.9617 61.9087 42.9127 64.5064L41.9997 64.2652C41.7236 64.191 41.4252 64.2132 41.1669 64.3246C40.9086 64.4359 40.7171 64.6289 40.6325 64.859L39.3632 68.2175L38.094 64.859C37.9114 64.3802 37.3013 64.1168 36.7268 64.2652L35.8138 64.5064C35.7649 61.9087 34.5981 58.257 32.8256 56.6204C31.0753 55.0098 28.6794 54.03 26.0785 53.8705C25.3749 53.826 24.8004 53.6219 24.2794 53.2211L16.1563 47.02C15.3814 46.4299 14.4016 46.0848 13.3595 46.0403L9.06643 34.7026C8.31825 32.7209 5.7709 31.6187 3.39713 32.2422C1.14809 32.8323 -0.103268 34.7843 0.417751 36.881L4.06956 51.484C4.27442 52.2967 4.70639 52.9869 5.39673 53.5881L20.7388 66.9294L21.3668 68.3062L20.9348 68.4175C20.3603 68.5697 20.0441 69.0781 20.2222 69.5568L22.5335 75.6615C22.6181 75.8916 22.8141 76.0846 23.0679 76.1959C23.2238 76.2627 23.3975 76.2998 23.5712 76.2998C23.6825 76.2998 23.7939 76.285 23.9007 76.259L39.3546 72.1954L54.8084 76.259C54.9153 76.2887 55.0267 76.2998 55.138 76.2998C55.3117 76.2998 55.4854 76.2664 55.6412 76.1959C55.8995 76.0846 56.091 75.8916 56.1757 75.6615L58.4869 69.5568C58.6695 69.0781 58.3489 68.5696 57.7744 68.4175L57.3424 68.3062L57.9703 66.9294L73.3125 53.5881C74.0027 52.9869 74.4392 52.3003 74.6396 51.484L78.2914 36.881C78.8169 34.7843 77.5611 32.836 75.3121 32.2422H75.3294ZM22.6985 66.1061C22.6451 65.9911 22.5694 65.8871 22.4669 65.8018L6.96863 52.3265C6.55891 51.9703 6.32288 51.5955 6.19818 51.1094L2.54638 36.5064C2.29699 35.5081 2.73342 34.3169 4.04719 33.9755C5.27631 33.6526 6.59459 34.2241 6.98199 35.2483L11.1949 46.3817C10.6605 46.5895 10.1751 46.8827 9.76095 47.2538C8.94597 47.9923 8.53182 48.9535 8.58073 49.9629C8.63417 50.9686 9.15078 51.8964 10.037 52.5755L15.3678 56.6466C15.8131 56.9843 16.499 56.962 16.9087 56.5909C17.314 56.2198 17.2828 55.6483 16.8419 55.3069L11.5111 51.2358C11.0524 50.8869 10.7852 50.4045 10.7585 49.8849C10.7317 49.3617 10.9455 48.8644 11.3641 48.4821C11.7828 48.0998 12.3572 47.8772 12.9852 47.855C13.6132 47.8327 14.2099 48.0108 14.6687 48.3597L22.7918 54.5608C23.6825 55.2399 24.6979 55.6073 25.9003 55.6815C27.9401 55.8077 29.8194 56.5759 31.191 57.8376C32.7007 59.2292 33.7606 62.9515 33.6092 65.0779L23.4375 67.7499L22.6849 66.1022L22.6985 66.1061ZM24.2884 74.2444L22.6317 69.8728L36.3355 66.273L37.9922 70.6447L24.2884 74.2444ZM54.4299 74.2444L40.7261 70.6447L42.3828 66.273L56.0866 69.8728L54.4299 74.2444ZM76.1713 36.5063L72.5195 51.1093C72.3993 51.5954 72.1633 51.9702 71.7491 52.3265L56.2508 65.8017C56.1483 65.8908 56.0726 65.9947 56.0192 66.106L55.2666 67.7537L45.0948 65.0818C44.9434 62.9516 46.0033 59.2332 47.5131 57.8415C48.8847 56.5761 50.7641 55.8116 52.8038 55.6854C54.0062 55.6112 55.0216 55.2438 55.9123 54.5646L64.0354 48.3635C64.5654 47.959 65.2601 47.7957 65.9236 47.8699C65.9414 47.8736 65.9592 47.8736 65.9815 47.8774C66.4848 47.9442 66.9702 48.1446 67.3398 48.4823C68.2127 49.2764 68.1459 50.5122 67.1928 51.2358L61.862 55.3069C61.4167 55.6446 61.39 56.2198 61.7952 56.591C62.2005 56.9621 62.8908 56.9843 63.3362 56.6466L68.667 52.5756C70.5063 51.1727 70.631 48.7866 68.9475 47.2539C68.5334 46.8753 68.0435 46.5859 67.5135 46.3818L71.7265 35.2483C72.1139 34.2241 73.4322 33.6526 74.6613 33.9755C75.975 34.3206 76.4116 35.5119 76.1621 36.5102L76.1713 36.5063ZM12.5409 20.6788C12.5409 20.7122 12.5454 20.7493 12.5543 20.7864V20.7902C12.5632 20.8236 12.5721 20.857 12.581 20.8904C12.5855 20.8978 12.5855 20.9052 12.5899 20.9126C12.5988 20.9386 12.6122 20.9683 12.6255 20.9943C12.63 21.0017 12.6345 21.0091 12.6389 21.0165C12.6701 21.0759 12.7102 21.1353 12.7636 21.1909L38.4828 49.7175L38.4872 49.7213L38.5006 49.7324L38.5139 49.7435C38.5273 49.7584 38.5451 49.7769 38.5585 49.7918L38.603 49.8289C38.6208 49.8437 38.6386 49.8548 38.6565 49.8697C38.6654 49.8771 38.6787 49.8845 38.6876 49.892C38.6921 49.8957 38.6965 49.8957 38.701 49.8994C38.7054 49.9031 38.7099 49.9068 38.7188 49.9105C38.7233 49.9142 38.7322 49.9179 38.7366 49.9216C38.7633 49.9402 38.7945 49.955 38.8257 49.9699C38.8346 49.9736 38.848 49.981 38.8569 49.9847C38.8658 49.9884 38.8702 49.9922 38.8791 49.9959C38.9192 50.0144 38.9593 50.0293 39.0038 50.0404H39.0083C39.0127 50.0404 39.0172 50.0441 39.0216 50.0441C39.035 50.0478 39.0484 50.0515 39.0617 50.0552C39.0974 50.0627 39.1285 50.0701 39.1642 50.0775C39.1731 50.0812 39.182 50.0812 39.1909 50.0812C39.1998 50.0812 39.2087 50.0849 39.2221 50.0849C39.271 50.0924 39.32 50.0961 39.369 50.0961H39.3735H39.3779C39.4269 50.0961 39.4759 50.0924 39.5249 50.0849C39.5338 50.0849 39.5427 50.0812 39.5561 50.0812C39.565 50.0812 39.5739 50.0775 39.5828 50.0775C39.6184 50.0701 39.6496 50.0664 39.6852 50.0552C39.6986 50.0515 39.7119 50.0478 39.7253 50.0441C39.7297 50.0441 39.7342 50.0404 39.7387 50.0404C39.7431 50.0404 39.7431 50.0404 39.7431 50.0367C39.7832 50.0256 39.8277 50.0107 39.8678 49.9922C39.8767 49.9884 39.8812 49.9847 39.8901 49.981C39.9034 49.9773 39.9123 49.9699 39.9213 49.9662C39.9524 49.9513 39.9792 49.9365 40.0103 49.9179C40.0148 49.9142 40.0237 49.9105 40.0281 49.9068C40.0326 49.9031 40.037 49.8994 40.0415 49.8957C40.046 49.892 40.0504 49.8882 40.0549 49.8882C40.0638 49.8808 40.0771 49.8734 40.086 49.866C40.1038 49.8511 40.1217 49.84 40.1395 49.8252L40.1885 49.7843C40.2063 49.7695 40.2196 49.7547 40.233 49.7361L40.2642 49.7101L65.9833 21.1835C66.0323 21.1279 66.0724 21.0685 66.108 21.0091C66.1125 21.0017 66.117 20.9943 66.1214 20.9868C66.1348 20.9609 66.1481 20.9349 66.157 20.9052C66.1615 20.8978 66.1615 20.8904 66.1659 20.8829C66.1793 20.8495 66.1882 20.8161 66.1927 20.7827V20.779C66.2016 20.7456 66.2016 20.7085 66.206 20.6714V20.6454C66.206 20.6194 66.206 20.5935 66.2016 20.5675C66.2016 20.5564 66.1971 20.5452 66.1971 20.5341C66.1927 20.5044 66.1882 20.4747 66.1793 20.445C66.1793 20.4376 66.1748 20.4339 66.1748 20.4302C66.1659 20.3968 66.1526 20.3634 66.1392 20.33C66.1348 20.3226 66.1303 20.3151 66.1259 20.304C66.1125 20.278 66.0991 20.252 66.0858 20.2261C66.0813 20.2224 66.0813 20.2149 66.0769 20.2112L59.6461 10.1504C59.6238 10.117 59.6016 10.0873 59.5749 10.0539C59.5659 10.0465 59.5615 10.0391 59.5526 10.0316C59.5303 10.0094 59.508 9.98711 59.4858 9.96484C59.4769 9.95742 59.4724 9.95 59.4635 9.94629C59.4323 9.92031 59.4012 9.89433 59.3655 9.87207C59.3566 9.86836 59.3522 9.86465 59.3477 9.86093C59.321 9.84238 59.2898 9.82382 59.2587 9.80898C59.2497 9.80527 59.2408 9.79785 59.2319 9.79414C59.1963 9.77558 59.1562 9.76074 59.1206 9.74589C59.1206 9.74589 59.1161 9.74589 59.1161 9.74218C59.0761 9.72734 59.0315 9.7162 58.987 9.70507C58.9781 9.70136 58.9692 9.70136 58.9603 9.69765C58.9246 9.69023 58.889 9.6828 58.8534 9.67909C58.84 9.67538 58.8311 9.67538 58.8178 9.67538C58.7732 9.67167 58.7287 9.66796 58.6842 9.66796H20.0866C20.0421 9.66796 19.9975 9.67167 19.953 9.67538C19.9396 9.67538 19.9307 9.67909 19.9174 9.67909C19.8817 9.6828 19.8461 9.69023 19.8105 9.69765C19.8016 9.70136 19.7927 9.70136 19.7838 9.70507C19.7392 9.7162 19.6991 9.72734 19.6546 9.74218C19.6546 9.74218 19.6502 9.74218 19.6502 9.74589C19.6101 9.76074 19.5744 9.77558 19.5388 9.79414C19.5299 9.79785 19.521 9.80527 19.5121 9.80898C19.4809 9.82382 19.4497 9.84238 19.423 9.86093C19.4141 9.86465 19.4097 9.86836 19.4052 9.87207C19.374 9.89433 19.3384 9.92031 19.3072 9.94629C19.2983 9.95371 19.2939 9.96113 19.285 9.96484C19.2627 9.98711 19.2404 10.0094 19.2182 10.0316C19.2093 10.0391 19.2048 10.0465 19.1959 10.0539C19.1692 10.0836 19.1469 10.117 19.1246 10.1504L12.6939 20.2112C12.6939 20.2112 12.6894 20.2224 12.685 20.2261C12.6672 20.252 12.6538 20.278 12.6449 20.304C12.6404 20.3114 12.636 20.3188 12.6315 20.33C12.6182 20.3634 12.6048 20.3968 12.5959 20.4302C12.5959 20.4376 12.5915 20.4413 12.5915 20.445C12.5825 20.4747 12.5781 20.5044 12.5736 20.5341C12.5736 20.5452 12.5692 20.5564 12.5692 20.5675C12.5647 20.5935 12.5647 20.6194 12.5647 20.6454V20.6714L12.5409 20.6788ZM47.1801 19.7399H41.1769L45.7952 12.5182L50.4134 19.7399H47.1801ZM28.3106 19.7399L32.9288 12.5182L37.5471 19.7399H28.3106ZM39.3596 21.5547H45.8127L39.3596 45.1088L32.9065 21.5547H39.3596ZM48.0483 21.5547H62.9093L41.5589 45.2352L48.0483 21.5547ZM52.2257 18.7157L47.6074 11.4939H56.8395L52.2212 18.7157H52.2257ZM39.3598 18.7157L34.7416 11.4939H43.9736L39.3554 18.7157H39.3598ZM26.494 18.7157L21.8757 11.4939H31.1078L26.4895 18.7157H26.494ZM26.494 21.5547H30.6714L37.16 45.2352L15.8097 21.5547H26.494ZM54.043 19.7399L58.6612 12.5182L63.2795 19.7399H54.043ZM20.0628 12.5182L24.681 19.7399H15.4489L20.0672 12.5182H20.0628ZM80.225 9.19676C80.225 9.1745 80.2206 9.14852 80.2206 9.12625V9.1077C80.2117 9.02234 80.1849 8.94441 80.1493 8.86648C80.1092 8.78112 80.0558 8.70318 79.989 8.63639C79.9845 8.63268 79.9801 8.62525 79.9756 8.62154C79.9623 8.61041 79.9489 8.59928 79.9356 8.58814C79.9222 8.57701 79.9133 8.56959 79.9044 8.55846C79.8955 8.55103 79.8866 8.54732 79.8821 8.5399C79.8643 8.52506 79.8465 8.51021 79.8287 8.49908L79.8242 8.49537C79.7262 8.42857 79.6149 8.38033 79.4947 8.34321C79.4813 8.3395 79.4724 8.33579 79.459 8.33208C79.4546 8.33208 79.4546 8.33208 79.4501 8.32837C79.4189 8.32094 79.3833 8.31352 79.3521 8.3061C79.3165 8.29868 79.2809 8.29497 79.2453 8.29126C77.7667 8.16879 75.9898 7.02211 74.6181 5.29647C73.5805 3.99388 72.8679 2.49093 72.6141 1.06959C72.6007 1.01022 72.5874 0.947124 72.5606 0.891462C72.5517 0.869196 72.5384 0.846929 72.5295 0.824664C72.525 0.820953 72.525 0.81353 72.5206 0.809819C72.5072 0.783842 72.4894 0.761575 72.476 0.739308C72.476 0.735597 72.4716 0.735598 72.4716 0.735598C72.4582 0.717042 72.4404 0.698487 72.427 0.676221C72.4226 0.67251 72.4181 0.665088 72.4137 0.661377C72.4003 0.646533 72.387 0.635399 72.3736 0.620554C72.3647 0.609421 72.3558 0.602 72.3469 0.594577L72.2712 0.531489C72.2667 0.527778 72.2623 0.527779 72.2623 0.524068C72.1108 0.412734 71.9238 0.334803 71.71 0.308829H71.7056H71.7011C71.6744 0.305118 71.6432 0.301406 71.6165 0.301406H71.5987C71.4473 0.293984 71.3003 0.31254 71.1667 0.353362C71.1623 0.353362 71.1623 0.357072 71.1578 0.357072C71.1266 0.368205 71.0955 0.375628 71.0687 0.38676C71.0509 0.394183 71.0287 0.405317 71.0108 0.412739C70.9975 0.42016 70.9886 0.423872 70.9752 0.427583C70.9574 0.438716 70.9396 0.449849 70.9173 0.457271C70.9084 0.464694 70.895 0.468404 70.8861 0.475826C70.8683 0.486959 70.855 0.498093 70.8416 0.505514C70.8282 0.512937 70.8149 0.520359 70.806 0.531493C70.7926 0.538914 70.7837 0.550047 70.7748 0.55747C70.7614 0.568602 70.7436 0.579735 70.7303 0.59458C70.7214 0.602002 70.7169 0.605713 70.7125 0.613136C70.6946 0.627979 70.6813 0.646535 70.6635 0.66138C70.659 0.66509 70.659 0.668801 70.6546 0.672513C70.6367 0.691068 70.6189 0.713334 70.6056 0.735601C70.6056 0.739312 70.6011 0.739311 70.6011 0.743022C70.5833 0.765289 70.5699 0.787555 70.5566 0.813533C70.5521 0.824667 70.5477 0.832088 70.5432 0.843222C70.5343 0.861777 70.5254 0.87662 70.5165 0.895176C70.4898 0.950842 70.472 1.01021 70.4631 1.07331C70.2092 2.49835 69.4967 3.9976 68.459 5.30019C67.0829 7.02582 65.3105 8.17251 63.8319 8.29497H63.8274C63.8007 8.29868 63.774 8.30239 63.7517 8.3061C63.7428 8.30981 63.7294 8.30981 63.7205 8.30981C63.7116 8.31352 63.7027 8.31352 63.6938 8.31724C63.2396 8.4063 62.9011 8.72545 62.8566 9.1114V9.12996C62.8521 9.15223 62.8521 9.17449 62.8521 9.20047C62.8521 9.22274 62.8566 9.245 62.8566 9.26727V9.28953C62.8655 9.3452 62.8744 9.39716 62.8922 9.45283C62.8922 9.45654 62.8966 9.46025 62.8966 9.46396C62.9145 9.5122 62.9367 9.56044 62.9634 9.60498C62.9679 9.6124 62.9724 9.61612 62.9724 9.62354C62.9991 9.66807 63.0302 9.70518 63.0659 9.74601C63.0703 9.75343 63.0792 9.75714 63.0837 9.76456C63.1193 9.80167 63.1594 9.83507 63.1995 9.86848C63.2084 9.87219 63.2128 9.87961 63.2173 9.88332C63.2618 9.91672 63.3064 9.9427 63.3553 9.96868C63.3642 9.97239 63.3687 9.9761 63.3732 9.97981C63.4221 10.0058 63.4756 10.0281 63.5335 10.0466C63.5424 10.0503 63.5468 10.0503 63.5557 10.054C63.6136 10.0726 63.6715 10.0874 63.7294 10.0949C63.7339 10.0949 63.7428 10.0948 63.7472 10.0986C63.774 10.1023 63.8051 10.106 63.8319 10.1097C65.3104 10.2322 67.0829 11.3788 68.459 13.1045C69.4967 14.4071 70.2093 15.91 70.463 17.3314C70.472 17.3833 70.4898 17.4353 70.5076 17.4835C70.512 17.4872 70.512 17.4909 70.512 17.4984C70.5298 17.5429 70.5566 17.5874 70.5833 17.6282C70.5877 17.6357 70.5922 17.6431 70.5966 17.6505C70.6234 17.6876 70.6545 17.7284 70.6902 17.7618C70.6991 17.7693 70.7035 17.7767 70.7124 17.7841C70.7481 17.8175 70.7881 17.8509 70.8282 17.8806C70.8327 17.8843 70.8416 17.888 70.846 17.8954C70.8906 17.9251 70.9351 17.9548 70.9841 17.9808C70.9885 17.9845 70.993 17.9845 70.993 17.9845C71.042 18.0105 71.0954 18.029 71.1533 18.0476C71.1578 18.0476 71.1578 18.0513 71.1622 18.0513C71.2157 18.0662 71.2691 18.081 71.327 18.0884C71.3404 18.0921 71.3493 18.0921 71.3626 18.0958C71.3715 18.0958 71.376 18.0996 71.3849 18.0996C71.4339 18.107 71.4829 18.107 71.5319 18.1107H71.5452H71.5586C71.6076 18.1107 71.6566 18.107 71.7056 18.0996C71.7145 18.0996 71.7189 18.0958 71.7278 18.0958C71.7412 18.0921 71.7501 18.0921 71.7634 18.0884C71.8213 18.0773 71.8748 18.0662 71.9282 18.0513C71.9327 18.0513 71.9327 18.0476 71.9371 18.0476C71.995 18.029 72.044 18.0105 72.0974 17.9845C72.1019 17.9808 72.1064 17.9808 72.1064 17.9808C72.1553 17.9548 72.2043 17.9288 72.2444 17.8954C72.2489 17.8917 72.2578 17.888 72.2622 17.8806C72.3023 17.8509 72.3424 17.8175 72.378 17.7841C72.3869 17.7767 72.3914 17.7693 72.4003 17.7618C72.4359 17.7284 72.4671 17.6876 72.4938 17.6505C72.4982 17.6431 72.5027 17.6357 72.5072 17.6282C72.5339 17.5874 72.5606 17.5429 72.5784 17.4984C72.5829 17.4946 72.5829 17.4909 72.5829 17.4835C72.6051 17.4353 72.6185 17.3833 72.6274 17.3314C72.8813 15.9063 73.5938 14.4071 74.6314 13.1045C76.0075 11.3788 77.78 10.2322 79.2586 10.1097C79.2898 10.106 79.3165 10.1023 79.3432 10.0986C79.3477 10.0986 79.3566 10.0986 79.361 10.0949C79.4234 10.0837 79.4813 10.0689 79.5347 10.054C79.5436 10.0503 79.5481 10.0503 79.557 10.0466C79.6149 10.0281 79.6638 10.0058 79.7173 9.97981C79.7262 9.9761 79.7306 9.97239 79.7351 9.96868C79.7841 9.9427 79.8331 9.91301 79.8731 9.87961C79.8821 9.8759 79.8865 9.86848 79.891 9.86477C79.931 9.83137 79.9711 9.79797 80.0067 9.76085C80.0112 9.75343 80.0201 9.74972 80.0246 9.74229C80.0602 9.70518 80.0914 9.66436 80.1181 9.61983C80.1225 9.6124 80.127 9.60869 80.127 9.60127C80.1537 9.55674 80.176 9.5085 80.1938 9.46025C80.1938 9.45654 80.1982 9.45283 80.1982 9.44912C80.2161 9.39716 80.2294 9.3415 80.2339 9.28582V9.26356C80.2383 9.24129 80.2383 9.21902 80.2383 9.19676L80.225 9.19676ZM72.7967 12.0914C72.3113 12.7037 71.8837 13.3532 71.5319 14.0249C71.1756 13.3569 70.7525 12.7038 70.2671 12.0914C69.2784 10.8519 68.1072 9.86103 66.8914 9.19676C68.1072 8.5362 69.2785 7.54532 70.2671 6.30211C70.7525 5.68979 71.18 5.04038 71.5319 4.36861C71.8882 5.03661 72.3112 5.68972 72.7967 6.30211C73.7854 7.54162 74.9566 8.5325 76.1724 9.19676C74.9566 9.85733 73.7853 10.8482 72.7967 12.0914Z" fill="#636846"/>
<path d="M75.3294 32.2422C72.9513 31.6188 70.4083 32.721 69.6601 34.7026L65.367 46.0403C64.3605 46.0885 63.3674 46.4114 62.5702 47.02L54.4471 53.2211C53.9261 53.6182 53.3516 53.826 52.648 53.8705C50.0472 54.0338 47.6512 55.0098 45.901 56.6204C44.124 58.257 42.9617 61.9087 42.9127 64.5064L41.9997 64.2652C41.7236 64.191 41.4252 64.2132 41.1669 64.3246C40.9086 64.4359 40.7171 64.6289 40.6325 64.859L39.3632 68.2175L38.094 64.859C37.9114 64.3802 37.3013 64.1168 36.7268 64.2652L35.8138 64.5064C35.7649 61.9087 34.5981 58.257 32.8256 56.6204C31.0753 55.0098 28.6794 54.03 26.0785 53.8705C25.3749 53.826 24.8004 53.6219 24.2794 53.2211L16.1563 47.02C15.3814 46.4299 14.4016 46.0848 13.3595 46.0403L9.06643 34.7026C8.31825 32.7209 5.7709 31.6187 3.39713 32.2422C1.14809 32.8323 -0.103268 34.7843 0.417751 36.881L4.06956 51.484C4.27442 52.2967 4.70639 52.9869 5.39673 53.5881L20.7388 66.9294L21.3668 68.3062L20.9348 68.4175C20.3603 68.5697 20.0441 69.0781 20.2222 69.5568L22.5335 75.6615C22.6181 75.8916 22.8141 76.0846 23.0679 76.1959C23.2238 76.2627 23.3975 76.2998 23.5712 76.2998C23.6825 76.2998 23.7939 76.285 23.9007 76.259L39.3546 72.1954L54.8084 76.259C54.9153 76.2887 55.0267 76.2998 55.138 76.2998C55.3117 76.2998 55.4854 76.2664 55.6412 76.1959C55.8995 76.0846 56.091 75.8916 56.1757 75.6615L58.4869 69.5568C58.6695 69.0781 58.3489 68.5696 57.7744 68.4175L57.3424 68.3062L57.9703 66.9294L73.3125 53.5881C74.0027 52.9869 74.4392 52.3003 74.6396 51.484L78.2914 36.881C78.8169 34.7843 77.5611 32.836 75.3121 32.2422H75.3294ZM22.6985 66.1061C22.6451 65.9911 22.5694 65.8871 22.4669 65.8018L6.96863 52.3265C6.55891 51.9703 6.32288 51.5955 6.19818 51.1094L2.54638 36.5064C2.29699 35.5081 2.73342 34.3169 4.04719 33.9755C5.27631 33.6526 6.59459 34.2241 6.98199 35.2483L11.1949 46.3817C10.6605 46.5895 10.1751 46.8827 9.76095 47.2538C8.94597 47.9923 8.53182 48.9535 8.58073 49.9629C8.63417 50.9686 9.15078 51.8964 10.037 52.5755L15.3678 56.6466C15.8131 56.9843 16.499 56.962 16.9087 56.5909C17.314 56.2198 17.2828 55.6483 16.8419 55.3069L11.5111 51.2358C11.0524 50.8869 10.7852 50.4045 10.7585 49.8849C10.7317 49.3617 10.9455 48.8644 11.3641 48.4821C11.7828 48.0998 12.3572 47.8772 12.9852 47.855C13.6132 47.8327 14.2099 48.0108 14.6687 48.3597L22.7918 54.5608C23.6825 55.2399 24.6979 55.6073 25.9003 55.6815C27.9401 55.8077 29.8194 56.5759 31.191 57.8376C32.7007 59.2292 33.7606 62.9515 33.6092 65.0779L23.4375 67.7499L22.6849 66.1022L22.6985 66.1061ZM24.2884 74.2444L22.6317 69.8728L36.3355 66.273L37.9922 70.6447L24.2884 74.2444ZM54.4299 74.2444L40.7261 70.6447L42.3828 66.273L56.0866 69.8728L54.4299 74.2444ZM76.1713 36.5063L72.5195 51.1093C72.3993 51.5954 72.1633 51.9702 71.7491 52.3265L56.2508 65.8017C56.1483 65.8908 56.0726 65.9947 56.0192 66.106L55.2666 67.7537L45.0948 65.0818C44.9434 62.9516 46.0033 59.2332 47.5131 57.8415C48.8847 56.5761 50.7641 55.8116 52.8038 55.6854C54.0062 55.6112 55.0216 55.2438 55.9123 54.5646L64.0354 48.3635C64.5654 47.959 65.2601 47.7957 65.9236 47.8699C65.9414 47.8736 65.9592 47.8736 65.9815 47.8774C66.4848 47.9442 66.9702 48.1446 67.3398 48.4823C68.2127 49.2764 68.1459 50.5122 67.1928 51.2358L61.862 55.3069C61.4167 55.6446 61.39 56.2198 61.7952 56.591C62.2005 56.9621 62.8908 56.9843 63.3362 56.6466L68.667 52.5756C70.5063 51.1727 70.631 48.7866 68.9475 47.2539C68.5334 46.8753 68.0435 46.5859 67.5135 46.3818L71.7265 35.2483C72.1139 34.2241 73.4322 33.6526 74.6613 33.9755C75.975 34.3206 76.4116 35.5119 76.1621 36.5102L76.1713 36.5063ZM12.5409 20.6788C12.5409 20.7122 12.5454 20.7493 12.5543 20.7864V20.7902C12.5632 20.8236 12.5721 20.857 12.581 20.8904C12.5855 20.8978 12.5855 20.9052 12.5899 20.9126C12.5988 20.9386 12.6122 20.9683 12.6255 20.9943C12.63 21.0017 12.6345 21.0091 12.6389 21.0165C12.6701 21.0759 12.7102 21.1353 12.7636 21.1909L38.4828 49.7175L38.4872 49.7213L38.5006 49.7324L38.5139 49.7435C38.5273 49.7584 38.5451 49.7769 38.5585 49.7918L38.603 49.8289C38.6208 49.8437 38.6386 49.8548 38.6565 49.8697C38.6654 49.8771 38.6787 49.8845 38.6876 49.892C38.6921 49.8957 38.6965 49.8957 38.701 49.8994C38.7054 49.9031 38.7099 49.9068 38.7188 49.9105C38.7233 49.9142 38.7322 49.9179 38.7366 49.9216C38.7633 49.9402 38.7945 49.955 38.8257 49.9699C38.8346 49.9736 38.848 49.981 38.8569 49.9847C38.8658 49.9884 38.8702 49.9922 38.8791 49.9959C38.9192 50.0144 38.9593 50.0293 39.0038 50.0404H39.0083C39.0127 50.0404 39.0172 50.0441 39.0216 50.0441C39.035 50.0478 39.0484 50.0515 39.0617 50.0552C39.0974 50.0627 39.1285 50.0701 39.1642 50.0775C39.1731 50.0812 39.182 50.0812 39.1909 50.0812C39.1998 50.0812 39.2087 50.0849 39.2221 50.0849C39.271 50.0924 39.32 50.0961 39.369 50.0961H39.3735H39.3779C39.4269 50.0961 39.4759 50.0924 39.5249 50.0849C39.5338 50.0849 39.5427 50.0812 39.5561 50.0812C39.565 50.0812 39.5739 50.0775 39.5828 50.0775C39.6184 50.0701 39.6496 50.0664 39.6852 50.0552C39.6986 50.0515 39.7119 50.0478 39.7253 50.0441C39.7297 50.0441 39.7342 50.0404 39.7387 50.0404C39.7431 50.0404 39.7431 50.0404 39.7431 50.0367C39.7832 50.0256 39.8277 50.0107 39.8678 49.9922C39.8767 49.9884 39.8812 49.9847 39.8901 49.981C39.9034 49.9773 39.9123 49.9699 39.9213 49.9662C39.9524 49.9513 39.9792 49.9365 40.0103 49.9179C40.0148 49.9142 40.0237 49.9105 40.0281 49.9068C40.0326 49.9031 40.037 49.8994 40.0415 49.8957C40.046 49.892 40.0504 49.8882 40.0549 49.8882C40.0638 49.8808 40.0771 49.8734 40.086 49.866C40.1038 49.8511 40.1217 49.84 40.1395 49.8252L40.1885 49.7843C40.2063 49.7695 40.2196 49.7547 40.233 49.7361L40.2642 49.7101L65.9833 21.1835C66.0323 21.1279 66.0724 21.0685 66.108 21.0091C66.1125 21.0017 66.117 20.9943 66.1214 20.9868C66.1348 20.9609 66.1481 20.9349 66.157 20.9052C66.1615 20.8978 66.1615 20.8904 66.1659 20.8829C66.1793 20.8495 66.1882 20.8161 66.1927 20.7827V20.779C66.2016 20.7456 66.2016 20.7085 66.206 20.6714V20.6454C66.206 20.6194 66.206 20.5935 66.2016 20.5675C66.2016 20.5564 66.1971 20.5452 66.1971 20.5341C66.1927 20.5044 66.1882 20.4747 66.1793 20.445C66.1793 20.4376 66.1748 20.4339 66.1748 20.4302C66.1659 20.3968 66.1526 20.3634 66.1392 20.33C66.1348 20.3226 66.1303 20.3151 66.1259 20.304C66.1125 20.278 66.0991 20.252 66.0858 20.2261C66.0813 20.2224 66.0813 20.2149 66.0769 20.2112L59.6461 10.1504C59.6238 10.117 59.6016 10.0873 59.5749 10.0539C59.5659 10.0465 59.5615 10.0391 59.5526 10.0316C59.5303 10.0094 59.508 9.98711 59.4858 9.96484C59.4769 9.95742 59.4724 9.95 59.4635 9.94629C59.4323 9.92031 59.4012 9.89433 59.3655 9.87207C59.3566 9.86836 59.3522 9.86465 59.3477 9.86093C59.321 9.84238 59.2898 9.82382 59.2587 9.80898C59.2497 9.80527 59.2408 9.79785 59.2319 9.79414C59.1963 9.77558 59.1562 9.76074 59.1206 9.74589C59.1206 9.74589 59.1161 9.74589 59.1161 9.74218C59.0761 9.72734 59.0315 9.7162 58.987 9.70507C58.9781 9.70136 58.9692 9.70136 58.9603 9.69765C58.9246 9.69023 58.889 9.6828 58.8534 9.67909C58.84 9.67538 58.8311 9.67538 58.8178 9.67538C58.7732 9.67167 58.7287 9.66796 58.6842 9.66796H20.0866C20.0421 9.66796 19.9975 9.67167 19.953 9.67538C19.9396 9.67538 19.9307 9.67909 19.9174 9.67909C19.8817 9.6828 19.8461 9.69023 19.8105 9.69765C19.8016 9.70136 19.7927 9.70136 19.7838 9.70507C19.7392 9.7162 19.6991 9.72734 19.6546 9.74218C19.6546 9.74218 19.6502 9.74218 19.6502 9.74589C19.6101 9.76074 19.5744 9.77558 19.5388 9.79414C19.5299 9.79785 19.521 9.80527 19.5121 9.80898C19.4809 9.82382 19.4497 9.84238 19.423 9.86093C19.4141 9.86465 19.4097 9.86836 19.4052 9.87207C19.374 9.89433 19.3384 9.92031 19.3072 9.94629C19.2983 9.95371 19.2939 9.96113 19.285 9.96484C19.2627 9.98711 19.2404 10.0094 19.2182 10.0316C19.2093 10.0391 19.2048 10.0465 19.1959 10.0539C19.1692 10.0836 19.1469 10.117 19.1246 10.1504L12.6939 20.2112C12.6939 20.2112 12.6894 20.2224 12.685 20.2261C12.6672 20.252 12.6538 20.278 12.6449 20.304C12.6404 20.3114 12.636 20.3188 12.6315 20.33C12.6182 20.3634 12.6048 20.3968 12.5959 20.4302C12.5959 20.4376 12.5915 20.4413 12.5915 20.445C12.5825 20.4747 12.5781 20.5044 12.5736 20.5341C12.5736 20.5452 12.5692 20.5564 12.5692 20.5675C12.5647 20.5935 12.5647 20.6194 12.5647 20.6454V20.6714L12.5409 20.6788ZM47.1801 19.7399H41.1769L45.7952 12.5182L50.4134 19.7399H47.1801ZM28.3106 19.7399L32.9288 12.5182L37.5471 19.7399H28.3106ZM39.3596 21.5547H45.8127L39.3596 45.1088L32.9065 21.5547H39.3596ZM48.0483 21.5547H62.9093L41.5589 45.2352L48.0483 21.5547ZM52.2257 18.7157L47.6074 11.4939H56.8395L52.2212 18.7157H52.2257ZM39.3598 18.7157L34.7416 11.4939H43.9736L39.3554 18.7157H39.3598ZM26.494 18.7157L21.8757 11.4939H31.1078L26.4895 18.7157H26.494ZM26.494 21.5547H30.6714L37.16 45.2352L15.8097 21.5547H26.494ZM54.043 19.7399L58.6612 12.5182L63.2795 19.7399H54.043ZM20.0628 12.5182L24.681 19.7399H15.4489L20.0672 12.5182H20.0628ZM80.225 9.19676C80.225 9.1745 80.2206 9.14852 80.2206 9.12625V9.1077C80.2117 9.02234 80.1849 8.94441 80.1493 8.86648C80.1092 8.78112 80.0558 8.70318 79.989 8.63639C79.9845 8.63268 79.9801 8.62525 79.9756 8.62154C79.9623 8.61041 79.9489 8.59928 79.9356 8.58814C79.9222 8.57701 79.9133 8.56959 79.9044 8.55846C79.8955 8.55103 79.8866 8.54732 79.8821 8.5399C79.8643 8.52506 79.8465 8.51021 79.8287 8.49908L79.8242 8.49537C79.7262 8.42857 79.6149 8.38033 79.4947 8.34321C79.4813 8.3395 79.4724 8.33579 79.459 8.33208C79.4546 8.33208 79.4546 8.33208 79.4501 8.32837C79.4189 8.32094 79.3833 8.31352 79.3521 8.3061C79.3165 8.29868 79.2809 8.29497 79.2453 8.29126C77.7667 8.16879 75.9898 7.02211 74.6181 5.29647C73.5805 3.99388 72.8679 2.49093 72.6141 1.06959C72.6007 1.01022 72.5874 0.947124 72.5606 0.891462C72.5517 0.869196 72.5384 0.846929 72.5295 0.824664C72.525 0.820953 72.525 0.81353 72.5206 0.809819C72.5072 0.783842 72.4894 0.761575 72.476 0.739308C72.476 0.735597 72.4716 0.735598 72.4716 0.735598C72.4582 0.717042 72.4404 0.698487 72.427 0.676221C72.4226 0.67251 72.4181 0.665088 72.4137 0.661377C72.4003 0.646533 72.387 0.635399 72.3736 0.620554C72.3647 0.609421 72.3558 0.602 72.3469 0.594577L72.2712 0.531489C72.2667 0.527778 72.2623 0.527779 72.2623 0.524068C72.1108 0.412734 71.9238 0.334803 71.71 0.308829H71.7056H71.7011C71.6744 0.305118 71.6432 0.301406 71.6165 0.301406H71.5987C71.4473 0.293984 71.3003 0.31254 71.1667 0.353362C71.1623 0.353362 71.1623 0.357072 71.1578 0.357072C71.1266 0.368205 71.0955 0.375628 71.0687 0.38676C71.0509 0.394183 71.0287 0.405317 71.0108 0.412739C70.9975 0.42016 70.9886 0.423872 70.9752 0.427583C70.9574 0.438716 70.9396 0.449849 70.9173 0.457271C70.9084 0.464694 70.895 0.468404 70.8861 0.475826C70.8683 0.486959 70.855 0.498093 70.8416 0.505514C70.8282 0.512937 70.8149 0.520359 70.806 0.531493C70.7926 0.538914 70.7837 0.550047 70.7748 0.55747C70.7614 0.568602 70.7436 0.579735 70.7303 0.59458C70.7214 0.602002 70.7169 0.605713 70.7125 0.613136C70.6946 0.627979 70.6813 0.646535 70.6635 0.66138C70.659 0.66509 70.659 0.668801 70.6546 0.672513C70.6367 0.691068 70.6189 0.713334 70.6056 0.735601C70.6056 0.739312 70.6011 0.739311 70.6011 0.743022C70.5833 0.765289 70.5699 0.787555 70.5566 0.813533C70.5521 0.824667 70.5477 0.832088 70.5432 0.843222C70.5343 0.861777 70.5254 0.87662 70.5165 0.895176C70.4898 0.950842 70.472 1.01021 70.4631 1.07331C70.2092 2.49835 69.4967 3.9976 68.459 5.30019C67.0829 7.02582 65.3105 8.17251 63.8319 8.29497H63.8274C63.8007 8.29868 63.774 8.30239 63.7517 8.3061C63.7428 8.30981 63.7294 8.30981 63.7205 8.30981C63.7116 8.31352 63.7027 8.31352 63.6938 8.31724C63.2396 8.4063 62.9011 8.72545 62.8566 9.1114V9.12996C62.8521 9.15223 62.8521 9.17449 62.8521 9.20047C62.8521 9.22274 62.8566 9.245 62.8566 9.26727V9.28953C62.8655 9.3452 62.8744 9.39716 62.8922 9.45283C62.8922 9.45654 62.8966 9.46025 62.8966 9.46396C62.9145 9.5122 62.9367 9.56044 62.9634 9.60498C62.9679 9.6124 62.9724 9.61612 62.9724 9.62354C62.9991 9.66807 63.0302 9.70518 63.0659 9.74601C63.0703 9.75343 63.0792 9.75714 63.0837 9.76456C63.1193 9.80167 63.1594 9.83507 63.1995 9.86848C63.2084 9.87219 63.2128 9.87961 63.2173 9.88332C63.2618 9.91672 63.3064 9.9427 63.3553 9.96868C63.3642 9.97239 63.3687 9.9761 63.3732 9.97981C63.4221 10.0058 63.4756 10.0281 63.5335 10.0466C63.5424 10.0503 63.5468 10.0503 63.5557 10.054C63.6136 10.0726 63.6715 10.0874 63.7294 10.0949C63.7339 10.0949 63.7428 10.0948 63.7472 10.0986C63.774 10.1023 63.8051 10.106 63.8319 10.1097C65.3104 10.2322 67.0829 11.3788 68.459 13.1045C69.4967 14.4071 70.2093 15.91 70.463 17.3314C70.472 17.3833 70.4898 17.4353 70.5076 17.4835C70.512 17.4872 70.512 17.4909 70.512 17.4984C70.5298 17.5429 70.5566 17.5874 70.5833 17.6282C70.5877 17.6357 70.5922 17.6431 70.5966 17.6505C70.6234 17.6876 70.6545 17.7284 70.6902 17.7618C70.6991 17.7693 70.7035 17.7767 70.7124 17.7841C70.7481 17.8175 70.7881 17.8509 70.8282 17.8806C70.8327 17.8843 70.8416 17.888 70.846 17.8954C70.8906 17.9251 70.9351 17.9548 70.9841 17.9808C70.9885 17.9845 70.993 17.9845 70.993 17.9845C71.042 18.0105 71.0954 18.029 71.1533 18.0476C71.1578 18.0476 71.1578 18.0513 71.1622 18.0513C71.2157 18.0662 71.2691 18.081 71.327 18.0884C71.3404 18.0921 71.3493 18.0921 71.3626 18.0958C71.3715 18.0958 71.376 18.0996 71.3849 18.0996C71.4339 18.107 71.4829 18.107 71.5319 18.1107H71.5452H71.5586C71.6076 18.1107 71.6566 18.107 71.7056 18.0996C71.7145 18.0996 71.7189 18.0958 71.7278 18.0958C71.7412 18.0921 71.7501 18.0921 71.7634 18.0884C71.8213 18.0773 71.8748 18.0662 71.9282 18.0513C71.9327 18.0513 71.9327 18.0476 71.9371 18.0476C71.995 18.029 72.044 18.0105 72.0974 17.9845C72.1019 17.9808 72.1064 17.9808 72.1064 17.9808C72.1553 17.9548 72.2043 17.9288 72.2444 17.8954C72.2489 17.8917 72.2578 17.888 72.2622 17.8806C72.3023 17.8509 72.3424 17.8175 72.378 17.7841C72.3869 17.7767 72.3914 17.7693 72.4003 17.7618C72.4359 17.7284 72.4671 17.6876 72.4938 17.6505C72.4982 17.6431 72.5027 17.6357 72.5072 17.6282C72.5339 17.5874 72.5606 17.5429 72.5784 17.4984C72.5829 17.4946 72.5829 17.4909 72.5829 17.4835C72.6051 17.4353 72.6185 17.3833 72.6274 17.3314C72.8813 15.9063 73.5938 14.4071 74.6314 13.1045C76.0075 11.3788 77.78 10.2322 79.2586 10.1097C79.2898 10.106 79.3165 10.1023 79.3432 10.0986C79.3477 10.0986 79.3566 10.0986 79.361 10.0949C79.4234 10.0837 79.4813 10.0689 79.5347 10.054C79.5436 10.0503 79.5481 10.0503 79.557 10.0466C79.6149 10.0281 79.6638 10.0058 79.7173 9.97981C79.7262 9.9761 79.7306 9.97239 79.7351 9.96868C79.7841 9.9427 79.8331 9.91301 79.8731 9.87961C79.8821 9.8759 79.8865 9.86848 79.891 9.86477C79.931 9.83137 79.9711 9.79797 80.0067 9.76085C80.0112 9.75343 80.0201 9.74972 80.0246 9.74229C80.0602 9.70518 80.0914 9.66436 80.1181 9.61983C80.1225 9.6124 80.127 9.60869 80.127 9.60127C80.1537 9.55674 80.176 9.5085 80.1938 9.46025C80.1938 9.45654 80.1982 9.45283 80.1982 9.44912C80.2161 9.39716 80.2294 9.3415 80.2339 9.28582V9.26356C80.2383 9.24129 80.2383 9.21902 80.2383 9.19676L80.225 9.19676ZM72.7967 12.0914C72.3113 12.7037 71.8837 13.3532 71.5319 14.0249C71.1756 13.3569 70.7525 12.7038 70.2671 12.0914C69.2784 10.8519 68.1072 9.86103 66.8914 9.19676C68.1072 8.5362 69.2785 7.54532 70.2671 6.30211C70.7525 5.68979 71.18 5.04038 71.5319 4.36861C71.8882 5.03661 72.3112 5.68972 72.7967 6.30211C73.7854 7.54162 74.9566 8.5325 76.1724 9.19676C74.9566 9.85733 73.7853 10.8482 72.7967 12.0914Z" stroke="#636846" stroke-width="0.6" mask="url(#path-1-outside-1_140_229)"/>
</svg>
