<svg width="81" height="81" viewBox="0 0 81 81" fill="none" xmlns="http://www.w3.org/2000/svg">
<mask id="path-1-outside-1_140_233" maskUnits="userSpaceOnUse" x="-0.699707" y="-0.700195" width="82" height="82" fill="black">
<rect fill="white" x="-0.699707" y="-0.700195" width="82" height="82"/>
<path d="M40.2699 31.3683C48.1059 31.3683 54.4843 26.0704 54.4843 19.5612C54.4843 13.0522 48.1063 7.75404 40.2699 7.75404C32.4334 7.75404 26.0554 13.0519 26.0554 19.5612C26.0554 26.0701 32.4334 31.3683 40.2699 31.3683ZM40.2699 9.66938C46.836 9.66938 52.1792 14.1077 52.1792 19.5618C52.1792 25.0158 46.836 29.4541 40.2699 29.4541C33.7038 29.4541 28.3605 25.0158 28.3605 19.5618C28.3605 14.1077 33.7038 9.66938 40.2699 9.66938ZM32.3067 19.5853C32.6971 19.1711 33.4215 19.0969 33.9248 19.4212L37.9746 22.0544L46.521 15.1157C46.9772 14.7484 47.7063 14.7524 48.1484 15.1313C48.5906 15.5103 48.5859 16.1159 48.1296 16.4832L38.859 24.0079C38.6379 24.1876 38.3463 24.2814 38.0547 24.2814C37.8054 24.2814 37.5561 24.215 37.3444 24.0782L32.4998 20.9293C32.0013 20.605 31.9119 20.0033 32.3023 19.5852L32.3067 19.5853ZM17.9237 49.6806C17.9237 49.6963 17.9237 49.7119 17.9284 49.7275C17.9284 49.7431 17.9331 49.7549 17.9331 49.7705C17.9378 49.7861 17.9378 49.8017 17.9425 49.8213C17.9472 49.8369 17.9519 49.8486 17.9566 49.8643C17.9613 49.8799 17.9661 49.8955 17.9708 49.9111C17.9755 49.9268 17.9849 49.9424 17.9896 49.958C17.9943 49.9697 17.999 49.9854 18.0084 49.9971C18.0178 50.0166 18.0272 50.0323 18.0366 50.0518C18.0413 50.0596 18.046 50.0674 18.0507 50.0752C18.0507 50.0791 18.0554 50.0791 18.0554 50.083C18.0695 50.1026 18.0836 50.1221 18.093 50.1417C18.0978 50.1495 18.1072 50.1573 18.1119 50.1651C18.126 50.1846 18.1401 50.2003 18.1542 50.2159C18.1636 50.2237 18.1683 50.2315 18.1777 50.2432C18.1918 50.2589 18.2059 50.2706 18.22 50.2823C18.2294 50.294 18.2436 50.3018 18.253 50.3136C18.2671 50.3253 18.2765 50.3331 18.2906 50.3409C18.3047 50.3526 18.3235 50.3643 18.3376 50.3761C18.347 50.3839 18.3564 50.3878 18.3659 50.3956C18.3847 50.4073 18.4082 50.423 18.427 50.4347C18.4364 50.4386 18.4458 50.4464 18.4552 50.4503C18.4787 50.462 18.5023 50.4737 18.5258 50.4855C18.5305 50.4855 18.5305 50.4894 18.5352 50.4894C18.5399 50.4933 18.5493 50.4933 18.554 50.4972C18.5822 50.5089 18.6151 50.5206 18.6481 50.5323C18.6622 50.5363 18.6763 50.5402 18.6857 50.5441C18.7139 50.5519 18.7421 50.5597 18.7704 50.5675C18.7845 50.5714 18.7939 50.5753 18.808 50.5753C18.8879 50.591 18.9726 50.5988 19.0573 50.5988H19.0667H19.0808C19.1231 50.5988 19.1607 50.5949 19.2031 50.591C19.2125 50.591 19.2219 50.587 19.2313 50.587C19.3254 50.5753 19.4147 50.5558 19.5041 50.5245C19.5135 50.5206 19.5276 50.5167 19.537 50.5128C19.5558 50.505 19.5747 50.5011 19.5935 50.4933L24.3958 48.4421L25.1013 52.8921C25.1013 52.8921 25.106 52.8999 25.106 52.9038C25.1154 52.9585 25.1296 53.0093 25.1484 53.0601C25.1531 53.0679 25.1531 53.0718 25.1578 53.0796C25.1766 53.1304 25.2001 53.1773 25.233 53.2242C25.2377 53.2281 25.2377 53.232 25.2377 53.232C25.266 53.2789 25.3036 53.3219 25.3412 53.3609C25.3459 53.3649 25.3459 53.3688 25.3506 53.3688C25.3882 53.4078 25.4306 53.443 25.4776 53.4782C25.4823 53.4821 25.4917 53.486 25.4964 53.4899C25.5388 53.5211 25.5905 53.5485 25.6375 53.5758C25.6469 53.5797 25.6564 53.5876 25.6658 53.5915C25.6799 53.5993 25.694 53.6071 25.7081 53.611C25.7457 53.6266 25.7833 53.6422 25.821 53.654C25.8257 53.6579 25.8304 53.6579 25.8351 53.6618C25.8915 53.6813 25.9527 53.693 26.0091 53.7009C26.0232 53.7048 26.0373 53.7048 26.0514 53.7087C26.1126 53.7165 26.1737 53.7243 26.2349 53.7243C26.2584 53.7243 26.2819 53.7204 26.3007 53.7204C26.329 53.7204 26.3572 53.7204 26.3854 53.7165C26.3901 53.7165 26.3948 53.7165 26.3995 53.7126C26.4418 53.7087 26.4842 53.7009 26.5265 53.693C26.5406 53.6891 26.55 53.6891 26.5594 53.6852C26.5971 53.6774 26.63 53.6657 26.6676 53.654C26.677 53.6501 26.6864 53.6462 26.6958 53.6462C26.7382 53.6305 26.7805 53.6149 26.8228 53.5915L26.8275 53.5876C26.8652 53.568 26.9028 53.5485 26.9357 53.525C26.9451 53.5172 26.9592 53.5094 26.9686 53.5016C26.9969 53.4821 27.0251 53.4625 27.0486 53.4391C27.058 53.4313 27.0627 53.4274 27.0721 53.4196C27.105 53.3922 27.1333 53.3609 27.1615 53.3297C27.1709 53.3219 27.1756 53.3141 27.185 53.3062C27.2085 53.2789 27.2273 53.2476 27.2509 53.2203C27.2556 53.2164 27.2603 53.2125 27.2603 53.2086L37.1376 37.5578L38.4499 38.3509C38.9908 38.6791 39.6258 38.8432 40.2654 38.8432C40.9004 38.8432 41.5354 38.6791 42.081 38.3509L43.3932 37.5578L53.2706 53.2086C53.2706 53.2086 53.2753 53.2164 53.28 53.2203C53.2988 53.2516 53.3223 53.2789 53.3459 53.3062C53.3553 53.3141 53.36 53.3219 53.3694 53.3297C53.3976 53.3609 53.4258 53.3883 53.4587 53.4196C53.4681 53.4274 53.4729 53.4313 53.4823 53.4391C53.5058 53.4586 53.534 53.4821 53.5622 53.5016C53.5716 53.5094 53.5857 53.5172 53.5951 53.525C53.6281 53.5485 53.6657 53.568 53.7033 53.5876C53.708 53.5876 53.708 53.5915 53.708 53.5915C53.7504 53.611 53.7927 53.6266 53.835 53.6462C53.8444 53.6501 53.8538 53.654 53.8632 53.6579C53.8962 53.6696 53.9338 53.6813 53.9714 53.6891C53.9855 53.693 53.9949 53.6969 54.0044 53.6969C54.0467 53.7048 54.089 53.7126 54.1313 53.7165C54.136 53.7165 54.1408 53.7204 54.1455 53.7204C54.1737 53.7243 54.2019 53.7243 54.2301 53.7243C54.2536 53.7243 54.2772 53.7282 54.3007 53.7282C54.3618 53.7282 54.423 53.7204 54.4888 53.7126C54.5029 53.7087 54.517 53.7087 54.5311 53.7048C54.5923 53.693 54.6487 53.6813 54.7052 53.6657C54.7099 53.6657 54.7146 53.6618 54.7193 53.6618C54.7569 53.6501 54.7945 53.6344 54.8322 53.6188C54.8463 53.611 54.8604 53.6032 54.8745 53.5993C54.8839 53.5954 54.8933 53.5915 54.9027 53.5836C54.9545 53.5563 55.0015 53.5289 55.0485 53.4977C55.0532 53.4938 55.0579 53.4899 55.0673 53.486C55.1144 53.4508 55.1567 53.4156 55.199 53.3727C55.2038 53.3688 55.2038 53.3688 55.2038 53.3649C55.2414 53.3258 55.279 53.2789 55.3072 53.232C55.3072 53.2281 55.3119 53.2281 55.3119 53.2242C55.3402 53.1773 55.3684 53.1304 55.3872 53.0797C55.3919 53.0718 55.3919 53.0679 55.3966 53.064C55.4154 53.0132 55.4295 52.9585 55.4389 52.9077C55.4389 52.9038 55.4436 52.8999 55.4436 52.896L56.1492 48.446L60.9515 50.4972C60.9703 50.505 60.9844 50.5089 61.0032 50.5167C61.0173 50.5206 61.0267 50.5245 61.0362 50.5285C61.1255 50.5597 61.2149 50.5792 61.309 50.591C61.3184 50.591 61.3278 50.5949 61.3372 50.5949C61.3748 50.5988 61.4171 50.6027 61.4548 50.6027H61.4736H61.483C61.5253 50.6027 61.563 50.5988 61.6053 50.5949H61.6147C61.6523 50.591 61.6947 50.5831 61.7323 50.5753C61.7464 50.5714 61.7605 50.5675 61.7746 50.5675C61.8028 50.5597 61.8311 50.5558 61.8593 50.548C61.8734 50.5441 61.8875 50.5402 61.8969 50.5363C61.9298 50.5245 61.958 50.5128 61.991 50.5011C61.9957 50.4972 62.0051 50.4972 62.0098 50.4933C62.0145 50.4933 62.0145 50.4894 62.0192 50.4894C62.0427 50.4777 62.0662 50.4659 62.0897 50.4542C62.0992 50.4503 62.1086 50.4464 62.118 50.4425C62.1415 50.4308 62.1603 50.4152 62.1838 50.4034C62.1932 50.3995 62.2026 50.3917 62.2073 50.3878C62.2261 50.3761 62.245 50.3605 62.2638 50.3487C62.2732 50.3409 62.2826 50.3331 62.292 50.3253C62.3061 50.3136 62.3202 50.3018 62.3296 50.2901C62.3437 50.2784 62.3531 50.2667 62.3673 50.255C62.3767 50.2432 62.3861 50.2354 62.3955 50.2237C62.4096 50.2081 62.4237 50.1925 62.4331 50.1768C62.4425 50.169 62.4472 50.1573 62.4566 50.1495C62.4707 50.1339 62.4801 50.1143 62.4943 50.0948C62.4943 50.0909 62.499 50.0909 62.499 50.087C62.5037 50.0792 62.5084 50.0674 62.5131 50.0596C62.5225 50.044 62.5319 50.0284 62.5413 50.0088C62.5507 49.9932 62.5554 49.9815 62.5601 49.9659C62.5648 49.9502 62.5742 49.9385 62.5789 49.9229C62.5836 49.9072 62.5883 49.8916 62.593 49.8721C62.5977 49.8604 62.6024 49.8447 62.6024 49.833C62.6071 49.8174 62.6118 49.7979 62.6118 49.7822C62.6165 49.7705 62.6165 49.7549 62.6165 49.7432C62.6212 49.7275 62.6212 49.7119 62.6212 49.6924V49.6455C62.6212 49.6299 62.6212 49.6142 62.6165 49.6025C62.6165 49.5869 62.6118 49.5713 62.6118 49.5517C62.6118 49.54 62.6071 49.5244 62.6071 49.5126C62.6024 49.4931 62.6024 49.4775 62.5977 49.4579C62.593 49.4462 62.5883 49.4306 62.5883 49.4189C62.5836 49.4033 62.5789 49.3837 62.5695 49.3681C62.5648 49.3525 62.5554 49.3407 62.5507 49.3251C62.546 49.3095 62.5366 49.2939 62.5319 49.2821C62.5225 49.2665 62.5131 49.2509 62.5037 49.2313C62.499 49.2235 62.4943 49.2118 62.4895 49.204L53.7033 35.2835C54.3195 34.971 54.7945 34.4865 55.0298 33.8849L56.7419 29.513L61.2197 26.8094C62.3062 26.1569 62.753 25.0044 62.3391 23.9456L60.627 19.5737L62.3391 15.2018C62.7531 14.143 62.3015 12.9905 61.2197 12.338L56.7419 9.63443L55.0298 5.26255C54.6158 4.20376 53.4353 3.49273 52.0948 3.49273H46.5586L42.0808 0.789147C40.9943 0.136691 39.5409 0.136691 38.4544 0.789147L33.9766 3.49273H28.4405C27.1 3.49273 25.9193 4.2038 25.5055 5.26255L23.7934 9.63443L19.3155 12.338C18.229 12.9944 17.7822 14.143 18.1961 15.2018L19.9082 19.5737L18.1961 23.9456C17.7822 25.0044 18.2337 26.1569 19.3155 26.8094L23.7934 29.513L25.5055 33.8849C25.7407 34.4826 26.2204 34.971 26.8319 35.2835L18.0457 49.204C18.041 49.2157 18.0363 49.2235 18.0269 49.2353C18.0175 49.2509 18.0081 49.2665 18.0034 49.2821C17.9939 49.2978 17.9892 49.3134 17.9798 49.329C17.9751 49.3407 17.9704 49.3564 17.9657 49.3681C17.9563 49.3876 17.9516 49.4033 17.9469 49.4228C17.9422 49.4345 17.9375 49.4462 17.9375 49.4579C17.9328 49.4775 17.9281 49.4931 17.9281 49.5126C17.9234 49.5244 17.9234 49.5361 17.9234 49.5478C17.9187 49.5673 17.9187 49.583 17.9187 49.6025V49.6416V49.6885L17.9237 49.6806ZM26.9169 49.6455L26.5218 47.145L30.4587 40.9056C30.755 40.4368 30.5386 39.8585 29.9742 39.6163C29.4098 39.3701 28.7136 39.5499 28.422 40.0187L24.4852 46.2581L21.7853 47.4106L29.2076 35.6465H33.9864L35.2705 36.4201L26.9264 49.6455L26.9169 49.6455ZM51.3374 35.647L58.7596 47.4111L56.0598 46.2586L52.1229 40.0192C51.8266 39.5503 51.1305 39.3706 50.5707 39.6167C50.0063 39.8629 49.7899 40.4411 50.0863 40.9061L54.0231 47.1455L53.628 49.6459L45.2839 36.4206L46.568 35.647H51.3468L51.3374 35.647ZM25.8766 28.6262C25.839 28.5325 25.7872 28.4387 25.7167 28.3566C25.6414 28.2668 25.5474 28.1925 25.4439 28.13L20.6745 25.2506C20.3923 25.0787 20.2841 24.8013 20.3923 24.5239L22.2126 19.8669C22.2502 19.7692 22.2737 19.6716 22.2737 19.5661C22.2737 19.4606 22.2549 19.3551 22.2126 19.2535L20.3923 14.5965C20.2841 14.3191 20.3923 14.0417 20.6745 13.8698L25.4439 10.9904C25.5379 10.9318 25.6273 10.8654 25.6979 10.7833C25.7778 10.6934 25.8343 10.5997 25.8766 10.4942L27.6968 5.83716C27.805 5.55977 28.0919 5.38786 28.44 5.38786H34.3382C34.4605 5.38396 34.5828 5.37614 34.7004 5.34098C34.8227 5.30973 34.9355 5.25893 35.039 5.19642L39.8084 2.31701C40.0906 2.1451 40.4433 2.1451 40.7302 2.31701L45.4996 5.19642C45.5937 5.25503 45.7065 5.30191 45.8241 5.33707C45.9464 5.37223 46.0781 5.38786 46.2004 5.38786H52.0986C52.4467 5.38786 52.7336 5.55977 52.8418 5.83716L54.662 10.4942C54.6996 10.5919 54.7561 10.6856 54.8266 10.7677C54.9019 10.8536 54.9912 10.9279 55.0947 10.9865L59.8641 13.8659C60.1463 14.0378 60.2545 14.3152 60.1463 14.5926L58.326 19.2496C58.2837 19.3473 58.2649 19.4528 58.2649 19.5622C58.2649 19.6637 58.2884 19.7653 58.326 19.863L60.1463 24.52C60.2545 24.7974 60.1463 25.0748 59.8641 25.2467L55.0947 28.1261C54.996 28.1847 54.9113 28.2551 54.836 28.3371C54.7561 28.4231 54.6996 28.5207 54.662 28.6223L52.8418 33.2794C52.7336 33.5567 52.4467 33.7287 52.0986 33.7287H52.0563H52.0469H46.2003C46.0827 33.7287 45.9605 33.7404 45.8476 33.7716C45.7206 33.8029 45.6077 33.8537 45.5042 33.9162L40.7349 36.7956C40.4527 36.9675 40.0999 36.9675 39.813 36.7956L35.0436 33.9162C34.9496 33.8576 34.8367 33.8107 34.7238 33.7755C34.6015 33.7404 34.4745 33.7287 34.3475 33.7247H28.501H28.4916H28.4493C28.1012 33.7247 27.8143 33.5528 27.7061 33.2754L25.8859 28.6184L25.8766 28.6262ZM77.0558 35.3422C74.6053 34.7015 71.9855 35.8345 71.214 37.8661L66.8351 49.4031C65.7721 49.4578 64.7703 49.8055 63.98 50.4072L55.6736 56.7286C55.1468 57.131 54.5683 57.3381 53.8581 57.3811C51.1912 57.5452 48.7312 58.5454 46.9345 60.1941C45.1236 61.8585 43.9289 65.5584 43.8677 68.2111L42.9834 67.9806C42.6918 67.9064 42.3767 67.9259 42.1039 68.0431C41.8311 68.1603 41.6288 68.3635 41.5395 68.6057L40.2742 71.9344L39.0089 68.6057C38.9195 68.3635 38.7126 68.1603 38.4445 68.0431C38.1717 67.9259 37.8565 67.9025 37.5649 67.9806L36.6807 68.2111C36.6195 65.5584 35.4248 61.8584 33.6139 60.1941C31.8172 58.5454 29.362 57.5452 26.6903 57.3811C25.9754 57.3381 25.4016 57.131 24.8748 56.7286L16.5684 50.4072C15.7735 49.8055 14.7763 49.4578 13.7133 49.4031L9.33436 37.8661C8.56299 35.8305 5.94312 34.6975 3.49253 35.3422C1.17366 35.9478 -0.115092 37.9521 0.421096 40.1048L4.15575 54.9904C4.3674 55.8265 4.81425 56.5298 5.52445 57.147L21.2055 70.7394L21.8311 72.103L21.4266 72.2085C21.1349 72.2827 20.8904 72.4546 20.7493 72.6773C20.6081 72.9039 20.5799 73.1657 20.674 73.4079L23.0351 79.6317C23.1904 80.038 23.6466 80.2998 24.1311 80.2998C24.2439 80.2998 24.3615 80.2842 24.4791 80.2529L40.2685 76.1155L56.058 80.2529C56.1756 80.2842 56.2884 80.2998 56.406 80.2998C56.8952 80.2998 57.3467 80.038 57.5019 79.6317L59.8631 73.4079C59.9524 73.1657 59.9289 72.9039 59.7878 72.6773C59.6467 72.4507 59.4021 72.2827 59.1105 72.2085L58.706 72.103L59.3316 70.7394L75.0126 57.147C75.7229 56.5297 76.1697 55.8265 76.3813 54.9904L80.116 40.1048C80.6569 37.9521 79.3634 35.9517 77.0446 35.3422H77.0558ZM23.2661 69.8754C23.2097 69.7543 23.1297 69.6449 23.0215 69.555L7.1755 55.8226C6.76159 55.4631 6.5217 55.0841 6.39941 54.5957L2.66477 39.7101C2.41077 38.706 2.8482 37.5105 4.17459 37.1627C4.77194 37.0065 5.40687 37.0533 5.96666 37.2956C6.52638 37.5378 6.94029 37.9441 7.12843 38.4403L11.4274 49.7583C10.8865 49.9693 10.3974 50.2662 9.98348 50.6452C9.14625 51.4031 8.71351 52.3916 8.76998 53.4269C8.82643 54.4623 9.35792 55.4155 10.2704 56.1109L15.7218 60.2601C16.1921 60.6156 16.9165 60.5883 17.3492 60.2015C17.7773 59.8108 17.7443 59.2091 17.2787 58.8496L11.8273 54.7005C11.3664 54.3489 11.0983 53.8683 11.0701 53.3448C11.0418 52.8212 11.2582 52.3212 11.6815 51.9383C12.1048 51.5554 12.6834 51.3327 13.3137 51.3093C13.944 51.2858 14.546 51.4656 15.0069 51.8172L23.3133 58.1386C24.2305 58.834 25.2747 59.213 26.5164 59.2872C28.5908 59.4161 30.505 60.1936 31.902 61.4751C33.4353 62.8856 34.5125 66.6479 34.3667 68.8123L24.0237 71.5237L23.2664 69.8711L23.2661 69.8754ZM24.8842 78.1425L23.2144 73.7433L37.1556 70.0903L38.8253 74.4895L24.8842 78.1425ZM55.6551 78.1425L41.7139 74.4895L43.3837 70.0903L57.3248 73.7433L55.6551 78.1425ZM77.8744 39.7136L74.1397 54.5993C74.0175 55.0876 73.7776 55.4627 73.3637 55.8261L57.5177 69.5585C57.4095 69.6523 57.3295 69.7617 57.2731 69.8789L56.5158 71.5315L46.1728 68.8201C46.027 66.6556 47.1041 62.8932 48.6375 61.4829C50.0345 60.2015 51.9488 59.4239 54.0231 59.295C55.26 59.2169 56.3089 58.8418 57.2262 58.1464L65.5326 51.825C65.9936 51.4733 66.5956 51.2936 67.2258 51.3171C67.8561 51.3405 68.4393 51.5632 68.858 51.9461C69.2813 52.329 69.4977 52.8291 69.4695 53.3525C69.4412 53.8761 69.1731 54.3605 68.7122 54.7083L63.2608 58.8574C62.7905 59.213 62.7623 59.8185 63.1903 60.2093C63.6183 60.6 64.3474 60.6234 64.8178 60.2679L70.2691 56.1187C71.1816 55.4233 71.7178 54.47 71.7695 53.4346C71.826 52.3993 71.3932 51.4109 70.556 50.653C70.1421 50.2779 69.6482 49.9771 69.1121 49.7661L73.4111 38.4481C73.5992 37.9519 74.0084 37.5456 74.5729 37.3033C75.1326 37.0611 75.7722 37.0142 76.3649 37.1705C77.6867 37.5182 78.124 38.7138 77.8747 39.7179L77.8744 39.7136Z"/>
</mask>
<path d="M40.2699 31.3683C48.1059 31.3683 54.4843 26.0704 54.4843 19.5612C54.4843 13.0522 48.1063 7.75404 40.2699 7.75404C32.4334 7.75404 26.0554 13.0519 26.0554 19.5612C26.0554 26.0701 32.4334 31.3683 40.2699 31.3683ZM40.2699 9.66938C46.836 9.66938 52.1792 14.1077 52.1792 19.5618C52.1792 25.0158 46.836 29.4541 40.2699 29.4541C33.7038 29.4541 28.3605 25.0158 28.3605 19.5618C28.3605 14.1077 33.7038 9.66938 40.2699 9.66938ZM32.3067 19.5853C32.6971 19.1711 33.4215 19.0969 33.9248 19.4212L37.9746 22.0544L46.521 15.1157C46.9772 14.7484 47.7063 14.7524 48.1484 15.1313C48.5906 15.5103 48.5859 16.1159 48.1296 16.4832L38.859 24.0079C38.6379 24.1876 38.3463 24.2814 38.0547 24.2814C37.8054 24.2814 37.5561 24.215 37.3444 24.0782L32.4998 20.9293C32.0013 20.605 31.9119 20.0033 32.3023 19.5852L32.3067 19.5853ZM17.9237 49.6806C17.9237 49.6963 17.9237 49.7119 17.9284 49.7275C17.9284 49.7431 17.9331 49.7549 17.9331 49.7705C17.9378 49.7861 17.9378 49.8017 17.9425 49.8213C17.9472 49.8369 17.9519 49.8486 17.9566 49.8643C17.9613 49.8799 17.9661 49.8955 17.9708 49.9111C17.9755 49.9268 17.9849 49.9424 17.9896 49.958C17.9943 49.9697 17.999 49.9854 18.0084 49.9971C18.0178 50.0166 18.0272 50.0323 18.0366 50.0518C18.0413 50.0596 18.046 50.0674 18.0507 50.0752C18.0507 50.0791 18.0554 50.0791 18.0554 50.083C18.0695 50.1026 18.0836 50.1221 18.093 50.1417C18.0978 50.1495 18.1072 50.1573 18.1119 50.1651C18.126 50.1846 18.1401 50.2003 18.1542 50.2159C18.1636 50.2237 18.1683 50.2315 18.1777 50.2432C18.1918 50.2589 18.2059 50.2706 18.22 50.2823C18.2294 50.294 18.2436 50.3018 18.253 50.3136C18.2671 50.3253 18.2765 50.3331 18.2906 50.3409C18.3047 50.3526 18.3235 50.3643 18.3376 50.3761C18.347 50.3839 18.3564 50.3878 18.3659 50.3956C18.3847 50.4073 18.4082 50.423 18.427 50.4347C18.4364 50.4386 18.4458 50.4464 18.4552 50.4503C18.4787 50.462 18.5023 50.4737 18.5258 50.4855C18.5305 50.4855 18.5305 50.4894 18.5352 50.4894C18.5399 50.4933 18.5493 50.4933 18.554 50.4972C18.5822 50.5089 18.6151 50.5206 18.6481 50.5323C18.6622 50.5363 18.6763 50.5402 18.6857 50.5441C18.7139 50.5519 18.7421 50.5597 18.7704 50.5675C18.7845 50.5714 18.7939 50.5753 18.808 50.5753C18.8879 50.591 18.9726 50.5988 19.0573 50.5988H19.0667H19.0808C19.1231 50.5988 19.1607 50.5949 19.2031 50.591C19.2125 50.591 19.2219 50.587 19.2313 50.587C19.3254 50.5753 19.4147 50.5558 19.5041 50.5245C19.5135 50.5206 19.5276 50.5167 19.537 50.5128C19.5558 50.505 19.5747 50.5011 19.5935 50.4933L24.3958 48.4421L25.1013 52.8921C25.1013 52.8921 25.106 52.8999 25.106 52.9038C25.1154 52.9585 25.1296 53.0093 25.1484 53.0601C25.1531 53.0679 25.1531 53.0718 25.1578 53.0796C25.1766 53.1304 25.2001 53.1773 25.233 53.2242C25.2377 53.2281 25.2377 53.232 25.2377 53.232C25.266 53.2789 25.3036 53.3219 25.3412 53.3609C25.3459 53.3649 25.3459 53.3688 25.3506 53.3688C25.3882 53.4078 25.4306 53.443 25.4776 53.4782C25.4823 53.4821 25.4917 53.486 25.4964 53.4899C25.5388 53.5211 25.5905 53.5485 25.6375 53.5758C25.6469 53.5797 25.6564 53.5876 25.6658 53.5915C25.6799 53.5993 25.694 53.6071 25.7081 53.611C25.7457 53.6266 25.7833 53.6422 25.821 53.654C25.8257 53.6579 25.8304 53.6579 25.8351 53.6618C25.8915 53.6813 25.9527 53.693 26.0091 53.7009C26.0232 53.7048 26.0373 53.7048 26.0514 53.7087C26.1126 53.7165 26.1737 53.7243 26.2349 53.7243C26.2584 53.7243 26.2819 53.7204 26.3007 53.7204C26.329 53.7204 26.3572 53.7204 26.3854 53.7165C26.3901 53.7165 26.3948 53.7165 26.3995 53.7126C26.4418 53.7087 26.4842 53.7009 26.5265 53.693C26.5406 53.6891 26.55 53.6891 26.5594 53.6852C26.5971 53.6774 26.63 53.6657 26.6676 53.654C26.677 53.6501 26.6864 53.6462 26.6958 53.6462C26.7382 53.6305 26.7805 53.6149 26.8228 53.5915L26.8275 53.5876C26.8652 53.568 26.9028 53.5485 26.9357 53.525C26.9451 53.5172 26.9592 53.5094 26.9686 53.5016C26.9969 53.4821 27.0251 53.4625 27.0486 53.4391C27.058 53.4313 27.0627 53.4274 27.0721 53.4196C27.105 53.3922 27.1333 53.3609 27.1615 53.3297C27.1709 53.3219 27.1756 53.3141 27.185 53.3062C27.2085 53.2789 27.2273 53.2476 27.2509 53.2203C27.2556 53.2164 27.2603 53.2125 27.2603 53.2086L37.1376 37.5578L38.4499 38.3509C38.9908 38.6791 39.6258 38.8432 40.2654 38.8432C40.9004 38.8432 41.5354 38.6791 42.081 38.3509L43.3932 37.5578L53.2706 53.2086C53.2706 53.2086 53.2753 53.2164 53.28 53.2203C53.2988 53.2516 53.3223 53.2789 53.3459 53.3062C53.3553 53.3141 53.36 53.3219 53.3694 53.3297C53.3976 53.3609 53.4258 53.3883 53.4587 53.4196C53.4681 53.4274 53.4729 53.4313 53.4823 53.4391C53.5058 53.4586 53.534 53.4821 53.5622 53.5016C53.5716 53.5094 53.5857 53.5172 53.5951 53.525C53.6281 53.5485 53.6657 53.568 53.7033 53.5876C53.708 53.5876 53.708 53.5915 53.708 53.5915C53.7504 53.611 53.7927 53.6266 53.835 53.6462C53.8444 53.6501 53.8538 53.654 53.8632 53.6579C53.8962 53.6696 53.9338 53.6813 53.9714 53.6891C53.9855 53.693 53.9949 53.6969 54.0044 53.6969C54.0467 53.7048 54.089 53.7126 54.1313 53.7165C54.136 53.7165 54.1408 53.7204 54.1455 53.7204C54.1737 53.7243 54.2019 53.7243 54.2301 53.7243C54.2536 53.7243 54.2772 53.7282 54.3007 53.7282C54.3618 53.7282 54.423 53.7204 54.4888 53.7126C54.5029 53.7087 54.517 53.7087 54.5311 53.7048C54.5923 53.693 54.6487 53.6813 54.7052 53.6657C54.7099 53.6657 54.7146 53.6618 54.7193 53.6618C54.7569 53.6501 54.7945 53.6344 54.8322 53.6188C54.8463 53.611 54.8604 53.6032 54.8745 53.5993C54.8839 53.5954 54.8933 53.5915 54.9027 53.5836C54.9545 53.5563 55.0015 53.5289 55.0485 53.4977C55.0532 53.4938 55.0579 53.4899 55.0673 53.486C55.1144 53.4508 55.1567 53.4156 55.199 53.3727C55.2038 53.3688 55.2038 53.3688 55.2038 53.3649C55.2414 53.3258 55.279 53.2789 55.3072 53.232C55.3072 53.2281 55.3119 53.2281 55.3119 53.2242C55.3402 53.1773 55.3684 53.1304 55.3872 53.0797C55.3919 53.0718 55.3919 53.0679 55.3966 53.064C55.4154 53.0132 55.4295 52.9585 55.4389 52.9077C55.4389 52.9038 55.4436 52.8999 55.4436 52.896L56.1492 48.446L60.9515 50.4972C60.9703 50.505 60.9844 50.5089 61.0032 50.5167C61.0173 50.5206 61.0267 50.5245 61.0362 50.5285C61.1255 50.5597 61.2149 50.5792 61.309 50.591C61.3184 50.591 61.3278 50.5949 61.3372 50.5949C61.3748 50.5988 61.4171 50.6027 61.4548 50.6027H61.4736H61.483C61.5253 50.6027 61.563 50.5988 61.6053 50.5949H61.6147C61.6523 50.591 61.6947 50.5831 61.7323 50.5753C61.7464 50.5714 61.7605 50.5675 61.7746 50.5675C61.8028 50.5597 61.8311 50.5558 61.8593 50.548C61.8734 50.5441 61.8875 50.5402 61.8969 50.5363C61.9298 50.5245 61.958 50.5128 61.991 50.5011C61.9957 50.4972 62.0051 50.4972 62.0098 50.4933C62.0145 50.4933 62.0145 50.4894 62.0192 50.4894C62.0427 50.4777 62.0662 50.4659 62.0897 50.4542C62.0992 50.4503 62.1086 50.4464 62.118 50.4425C62.1415 50.4308 62.1603 50.4152 62.1838 50.4034C62.1932 50.3995 62.2026 50.3917 62.2073 50.3878C62.2261 50.3761 62.245 50.3605 62.2638 50.3487C62.2732 50.3409 62.2826 50.3331 62.292 50.3253C62.3061 50.3136 62.3202 50.3018 62.3296 50.2901C62.3437 50.2784 62.3531 50.2667 62.3673 50.255C62.3767 50.2432 62.3861 50.2354 62.3955 50.2237C62.4096 50.2081 62.4237 50.1925 62.4331 50.1768C62.4425 50.169 62.4472 50.1573 62.4566 50.1495C62.4707 50.1339 62.4801 50.1143 62.4943 50.0948C62.4943 50.0909 62.499 50.0909 62.499 50.087C62.5037 50.0792 62.5084 50.0674 62.5131 50.0596C62.5225 50.044 62.5319 50.0284 62.5413 50.0088C62.5507 49.9932 62.5554 49.9815 62.5601 49.9659C62.5648 49.9502 62.5742 49.9385 62.5789 49.9229C62.5836 49.9072 62.5883 49.8916 62.593 49.8721C62.5977 49.8604 62.6024 49.8447 62.6024 49.833C62.6071 49.8174 62.6118 49.7979 62.6118 49.7822C62.6165 49.7705 62.6165 49.7549 62.6165 49.7432C62.6212 49.7275 62.6212 49.7119 62.6212 49.6924V49.6455C62.6212 49.6299 62.6212 49.6142 62.6165 49.6025C62.6165 49.5869 62.6118 49.5713 62.6118 49.5517C62.6118 49.54 62.6071 49.5244 62.6071 49.5126C62.6024 49.4931 62.6024 49.4775 62.5977 49.4579C62.593 49.4462 62.5883 49.4306 62.5883 49.4189C62.5836 49.4033 62.5789 49.3837 62.5695 49.3681C62.5648 49.3525 62.5554 49.3407 62.5507 49.3251C62.546 49.3095 62.5366 49.2939 62.5319 49.2821C62.5225 49.2665 62.5131 49.2509 62.5037 49.2313C62.499 49.2235 62.4943 49.2118 62.4895 49.204L53.7033 35.2835C54.3195 34.971 54.7945 34.4865 55.0298 33.8849L56.7419 29.513L61.2197 26.8094C62.3062 26.1569 62.753 25.0044 62.3391 23.9456L60.627 19.5737L62.3391 15.2018C62.7531 14.143 62.3015 12.9905 61.2197 12.338L56.7419 9.63443L55.0298 5.26255C54.6158 4.20376 53.4353 3.49273 52.0948 3.49273H46.5586L42.0808 0.789147C40.9943 0.136691 39.5409 0.136691 38.4544 0.789147L33.9766 3.49273H28.4405C27.1 3.49273 25.9193 4.2038 25.5055 5.26255L23.7934 9.63443L19.3155 12.338C18.229 12.9944 17.7822 14.143 18.1961 15.2018L19.9082 19.5737L18.1961 23.9456C17.7822 25.0044 18.2337 26.1569 19.3155 26.8094L23.7934 29.513L25.5055 33.8849C25.7407 34.4826 26.2204 34.971 26.8319 35.2835L18.0457 49.204C18.041 49.2157 18.0363 49.2235 18.0269 49.2353C18.0175 49.2509 18.0081 49.2665 18.0034 49.2821C17.9939 49.2978 17.9892 49.3134 17.9798 49.329C17.9751 49.3407 17.9704 49.3564 17.9657 49.3681C17.9563 49.3876 17.9516 49.4033 17.9469 49.4228C17.9422 49.4345 17.9375 49.4462 17.9375 49.4579C17.9328 49.4775 17.9281 49.4931 17.9281 49.5126C17.9234 49.5244 17.9234 49.5361 17.9234 49.5478C17.9187 49.5673 17.9187 49.583 17.9187 49.6025V49.6416V49.6885L17.9237 49.6806ZM26.9169 49.6455L26.5218 47.145L30.4587 40.9056C30.755 40.4368 30.5386 39.8585 29.9742 39.6163C29.4098 39.3701 28.7136 39.5499 28.422 40.0187L24.4852 46.2581L21.7853 47.4106L29.2076 35.6465H33.9864L35.2705 36.4201L26.9264 49.6455L26.9169 49.6455ZM51.3374 35.647L58.7596 47.4111L56.0598 46.2586L52.1229 40.0192C51.8266 39.5503 51.1305 39.3706 50.5707 39.6167C50.0063 39.8629 49.7899 40.4411 50.0863 40.9061L54.0231 47.1455L53.628 49.6459L45.2839 36.4206L46.568 35.647H51.3468L51.3374 35.647ZM25.8766 28.6262C25.839 28.5325 25.7872 28.4387 25.7167 28.3566C25.6414 28.2668 25.5474 28.1925 25.4439 28.13L20.6745 25.2506C20.3923 25.0787 20.2841 24.8013 20.3923 24.5239L22.2126 19.8669C22.2502 19.7692 22.2737 19.6716 22.2737 19.5661C22.2737 19.4606 22.2549 19.3551 22.2126 19.2535L20.3923 14.5965C20.2841 14.3191 20.3923 14.0417 20.6745 13.8698L25.4439 10.9904C25.5379 10.9318 25.6273 10.8654 25.6979 10.7833C25.7778 10.6934 25.8343 10.5997 25.8766 10.4942L27.6968 5.83716C27.805 5.55977 28.0919 5.38786 28.44 5.38786H34.3382C34.4605 5.38396 34.5828 5.37614 34.7004 5.34098C34.8227 5.30973 34.9355 5.25893 35.039 5.19642L39.8084 2.31701C40.0906 2.1451 40.4433 2.1451 40.7302 2.31701L45.4996 5.19642C45.5937 5.25503 45.7065 5.30191 45.8241 5.33707C45.9464 5.37223 46.0781 5.38786 46.2004 5.38786H52.0986C52.4467 5.38786 52.7336 5.55977 52.8418 5.83716L54.662 10.4942C54.6996 10.5919 54.7561 10.6856 54.8266 10.7677C54.9019 10.8536 54.9912 10.9279 55.0947 10.9865L59.8641 13.8659C60.1463 14.0378 60.2545 14.3152 60.1463 14.5926L58.326 19.2496C58.2837 19.3473 58.2649 19.4528 58.2649 19.5622C58.2649 19.6637 58.2884 19.7653 58.326 19.863L60.1463 24.52C60.2545 24.7974 60.1463 25.0748 59.8641 25.2467L55.0947 28.1261C54.996 28.1847 54.9113 28.2551 54.836 28.3371C54.7561 28.4231 54.6996 28.5207 54.662 28.6223L52.8418 33.2794C52.7336 33.5567 52.4467 33.7287 52.0986 33.7287H52.0563H52.0469H46.2003C46.0827 33.7287 45.9605 33.7404 45.8476 33.7716C45.7206 33.8029 45.6077 33.8537 45.5042 33.9162L40.7349 36.7956C40.4527 36.9675 40.0999 36.9675 39.813 36.7956L35.0436 33.9162C34.9496 33.8576 34.8367 33.8107 34.7238 33.7755C34.6015 33.7404 34.4745 33.7287 34.3475 33.7247H28.501H28.4916H28.4493C28.1012 33.7247 27.8143 33.5528 27.7061 33.2754L25.8859 28.6184L25.8766 28.6262ZM77.0558 35.3422C74.6053 34.7015 71.9855 35.8345 71.214 37.8661L66.8351 49.4031C65.7721 49.4578 64.7703 49.8055 63.98 50.4072L55.6736 56.7286C55.1468 57.131 54.5683 57.3381 53.8581 57.3811C51.1912 57.5452 48.7312 58.5454 46.9345 60.1941C45.1236 61.8585 43.9289 65.5584 43.8677 68.2111L42.9834 67.9806C42.6918 67.9064 42.3767 67.9259 42.1039 68.0431C41.8311 68.1603 41.6288 68.3635 41.5395 68.6057L40.2742 71.9344L39.0089 68.6057C38.9195 68.3635 38.7126 68.1603 38.4445 68.0431C38.1717 67.9259 37.8565 67.9025 37.5649 67.9806L36.6807 68.2111C36.6195 65.5584 35.4248 61.8584 33.6139 60.1941C31.8172 58.5454 29.362 57.5452 26.6903 57.3811C25.9754 57.3381 25.4016 57.131 24.8748 56.7286L16.5684 50.4072C15.7735 49.8055 14.7763 49.4578 13.7133 49.4031L9.33436 37.8661C8.56299 35.8305 5.94312 34.6975 3.49253 35.3422C1.17366 35.9478 -0.115092 37.9521 0.421096 40.1048L4.15575 54.9904C4.3674 55.8265 4.81425 56.5298 5.52445 57.147L21.2055 70.7394L21.8311 72.103L21.4266 72.2085C21.1349 72.2827 20.8904 72.4546 20.7493 72.6773C20.6081 72.9039 20.5799 73.1657 20.674 73.4079L23.0351 79.6317C23.1904 80.038 23.6466 80.2998 24.1311 80.2998C24.2439 80.2998 24.3615 80.2842 24.4791 80.2529L40.2685 76.1155L56.058 80.2529C56.1756 80.2842 56.2884 80.2998 56.406 80.2998C56.8952 80.2998 57.3467 80.038 57.5019 79.6317L59.8631 73.4079C59.9524 73.1657 59.9289 72.9039 59.7878 72.6773C59.6467 72.4507 59.4021 72.2827 59.1105 72.2085L58.706 72.103L59.3316 70.7394L75.0126 57.147C75.7229 56.5297 76.1697 55.8265 76.3813 54.9904L80.116 40.1048C80.6569 37.9521 79.3634 35.9517 77.0446 35.3422H77.0558ZM23.2661 69.8754C23.2097 69.7543 23.1297 69.6449 23.0215 69.555L7.1755 55.8226C6.76159 55.4631 6.5217 55.0841 6.39941 54.5957L2.66477 39.7101C2.41077 38.706 2.8482 37.5105 4.17459 37.1627C4.77194 37.0065 5.40687 37.0533 5.96666 37.2956C6.52638 37.5378 6.94029 37.9441 7.12843 38.4403L11.4274 49.7583C10.8865 49.9693 10.3974 50.2662 9.98348 50.6452C9.14625 51.4031 8.71351 52.3916 8.76998 53.4269C8.82643 54.4623 9.35792 55.4155 10.2704 56.1109L15.7218 60.2601C16.1921 60.6156 16.9165 60.5883 17.3492 60.2015C17.7773 59.8108 17.7443 59.2091 17.2787 58.8496L11.8273 54.7005C11.3664 54.3489 11.0983 53.8683 11.0701 53.3448C11.0418 52.8212 11.2582 52.3212 11.6815 51.9383C12.1048 51.5554 12.6834 51.3327 13.3137 51.3093C13.944 51.2858 14.546 51.4656 15.0069 51.8172L23.3133 58.1386C24.2305 58.834 25.2747 59.213 26.5164 59.2872C28.5908 59.4161 30.505 60.1936 31.902 61.4751C33.4353 62.8856 34.5125 66.6479 34.3667 68.8123L24.0237 71.5237L23.2664 69.8711L23.2661 69.8754ZM24.8842 78.1425L23.2144 73.7433L37.1556 70.0903L38.8253 74.4895L24.8842 78.1425ZM55.6551 78.1425L41.7139 74.4895L43.3837 70.0903L57.3248 73.7433L55.6551 78.1425ZM77.8744 39.7136L74.1397 54.5993C74.0175 55.0876 73.7776 55.4627 73.3637 55.8261L57.5177 69.5585C57.4095 69.6523 57.3295 69.7617 57.2731 69.8789L56.5158 71.5315L46.1728 68.8201C46.027 66.6556 47.1041 62.8932 48.6375 61.4829C50.0345 60.2015 51.9488 59.4239 54.0231 59.295C55.26 59.2169 56.3089 58.8418 57.2262 58.1464L65.5326 51.825C65.9936 51.4733 66.5956 51.2936 67.2258 51.3171C67.8561 51.3405 68.4393 51.5632 68.858 51.9461C69.2813 52.329 69.4977 52.8291 69.4695 53.3525C69.4412 53.8761 69.1731 54.3605 68.7122 54.7083L63.2608 58.8574C62.7905 59.213 62.7623 59.8185 63.1903 60.2093C63.6183 60.6 64.3474 60.6234 64.8178 60.2679L70.2691 56.1187C71.1816 55.4233 71.7178 54.47 71.7695 53.4346C71.826 52.3993 71.3932 51.4109 70.556 50.653C70.1421 50.2779 69.6482 49.9771 69.1121 49.7661L73.4111 38.4481C73.5992 37.9519 74.0084 37.5456 74.5729 37.3033C75.1326 37.0611 75.7722 37.0142 76.3649 37.1705C77.6867 37.5182 78.124 38.7138 77.8747 39.7179L77.8744 39.7136Z" fill="#636846"/>
<path d="M40.2699 31.3683C48.1059 31.3683 54.4843 26.0704 54.4843 19.5612C54.4843 13.0522 48.1063 7.75404 40.2699 7.75404C32.4334 7.75404 26.0554 13.0519 26.0554 19.5612C26.0554 26.0701 32.4334 31.3683 40.2699 31.3683ZM40.2699 9.66938C46.836 9.66938 52.1792 14.1077 52.1792 19.5618C52.1792 25.0158 46.836 29.4541 40.2699 29.4541C33.7038 29.4541 28.3605 25.0158 28.3605 19.5618C28.3605 14.1077 33.7038 9.66938 40.2699 9.66938ZM32.3067 19.5853C32.6971 19.1711 33.4215 19.0969 33.9248 19.4212L37.9746 22.0544L46.521 15.1157C46.9772 14.7484 47.7063 14.7524 48.1484 15.1313C48.5906 15.5103 48.5859 16.1159 48.1296 16.4832L38.859 24.0079C38.6379 24.1876 38.3463 24.2814 38.0547 24.2814C37.8054 24.2814 37.5561 24.215 37.3444 24.0782L32.4998 20.9293C32.0013 20.605 31.9119 20.0033 32.3023 19.5852L32.3067 19.5853ZM17.9237 49.6806C17.9237 49.6963 17.9237 49.7119 17.9284 49.7275C17.9284 49.7431 17.9331 49.7549 17.9331 49.7705C17.9378 49.7861 17.9378 49.8017 17.9425 49.8213C17.9472 49.8369 17.9519 49.8486 17.9566 49.8643C17.9613 49.8799 17.9661 49.8955 17.9708 49.9111C17.9755 49.9268 17.9849 49.9424 17.9896 49.958C17.9943 49.9697 17.999 49.9854 18.0084 49.9971C18.0178 50.0166 18.0272 50.0323 18.0366 50.0518C18.0413 50.0596 18.046 50.0674 18.0507 50.0752C18.0507 50.0791 18.0554 50.0791 18.0554 50.083C18.0695 50.1026 18.0836 50.1221 18.093 50.1417C18.0978 50.1495 18.1072 50.1573 18.1119 50.1651C18.126 50.1846 18.1401 50.2003 18.1542 50.2159C18.1636 50.2237 18.1683 50.2315 18.1777 50.2432C18.1918 50.2589 18.2059 50.2706 18.22 50.2823C18.2294 50.294 18.2436 50.3018 18.253 50.3136C18.2671 50.3253 18.2765 50.3331 18.2906 50.3409C18.3047 50.3526 18.3235 50.3643 18.3376 50.3761C18.347 50.3839 18.3564 50.3878 18.3659 50.3956C18.3847 50.4073 18.4082 50.423 18.427 50.4347C18.4364 50.4386 18.4458 50.4464 18.4552 50.4503C18.4787 50.462 18.5023 50.4737 18.5258 50.4855C18.5305 50.4855 18.5305 50.4894 18.5352 50.4894C18.5399 50.4933 18.5493 50.4933 18.554 50.4972C18.5822 50.5089 18.6151 50.5206 18.6481 50.5323C18.6622 50.5363 18.6763 50.5402 18.6857 50.5441C18.7139 50.5519 18.7421 50.5597 18.7704 50.5675C18.7845 50.5714 18.7939 50.5753 18.808 50.5753C18.8879 50.591 18.9726 50.5988 19.0573 50.5988H19.0667H19.0808C19.1231 50.5988 19.1607 50.5949 19.2031 50.591C19.2125 50.591 19.2219 50.587 19.2313 50.587C19.3254 50.5753 19.4147 50.5558 19.5041 50.5245C19.5135 50.5206 19.5276 50.5167 19.537 50.5128C19.5558 50.505 19.5747 50.5011 19.5935 50.4933L24.3958 48.4421L25.1013 52.8921C25.1013 52.8921 25.106 52.8999 25.106 52.9038C25.1154 52.9585 25.1296 53.0093 25.1484 53.0601C25.1531 53.0679 25.1531 53.0718 25.1578 53.0796C25.1766 53.1304 25.2001 53.1773 25.233 53.2242C25.2377 53.2281 25.2377 53.232 25.2377 53.232C25.266 53.2789 25.3036 53.3219 25.3412 53.3609C25.3459 53.3649 25.3459 53.3688 25.3506 53.3688C25.3882 53.4078 25.4306 53.443 25.4776 53.4782C25.4823 53.4821 25.4917 53.486 25.4964 53.4899C25.5388 53.5211 25.5905 53.5485 25.6375 53.5758C25.6469 53.5797 25.6564 53.5876 25.6658 53.5915C25.6799 53.5993 25.694 53.6071 25.7081 53.611C25.7457 53.6266 25.7833 53.6422 25.821 53.654C25.8257 53.6579 25.8304 53.6579 25.8351 53.6618C25.8915 53.6813 25.9527 53.693 26.0091 53.7009C26.0232 53.7048 26.0373 53.7048 26.0514 53.7087C26.1126 53.7165 26.1737 53.7243 26.2349 53.7243C26.2584 53.7243 26.2819 53.7204 26.3007 53.7204C26.329 53.7204 26.3572 53.7204 26.3854 53.7165C26.3901 53.7165 26.3948 53.7165 26.3995 53.7126C26.4418 53.7087 26.4842 53.7009 26.5265 53.693C26.5406 53.6891 26.55 53.6891 26.5594 53.6852C26.5971 53.6774 26.63 53.6657 26.6676 53.654C26.677 53.6501 26.6864 53.6462 26.6958 53.6462C26.7382 53.6305 26.7805 53.6149 26.8228 53.5915L26.8275 53.5876C26.8652 53.568 26.9028 53.5485 26.9357 53.525C26.9451 53.5172 26.9592 53.5094 26.9686 53.5016C26.9969 53.4821 27.0251 53.4625 27.0486 53.4391C27.058 53.4313 27.0627 53.4274 27.0721 53.4196C27.105 53.3922 27.1333 53.3609 27.1615 53.3297C27.1709 53.3219 27.1756 53.3141 27.185 53.3062C27.2085 53.2789 27.2273 53.2476 27.2509 53.2203C27.2556 53.2164 27.2603 53.2125 27.2603 53.2086L37.1376 37.5578L38.4499 38.3509C38.9908 38.6791 39.6258 38.8432 40.2654 38.8432C40.9004 38.8432 41.5354 38.6791 42.081 38.3509L43.3932 37.5578L53.2706 53.2086C53.2706 53.2086 53.2753 53.2164 53.28 53.2203C53.2988 53.2516 53.3223 53.2789 53.3459 53.3062C53.3553 53.3141 53.36 53.3219 53.3694 53.3297C53.3976 53.3609 53.4258 53.3883 53.4587 53.4196C53.4681 53.4274 53.4729 53.4313 53.4823 53.4391C53.5058 53.4586 53.534 53.4821 53.5622 53.5016C53.5716 53.5094 53.5857 53.5172 53.5951 53.525C53.6281 53.5485 53.6657 53.568 53.7033 53.5876C53.708 53.5876 53.708 53.5915 53.708 53.5915C53.7504 53.611 53.7927 53.6266 53.835 53.6462C53.8444 53.6501 53.8538 53.654 53.8632 53.6579C53.8962 53.6696 53.9338 53.6813 53.9714 53.6891C53.9855 53.693 53.9949 53.6969 54.0044 53.6969C54.0467 53.7048 54.089 53.7126 54.1313 53.7165C54.136 53.7165 54.1408 53.7204 54.1455 53.7204C54.1737 53.7243 54.2019 53.7243 54.2301 53.7243C54.2536 53.7243 54.2772 53.7282 54.3007 53.7282C54.3618 53.7282 54.423 53.7204 54.4888 53.7126C54.5029 53.7087 54.517 53.7087 54.5311 53.7048C54.5923 53.693 54.6487 53.6813 54.7052 53.6657C54.7099 53.6657 54.7146 53.6618 54.7193 53.6618C54.7569 53.6501 54.7945 53.6344 54.8322 53.6188C54.8463 53.611 54.8604 53.6032 54.8745 53.5993C54.8839 53.5954 54.8933 53.5915 54.9027 53.5836C54.9545 53.5563 55.0015 53.5289 55.0485 53.4977C55.0532 53.4938 55.0579 53.4899 55.0673 53.486C55.1144 53.4508 55.1567 53.4156 55.199 53.3727C55.2038 53.3688 55.2038 53.3688 55.2038 53.3649C55.2414 53.3258 55.279 53.2789 55.3072 53.232C55.3072 53.2281 55.3119 53.2281 55.3119 53.2242C55.3402 53.1773 55.3684 53.1304 55.3872 53.0797C55.3919 53.0718 55.3919 53.0679 55.3966 53.064C55.4154 53.0132 55.4295 52.9585 55.4389 52.9077C55.4389 52.9038 55.4436 52.8999 55.4436 52.896L56.1492 48.446L60.9515 50.4972C60.9703 50.505 60.9844 50.5089 61.0032 50.5167C61.0173 50.5206 61.0267 50.5245 61.0362 50.5285C61.1255 50.5597 61.2149 50.5792 61.309 50.591C61.3184 50.591 61.3278 50.5949 61.3372 50.5949C61.3748 50.5988 61.4171 50.6027 61.4548 50.6027H61.4736H61.483C61.5253 50.6027 61.563 50.5988 61.6053 50.5949H61.6147C61.6523 50.591 61.6947 50.5831 61.7323 50.5753C61.7464 50.5714 61.7605 50.5675 61.7746 50.5675C61.8028 50.5597 61.8311 50.5558 61.8593 50.548C61.8734 50.5441 61.8875 50.5402 61.8969 50.5363C61.9298 50.5245 61.958 50.5128 61.991 50.5011C61.9957 50.4972 62.0051 50.4972 62.0098 50.4933C62.0145 50.4933 62.0145 50.4894 62.0192 50.4894C62.0427 50.4777 62.0662 50.4659 62.0897 50.4542C62.0992 50.4503 62.1086 50.4464 62.118 50.4425C62.1415 50.4308 62.1603 50.4152 62.1838 50.4034C62.1932 50.3995 62.2026 50.3917 62.2073 50.3878C62.2261 50.3761 62.245 50.3605 62.2638 50.3487C62.2732 50.3409 62.2826 50.3331 62.292 50.3253C62.3061 50.3136 62.3202 50.3018 62.3296 50.2901C62.3437 50.2784 62.3531 50.2667 62.3673 50.255C62.3767 50.2432 62.3861 50.2354 62.3955 50.2237C62.4096 50.2081 62.4237 50.1925 62.4331 50.1768C62.4425 50.169 62.4472 50.1573 62.4566 50.1495C62.4707 50.1339 62.4801 50.1143 62.4943 50.0948C62.4943 50.0909 62.499 50.0909 62.499 50.087C62.5037 50.0792 62.5084 50.0674 62.5131 50.0596C62.5225 50.044 62.5319 50.0284 62.5413 50.0088C62.5507 49.9932 62.5554 49.9815 62.5601 49.9659C62.5648 49.9502 62.5742 49.9385 62.5789 49.9229C62.5836 49.9072 62.5883 49.8916 62.593 49.8721C62.5977 49.8604 62.6024 49.8447 62.6024 49.833C62.6071 49.8174 62.6118 49.7979 62.6118 49.7822C62.6165 49.7705 62.6165 49.7549 62.6165 49.7432C62.6212 49.7275 62.6212 49.7119 62.6212 49.6924V49.6455C62.6212 49.6299 62.6212 49.6142 62.6165 49.6025C62.6165 49.5869 62.6118 49.5713 62.6118 49.5517C62.6118 49.54 62.6071 49.5244 62.6071 49.5126C62.6024 49.4931 62.6024 49.4775 62.5977 49.4579C62.593 49.4462 62.5883 49.4306 62.5883 49.4189C62.5836 49.4033 62.5789 49.3837 62.5695 49.3681C62.5648 49.3525 62.5554 49.3407 62.5507 49.3251C62.546 49.3095 62.5366 49.2939 62.5319 49.2821C62.5225 49.2665 62.5131 49.2509 62.5037 49.2313C62.499 49.2235 62.4943 49.2118 62.4895 49.204L53.7033 35.2835C54.3195 34.971 54.7945 34.4865 55.0298 33.8849L56.7419 29.513L61.2197 26.8094C62.3062 26.1569 62.753 25.0044 62.3391 23.9456L60.627 19.5737L62.3391 15.2018C62.7531 14.143 62.3015 12.9905 61.2197 12.338L56.7419 9.63443L55.0298 5.26255C54.6158 4.20376 53.4353 3.49273 52.0948 3.49273H46.5586L42.0808 0.789147C40.9943 0.136691 39.5409 0.136691 38.4544 0.789147L33.9766 3.49273H28.4405C27.1 3.49273 25.9193 4.2038 25.5055 5.26255L23.7934 9.63443L19.3155 12.338C18.229 12.9944 17.7822 14.143 18.1961 15.2018L19.9082 19.5737L18.1961 23.9456C17.7822 25.0044 18.2337 26.1569 19.3155 26.8094L23.7934 29.513L25.5055 33.8849C25.7407 34.4826 26.2204 34.971 26.8319 35.2835L18.0457 49.204C18.041 49.2157 18.0363 49.2235 18.0269 49.2353C18.0175 49.2509 18.0081 49.2665 18.0034 49.2821C17.9939 49.2978 17.9892 49.3134 17.9798 49.329C17.9751 49.3407 17.9704 49.3564 17.9657 49.3681C17.9563 49.3876 17.9516 49.4033 17.9469 49.4228C17.9422 49.4345 17.9375 49.4462 17.9375 49.4579C17.9328 49.4775 17.9281 49.4931 17.9281 49.5126C17.9234 49.5244 17.9234 49.5361 17.9234 49.5478C17.9187 49.5673 17.9187 49.583 17.9187 49.6025V49.6416V49.6885L17.9237 49.6806ZM26.9169 49.6455L26.5218 47.145L30.4587 40.9056C30.755 40.4368 30.5386 39.8585 29.9742 39.6163C29.4098 39.3701 28.7136 39.5499 28.422 40.0187L24.4852 46.2581L21.7853 47.4106L29.2076 35.6465H33.9864L35.2705 36.4201L26.9264 49.6455L26.9169 49.6455ZM51.3374 35.647L58.7596 47.4111L56.0598 46.2586L52.1229 40.0192C51.8266 39.5503 51.1305 39.3706 50.5707 39.6167C50.0063 39.8629 49.7899 40.4411 50.0863 40.9061L54.0231 47.1455L53.628 49.6459L45.2839 36.4206L46.568 35.647H51.3468L51.3374 35.647ZM25.8766 28.6262C25.839 28.5325 25.7872 28.4387 25.7167 28.3566C25.6414 28.2668 25.5474 28.1925 25.4439 28.13L20.6745 25.2506C20.3923 25.0787 20.2841 24.8013 20.3923 24.5239L22.2126 19.8669C22.2502 19.7692 22.2737 19.6716 22.2737 19.5661C22.2737 19.4606 22.2549 19.3551 22.2126 19.2535L20.3923 14.5965C20.2841 14.3191 20.3923 14.0417 20.6745 13.8698L25.4439 10.9904C25.5379 10.9318 25.6273 10.8654 25.6979 10.7833C25.7778 10.6934 25.8343 10.5997 25.8766 10.4942L27.6968 5.83716C27.805 5.55977 28.0919 5.38786 28.44 5.38786H34.3382C34.4605 5.38396 34.5828 5.37614 34.7004 5.34098C34.8227 5.30973 34.9355 5.25893 35.039 5.19642L39.8084 2.31701C40.0906 2.1451 40.4433 2.1451 40.7302 2.31701L45.4996 5.19642C45.5937 5.25503 45.7065 5.30191 45.8241 5.33707C45.9464 5.37223 46.0781 5.38786 46.2004 5.38786H52.0986C52.4467 5.38786 52.7336 5.55977 52.8418 5.83716L54.662 10.4942C54.6996 10.5919 54.7561 10.6856 54.8266 10.7677C54.9019 10.8536 54.9912 10.9279 55.0947 10.9865L59.8641 13.8659C60.1463 14.0378 60.2545 14.3152 60.1463 14.5926L58.326 19.2496C58.2837 19.3473 58.2649 19.4528 58.2649 19.5622C58.2649 19.6637 58.2884 19.7653 58.326 19.863L60.1463 24.52C60.2545 24.7974 60.1463 25.0748 59.8641 25.2467L55.0947 28.1261C54.996 28.1847 54.9113 28.2551 54.836 28.3371C54.7561 28.4231 54.6996 28.5207 54.662 28.6223L52.8418 33.2794C52.7336 33.5567 52.4467 33.7287 52.0986 33.7287H52.0563H52.0469H46.2003C46.0827 33.7287 45.9605 33.7404 45.8476 33.7716C45.7206 33.8029 45.6077 33.8537 45.5042 33.9162L40.7349 36.7956C40.4527 36.9675 40.0999 36.9675 39.813 36.7956L35.0436 33.9162C34.9496 33.8576 34.8367 33.8107 34.7238 33.7755C34.6015 33.7404 34.4745 33.7287 34.3475 33.7247H28.501H28.4916H28.4493C28.1012 33.7247 27.8143 33.5528 27.7061 33.2754L25.8859 28.6184L25.8766 28.6262ZM77.0558 35.3422C74.6053 34.7015 71.9855 35.8345 71.214 37.8661L66.8351 49.4031C65.7721 49.4578 64.7703 49.8055 63.98 50.4072L55.6736 56.7286C55.1468 57.131 54.5683 57.3381 53.8581 57.3811C51.1912 57.5452 48.7312 58.5454 46.9345 60.1941C45.1236 61.8585 43.9289 65.5584 43.8677 68.2111L42.9834 67.9806C42.6918 67.9064 42.3767 67.9259 42.1039 68.0431C41.8311 68.1603 41.6288 68.3635 41.5395 68.6057L40.2742 71.9344L39.0089 68.6057C38.9195 68.3635 38.7126 68.1603 38.4445 68.0431C38.1717 67.9259 37.8565 67.9025 37.5649 67.9806L36.6807 68.2111C36.6195 65.5584 35.4248 61.8584 33.6139 60.1941C31.8172 58.5454 29.362 57.5452 26.6903 57.3811C25.9754 57.3381 25.4016 57.131 24.8748 56.7286L16.5684 50.4072C15.7735 49.8055 14.7763 49.4578 13.7133 49.4031L9.33436 37.8661C8.56299 35.8305 5.94312 34.6975 3.49253 35.3422C1.17366 35.9478 -0.115092 37.9521 0.421096 40.1048L4.15575 54.9904C4.3674 55.8265 4.81425 56.5298 5.52445 57.147L21.2055 70.7394L21.8311 72.103L21.4266 72.2085C21.1349 72.2827 20.8904 72.4546 20.7493 72.6773C20.6081 72.9039 20.5799 73.1657 20.674 73.4079L23.0351 79.6317C23.1904 80.038 23.6466 80.2998 24.1311 80.2998C24.2439 80.2998 24.3615 80.2842 24.4791 80.2529L40.2685 76.1155L56.058 80.2529C56.1756 80.2842 56.2884 80.2998 56.406 80.2998C56.8952 80.2998 57.3467 80.038 57.5019 79.6317L59.8631 73.4079C59.9524 73.1657 59.9289 72.9039 59.7878 72.6773C59.6467 72.4507 59.4021 72.2827 59.1105 72.2085L58.706 72.103L59.3316 70.7394L75.0126 57.147C75.7229 56.5297 76.1697 55.8265 76.3813 54.9904L80.116 40.1048C80.6569 37.9521 79.3634 35.9517 77.0446 35.3422H77.0558ZM23.2661 69.8754C23.2097 69.7543 23.1297 69.6449 23.0215 69.555L7.1755 55.8226C6.76159 55.4631 6.5217 55.0841 6.39941 54.5957L2.66477 39.7101C2.41077 38.706 2.8482 37.5105 4.17459 37.1627C4.77194 37.0065 5.40687 37.0533 5.96666 37.2956C6.52638 37.5378 6.94029 37.9441 7.12843 38.4403L11.4274 49.7583C10.8865 49.9693 10.3974 50.2662 9.98348 50.6452C9.14625 51.4031 8.71351 52.3916 8.76998 53.4269C8.82643 54.4623 9.35792 55.4155 10.2704 56.1109L15.7218 60.2601C16.1921 60.6156 16.9165 60.5883 17.3492 60.2015C17.7773 59.8108 17.7443 59.2091 17.2787 58.8496L11.8273 54.7005C11.3664 54.3489 11.0983 53.8683 11.0701 53.3448C11.0418 52.8212 11.2582 52.3212 11.6815 51.9383C12.1048 51.5554 12.6834 51.3327 13.3137 51.3093C13.944 51.2858 14.546 51.4656 15.0069 51.8172L23.3133 58.1386C24.2305 58.834 25.2747 59.213 26.5164 59.2872C28.5908 59.4161 30.505 60.1936 31.902 61.4751C33.4353 62.8856 34.5125 66.6479 34.3667 68.8123L24.0237 71.5237L23.2664 69.8711L23.2661 69.8754ZM24.8842 78.1425L23.2144 73.7433L37.1556 70.0903L38.8253 74.4895L24.8842 78.1425ZM55.6551 78.1425L41.7139 74.4895L43.3837 70.0903L57.3248 73.7433L55.6551 78.1425ZM77.8744 39.7136L74.1397 54.5993C74.0175 55.0876 73.7776 55.4627 73.3637 55.8261L57.5177 69.5585C57.4095 69.6523 57.3295 69.7617 57.2731 69.8789L56.5158 71.5315L46.1728 68.8201C46.027 66.6556 47.1041 62.8932 48.6375 61.4829C50.0345 60.2015 51.9488 59.4239 54.0231 59.295C55.26 59.2169 56.3089 58.8418 57.2262 58.1464L65.5326 51.825C65.9936 51.4733 66.5956 51.2936 67.2258 51.3171C67.8561 51.3405 68.4393 51.5632 68.858 51.9461C69.2813 52.329 69.4977 52.8291 69.4695 53.3525C69.4412 53.8761 69.1731 54.3605 68.7122 54.7083L63.2608 58.8574C62.7905 59.213 62.7623 59.8185 63.1903 60.2093C63.6183 60.6 64.3474 60.6234 64.8178 60.2679L70.2691 56.1187C71.1816 55.4233 71.7178 54.47 71.7695 53.4346C71.826 52.3993 71.3932 51.4109 70.556 50.653C70.1421 50.2779 69.6482 49.9771 69.1121 49.7661L73.4111 38.4481C73.5992 37.9519 74.0084 37.5456 74.5729 37.3033C75.1326 37.0611 75.7722 37.0142 76.3649 37.1705C77.6867 37.5182 78.124 38.7138 77.8747 39.7179L77.8744 39.7136Z" stroke="#636846" stroke-width="0.6" mask="url(#path-1-outside-1_140_233)"/>
</svg>
