<svg width="34" height="34" viewBox="0 0 34 34" fill="none" xmlns="http://www.w3.org/2000/svg">
<path d="M1.1368 16.8525C1.136 19.7186 1.88825 22.5172 3.31864 24.9839L1 33.4118L9.66363 31.1504C12.0599 32.449 14.7447 33.1295 17.473 33.1297H17.4802C26.4869 33.1297 33.8185 25.8334 33.8224 16.8653C33.8241 12.5196 32.1257 8.43322 29.0399 5.35884C25.9547 2.28472 21.8514 0.59085 17.4795 0.588867C8.47177 0.588867 1.14065 7.88477 1.13693 16.8525" fill="url(#paint0_linear_156_4236)"/>
<path d="M0.142109 16.847C0.14118 19.8162 0.920391 22.7149 2.40178 25.2699L0 34L8.97427 31.6575C11.447 32.9996 14.231 33.7073 17.0639 33.7083H17.0712C26.401 33.7083 33.996 26.1496 34 16.8604C34.0016 12.3586 32.2421 8.12532 29.0461 4.9408C25.8497 1.75668 21.5997 0.00185108 17.0712 0C7.73978 0 0.145828 7.5577 0.142109 16.847ZM5.48662 24.8299L5.15153 24.3003C3.74292 22.0706 2.99944 19.4939 3.0005 16.848C3.00342 9.12702 9.3152 2.84538 17.0765 2.84538C20.8351 2.84696 24.3674 4.30562 27.0242 6.95213C29.6808 9.59891 31.1427 13.1173 31.1417 16.8594C31.1383 24.5804 24.8264 30.8628 17.0712 30.8628H17.0656C14.5404 30.8615 12.0639 30.1864 9.90409 28.9106L9.39011 28.6071L4.06459 29.9972L5.48662 24.8299Z" fill="url(#paint1_linear_156_4236)"/>
<path d="M12.3709 9.80381C12.054 9.10265 11.7205 9.0885 11.4191 9.0762C11.1724 9.06563 10.8903 9.06642 10.6084 9.06642C10.3263 9.06642 9.86801 9.17206 9.48059 9.59318C9.09278 10.0147 8 11.0333 8 13.1051C8 15.1768 9.51579 17.1792 9.72709 17.4604C9.93866 17.7411 12.6534 22.1287 16.9528 23.8166C20.5259 25.2194 21.2531 24.9404 22.0286 24.87C22.8042 24.7999 24.5313 23.8517 24.8837 22.8683C25.2363 21.8852 25.2363 21.0424 25.1306 20.8663C25.0248 20.6908 24.7427 20.5854 24.3197 20.3749C23.8967 20.1644 21.817 19.1456 21.4293 19.005C21.0415 18.8646 20.7596 18.7945 20.4775 19.2162C20.1954 19.6372 19.3854 20.5854 19.1385 20.8663C18.8918 21.1478 18.6449 21.1828 18.222 20.9722C17.7988 20.7609 16.4365 20.3168 14.8203 18.8823C13.5629 17.7661 12.7139 16.3877 12.4671 15.9661C12.2204 15.5451 12.4407 15.3169 12.6528 15.107C12.8429 14.9183 13.076 14.6153 13.2877 14.3695C13.4986 14.1236 13.569 13.9481 13.71 13.6673C13.8512 13.3862 13.7805 13.1403 13.6749 12.9296C13.569 12.719 12.747 10.6364 12.3709 9.80381Z" fill="white"/>
<defs>
<linearGradient id="paint0_linear_156_4236" x1="1642.12" y1="3282.89" x2="1642.12" y2="0.588867" gradientUnits="userSpaceOnUse">
<stop stop-color="#1FAF38"/>
<stop offset="1" stop-color="#60D669"/>
</linearGradient>
<linearGradient id="paint1_linear_156_4236" x1="1700" y1="3400" x2="1700" y2="0" gradientUnits="userSpaceOnUse">
<stop stop-color="#F9F9F9"/>
<stop offset="1" stop-color="white"/>
</linearGradient>
</defs>
</svg>
