<svg xmlns="http://www.w3.org/2000/svg" xmlns:xlink="http://www.w3.org/1999/xlink" version="1.1" x="0px" y="0px" viewBox="0 0 128 160" enable-background="new 0 0 128 128" xml:space="preserve"><path d="M109.925,46.365c0.027-0.087,0.047-0.176,0.058-0.27c0.005-0.037,0.009-0.073,0.011-0.109  c0.001-0.025,0.007-0.048,0.007-0.073c0-0.083-0.012-0.164-0.024-0.243c-0.002-0.015-0.002-0.03-0.005-0.045  c-0.023-0.123-0.065-0.238-0.117-0.348c-0.005-0.01-0.006-0.021-0.011-0.031L98.591,22.597c-0.009-0.018-0.022-0.031-0.032-0.048  c-0.043-0.079-0.093-0.154-0.15-0.225c-0.023-0.029-0.047-0.056-0.073-0.083c-0.054-0.058-0.113-0.11-0.177-0.159  c-0.03-0.023-0.059-0.048-0.09-0.069c-0.015-0.009-0.026-0.021-0.041-0.03c-0.071-0.043-0.145-0.075-0.22-0.105  c-0.015-0.006-0.028-0.015-0.044-0.021c-0.111-0.041-0.224-0.065-0.338-0.079c-0.008-0.001-0.016-0.005-0.024-0.006l-33.237-3.438  c-0.105-0.012-0.213-0.013-0.32-0.001l-0.003,0c-0.002,0-0.004,0-0.007,0l-33.238,3.438c-0.008,0.001-0.016,0.005-0.024,0.006  c-0.114,0.014-0.228,0.038-0.339,0.079c-0.015,0.005-0.027,0.014-0.041,0.02c-0.075,0.031-0.15,0.063-0.222,0.107  c-0.015,0.009-0.026,0.021-0.04,0.03c-0.032,0.021-0.061,0.046-0.091,0.069c-0.063,0.049-0.123,0.101-0.176,0.158  c-0.026,0.027-0.051,0.055-0.074,0.084c-0.057,0.07-0.106,0.145-0.148,0.223c-0.01,0.018-0.024,0.031-0.033,0.049L18.155,45.246  c-0.005,0.01-0.006,0.021-0.011,0.031c-0.052,0.11-0.093,0.226-0.117,0.348c-0.003,0.015-0.002,0.03-0.005,0.045  c-0.013,0.08-0.024,0.16-0.024,0.243c0,0.025,0.006,0.048,0.007,0.073c0.002,0.037,0.006,0.073,0.011,0.109  c0.011,0.093,0.031,0.183,0.058,0.27c0.009,0.029,0.016,0.057,0.027,0.085c0.044,0.115,0.1,0.223,0.169,0.322  c0.003,0.004,0.004,0.009,0.007,0.013l44.481,62.233c0,0.001,0.001,0.001,0.001,0.002l0.019,0.026  c0.001,0.002,0.004,0.004,0.005,0.006c0.009,0.013,0.022,0.022,0.032,0.035c0.001,0.001,0.002,0.002,0.003,0.003  c0.046,0.06,0.098,0.114,0.153,0.167c0.026,0.025,0.051,0.052,0.079,0.075c0.013,0.01,0.024,0.022,0.037,0.032  c0.006,0.004,0.013,0.008,0.019,0.013c0.016,0.012,0.034,0.019,0.05,0.03c0.041,0.028,0.083,0.056,0.127,0.08  c0.014,0.008,0.026,0.019,0.041,0.026c0.045,0.022,0.096,0.037,0.144,0.055c0.022,0.008,0.042,0.021,0.064,0.029  c0.003,0.001,0.006,0.004,0.01,0.005c0.009,0.003,0.019,0.001,0.027,0.004c0.015,0.004,0.028,0.012,0.043,0.016  c0.006,0.001,0.011,0.001,0.017,0.002c0.116,0.029,0.234,0.045,0.355,0.047c0.001,0,0.002,0,0.003,0  c0.004,0,0.008,0.002,0.012,0.002c0,0,0.001,0,0.001,0h0.001c0.004,0,0.008-0.002,0.012-0.002s0.008-0.001,0.012-0.001  c0.117-0.002,0.232-0.017,0.345-0.046c0.006-0.001,0.012-0.001,0.019-0.002c0.015-0.004,0.028-0.012,0.043-0.017  c0.008-0.002,0.017-0.001,0.026-0.004c0.003-0.001,0.006-0.003,0.01-0.005c0.023-0.007,0.042-0.021,0.065-0.029  c0.048-0.019,0.099-0.033,0.145-0.056c0.007-0.004,0.014-0.01,0.021-0.014c0.052-0.028,0.101-0.061,0.148-0.094  c0.014-0.01,0.03-0.017,0.043-0.027c0.007-0.005,0.014-0.009,0.021-0.014c0.014-0.011,0.026-0.023,0.04-0.035  c0.024-0.02,0.045-0.043,0.069-0.065c0.059-0.056,0.114-0.114,0.163-0.178c0.009-0.012,0.022-0.021,0.031-0.034  c0.001-0.002,0.004-0.004,0.005-0.006l0.016-0.022c0.002-0.003,0.005-0.006,0.007-0.01l44.48-62.23  c0.003-0.004,0.004-0.009,0.007-0.013c0.069-0.1,0.125-0.208,0.169-0.322C109.91,46.422,109.916,46.394,109.925,46.365z   M30.885,26.366l11.005,18.047H21.918L30.885,26.366z M49.255,47.413h13.244v49.379L49.255,47.413z M65.499,47.413h13.245  L65.499,96.796V47.413z M65.499,44.413V27.314l14.674,17.099H65.499z M65.499,22.708v-1.22l29.231,3.024L83.231,43.37L65.499,22.708  z M62.499,44.413H47.827l14.672-17.097V44.413z M46.148,47.413l14.257,53.155L22.414,47.413H46.148z M81.851,47.413h23.735  l-37.992,53.153L81.851,47.413z M86.109,44.413l11.005-18.047l8.967,18.047H86.109z M62.499,22.709L44.769,43.37l-11.5-18.857  l29.23-3.024V22.709z"/><text x="0" y="143" fill="#000000" font-size="5px" font-weight="bold" font-family="'Helvetica Neue', Helvetica, Arial-Unicode, Arial, Sans-serif">Created by verry poernomo</text><text x="0" y="148" fill="#000000" font-size="5px" font-weight="bold" font-family="'Helvetica Neue', Helvetica, Arial-Unicode, Arial, Sans-serif">from the Noun Project</text></svg>