<svg xmlns="http://www.w3.org/2000/svg" xmlns:xlink="http://www.w3.org/1999/xlink" version="1.1" x="0px" y="0px" viewBox="0 0 100 125" enable-background="new 0 0 100 100" xml:space="preserve"><g><path d="M44.229,46.848c-1.369-3.917-4.495-7.005-8.442-8.314c-0.577-2.035-2.099-3.527-2.955-4.233v-8.007c0-0.552-0.448-1-1-1   c-0.043,0-0.201,0-0.244,0c-1.838,0-3.334-1.496-3.334-3.334s1.496-3.334,3.334-3.334c0.552,0,1-0.448,1-1s-0.448-1-1-1   c-2.941,0-5.334,2.393-5.334,5.334c0,2.683,1.997,4.887,4.578,5.258v6.846c-1.882,1.37-3.046,2.87-3.475,4.478   c-3.991,1.328-7.137,4.47-8.48,8.452c-2.636,0.96-4.393,3.446-4.483,3.576l-0.425,0.612l0.464,0.582   c0.981,1.229,2,2.155,3.049,2.776V63.9c-1.348,0.428-2.334,1.677-2.334,3.164c0,1.838,1.496,3.334,3.334,3.334   s3.334-1.496,3.334-3.334c0-1.487-0.986-2.736-2.334-3.164v-6.867c1.115,2.329,2.881,4.283,5.062,5.634v8.71   c-1.348,0.428-2.334,1.677-2.334,3.164c0,1.838,1.496,3.334,3.334,3.334s3.334-1.496,3.334-3.334c0-1.487-0.986-2.736-2.334-3.164   v-7.693c0.367,0.149,0.739,0.287,1.121,0.404c0.767,1.813,2.207,3.166,2.961,3.784v9.005c-1.348,0.428-2.334,1.677-2.334,3.164   c0,1.838,1.496,3.334,3.334,3.334s3.334-1.496,3.334-3.334c0-1.487-0.986-2.736-2.334-3.164v-8.954   c1.47-1.238,2.469-2.532,2.98-3.871c0.445-0.14,0.878-0.306,1.301-0.49v7.564c-1.348,0.428-2.334,1.677-2.334,3.164   c0,1.838,1.496,3.334,3.334,3.334s3.334-1.496,3.334-3.334c0-1.487-0.986-2.736-2.334-3.164v-8.638   c2.007-1.314,3.636-3.155,4.703-5.321V63.9c-1.348,0.428-2.334,1.677-2.334,3.164c0,1.838,1.496,3.334,3.334,3.334   s3.334-1.496,3.334-3.334c0-1.487-0.986-2.736-2.334-3.164v-9.283c1.937-1.085,3.112-2.819,3.182-2.925l0.376-0.565l-0.388-0.559   C47.395,48.57,45.868,47.328,44.229,46.848z M25.545,75.875c-0.735,0-1.334-0.599-1.334-1.334s0.599-1.334,1.334-1.334   s1.334,0.599,1.334,1.334S26.28,75.875,25.545,75.875z M37.908,75.624c-0.735,0-1.334-0.599-1.334-1.334s0.599-1.334,1.334-1.334   s1.334,0.599,1.334,1.334S38.644,75.624,37.908,75.624z M41.998,46.659c-0.619,0.074-1.201,0.25-1.744,0.484   c-0.978-2.043-2.658-3.687-4.728-4.624c0.245-0.581,0.402-1.169,0.463-1.765C38.671,41.883,40.821,44.004,41.998,46.659z    M30.511,46.029c-1.956,0.398-3.504,1.878-4.045,3.779c-0.569-0.717-1.16-1.312-1.771-1.787c0.819-1.735,2.272-3.105,4.062-3.823   C29.377,45.011,30.043,45.636,30.511,46.029z M34.51,44.239c1.782,0.749,3.212,2.16,4,3.922c-0.784,0.587-1.401,1.227-1.81,1.7   c-0.515-1.887-2.025-3.359-3.942-3.797C33.451,45.468,34.039,44.86,34.51,44.239z M31.575,54.59c-1.838,0-3.334-1.496-3.334-3.334   c0-1.838,1.496-3.334,3.334-3.334s3.334,1.496,3.334,3.334C34.909,53.094,33.414,54.59,31.575,54.59z M26.406,52.511   c0.452,1.859,1.876,3.323,3.706,3.85c-0.691,0.574-1.252,1.171-1.701,1.786c-1.729-0.798-3.115-2.208-3.854-3.968   C25.354,53.624,25.98,52.999,26.406,52.511z M36.765,52.443c0.594,0.662,1.2,1.219,1.818,1.664c-0.72,1.783-2.08,3.229-3.813,4.04   c-0.526-0.771-1.127-1.389-1.614-1.824C34.951,55.762,36.341,54.295,36.765,52.443z M31.66,35.931   c0.813,0.699,2.275,2.207,2.356,4.063c0.05,1.147-0.439,2.305-1.44,3.458v-3.275c0-0.552-0.448-1-1-1s-1,0.448-1,1v3.084   c-0.728-0.871-1.417-2.024-1.418-3.288C29.157,38.583,29.999,37.226,31.66,35.931z M27.209,40.711   c0.083,0.626,0.267,1.216,0.511,1.764c-2.069,0.913-3.753,2.528-4.75,4.549c-0.595-0.233-1.206-0.366-1.831-0.39   C22.325,43.962,24.504,41.836,27.209,40.711z M16.512,51.124c0.79-0.896,2.477-2.507,4.407-2.507c1.135,0,2.249,0.571,3.325,1.684   h-3.793c-0.552,0-1,0.448-1,1c0,0.553,0.448,1,1,1h3.293c-0.793,0.623-1.826,1.179-3.01,1.179   C19.333,53.479,17.915,52.688,16.512,51.124z M18.483,68.398c-0.735,0-1.334-0.599-1.334-1.334s0.599-1.334,1.334-1.334   s1.334,0.599,1.334,1.334S19.219,68.398,18.483,68.398z M21.001,55.464c0.639-0.03,1.239-0.157,1.793-0.357   c0.931,2.113,2.589,3.832,4.668,4.823c-0.197,0.582-0.305,1.178-0.305,1.788c0,0.01,0.002,0.02,0.002,0.029   C24.355,60.563,22.132,58.299,21.001,55.464z M31.627,81.375c-0.735,0-1.334-0.599-1.334-1.334s0.599-1.334,1.334-1.334   s1.334,0.599,1.334,1.334S32.362,81.375,31.627,81.375z M31.664,66.125c-0.896-0.79-2.506-2.477-2.507-4.407   c0-1.045,0.476-2.071,1.418-3.066v3.773c0,0.553,0.448,1,1,1s1-0.447,1-1V58.59c0.693,0.795,1.386,1.888,1.44,3.149   C34.079,63.194,33.289,64.667,31.664,66.125z M36.011,61.772c-0.001-0.04,0.005-0.08,0.003-0.12   c-0.027-0.619-0.156-1.197-0.344-1.737c2.097-0.991,3.775-2.71,4.706-4.838c0.592,0.222,1.192,0.349,1.799,0.381   C41.045,58.299,38.821,60.582,36.011,61.772z M44.611,68.398c-0.735,0-1.334-0.599-1.334-1.334s0.599-1.334,1.334-1.334   s1.334,0.599,1.334,1.334S45.347,68.398,44.611,68.398z M42.48,53.479c-0.986,0-1.981-0.4-2.973-1.179h3.192c0.552,0,1-0.447,1-1   c0-0.552-0.448-1-1-1h-3.637c0.892-0.816,2.173-1.684,3.603-1.684c1.391,0,2.749,0.843,4.045,2.507   C45.999,51.961,44.439,53.479,42.48,53.479z"/><path d="M85.565,51.763l0.465-0.582l-0.425-0.612c-0.091-0.13-1.847-2.615-4.482-3.575c-1.344-3.982-4.49-7.124-8.48-8.452   c-0.429-1.608-1.593-3.108-3.475-4.478v-6.846c2.581-0.371,4.578-2.575,4.578-5.258c0-2.941-2.393-5.334-5.334-5.334   c-0.553,0-1,0.448-1,1s0.447,1,1,1c1.838,0,3.334,1.496,3.334,3.334s-1.496,3.334-3.334,3.334c-0.043,0-0.201,0-0.244,0   c-0.553,0-1,0.448-1,1v8.006c-0.855,0.706-2.378,2.198-2.955,4.234c-3.947,1.31-7.073,4.397-8.441,8.314   c-1.64,0.48-3.167,1.723-4.554,3.721l-0.388,0.559l0.376,0.565c0.071,0.105,1.246,1.84,3.183,2.924V63.9   c-1.348,0.429-2.334,1.677-2.334,3.164c0,1.838,1.496,3.334,3.334,3.334s3.334-1.496,3.334-3.334c0-1.487-0.986-2.736-2.334-3.164   v-6.733c1.067,2.166,2.696,4.007,4.703,5.321v8.638c-1.348,0.429-2.334,1.677-2.334,3.164c0,1.838,1.496,3.334,3.334,3.334   s3.334-1.496,3.334-3.334c0-1.487-0.986-2.735-2.334-3.164v-7.564c0.424,0.185,0.856,0.351,1.301,0.49   c0.511,1.339,1.511,2.633,2.98,3.871v8.954c-1.348,0.429-2.334,1.677-2.334,3.164c0,1.838,1.496,3.334,3.334,3.334   s3.334-1.496,3.334-3.334c0-1.487-0.986-2.736-2.334-3.164v-9.005c0.754-0.618,2.194-1.972,2.961-3.784   c0.382-0.117,0.755-0.255,1.121-0.404v7.693c-1.348,0.429-2.334,1.677-2.334,3.164c0,1.838,1.496,3.334,3.334,3.334   s3.334-1.496,3.334-3.334c0-1.487-0.986-2.736-2.334-3.164v-8.71c2.181-1.351,3.946-3.305,5.062-5.634V63.9   c-1.348,0.429-2.334,1.677-2.334,3.164c0,1.838,1.496,3.334,3.334,3.334s3.334-1.496,3.334-3.334c0-1.487-0.986-2.736-2.334-3.164   v-9.361C83.565,53.918,84.584,52.992,85.565,51.763z M62.092,75.624c-0.735,0-1.334-0.599-1.334-1.334s0.599-1.334,1.334-1.334   s1.334,0.599,1.334,1.334S62.827,75.624,62.092,75.624z M74.455,75.875c-0.735,0-1.334-0.599-1.334-1.334s0.599-1.334,1.334-1.334   s1.334,0.599,1.334,1.334S75.19,75.875,74.455,75.875z M83.49,51.122c-1.404,1.565-2.822,2.357-4.224,2.357h-0.001   c-1.174,0-2.206-0.556-3.001-1.179h3.284c0.553,0,1-0.447,1-1c0-0.552-0.447-1-1-1h-3.793c1.075-1.112,2.189-1.684,3.324-1.684   C81.026,48.617,82.705,50.225,83.49,51.122z M67.241,46.064c-1.917,0.438-3.427,1.91-3.942,3.796   c-0.408-0.474-1.025-1.113-1.81-1.7c0.788-1.762,2.219-3.173,4.001-3.922C65.961,44.86,66.55,45.468,67.241,46.064z M71.243,44.199   c1.789,0.718,3.242,2.088,4.062,3.823c-0.61,0.476-1.201,1.07-1.771,1.787c-0.54-1.901-2.089-3.381-4.045-3.779   C69.956,45.636,70.623,45.011,71.243,44.199z M68.425,54.59c-1.838,0-3.334-1.496-3.334-3.334c0-1.838,1.496-3.334,3.334-3.334   s3.334,1.496,3.334,3.334C71.759,53.094,70.263,54.59,68.425,54.59z M63.234,52.443c0.424,1.851,1.814,3.317,3.609,3.88   c-0.486,0.436-1.088,1.053-1.613,1.824c-1.734-0.811-3.095-2.258-3.814-4.04C62.034,53.662,62.641,53.105,63.234,52.443z    M73.594,52.511c0.426,0.488,1.053,1.112,1.849,1.668c-0.738,1.76-2.125,3.171-3.854,3.968c-0.449-0.615-1.01-1.212-1.701-1.786   C71.718,55.834,73.142,54.37,73.594,52.511z M78.862,46.634c-0.626,0.024-1.236,0.157-1.832,0.39   c-0.997-2.021-2.682-3.636-4.75-4.549c0.244-0.547,0.428-1.137,0.511-1.763C75.496,41.836,77.675,43.962,78.862,46.634z    M68.338,35.93c1.66,1.293,2.502,2.649,2.505,4.036c0.003,1.277-0.688,2.434-1.418,3.304v-3.093c0-0.552-0.447-1-1-1s-1,0.448-1,1   v3.275c-0.999-1.15-1.488-2.305-1.441-3.449C66.061,38.129,67.523,36.626,68.338,35.93z M64.012,40.754   c0.061,0.597,0.218,1.185,0.462,1.766c-2.069,0.937-3.749,2.58-4.728,4.624c-0.543-0.234-1.125-0.41-1.743-0.484   C59.18,44.004,61.329,41.883,64.012,40.754z M53.292,51.122c1.295-1.663,2.653-2.505,4.043-2.505c1.43,0,2.711,0.867,3.604,1.684   h-3.638c-0.553,0-1,0.448-1,1c0,0.553,0.447,1,1,1h3.192c-0.992,0.778-1.986,1.179-2.973,1.179c0,0,0,0-0.001,0   C55.575,53.479,54.007,51.959,53.292,51.122z M55.389,68.398c-0.735,0-1.334-0.599-1.334-1.334s0.599-1.334,1.334-1.334   s1.334,0.599,1.334,1.334S56.124,68.398,55.389,68.398z M57.825,55.458c0.607-0.032,1.207-0.159,1.799-0.381   c0.932,2.128,2.609,3.847,4.706,4.839c-0.188,0.539-0.317,1.118-0.344,1.736c-0.002,0.04,0.005,0.08,0.004,0.12   C61.179,60.582,58.955,58.299,57.825,55.458z M68.373,81.375c-0.735,0-1.334-0.599-1.334-1.334s0.599-1.334,1.334-1.334   s1.334,0.599,1.334,1.334S69.108,81.375,68.373,81.375z M68.338,66.127c-1.622-1.455-2.414-2.926-2.354-4.379   c0.053-1.274,0.746-2.37,1.441-3.165v3.842c0,0.553,0.447,1,1,1s1-0.447,1-1v-3.773c0.94,0.993,1.416,2.018,1.418,3.06   C70.847,63.66,69.236,65.341,68.338,66.127z M72.841,61.747c0-0.01,0.002-0.02,0.002-0.029c0-0.61-0.108-1.206-0.305-1.788   c2.079-0.992,3.737-2.71,4.668-4.823c0.554,0.2,1.154,0.327,1.793,0.357C77.868,58.299,75.645,60.563,72.841,61.747z    M81.517,68.398c-0.735,0-1.334-0.599-1.334-1.334s0.599-1.334,1.334-1.334s1.334,0.599,1.334,1.334S82.252,68.398,81.517,68.398z"/></g><text x="0" y="115" fill="#000000" font-size="5px" font-weight="bold" font-family="'Helvetica Neue', Helvetica, Arial-Unicode, Arial, Sans-serif">Created by Creative Mania</text><text x="0" y="120" fill="#000000" font-size="5px" font-weight="bold" font-family="'Helvetica Neue', Helvetica, Arial-Unicode, Arial, Sans-serif">from the Noun Project</text></svg>