<svg xmlns="http://www.w3.org/2000/svg" xmlns:xlink="http://www.w3.org/1999/xlink" version="1.1" x="0px" y="0px" viewBox="0 0 64 80" style="enable-background:new 0 0 64 64;" xml:space="preserve"><g><g><path d="M61.3,25.51H36.52c-0.27,0-0.49-0.22-0.49-0.49c0-0.27,0.22-0.49,0.49-0.49H61.3c0.25,0,0.45-0.2,0.45-0.45v-9.35    c0-0.25-0.2-0.45-0.45-0.45H2.7c-0.25,0-0.45,0.2-0.45,0.45v9.35c0,0.25,0.2,0.45,0.45,0.45h24.78c0.27,0,0.49,0.22,0.49,0.49    c0,0.27-0.22,0.49-0.49,0.49H2.7c-0.79,0-1.44-0.64-1.44-1.44v-9.35c0-0.79,0.64-1.44,1.44-1.44h58.6c0.79,0,1.44,0.64,1.44,1.44    v9.35C62.74,24.86,62.09,25.51,61.3,25.51z"/></g><g><path d="M58.27,64H5.72c-0.79,0-1.44-0.64-1.44-1.44V25.01c0-0.27,0.22-0.49,0.49-0.49s0.49,0.22,0.49,0.49v37.55    c0,0.25,0.2,0.45,0.45,0.45h52.56c0.25,0,0.45-0.2,0.45-0.45V25.01c0-0.27,0.22-0.49,0.49-0.49c0.27,0,0.49,0.22,0.49,0.49v37.55    C59.71,63.36,59.07,64,58.27,64z"/></g><g><path d="M27.47,64c-0.27,0-0.49-0.22-0.49-0.49V13.78c0-0.27,0.22-0.49,0.49-0.49c0.27,0,0.49,0.22,0.49,0.49v49.73    C27.97,63.78,27.75,64,27.47,64z"/></g><g><path d="M36.52,64c-0.27,0-0.49-0.22-0.49-0.49V13.78c0-0.27,0.22-0.49,0.49-0.49c0.27,0,0.49,0.22,0.49,0.49v49.73    C37.01,63.78,36.79,64,36.52,64z"/></g><g><g><path d="M32.01,14.27c-0.07,0-0.13-0.01-0.2-0.04c-0.17-0.07-0.28-0.23-0.29-0.42C31.08,7.69,36.71,2.59,42.5,0.72     c4.52-1.46,8.38-0.67,10.07,2.06c1.27,2.06,1.57,3.72,0.92,5.08c-1.36,2.82-6.66,3.45-11.78,4.05c-3.79,0.45-7.72,0.91-9.4,2.25     C32.22,14.24,32.11,14.27,32.01,14.27z M46.77,0.99c-1.32,0-2.71,0.26-3.96,0.67c-5.02,1.62-10.14,6.03-10.33,11.23     c2.07-1.11,5.5-1.52,9.11-1.95c4.86-0.57,9.88-1.17,11.01-3.5c0.49-1.02,0.2-2.41-0.87-4.13C50.7,1.62,48.81,0.99,46.77,0.99z"/></g><g><path d="M32.01,14.27c-0.05,0-0.1-0.01-0.15-0.02c-0.26-0.08-0.4-0.36-0.32-0.62C31.68,13.2,35.16,3.17,53.28,5     c0.27,0.03,0.47,0.27,0.44,0.54c-0.03,0.27-0.26,0.47-0.54,0.44c-17.35-1.76-20.68,7.85-20.71,7.95     C32.41,14.14,32.22,14.27,32.01,14.27z"/></g><g><path d="M31.99,14.27c-0.11,0-0.22-0.04-0.31-0.11c-1.68-1.34-5.6-1.8-9.4-2.25c-5.12-0.6-10.42-1.23-11.79-4.05     c-0.66-1.36-0.36-3.02,0.92-5.08c1.69-2.73,5.55-3.53,10.07-2.06c5.79,1.87,11.42,6.97,10.99,13.09     c-0.01,0.18-0.13,0.34-0.29,0.42C32.12,14.26,32.05,14.27,31.99,14.27z M17.22,0.99c-2.04,0-3.93,0.62-4.97,2.31     c-1.07,1.73-1.36,3.12-0.87,4.13c1.13,2.34,6.15,2.93,11.01,3.5c3.61,0.43,7.04,0.83,9.11,1.95C31.33,7.69,26.2,3.28,21.18,1.66     C19.93,1.25,18.54,0.99,17.22,0.99z"/></g><g><path d="M31.98,14.27c-0.21,0-0.4-0.13-0.47-0.34c-0.03-0.1-3.43-9.66-20.72-7.92c-0.27,0.02-0.51-0.17-0.54-0.44     c-0.03-0.27,0.17-0.51,0.44-0.54c18.12-1.84,21.61,8.16,21.75,8.59c0.08,0.26-0.06,0.53-0.31,0.62     C32.09,14.26,32.03,14.27,31.98,14.27z"/></g></g></g><text x="0" y="79" fill="#000000" font-size="5px" font-weight="bold" font-family="'Helvetica Neue', Helvetica, Arial-Unicode, Arial, Sans-serif">Created by Rank Sol</text><text x="0" y="84" fill="#000000" font-size="5px" font-weight="bold" font-family="'Helvetica Neue', Helvetica, Arial-Unicode, Arial, Sans-serif">from the Noun Project</text></svg>