<svg xmlns="http://www.w3.org/2000/svg" xmlns:xlink="http://www.w3.org/1999/xlink" version="1.1" x="0px" y="0px" viewBox="0 0 100 125" enable-background="new 0 0 100 100" xml:space="preserve"><g><path d="M82.591,27.113c0-0.387-0.313-0.7-0.7-0.7s-0.7,0.313-0.7,0.7c0,17.199-13.992,31.19-31.19,31.19   c-17.199,0-31.191-13.992-31.191-31.19c0-0.387-0.313-0.7-0.7-0.7s-0.7,0.313-0.7,0.7c0,18.526,8.803,34.366,21.141,40.539   l-2.645,3.543c-0.116,0.156-0.163,0.354-0.127,0.545s0.148,0.36,0.313,0.465c0.034,0.021,0.988,0.607,2.656,1.29L35.905,77.3   c-0.116,0.156-0.163,0.354-0.127,0.545s0.148,0.36,0.313,0.465c0.075,0.047,4.658,2.876,11.726,3.379   c-1.972,0.85-3.357,2.811-3.357,5.091c0,3.056,2.486,5.541,5.541,5.541c3.056,0,5.541-2.485,5.541-5.541   c0-2.287-1.393-4.255-3.375-5.1c3.621-0.267,7.671-1.209,11.974-3.333c0.191-0.095,0.329-0.271,0.374-0.479   c0.046-0.208-0.007-0.426-0.142-0.591l-3.096-3.79c0.942-0.365,1.894-0.766,2.863-1.244c0.191-0.095,0.329-0.271,0.374-0.479   c0.046-0.208-0.007-0.426-0.142-0.591l-2.889-3.537C73.804,61.45,82.591,45.623,82.591,27.113z M45.859,63.908   c0-2.283,1.857-4.141,4.141-4.141s4.141,1.857,4.141,4.141S52.283,68.049,50,68.049S45.859,66.191,45.859,63.908z M20.642,41.259   c4.809,9.94,14.521,17.083,25.976,18.27c-1.311,1.015-2.159,2.598-2.159,4.38c0,2.182,1.271,4.067,3.108,4.971   C35.125,67.582,24.708,56.444,20.642,41.259z M54.141,86.779c0,2.283-1.857,4.141-4.141,4.141s-4.141-1.857-4.141-4.141   s1.857-4.141,4.141-4.141S54.141,84.496,54.141,86.779z M62.725,77.472c-12.479,5.771-22.595,1.391-25.22,0.025l2.604-3.486   c2.411,0.841,5.789,1.657,9.837,1.657c2.992,0,6.35-0.458,9.94-1.671L62.725,77.472z M62.725,71.367   c-12.479,5.771-22.595,1.39-25.22,0.025l2.342-3.137c3.198,1.396,6.608,2.163,10.153,2.163c3.553,0,6.972-0.771,10.176-2.173   L62.725,71.367z M52.434,68.879c1.837-0.903,3.107-2.789,3.107-4.971c0-1.782-0.849-3.365-2.159-4.38   c11.454-1.187,21.166-8.329,25.976-18.269C75.291,56.444,64.875,67.581,52.434,68.879z"/><path d="M50,62.336c0.387,0,0.7-0.313,0.7-0.7s-0.313-0.7-0.7-0.7c-1.639,0-2.972,1.334-2.972,2.973s1.333,2.973,2.972,2.973   c0.387,0,0.7-0.313,0.7-0.7s-0.313-0.7-0.7-0.7c-0.867,0-1.572-0.705-1.572-1.572S49.133,62.336,50,62.336z"/><path d="M47.028,86.779c0,1.639,1.333,2.973,2.972,2.973c0.387,0,0.7-0.313,0.7-0.7s-0.313-0.7-0.7-0.7   c-0.867,0-1.572-0.705-1.572-1.572s0.705-1.572,1.572-1.572c0.387,0,0.7-0.313,0.7-0.7s-0.313-0.7-0.7-0.7   C48.361,83.807,47.028,85.141,47.028,86.779z"/><path d="M39.303,28.157v-1.784c0-0.387-0.313-0.7-0.7-0.7s-0.7,0.313-0.7,0.7v1.784c0,0.387,0.313,0.7,0.7,0.7   S39.303,28.544,39.303,28.157z"/><path d="M35.137,25.527c-0.358-0.149-0.767,0.017-0.917,0.372l-0.695,1.644c-0.151,0.356,0.016,0.767,0.372,0.917   c0.089,0.038,0.182,0.056,0.272,0.056c0.273,0,0.532-0.161,0.645-0.427l0.695-1.644C35.66,26.088,35.493,25.678,35.137,25.527z"/><path d="M42.587,27.792c0.113,0.267,0.372,0.427,0.645,0.427c0.091,0,0.184-0.018,0.272-0.056c0.356-0.151,0.522-0.562,0.372-0.917   l-0.696-1.644c-0.151-0.356-0.562-0.521-0.917-0.372c-0.356,0.151-0.522,0.562-0.372,0.917L42.587,27.792z"/><path d="M38.603,46.128c0.387,0,0.7-0.313,0.7-0.7s-0.313-0.7-0.7-0.7c-1.28,0-2.321,1.041-2.321,2.32   c0,1.28,1.042,2.321,2.321,2.321c0.387,0,0.7-0.313,0.7-0.7s-0.313-0.7-0.7-0.7c-0.508,0-0.921-0.413-0.921-0.921   C37.682,46.541,38.095,46.128,38.603,46.128z"/><path d="M28.262,40.712c0.035,0.191,0.148,0.359,0.313,0.464c0.208,0.132,3.139,1.947,7.719,2.424   c-1.11,0.746-1.843,2.013-1.843,3.448c0,2.29,1.863,4.152,4.152,4.152s4.152-1.863,4.152-4.152c0-1.449-0.749-2.724-1.878-3.467   c2.408-0.269,5.071-0.972,7.898-2.367c0.191-0.095,0.329-0.271,0.375-0.479s-0.007-0.426-0.142-0.591l-2.031-2.486   c0.592-0.239,1.19-0.497,1.799-0.797c0.191-0.095,0.329-0.271,0.375-0.479s-0.007-0.426-0.142-0.591l-2.076-2.541   c0.607-0.244,1.22-0.506,1.844-0.814c0.191-0.095,0.329-0.271,0.375-0.479s-0.007-0.426-0.142-0.591l-2.033-2.488   c0.603-0.242,1.204-0.501,1.801-0.796c0.191-0.095,0.329-0.271,0.374-0.479s-0.007-0.426-0.142-0.591l-2.453-3.002   c-0.133-0.163-0.332-0.257-0.542-0.257h-5.567c0.102-0.232,0.16-0.487,0.16-0.757v-2.889c0-0.799-0.497-1.48-1.197-1.76v-4.424   c0-0.387-0.313-0.7-0.7-0.7c-0.024,0-0.045,0.012-0.069,0.014c-0.024-0.002-0.044-0.014-0.069-0.014   c-0.961,0-1.742-0.781-1.742-1.742c0-0.961,0.781-1.743,1.742-1.743c0.387,0,0.7-0.313,0.7-0.7s-0.313-0.7-0.7-0.7   c-1.733,0-3.143,1.41-3.143,3.144c0,1.54,1.116,2.819,2.58,3.086v3.78c-0.7,0.279-1.197,0.961-1.197,1.76v2.889   c0,0.27,0.058,0.524,0.16,0.757h-5.778c-0.221,0-0.429,0.104-0.561,0.281l-2.242,3.002c-0.116,0.156-0.163,0.354-0.127,0.545   c0.035,0.192,0.148,0.36,0.313,0.464c0.061,0.039,0.651,0.408,1.678,0.851l-1.863,2.494c-0.116,0.156-0.163,0.354-0.127,0.545   c0.035,0.192,0.148,0.36,0.313,0.464c0.09,0.057,0.69,0.43,1.713,0.874l-1.898,2.543c-0.116,0.156-0.163,0.354-0.127,0.545   c0.035,0.191,0.148,0.359,0.313,0.464c0.089,0.057,0.676,0.42,1.673,0.855l-1.858,2.489C28.273,40.323,28.227,40.521,28.262,40.712   z M38.211,20.104c0-0.274,0.223-0.497,0.497-0.497s0.497,0.223,0.497,0.497v2.889c0,0.274-0.223,0.497-0.497,0.497   s-0.497-0.223-0.497-0.497V20.104z M38.603,49.8c-1.518,0-2.752-1.234-2.752-2.752s1.234-2.752,2.752-2.752   s2.752,1.234,2.752,2.752S40.12,49.8,38.603,49.8z M31.543,25.15h14.137l1.676,2.051c-2.893,1.302-5.861,1.962-8.836,1.962   c-4.13,0-7.229-1.29-8.527-1.939L31.543,25.15z M31.609,29.416c0.456,0.157,0.958,0.311,1.503,0.453l-0.578,1.365   c-0.151,0.356,0.016,0.767,0.372,0.917c0.089,0.038,0.182,0.056,0.272,0.056c0.273,0,0.532-0.161,0.645-0.427l0.675-1.595   c1.025,0.195,2.169,0.327,3.403,0.363v1.555c0,0.387,0.313,0.7,0.7,0.7s0.7-0.313,0.7-0.7V30.54   c1.232-0.045,2.461-0.195,3.684-0.45l0.588,1.393c0.113,0.267,0.373,0.428,0.646,0.428c0.091,0,0.183-0.018,0.272-0.055   c0.356-0.151,0.523-0.562,0.373-0.917l-0.499-1.181c0.407-0.111,0.813-0.235,1.218-0.37l1.772,2.169   c-8.408,3.78-15.257,1.067-17.362,0.022L31.609,29.416z M31.645,33.794c0.77,0.267,1.668,0.523,2.683,0.727   c-0.04,0.049-0.082,0.096-0.107,0.157l-0.696,1.644c-0.151,0.356,0.016,0.767,0.372,0.917c0.089,0.038,0.182,0.056,0.272,0.056   c0.273,0,0.532-0.16,0.645-0.427l0.696-1.644c0.07-0.165,0.065-0.34,0.012-0.498c0.759,0.107,1.572,0.175,2.428,0.197   c-0.025,0.073-0.046,0.148-0.046,0.229v1.784c0,0.387,0.313,0.7,0.7,0.7s0.7-0.313,0.7-0.7v-1.784c0-0.084-0.021-0.162-0.048-0.236   c0.827-0.029,1.688-0.107,2.583-0.247c0.001,0.087,0.017,0.175,0.053,0.259l0.696,1.644c0.113,0.267,0.372,0.427,0.645,0.427   c0.091,0,0.184-0.018,0.272-0.056c0.356-0.151,0.522-0.562,0.372-0.917l-0.683-1.611c0.763-0.168,1.547-0.389,2.348-0.656   l1.816,2.222c-8.408,3.781-15.255,1.067-17.362,0.022L31.645,33.794z M31.602,38.205c0.456,0.159,0.959,0.314,1.505,0.458   l-0.571,1.351c-0.151,0.356,0.016,0.767,0.372,0.917c0.089,0.038,0.182,0.056,0.272,0.056c0.273,0,0.532-0.161,0.645-0.427   l0.667-1.578c1.028,0.198,2.174,0.332,3.411,0.366v1.534c0,0.387,0.313,0.7,0.7,0.7s0.7-0.313,0.7-0.7V39.34   c1.162-0.044,2.395-0.187,3.688-0.46l0.584,1.382c0.113,0.267,0.373,0.428,0.646,0.428c0.091,0,0.183-0.018,0.272-0.055   c0.356-0.151,0.523-0.562,0.373-0.917l-0.495-1.172c0.401-0.111,0.808-0.238,1.218-0.375l1.769,2.165   c-8.408,3.781-15.255,1.067-17.362,0.022L31.602,38.205z"/><path d="M62.097,28.157v-1.784c0-0.387-0.313-0.7-0.7-0.7s-0.7,0.313-0.7,0.7v1.784c0,0.387,0.313,0.7,0.7,0.7   S62.097,28.544,62.097,28.157z"/><path d="M65.186,28.088c0.113,0.267,0.372,0.427,0.645,0.427c0.091,0,0.184-0.018,0.272-0.056c0.356-0.15,0.522-0.561,0.372-0.917   l-0.695-1.644c-0.151-0.355-0.561-0.522-0.917-0.372s-0.522,0.561-0.372,0.917L65.186,28.088z"/><path d="M57.737,25.23c-0.358-0.15-0.767,0.014-0.918,0.372l-0.696,1.644c-0.15,0.356,0.016,0.767,0.371,0.917   c0.09,0.038,0.182,0.056,0.273,0.056c0.272,0,0.531-0.16,0.645-0.427l0.696-1.644C58.259,25.792,58.093,25.381,57.737,25.23z"/><path d="M61.396,44.728c-0.387,0-0.7,0.313-0.7,0.7s0.313,0.7,0.7,0.7c0.508,0,0.921,0.413,0.921,0.92   c0,0.508-0.413,0.921-0.921,0.921c-0.387,0-0.7,0.313-0.7,0.7s0.313,0.7,0.7,0.7c1.28,0,2.321-1.042,2.321-2.321   C63.718,45.769,62.677,44.728,61.396,44.728z"/><path d="M50.849,40.734c0.045,0.208,0.183,0.385,0.375,0.479c2.828,1.396,5.491,2.098,7.898,2.367   c-1.129,0.743-1.878,2.018-1.878,3.467c0,2.29,1.863,4.152,4.152,4.152s4.152-1.863,4.152-4.152c0-1.436-0.732-2.702-1.844-3.448   c4.58-0.477,7.512-2.291,7.72-2.423c0.164-0.104,0.277-0.272,0.313-0.464c0.035-0.192-0.011-0.389-0.128-0.545l-1.858-2.489   c0.998-0.435,1.585-0.799,1.674-0.855c0.164-0.104,0.277-0.272,0.313-0.464c0.035-0.192-0.011-0.389-0.128-0.545l-1.898-2.543   c1.023-0.443,1.624-0.816,1.714-0.874c0.164-0.104,0.277-0.272,0.313-0.464c0.035-0.191-0.011-0.389-0.128-0.545l-1.862-2.494   c1.026-0.443,1.616-0.812,1.678-0.851c0.164-0.104,0.277-0.272,0.313-0.464c0.035-0.191-0.011-0.389-0.128-0.545l-2.242-3.002   c-0.132-0.177-0.34-0.281-0.561-0.281h-5.778c0.102-0.232,0.16-0.487,0.16-0.757v-2.889c0-0.799-0.497-1.48-1.197-1.76v-3.78   c1.464-0.267,2.58-1.546,2.58-3.086c0-1.733-1.41-3.144-3.143-3.144c-0.387,0-0.7,0.313-0.7,0.7s0.313,0.7,0.7,0.7   c0.961,0,1.742,0.782,1.742,1.743c0,0.961-0.781,1.742-1.742,1.742c-0.024,0-0.045,0.012-0.069,0.014   c-0.023-0.002-0.044-0.014-0.068-0.014c-0.387,0-0.7,0.313-0.7,0.7v4.424c-0.7,0.28-1.197,0.961-1.197,1.76v2.889   c0,0.27,0.059,0.524,0.16,0.757h-5.567c-0.21,0-0.409,0.095-0.542,0.257l-2.453,3.002c-0.135,0.165-0.188,0.383-0.142,0.591   s0.183,0.385,0.375,0.479c0.597,0.294,1.197,0.554,1.801,0.796l-2.033,2.488c-0.135,0.165-0.188,0.383-0.142,0.591   s0.183,0.385,0.375,0.479c0.624,0.308,1.236,0.571,1.844,0.814l-2.076,2.541c-0.135,0.165-0.188,0.383-0.142,0.591   s0.183,0.385,0.375,0.479c0.608,0.3,1.206,0.558,1.799,0.797l-2.031,2.486C50.856,40.308,50.804,40.526,50.849,40.734z    M60.794,20.104c0-0.274,0.223-0.497,0.497-0.497s0.497,0.223,0.497,0.497v2.889c0,0.274-0.223,0.497-0.497,0.497   s-0.497-0.223-0.497-0.497V20.104z M61.396,49.8c-1.518,0-2.752-1.234-2.752-2.752s1.234-2.752,2.752-2.752   s2.752,1.234,2.752,2.752S62.914,49.8,61.396,49.8z M54.318,25.15h14.138l1.55,2.076c-1.292,0.649-4.382,1.938-8.528,1.938   c-2.975,0-5.942-0.66-8.836-1.962L54.318,25.15z M54.414,29.387c0.405,0.135,0.812,0.259,1.22,0.371l-0.499,1.18   c-0.15,0.356,0.016,0.767,0.372,0.917c0.089,0.038,0.182,0.055,0.272,0.055c0.272,0,0.532-0.161,0.645-0.428l0.588-1.393   c1.223,0.255,2.452,0.405,3.685,0.45v1.563c0,0.387,0.313,0.7,0.7,0.7s0.7-0.313,0.7-0.7v-1.555   c1.234-0.035,2.378-0.167,3.403-0.363l0.675,1.595c0.113,0.267,0.372,0.427,0.645,0.427c0.091,0,0.184-0.018,0.272-0.056   c0.356-0.15,0.522-0.561,0.372-0.917l-0.577-1.365c0.545-0.143,1.047-0.296,1.503-0.453l1.615,2.163   c-2.1,1.048-8.931,3.77-17.362-0.023L54.414,29.387z M54.458,33.76c0.801,0.266,1.585,0.487,2.348,0.655l-0.683,1.611   c-0.15,0.356,0.016,0.767,0.371,0.917c0.09,0.038,0.182,0.056,0.273,0.056c0.272,0,0.531-0.16,0.645-0.427l0.696-1.644   c0.036-0.084,0.051-0.172,0.053-0.259c0.896,0.14,1.756,0.218,2.583,0.247c-0.027,0.074-0.048,0.152-0.048,0.236v1.784   c0,0.387,0.313,0.7,0.7,0.7s0.7-0.313,0.7-0.7v-1.784c0-0.082-0.021-0.157-0.046-0.229c0.855-0.022,1.669-0.089,2.428-0.197   c-0.054,0.157-0.059,0.333,0.012,0.498l0.696,1.644c0.113,0.267,0.372,0.427,0.645,0.427c0.092,0,0.184-0.018,0.273-0.056   c0.355-0.151,0.521-0.562,0.371-0.917l-0.696-1.644c-0.025-0.061-0.068-0.108-0.107-0.157c1.014-0.204,1.912-0.461,2.683-0.727   l1.651,2.211c-2.101,1.049-8.932,3.769-17.363-0.023L54.458,33.76z M54.411,38.17c0.411,0.138,0.817,0.264,1.219,0.375   l-0.495,1.172c-0.15,0.356,0.016,0.767,0.372,0.917c0.089,0.038,0.182,0.055,0.272,0.055c0.272,0,0.532-0.161,0.645-0.428   l0.584-1.382c1.293,0.272,2.525,0.416,3.688,0.459v1.542c0,0.387,0.313,0.7,0.7,0.7s0.7-0.313,0.7-0.7v-1.534   c1.236-0.035,2.383-0.168,3.41-0.366l0.668,1.579c0.113,0.267,0.372,0.427,0.645,0.427c0.091,0,0.184-0.018,0.272-0.056   c0.356-0.15,0.522-0.561,0.372-0.917l-0.571-1.351c0.546-0.144,1.049-0.299,1.506-0.458l1.607,2.153   c-2.101,1.049-8.932,3.77-17.363-0.023L54.411,38.17z"/></g><text x="0" y="115" fill="#000000" font-size="5px" font-weight="bold" font-family="'Helvetica Neue', Helvetica, Arial-Unicode, Arial, Sans-serif">Created by Creative Mania</text><text x="0" y="120" fill="#000000" font-size="5px" font-weight="bold" font-family="'Helvetica Neue', Helvetica, Arial-Unicode, Arial, Sans-serif">from the Noun Project</text></svg>