<svg xmlns="http://www.w3.org/2000/svg" data-name="Layer 1" viewBox="0 0 48 60" x="0px" y="0px"><path d="M23.92,10.1A17.2,17.2,0,1,0,41.19,27.3,17.249,17.249,0,0,0,23.92,10.1Zm0,33.4A16.2,16.2,0,1,1,40.19,27.3,16.249,16.249,0,0,1,23.92,43.5Z"/><path d="M43.111,25.553c-.012-.149-.029-.3-.047-.454-.058-.51-.133-1.016-.244-1.582l-.023-.128c-.106-.511-.242-1.038-.415-1.61-.042-.139-.087-.277-.142-.442-.141-.43-.3-.853-.465-1.266l-.131-.331c-.21-.488-.444-.963-.692-1.429-.065-.123-.134-.242-.243-.432-.2-.352-.409-.7-.629-1.032l-.266-.407q-.432-.627-.913-1.214c-.08-.1-.163-.2-.247-.29l-.107-.124c-.239-.279-.487-.55-.775-.847-.125-.13-.25-.26-.378-.386-.353-.344-.717-.676-1.1-.992-.105-.087-.212-.17-.319-.252l-.132-.1c-.275-.214-.554-.424-.841-.626-.178-.124-.354-.247-.534-.366-.356-.231-.716-.455-1.086-.664l-.605-1.814A1.844,1.844,0,0,0,31.03,7.5H29a.5.5,0,0,0-.354.146l-.827.828-.2-.026-.043-.005,3.781-3.764h0a.5.5,0,0,0,.108-.162.5.5,0,0,0,0-.386.491.491,0,0,0-.108-.161h0L29.02,1.646a.5.5,0,0,0-.353-.146H19.333a.5.5,0,0,0-.353.146L16.647,3.97h0a.491.491,0,0,0-.108.161.5.5,0,0,0,0,.386.5.5,0,0,0,.108.162h0L20.414,8.43l-.241.036-.819-.82A.5.5,0,0,0,19,7.5H16.97a1.844,1.844,0,0,0-1.751,1.262l-.571,1.713c-.027.015-.054.032-.082.047l-.148.088c-.338.192-.669.391-.994.6-.174.112-.347.227-.518.347-.336.234-.664.478-1.028.767-.125.1-.25.2-.37.3-.352.295-.69.6-1.019.922q-.207.2-.409.411-.414.426-.8.878l-.106.121c-.063.07-.125.142-.184.213-.328.4-.635.813-.931,1.239-.072.1-.139.207-.206.312l-.075.112q-.334.513-.638,1.048l-.223.391c-.252.471-.487.956-.7,1.441-.036.083-.07.168-.1.252l-.048.12q-.249.611-.456,1.243l-.037.109c-.035.108-.071.215-.1.321-.173.571-.31,1.1-.418,1.616l-.045.253c-.093.481-.167.969-.223,1.461-.018.154-.035.307-.05.462-.059.665-.088,1.22-.088,1.749a19.275,19.275,0,0,0,38.55,0C43.2,26.767,43.172,26.212,43.111,25.553ZM18.211,4.824h1.98l1.831,3.647h-.149ZM24.961,2.5,26.29,3.824H21.71L23.039,2.5Zm1.728,2.324L24.865,8.459l-1.726.007L21.311,4.824Zm-.543,3.629h-.159l1.822-3.63h1.98L26.146,8.453Zm3.643-4.629H27.706L26.377,2.5H28.46ZM19.54,2.5h2.083L20.294,3.824H18.211Zm4.38,43A18.256,18.256,0,0,1,5.65,27.3c0-.5.027-1.026.084-1.659.013-.146.03-.29.047-.437q.08-.7.211-1.384l.043-.243c.1-.486.231-.985.4-1.53.029-.1.061-.2.093-.292l.037-.113c.132-.4.275-.791.434-1.18l.141-.351c.2-.465.422-.921.66-1.364l.213-.373c.19-.339.393-.669.6-.992l.265-.4c.279-.4.571-.794.883-1.173l.277-.319q.366-.428.758-.831c.129-.133.257-.262.389-.39.312-.3.632-.6.965-.875.114-.1.231-.188.392-.316.305-.241.615-.473.935-.695q.243-.168.49-.329.462-.3.942-.571l.167-.1c.072-.043.145-.086.22-.126a.509.509,0,0,0,.239-.283l.632-1.9a.843.843,0,0,1,.8-.578h1.823l.853.854a.494.494,0,0,0,.435.139c.251-.041.74-.115,1.219-.181l.014.014h0a.5.5,0,0,0,.352.145h4.666a.5.5,0,0,0,.188-.038c.015-.006.026-.018.04-.025a.507.507,0,0,0,.116-.074h.006c.113.014.227.027.367.051l.443.055c.253.032.506.059.507.059a.5.5,0,0,0,.354-.146l.853-.854H31.03a.843.843,0,0,1,.8.578l.666,2a.5.5,0,0,0,.234.28c.409.225.8.468,1.192.721.172.112.34.23.508.348q.407.286.8.595l.138.107c.1.075.2.15.29.228.359.3.7.615,1.038.941.121.117.238.239.389.4q.363.375.7.772l.113.13c.076.086.15.171.223.26.3.374.593.757.865,1.152l.253.387c.209.319.407.645.64,1.054.063.111.127.221.186.333q.355.663.656,1.354l.124.313c.162.394.308.795.451,1.228.042.129.084.258.124.391.166.545.3,1.044.409,1.609l.019.1c.092.471.164.949.22,1.443.016.139.032.277.043.418v0c.058.627.085,1.154.085,1.656A18.261,18.261,0,0,1,23.92,45.5Z"/><text x="0" y="63" fill="#000000" font-size="5px" font-weight="bold" font-family="'Helvetica Neue', Helvetica, Arial-Unicode, Arial, Sans-serif">Created by Nira Inds</text><text x="0" y="68" fill="#000000" font-size="5px" font-weight="bold" font-family="'Helvetica Neue', Helvetica, Arial-Unicode, Arial, Sans-serif">from the Noun Project</text></svg>