<svg xmlns="http://www.w3.org/2000/svg" xmlns:xlink="http://www.w3.org/1999/xlink" version="1.1" x="0px" y="0px" viewBox="0 0 64 80" style="enable-background:new 0 0 64 64;" xml:space="preserve"><g><g><g><path d="M58.83,63.62H5.17C2.32,63.62,0,61.3,0,58.45v-10.3c0-0.06,0.01-0.11,0.03-0.16l4.04-11.4L0.01,13.31     C0,13.24,0,13.16,0.02,13.09l2.05-7.52C2.9,2.51,5.7,0.38,8.86,0.38h46.27c3.17,0,5.96,2.13,6.79,5.19l2.05,7.52     c0.02,0.07,0.02,0.14,0.01,0.21l-4.06,23.27l4.04,11.4c0.02,0.05,0.03,0.11,0.03,0.16v10.3C64,61.3,61.68,63.62,58.83,63.62z      M0.98,48.23v10.22c0,2.31,1.88,4.19,4.19,4.19h53.66c2.31,0,4.19-1.88,4.19-4.19V48.23l-4.05-11.44     c-0.03-0.08-0.04-0.17-0.02-0.25L63,13.25l-2.02-7.42c-0.72-2.63-3.12-4.46-5.84-4.46H8.86c-2.72,0-5.13,1.84-5.84,4.46L1,13.25     l4.06,23.29c0.02,0.08,0.01,0.17-0.02,0.25L0.98,48.23z"/></g></g><g><path d="M63.51,48.64H0.49C0.22,48.64,0,48.42,0,48.15s0.22-0.49,0.49-0.49h63.02c0.27,0,0.49,0.22,0.49,0.49    S63.78,48.64,63.51,48.64z"/></g><g><path d="M59.43,37.12H45.5c-0.27,0-0.49-0.22-0.49-0.49c0-0.27,0.22-0.49,0.49-0.49h13.92c0.27,0,0.49,0.22,0.49,0.49    C59.92,36.9,59.7,37.12,59.43,37.12z"/></g><g><path d="M18.5,37.12H4.57c-0.27,0-0.49-0.22-0.49-0.49c0-0.27,0.22-0.49,0.49-0.49H18.5c0.27,0,0.49,0.22,0.49,0.49    C18.99,36.9,18.77,37.12,18.5,37.12z"/></g><g><path d="M42.72,37.12H21.29c-0.27,0-0.49-0.22-0.49-0.49c0-0.27,0.22-0.49,0.49-0.49h21.42c0.27,0,0.49,0.22,0.49,0.49    C43.21,36.9,42.99,37.12,42.72,37.12z"/></g><g><path d="M63.51,13.71H0.49C0.22,13.71,0,13.49,0,13.22c0-0.27,0.22-0.49,0.49-0.49h63.02c0.27,0,0.49,0.22,0.49,0.49    C64,13.49,63.78,13.71,63.51,13.71z"/></g><g><g><g><path d="M33.97,28.05c-0.11,0-0.22-0.04-0.31-0.11c-0.21-0.17-0.25-0.48-0.08-0.69l4.52-5.67l-1.23-1.67l-1.18,1.94      c-0.14,0.23-0.45,0.31-0.68,0.17c-0.23-0.14-0.31-0.44-0.17-0.68l1.56-2.57c0.09-0.14,0.24-0.23,0.4-0.24      c0.2,0,0.32,0.07,0.42,0.2l1.89,2.57c0.13,0.18,0.13,0.42-0.01,0.6l-4.75,5.97C34.26,27.98,34.12,28.05,33.97,28.05z"/></g><g><path d="M32.99,27.96c-0.06,0-0.12-0.01-0.18-0.03c-0.25-0.1-0.38-0.38-0.28-0.64l2.15-5.54L32,19.65l-2.98,2.33      c-0.21,0.17-0.52,0.13-0.69-0.08c-0.17-0.21-0.13-0.52,0.08-0.69l3.28-2.57c0.18-0.14,0.43-0.14,0.61,0l3.27,2.57      c0.17,0.13,0.23,0.36,0.15,0.57l-2.28,5.88C33.38,27.84,33.19,27.96,32.99,27.96z"/></g><g><path d="M30.04,28.05c-0.14,0-0.29-0.06-0.38-0.19l-4.76-5.97c-0.14-0.17-0.14-0.42-0.01-0.6l1.89-2.57      c0.1-0.13,0.25-0.21,0.42-0.2c0.16,0.01,0.31,0.1,0.4,0.24l1.56,2.57l2.32,5.95c0.1,0.25-0.03,0.54-0.28,0.64      c-0.25,0.1-0.54-0.03-0.64-0.28l-0.02-0.04c-0.01,0.13-0.07,0.25-0.18,0.34C30.26,28.01,30.15,28.05,30.04,28.05z M25.9,21.58      l4.47,5.6l-2.1-5.41l-1.14-1.86L25.9,21.58z"/></g><g><path d="M36.84,19.51h-9.68c-0.27,0-0.49-0.22-0.49-0.49s0.22-0.49,0.49-0.49h9.68c0.27,0,0.49,0.22,0.49,0.49      S37.11,19.51,36.84,19.51z"/></g><g><path d="M38.72,22.08H25.28c-0.27,0-0.49-0.22-0.49-0.49S25,21.1,25.28,21.1h13.45c0.27,0,0.49,0.22,0.49,0.49      S39,22.08,38.72,22.08z"/></g></g></g><g><path d="M46.51,42.41c-0.27,0-0.49-0.22-0.49-0.49c0-7.73-6.29-14.01-14.01-14.01c-7.73,0-14.01,6.29-14.01,14.01    c0,0.27-0.22,0.49-0.49,0.49S17,42.19,17,41.92c0-8.27,6.73-15,15-15c8.27,0,15,6.73,15,15C47,42.19,46.78,42.41,46.51,42.41z"/></g><g><path d="M43.95,42.41c-0.27,0-0.49-0.22-0.49-0.49c0-6.32-5.14-11.46-11.46-11.46c-6.32,0-11.46,5.14-11.46,11.46    c0,0.27-0.22,0.49-0.49,0.49c-0.27,0-0.49-0.22-0.49-0.49c0-6.86,5.58-12.45,12.45-12.45s12.45,5.58,12.45,12.45    C44.45,42.19,44.23,42.41,43.95,42.41z"/></g><g><path d="M51.03,42.41H12.97c-0.27,0-0.49-0.22-0.49-0.49c0-0.27,0.22-0.49,0.49-0.49h38.06c0.27,0,0.49,0.22,0.49,0.49    C51.52,42.19,51.3,42.41,51.03,42.41z"/></g></g><text x="0" y="79" fill="#000000" font-size="5px" font-weight="bold" font-family="'Helvetica Neue', Helvetica, Arial-Unicode, Arial, Sans-serif">Created by Rank Sol</text><text x="0" y="84" fill="#000000" font-size="5px" font-weight="bold" font-family="'Helvetica Neue', Helvetica, Arial-Unicode, Arial, Sans-serif">from the Noun Project</text></svg>