<svg xmlns="http://www.w3.org/2000/svg" version="1.1" viewBox="-5.0 -10.0 110.0 135.0">
 <path d="m91.664 42.691c3.2148-1.0156 5.5547-4.0234 5.5547-7.5703-0.003906-6.4219 0.023438-6.0273-0.042969-6.2969-0.035156-0.14062-0.085937-0.25781-0.16406-0.38281-0.17188-0.28125-0.074219-0.16016-3.293-2.8398-2.7148-2.2617-4.4023-5.4609-4.7617-8.9336h0.22266c2.2969 0 4.168-1.8711 4.168-4.168 0-2.3125-1.875-4.168-4.168-4.168h-26.289l-1.125-4.5039c-0.15625-0.61719-0.71094-1.0508-1.3477-1.0508h-20.832c-0.63672 0-1.1914 0.43359-1.3477 1.0508l-1.1289 4.5039h-26.535c-2.2969 0-4.168 1.8711-4.168 4.168 0 2.3047 1.8711 4.168 4.168 4.168h0.46484c-0.35937 3.4727-2.0469 6.6719-4.7617 8.9336-0.98828 0.82422-1.2969 1.0781-2.9922 2.4922-0.015625 0.019531-0.50391 0.37891-0.50391 1.0703v5.9531c0 3.5469 2.3398 6.5586 5.5547 7.5703l-0.003907 46.203h-4.168c-0.76562 0-1.3906 0.62109-1.3906 1.3906v5.5547c0 0.76562 0.62109 1.3906 1.3906 1.3906h91.668c0.76562 0 1.3906-0.62109 1.3906-1.3906v-5.5547c0-0.76562-0.62109-1.3906-1.3906-1.3906h-4.168v-28.473c0-0.76562-0.62109-1.3906-1.3906-1.3906-0.76563 0-1.3906 0.62109-1.3906 1.3906l0.003907 28.473h-43.055v-22.223c0-7.6562-6.2383-13.891-13.891-13.891-7.6562 0-13.891 6.2383-13.891 13.891v22.223h-6.9453l0.003906-45.844c2.5508-0.125 4.7891-1.4648 6.1523-3.4492 3.1641 4.6133 9.9375 4.6055 13.094 0 3.1641 4.6133 9.9375 4.6055 13.094 0 3.1641 4.6133 9.9375 4.6055 13.094 0 3.1641 4.6133 9.9375 4.6055 13.094 0 3.1641 4.6133 9.9375 4.6055 13.094 0 1.3594 1.9844 3.5977 3.3203 6.1523 3.4492v6.2617c0 0.76562 0.62109 1.3906 1.3906 1.3906 0.76562 0 1.3906-0.62109 1.3906-1.3906zm-68.492 17.168 5.418 5.418h-7.668c0.25391-2.0234 1.0547-3.8828 2.25-5.418zm19.793 5.418h-7.668l5.418-5.418c1.1953 1.5352 1.9961 3.3945 2.25 5.418zm-9.6328-1.9648v-7.668c2.0234 0.25391 3.8828 1.0547 5.418 2.25zm-2.7773 0-5.418-5.418c1.5352-1.1953 3.3945-1.9961 5.418-2.25zm2.7773 4.7422h9.7227v20.836h-9.7227zm-12.5 0h9.7227v20.836h-9.7227zm73.609 23.613v2.7773h-88.891v-2.7773h88.891zm-2.4453-63.891h-39.219l8.332-11.109h25.059c0.60938 7.2148 5.7734 11.039 5.8281 11.109zm-51.719-13.887h19.445l-9.7227 12.965zm48.906-2.7812c0.75781 0 1.3906 0.61719 1.3906 1.3906 0 0.76562-0.62109 1.3906-1.3906 1.3906h-25.992c0.35156-0.47266 0.52344-0.65234 0.625-0.95703 0.19141-0.57812-0.0625-0.97266-0.23438-1.8242zm-48.516-5.5547h18.664l1.3906 5.5547h-21.445zm-26.84 11.113h4.4258c0.76562 0 1.3906-0.62109 1.3906-1.3906 0-0.76562-0.62109-1.3906-1.3906-1.3906l-7.6797 0.003906c-0.75781 0-1.3906-0.61719-1.3906-1.3906 0-0.76562 0.62109-1.3906 1.3906-1.3906h25.84c-0.23828 0.96484-0.30469 1.1445-0.30469 1.3906 0 0.58984 0.32422 0.88281 0.69531 1.3906h-7.4414c-0.76562 0-1.3906 0.62109-1.3906 1.3906 0 0.76562 0.62109 1.3906 1.3906 1.3906h9.5234l8.332 11.109h-39.219c0.050781-0.066406 5.2227-3.8828 5.8281-11.113zm-3.1133 23.609c-2.8438 0-5.1602-2.3125-5.1602-5.1602v-4.5625h10.316v4.5625c0 2.8477-2.3125 5.1602-5.1562 5.1602zm13.094 0c-2.8438 0-5.1602-2.3125-5.1602-5.1602v-4.5625h10.316v4.5625c0.003906 2.8477-2.3125 5.1602-5.1562 5.1602zm13.094 0c-2.8438 0-5.1602-2.3125-5.1602-5.1602l0.003906-4.5625h10.316v4.5625c0 2.8477-2.3125 5.1602-5.1602 5.1602zm13.098 0c-2.8438 0-5.1602-2.3125-5.1602-5.1602v-4.5625h10.316v4.5625c0 2.8477-2.3125 5.1602-5.1562 5.1602zm13.094 0c-2.8438 0-5.1602-2.3125-5.1602-5.1602v-4.5625h10.316v4.5625c0.003906 2.8477-2.3125 5.1602-5.1562 5.1602zm13.094 0c-2.8438 0-5.1602-2.3125-5.1602-5.1602l0.003906-4.5625h10.316v4.5625c0 2.8477-2.3125 5.1602-5.1602 5.1602zm7.9375-5.1602v-4.5625h10.316v4.5625c0 2.8438-2.3125 5.1602-5.1602 5.1602-2.8398 0-5.1562-2.3125-5.1562-5.1602z"/>
 <path d="m36.109 76.391c-0.76562 0-1.3906 0.62109-1.3906 1.3906v1.3906c0 0.76562 0.62109 1.3906 1.3906 1.3906 0.76562 0 1.3906-0.62109 1.3906-1.3906v-1.3945c0-0.76562-0.62109-1.3867-1.3906-1.3867z"/>
 <path d="m27.777 76.391c-0.76562 0-1.3906 0.62109-1.3906 1.3906v1.3906c0 0.76562 0.62109 1.3906 1.3906 1.3906 0.76562 0 1.3906-0.62109 1.3906-1.3906l-0.003907-1.3945c0-0.76562-0.62109-1.3867-1.3867-1.3867z"/>
 <path d="m80.555 56.945h-27.777c-0.76562 0-1.3906 0.62109-1.3906 1.3906v26.391c0 0.76563 0.62109 1.3906 1.3906 1.3906h27.777c0.76562 0 1.3906-0.62109 1.3906-1.3906l-0.003906-26.395c0-0.76562-0.62109-1.3867-1.3867-1.3867zm-1.3906 26.387h-25v-23.609h25z"/>
 <path d="m57.176 70.215c0.097657 0.14453-0.36328-0.41797 8.4336 9.8555 0.55469 0.64453 1.5547 0.64453 2.1094 0 9.0469-10.555 8.4648-9.8086 8.5898-10.172 0.09375-0.26563 0.097656-0.54297 0.035156-0.79297l-1.3906-5.5547c-0.15625-0.61719-0.71094-1.0508-1.3477-1.0508h-13.891c-0.63672 0-1.1914 0.43359-1.3477 1.0508-1.4453 5.8008-1.3906 5.5273-1.4141 5.6875-0.019531 0.18359 0.039063 0.69531 0.22266 0.97656zm9.4883 6.8164-5.3125-6.1992h10.629zm5.8633-11.754 0.69531 2.7773h-13.109l0.69531-2.7773z"/>
 <path d="m91.664 54.859c0 1.8555-2.7773 1.8555-2.7773 0 0-1.8516 2.7773-1.8516 2.7773 0"/>
 <path d="m25.195 15.277c0 1.8516-2.7773 1.8516-2.7773 0 0-1.8516 2.7773-1.8516 2.7773 0"/>
<text x="0.0" y="117.5" font-size="5.0" font-weight="bold" font-family="Arbeit Regular, Helvetica, Arial-Unicode, Arial, Sans-serif" fill="#000000">Created by Iconiyo</text><text x="0.0" y="122.5" font-size="5.0" font-weight="bold" font-family="Arbeit Regular, Helvetica, Arial-Unicode, Arial, Sans-serif" fill="#000000">from Noun Project</text></svg>