<svg xmlns="http://www.w3.org/2000/svg" xmlns:xlink="http://www.w3.org/1999/xlink" version="1.1" x="0px" y="0px" viewBox="0 0 100 125" enable-background="new 0 0 100 100" xml:space="preserve"><path d="M43.52,67.509h12.962c0.553,0,1-0.447,1-1V52.39c0-0.553-0.447-1-1-1H43.52c-0.552,0-1,0.447-1,1v14.119  C42.52,67.062,42.967,67.509,43.52,67.509z M44.52,53.39h10.962v12.119H44.52V53.39z"/><path d="M56.481,70.966H54.47c-0.553,0-1,0.447-1,1s0.447,1,1,1h2.012c0.553,0,1-0.447,1-1S57.034,70.966,56.481,70.966z"/><path d="M17.101,70.429h20.154c0.552,0,1-0.447,1-1V52.118c0-0.553-0.448-1-1-1H17.101c-0.552,0-1,0.447-1,1v17.311  C16.101,69.981,16.548,70.429,17.101,70.429z M18.101,53.118h18.154v15.311H18.101V53.118z"/><path d="M28.018,57.258c-0.369-0.409-1.001-0.446-1.412-0.076l-5.677,5.092c-0.411,0.368-0.446,1.001-0.077,1.412  c0.198,0.22,0.471,0.332,0.745,0.332c0.238,0,0.476-0.084,0.667-0.256l5.677-5.092C28.352,58.302,28.387,57.669,28.018,57.258z"/><path d="M32.091,56.568l-8.228,7.377c-0.411,0.368-0.446,1.001-0.077,1.412c0.198,0.22,0.471,0.332,0.745,0.332  c0.238,0,0.476-0.084,0.667-0.256l8.228-7.377c0.411-0.368,0.446-1.001,0.077-1.412C33.135,56.235,32.503,56.198,32.091,56.568z"/><path d="M62.743,70.429h20.155c0.553,0,1-0.447,1-1V52.118c0-0.553-0.447-1-1-1H62.743c-0.553,0-1,0.447-1,1v17.311  C61.743,69.981,62.19,70.429,62.743,70.429z M63.743,53.118h18.155v15.311H63.743V53.118z"/><path d="M73.661,57.258c-0.369-0.412-1.002-0.446-1.412-0.076l-5.677,5.092c-0.411,0.368-0.445,1.001-0.076,1.412  c0.197,0.22,0.471,0.332,0.744,0.332c0.238,0,0.477-0.084,0.668-0.256l5.677-5.092C73.996,58.302,74.03,57.669,73.661,57.258z"/><path d="M77.734,56.568l-8.229,7.377c-0.411,0.368-0.445,1-0.076,1.412c0.197,0.22,0.47,0.332,0.744,0.332  c0.238,0,0.477-0.084,0.668-0.256l8.229-7.377c0.411-0.368,0.445-1,0.076-1.412C78.777,56.233,78.146,56.198,77.734,56.568z"/><path d="M93.439,93.98c-0.051-0.123-0.124-0.234-0.217-0.326l-5.517-5.517V46.163c2.605-0.532,4.589-3.099,4.589-6.183v-6.756  c0-0.022-0.012-0.042-0.013-0.064c-0.005-0.065-0.021-0.127-0.039-0.191c-0.018-0.067-0.035-0.132-0.066-0.193  c-0.01-0.019-0.01-0.04-0.021-0.059l-5.479-9.308V8.208c0-0.552-0.447-1-1-1H61.48C58.84,3.747,54.685,1.5,50.005,1.5  c-4.68,0-8.835,2.247-11.476,5.708H14.323c-0.552,0-1,0.448-1,1v15.2l-5.48,9.309c-0.011,0.02-0.011,0.042-0.021,0.061  c-0.03,0.059-0.047,0.122-0.065,0.187c-0.018,0.066-0.036,0.129-0.04,0.197c-0.001,0.022-0.013,0.041-0.013,0.063  c0,0.002,0.001,0.003,0.001,0.005v6.749c0,3.083,1.983,5.649,4.589,6.183v41.977l-5.518,5.517c-0.093,0.093-0.166,0.203-0.217,0.326  c-0.051,0.122-0.077,0.252-0.077,0.382V97.5c0,0.553,0.448,1,1,1h85.033c0.553,0,1-0.447,1-1v-3.138  C93.517,94.232,93.49,94.103,93.439,93.98z M17.882,43.559c1.011,1.634,2.69,2.708,4.589,2.708c1.898,0,3.577-1.074,4.587-2.708  c1.01,1.634,2.689,2.708,4.589,2.708s3.578-1.074,4.589-2.708c1.01,1.634,2.688,2.708,4.588,2.708s3.579-1.074,4.589-2.708  c1.01,1.634,2.688,2.708,4.586,2.708c1.899,0,3.577-1.074,4.588-2.708c1.011,1.635,2.69,2.709,4.591,2.709  c1.899,0,3.577-1.074,4.587-2.708c1.011,1.634,2.688,2.708,4.588,2.708s3.577-1.074,4.588-2.708c1.01,1.635,2.689,2.709,4.59,2.709  c1.899,0,3.577-1.074,4.587-2.708c0.829,1.34,2.107,2.298,3.589,2.602v41.389H60.267V49.681c0-0.552-0.447-1-1-1H40.733  c-0.552,0-1,0.448-1,1v37.871H14.295V46.161C15.776,45.858,17.054,44.899,17.882,43.559z M14.895,24.681h23.634  c2.642,3.46,6.796,5.707,11.476,5.707s8.834-2.247,11.476-5.707h23.626l4.44,7.544H10.454L14.895,24.681z M81.117,39.98  c0,2.365-1.609,4.289-3.587,4.289c-1.979,0-3.59-1.924-3.59-4.289l0,0c0,0,0-0.001,0-0.001v-5.755h7.177V39.98z M28.059,39.979  v-5.754h7.178v5.755c0,2.364-1.61,4.288-3.589,4.288S28.059,42.344,28.059,39.979L28.059,39.979  C28.059,39.979,28.059,39.979,28.059,39.979z M37.236,34.225h7.177v5.755c0,2.364-1.61,4.288-3.589,4.288  c-1.979,0-3.588-1.924-3.588-4.288V34.225z M46.413,34.225h7.174v5.754c0,2.364-1.609,4.288-3.588,4.288  c-1.977,0-3.586-1.924-3.586-4.288V34.225z M55.587,39.979v-5.754h7.178v5.755c0,2.364-1.609,4.288-3.587,4.288  C57.197,44.268,55.587,42.344,55.587,39.979L55.587,39.979C55.587,39.979,55.587,39.979,55.587,39.979z M64.765,34.225h7.176v5.755  c0,2.364-1.609,4.288-3.588,4.288s-3.588-1.924-3.588-4.288V34.225z M26.059,34.225v5.754c0,2.364-1.609,4.288-3.587,4.288  c-1.979,0-3.59-1.924-3.59-4.288v-5.754H26.059z M58.267,87.552H41.733V50.681h16.533V87.552z M13.709,89.552h27.024h18.533h27.025  l3.811,3.811H9.898L13.709,89.552z M86.708,44.27c-1.98,0-3.591-1.924-3.591-4.289v-5.756h7.178v5.756  C90.295,42.346,88.686,44.27,86.708,44.27z M84.678,9.208v13.473H62.772c1.066-2.013,1.677-4.304,1.677-6.736  s-0.61-4.723-1.677-6.736H84.678z M50.005,3.5c6.862,0,12.444,5.583,12.444,12.444c0,6.861-5.582,12.443-12.444,12.443  c-6.862,0-12.444-5.582-12.444-12.443C37.561,9.083,43.143,3.5,50.005,3.5z M15.323,9.208h21.914  c-1.066,2.013-1.677,4.304-1.677,6.736s0.61,4.723,1.677,6.736H15.323V9.208z M9.706,39.979v-5.754h7.176v5.754  c0,2.365-1.608,4.289-3.586,4.289C11.316,44.268,9.706,42.344,9.706,39.979z M91.517,96.5H8.483v-1.138h83.033V96.5z"/><path d="M39.014,12.156c0,0.012-0.006,0.021-0.006,0.033c0,0.049,0.021,0.092,0.028,0.139c0.008,0.057,0.003,0.114,0.021,0.169  c0.004,0.014,0.015,0.026,0.021,0.041c0.025,0.067,0.065,0.122,0.103,0.181c0.025,0.04,0.036,0.084,0.067,0.121l9.997,11.672  c0.014,0.016,0.033,0.021,0.047,0.036c0.002,0.002,0.004,0.004,0.007,0.006c0.019,0.02,0.031,0.045,0.052,0.063  c0.001,0.001,0.001,0.003,0.003,0.004c0.01,0.009,0.023,0.011,0.034,0.02c0.049,0.038,0.102,0.067,0.157,0.096  c0.028,0.015,0.053,0.032,0.083,0.044c0.018,0.007,0.035,0.018,0.053,0.024c0.004,0.001,0.007,0.004,0.011,0.006  c0.001,0,0.002,0,0.003,0c0.1,0.033,0.204,0.051,0.311,0.051s0.211-0.018,0.311-0.051c0.001,0,0.002,0,0.003,0  c0.004-0.001,0.007-0.005,0.011-0.006c0.018-0.006,0.035-0.017,0.053-0.024c0.029-0.012,0.054-0.029,0.083-0.044  c0.055-0.029,0.108-0.058,0.157-0.096c0.01-0.009,0.023-0.011,0.034-0.02c0.001-0.001,0.001-0.002,0.003-0.004  c0.021-0.018,0.032-0.043,0.051-0.063c0.002-0.002,0.005-0.004,0.007-0.007c0.014-0.015,0.034-0.02,0.047-0.036l9.998-11.672  c0.032-0.037,0.043-0.083,0.069-0.124c0.037-0.058,0.076-0.112,0.101-0.178c0.005-0.014,0.017-0.026,0.021-0.041  c0.019-0.057,0.015-0.116,0.022-0.174c0.007-0.046,0.027-0.086,0.027-0.134c0-0.012-0.006-0.021-0.007-0.032  c0-0.013,0.005-0.026,0.004-0.039c-0.005-0.062-0.032-0.118-0.048-0.178c-0.014-0.055-0.02-0.111-0.043-0.162  c-0.004-0.01-0.005-0.02-0.01-0.03c-0.021-0.044-0.062-0.078-0.09-0.119c-0.041-0.058-0.076-0.118-0.128-0.167  c-0.009-0.008-0.012-0.019-0.021-0.026l-4.756-4.159c-0.034-0.03-0.082-0.044-0.12-0.069c-0.002-0.001-0.004-0.002-0.006-0.003  c-0.061-0.039-0.117-0.08-0.185-0.106c-0.068-0.025-0.138-0.032-0.209-0.042c-0.048-0.007-0.091-0.028-0.141-0.028h-10.48  c-0.049,0-0.09,0.021-0.137,0.028c-0.072,0.01-0.144,0.017-0.213,0.043c-0.068,0.025-0.125,0.066-0.185,0.106  c-0.009,0.005-0.019,0.009-0.027,0.016c-0.031,0.021-0.07,0.032-0.098,0.057l-4.747,4.153l0,0l0,0l-0.008,0.007  c-0.008,0.007-0.011,0.018-0.02,0.026c-0.052,0.048-0.088,0.108-0.129,0.167c-0.028,0.041-0.068,0.074-0.09,0.118  c-0.004,0.01-0.005,0.02-0.01,0.03c-0.024,0.052-0.03,0.11-0.044,0.166c-0.015,0.059-0.041,0.114-0.045,0.173  C39.01,12.13,39.014,12.143,39.014,12.156z M48.434,11.188l1.57-1.691l1.571,1.691H48.434z M52.483,13.188l-2.479,7.49l-2.479-7.49  H52.483z M47.459,19.352l-5.279-6.163h3.239L47.459,19.352z M54.589,13.188h3.239l-5.278,6.164L54.589,13.188z M55.251,11.188  l0.469-1.417l1.62,1.417H55.251z M53.449,10.268l-1.151-1.24h1.563L53.449,10.268z M46.559,10.269l-0.411-1.241h1.563L46.559,10.269  z M44.289,9.772l0.469,1.417h-2.088L44.289,9.772z"/><text x="0" y="115" fill="#000000" font-size="5px" font-weight="bold" font-family="'Helvetica Neue', Helvetica, Arial-Unicode, Arial, Sans-serif">Created by Noura Mbarki</text><text x="0" y="120" fill="#000000" font-size="5px" font-weight="bold" font-family="'Helvetica Neue', Helvetica, Arial-Unicode, Arial, Sans-serif">from the Noun Project</text></svg>