<svg xmlns="http://www.w3.org/2000/svg" version="1.1" viewBox="-5.0 -10.0 110.0 135.0">
 <path d="m24.441 77.824v-23.914c0-0.59375 0.48047-1.0781 1.0781-1.0781 0.59375 0 1.0781 0.48438 1.0781 1.0781v23.914c0 0.59766-0.48438 1.0781-1.0781 1.0781-0.59766 0-1.0781-0.48047-1.0781-1.0781z"/>
 <path d="m44.531 53.91v23.914c0 0.59766-0.48438 1.0781-1.0781 1.0781-0.59766 0-1.0781-0.48047-1.0781-1.0781v-23.914c0-0.59375 0.48047-1.0781 1.0781-1.0781 0.59375 0 1.0781 0.48438 1.0781 1.0781z"/>
 <path d="m49.449 46.855c0.19531 0.003906 0.39844 0.0625 0.57812 0.17969l0.48438 0.32422v-0.50391z"/>
 <path d="m49.434 46.855c-0.03125 0-0.058594 0.003906-0.085938 0.003906 0.027344 0 0.054688-0.003906 0.085938-0.003906l0.015625 0.003906c-0.007813-0.003906-0.011719-0.003906-0.015625-0.003906z"/>
 <path d="m49.434 64.793c-0.60156 0-1.0859 0.47656-1.0859 1.0781v5.9727c0 0.59766 0.48438 1.082 1.0859 1.082 0.59375 0 1.0781-0.48438 1.0781-1.082v-7.0508zm0 2.1562h0.53516-0.53516-0.023438z"/>
 <path d="m49.406 40.879c-0.035156 0-0.074219 0.007813-0.10938 0.007813 0.035156 0 0.074219-0.007813 0.10938-0.007813z"/>
 <path d="m49.434 70.766h23.906c0.59766 0 1.0781 0.48438 1.0781 1.0781 0 0.59766-0.48047 1.082-1.0781 1.082h-23.906c-0.60156 0-1.0859-0.48438-1.0859-1.082 0-0.59375 0.48438-1.0781 1.0859-1.0781z"/>
 <path d="m72.262 46.855v0.50391l0.47656-0.32422c0.18359-0.11719 0.38672-0.17578 0.58594-0.17969z"/>
 <path d="m73.34 46.855h-0.015625l0.015625 0.003906c0.003906 0 0.003906-0.003906 0.007812-0.003906 0.023438 0 0.046875 0.003906 0.074219 0.003906-0.027344 0-0.058594-0.003906-0.082031-0.003906z"/>
 <path d="m61.391 46.855c0.12109 0.003906 0.24609 0.023437 0.35938 0.066406-0.12109-0.046875-0.23828-0.0625-0.35938-0.066406z"/>
 <path d="m49.438 46.855h0.003906l-0.007812 0.003906h0.015625c-0.007813-0.003906-0.011719-0.003906-0.011719-0.003906z"/>
 <path d="m73.34 46.855h-0.015625l0.015625 0.003906-0.015625-0.003906v0.003906c-0.19922 0-0.40234 0.058594-0.58594 0.17578l-0.47656 0.32422v1.6562h1.0781c0.20703 0 0.40625-0.0625 0.57031-0.16016l0.027344-0.023438c0.49609-0.32812 0.62891-1 0.30078-1.4922-0.19141-0.28906-0.5-0.45312-0.81641-0.48047h-0.011719c-0.023437 0-0.046875-0.003906-0.070312-0.003906z"/>
 <path d="m49.434 46.855h23.906c0.59766 0 1.0781 0.48438 1.0781 1.082 0 0.59375-0.48047 1.0781-1.0781 1.0781h-23.906c-0.60156 0-1.0859-0.48438-1.0859-1.0781 0-0.59766 0.48438-1.082 1.0859-1.082z"/>
 <path d="m74.418 47.938v17.934c0 0.59375-0.48047 1.0781-1.0781 1.0781-0.59375 0-1.0781-0.48438-1.0781-1.0781v-17.934c0-0.59766 0.48438-1.082 1.0781-1.082 0.59766 0 1.0781 0.48438 1.0781 1.082z"/>
 <path d="m50.512 47.938v17.934c0 0.59375-0.48438 1.0781-1.0781 1.0781-0.60156 0-1.0859-0.48438-1.0859-1.0781v-17.934c0-0.59766 0.48438-1.082 1.0859-1.082 0.59375 0 1.0781 0.48438 1.0781 1.082z"/>
 <path d="m54.645 59.129 5.9766-5.9766c0.42188-0.42188 1.1016-0.42188 1.5234 0s0.42188 1.1016 0 1.5234l-5.9727 5.9805c-0.42188 0.41797-1.1055 0.41797-1.5273 0-0.42188-0.42188-0.42188-1.1094 0-1.5273z"/>
 <path d="m54.645 65.105 11.953-11.953c0.42188-0.42188 1.1055-0.42188 1.5273 0s0.42188 1.1016 0 1.5234l-11.953 11.953c-0.42188 0.42188-1.1055 0.42188-1.5273 0s-0.42188-1.1016 0-1.5234z"/>
 <path d="m20.621 35.98v41.844c0 0.59766-0.48438 1.0781-1.0781 1.0781s-1.0781-0.48047-1.0781-1.0781v-41.844c0-0.59375 0.48438-1.0781 1.0781-1.0781s1.0781 0.48438 1.0781 1.0781z"/>
 <path d="m13.562 34.902h71.734c0.59375 0 1.0781 0.48438 1.0781 1.0781 0 0.59766-0.48438 1.0781-1.0781 1.0781h-71.734c-0.59375 0-1.0781-0.48047-1.0781-1.0781 0-0.59375 0.48438-1.0781 1.0781-1.0781z"/>
 <path d="m50.496 36.156c-0.10156 0.58984-0.65234 0.98438-1.2422 0.89062-0.58594-0.097656-0.98828-0.65625-0.89062-1.2461 0.10156-0.58203 0.65234-0.98438 1.2422-0.88281 0.58594 0.097656 0.98828 0.64844 0.89062 1.2383z"/>
 <path d="m48.668 30.766-11.953-11.953c-0.42188-0.42188-0.42188-1.1055 0-1.5273s1.1016-0.42188 1.5234 0l11.953 11.953c0.42188 0.42188 0.42188 1.1055 0 1.5273s-1.1016 0.42188-1.5234 0z"/>
 <path d="m48.668 29.238 11.953-11.953c0.42188-0.42188 1.1016-0.42188 1.5234 0s0.42188 1.1055 0 1.5273l-11.953 11.953c-0.42188 0.42188-1.1016 0.42188-1.5234 0s-0.42188-1.1055 0-1.5273z"/>
 <path d="m37.473 16.969h23.914c0.59375 0 1.0781 0.48438 1.0781 1.0781 0 0.59766-0.48438 1.0781-1.0781 1.0781h-23.914c-0.59375 0-1.0781-0.48047-1.0781-1.0781 0-0.59375 0.48438-1.0781 1.0781-1.0781z"/>
 <path d="m60.621 18.812-5.9766-5.9805c-0.42188-0.42188-0.42188-1.1016 0-1.5234s1.1055-0.42188 1.5273 0l5.9727 5.9766c0.42188 0.42188 0.42188 1.1055 0 1.5273s-1.1016 0.42188-1.5234 0z"/>
 <path d="m36.715 17.285 5.9727-5.9766c0.42188-0.42188 1.1055-0.42188 1.5273 0s0.42188 1.1016 0 1.5234l-5.9766 5.9805c-0.42188 0.42188-1.1016 0.42188-1.5234 0s-0.42188-1.1055 0-1.5273z"/>
 <path d="m43.453 10.988h11.953c0.59766 0 1.0781 0.48438 1.0781 1.0781 0 0.60156-0.48047 1.0859-1.0781 1.0859h-11.953c-0.59766 0-1.0781-0.48438-1.0781-1.0859 0-0.59375 0.48047-1.0781 1.0781-1.0781z"/>
 <path d="m56.434 12.41-5.9805 17.934c-0.1875 0.56641-0.79688 0.87109-1.3633 0.68359-0.57031-0.1875-0.87109-0.79688-0.68359-1.3672l5.9805-17.93c0.1875-0.57031 0.79688-0.87109 1.3633-0.68359 0.5625 0.1875 0.87109 0.79688 0.68359 1.3633z"/>
 <path d="m44.473 11.73 5.9805 17.93c0.1875 0.57031-0.11328 1.1797-0.68359 1.3672-0.56641 0.1875-1.1758-0.11719-1.3633-0.68359l-5.9805-17.934c-0.1875-0.56641 0.12109-1.1758 0.68359-1.3633 0.56641-0.1875 1.1758 0.11328 1.3633 0.68359z"/>
 <path d="m49.434 28.922h35.863c0.59375 0 1.0781 0.48438 1.0781 1.082 0 0.59375-0.48438 1.0781-1.0781 1.0781h-35.863c-0.60156 0-1.0859-0.48438-1.0859-1.0781 0-0.59766 0.48438-1.082 1.0859-1.082z"/>
 <path d="m12.484 35.98v-5.9766c0-0.59766 0.48438-1.082 1.0781-1.082 0.59766 0 1.0781 0.48438 1.0781 1.082v5.9766c0 0.59766-0.48047 1.0781-1.0781 1.0781-0.59375 0-1.0781-0.48047-1.0781-1.0781z"/>
 <path d="m13.562 28.922h41.844c0.59766 0 1.0781 0.48438 1.0781 1.082 0 0.59375-0.48047 1.0781-1.0781 1.0781h-41.844c-0.59375 0-1.0781-0.48438-1.0781-1.0781 0-0.59766 0.48438-1.082 1.0781-1.082z"/>
 <path d="m13.562 82.723h71.734c0.59375 0 1.0781 0.48047 1.0781 1.0781 0 0.59375-0.48438 1.0781-1.0781 1.0781h-71.734c-0.59375 0-1.0781-0.48438-1.0781-1.0781 0-0.59766 0.48438-1.0781 1.0781-1.0781z"/>
 <path d="m37.473 46.855c-0.56641 0-1.0391 0.44141-1.0781 1.0156-0.03125 0.59766 0.42188 1.1094 1.0156 1.1406l1.1797 0.070312 0.94531 0.1875 0.77344 0.29688 0.61719 0.39844 0.5 0.49219 0.39062 0.62109 0.29688 0.77734 0.19531 0.94141 0.066406 1.1758c0.03125 0.57812 0.51172 1.0156 1.0781 1.0156h0.0625c0.59375-0.035156 1.0469-0.54688 1.0156-1.1406l-0.078125-1.2539c0-0.046875-0.003906-0.097656-0.015625-0.14453l-0.22266-1.1094c-0.011719-0.058594-0.027344-0.12109-0.054688-0.17188l-0.36328-0.96484c-0.027344-0.066406-0.0625-0.12891-0.097656-0.19141l-0.51562-0.80859c-0.042969-0.066406-0.09375-0.12891-0.14844-0.1875l-0.66406-0.66016c-0.058594-0.058594-0.11719-0.10547-0.18359-0.14844l-0.8125-0.51953c-0.0625-0.035156-0.125-0.066406-0.19141-0.09375l-0.96094-0.37109c-0.054687-0.019531-0.11328-0.039062-0.17578-0.050781l-1.1055-0.21875c-0.050781-0.011719-0.097656-0.015625-0.14844-0.019531l-1.2578-0.074219c-0.019531 0-0.039062-0.003906-0.0625-0.003906z"/>
 <path d="m31.5 46.855c-0.019531 0-0.046875 0.003906-0.066406 0.003906l-1.2578 0.074219c-0.046875 0.003906-0.097656 0.007812-0.14453 0.019531l-1.1094 0.21875c-0.058594 0.011719-0.11328 0.03125-0.17188 0.050781l-0.96484 0.37109c-0.0625 0.027344-0.12891 0.058594-0.1875 0.09375l-0.8125 0.51953c-0.066406 0.042969-0.12891 0.089844-0.1875 0.14844l-0.66016 0.66016c-0.058594 0.058594-0.10547 0.12109-0.14453 0.1875l-0.52344 0.80859c-0.035156 0.0625-0.066406 0.125-0.09375 0.19141l-0.36719 0.96484c-0.023438 0.050781-0.039063 0.11328-0.054688 0.17188l-0.21875 1.1094c-0.007812 0.046875-0.015625 0.097656-0.019531 0.14453l-0.074219 1.2539c-0.035156 0.59375 0.41797 1.1055 1.0156 1.1406h0.0625c0.57031 0 1.043-0.4375 1.0781-1.0156l0.070313-1.1758 0.1875-0.94141 0.29688-0.77734 0.39453-0.62109 0.49609-0.49219 0.625-0.39844 0.76953-0.29688 0.94141-0.1875 1.1836-0.070312c0.59375-0.03125 1.0469-0.54297 1.0117-1.1406-0.03125-0.57422-0.51172-1.0156-1.0742-1.0156z"/>
 <path d="m37.473 47.922-5.9766 0.027344z"/>
 <path d="m31.496 46.855h5.9766c0.60156 0 1.0781 0.48438 1.0781 1.082 0 0.59375-0.47656 1.0781-1.0781 1.0781h-5.9766c-0.59375 0-1.0781-0.48438-1.0781-1.0781 0-0.59766 0.48438-1.082 1.0781-1.082z"/>
 <path d="m19.543 76.746h-0.0625l-1.2578 0.070312c-0.050781 0.007813-0.097656 0.011719-0.14453 0.023438l-1.1094 0.22266c-0.0625 0.011719-0.12109 0.027344-0.17578 0.046875l-0.96094 0.37109c-0.066406 0.023437-0.12891 0.054687-0.19141 0.097656l-0.8125 0.51562c-0.0625 0.042969-0.125 0.09375-0.18359 0.14453l-0.66016 0.66797c-0.058594 0.058594-0.10938 0.11328-0.15234 0.18359l-0.51562 0.8125c-0.035156 0.0625-0.070312 0.125-0.097656 0.19141l-0.36328 0.95703c-0.027344 0.058594-0.042969 0.11719-0.054688 0.17969l-0.22266 1.1016c-0.011719 0.054688-0.015625 0.10156-0.015625 0.15234l-0.074219 1.2539c-0.035156 0.59375 0.41797 1.1055 1.0117 1.1406h0.066406c0.5625 0 1.043-0.44141 1.0742-1.0156l0.066406-1.1797 0.19531-0.94531 0.29688-0.76953 0.39453-0.62109 0.49609-0.5 0.61719-0.39062 0.77734-0.30078 0.94141-0.1875 1.1797-0.066406c0.59375-0.039063 1.0508-0.54688 1.0156-1.1406-0.039063-0.57422-0.51172-1.0156-1.0781-1.0156z"/>
 <path d="m19.543 76.746h59.773c0.59375 0 1.0781 0.48438 1.0781 1.0781 0 0.59766-0.48438 1.0781-1.0781 1.0781h-59.773c-0.59375 0-1.0781-0.48047-1.0781-1.0781 0-0.59375 0.48438-1.0781 1.0781-1.0781z"/>
 <path d="m86.375 30.004v5.9766c0 0.59766-0.48438 1.0781-1.0781 1.0781-0.59766 0-1.0781-0.48047-1.0781-1.0781v-5.9766c0-0.59766 0.48047-1.082 1.0781-1.082 0.59375 0 1.0781 0.48438 1.0781 1.082z"/>
 <path d="m80.395 35.98v41.844c0 0.59766-0.48438 1.0781-1.0781 1.0781s-1.0781-0.48047-1.0781-1.0781v-41.844c0-0.59375 0.48438-1.0781 1.0781-1.0781s1.0781 0.48438 1.0781 1.0781z"/>
 <path d="m74.418 65.871v5.9727c0 0.59766-0.48047 1.082-1.0781 1.082-0.59375 0-1.0781-0.48438-1.0781-1.082v-5.9727c0-0.60156 0.48438-1.0781 1.0781-1.0781 0.59766 0 1.0781 0.47656 1.0781 1.0781z"/>
 <path d="m79.316 76.746c-0.56641 0-1.0391 0.44141-1.0781 1.0156-0.03125 0.59375 0.42188 1.1016 1.0156 1.1406l1.1797 0.066406 0.94531 0.1875 0.77344 0.30078 0.61719 0.39062 0.49609 0.5 0.39453 0.62109 0.29688 0.76953 0.19531 0.94531 0.066406 1.1797c0.03125 0.57422 0.51172 1.0156 1.0781 1.0156h0.0625c0.59375-0.035156 1.0469-0.54688 1.0117-1.1406l-0.074219-1.2539c0-0.050781-0.003906-0.097656-0.015625-0.15234l-0.22266-1.1016c-0.011719-0.0625-0.027344-0.12109-0.054688-0.17969l-0.36719-0.95703c-0.023438-0.066406-0.058594-0.12891-0.09375-0.19141l-0.51562-0.8125c-0.042969-0.070313-0.09375-0.125-0.15234-0.18359l-0.66016-0.66797c-0.058594-0.050781-0.12109-0.10156-0.18359-0.14453l-0.8125-0.51562c-0.0625-0.035156-0.125-0.074219-0.19141-0.097656l-0.96094-0.37109c-0.054687-0.019531-0.11328-0.035156-0.17578-0.046875l-1.1094-0.22266c-0.046875-0.011719-0.09375-0.015625-0.14453-0.015625l-1.2578-0.078125h-0.0625z"/>
 <path d="m40.922 65.703c-0.058594 0.58984-0.58203 1.0273-1.1758 0.96875-0.58984-0.050781-1.0273-0.57812-0.96875-1.1719 0.050781-0.59375 0.57812-1.0312 1.1719-0.97266 0.59375 0.054687 1.0312 0.58203 0.97266 1.1758z"/>
<text x="0.0" y="117.5" font-size="5.0" font-weight="bold" font-family="Arbeit Regular, Helvetica, Arial-Unicode, Arial, Sans-serif" fill="#000000">Created by Liam Yusuf</text><text x="0.0" y="122.5" font-size="5.0" font-weight="bold" font-family="Arbeit Regular, Helvetica, Arial-Unicode, Arial, Sans-serif" fill="#000000">from Noun Project</text></svg>