<svg width="8" height="12" viewBox="0 0 8 12" fill="none" xmlns="http://www.w3.org/2000/svg">
<path d="M4.88106 11.1503L0.631852 6.81409V5.57517H2.84334C3.40147 5.57517 3.88326 5.39707 4.2887 5.04088C4.69414 4.68469 4.93898 4.24332 5.02323 3.71678H0V2.47785H4.83367C4.65465 2.1165 4.38874 1.81967 4.03596 1.58737C3.68317 1.35508 3.28563 1.23893 2.84334 1.23893H0V0H7.58223V1.23893H5.52871C5.67614 1.41444 5.80778 1.60544 5.92362 1.81193C6.03946 2.01842 6.12897 2.24039 6.19215 2.47785H7.58223V3.71678H6.30273C6.21848 4.59435 5.8499 5.32996 5.19699 5.92362C4.54407 6.51727 3.75952 6.81409 2.84334 6.81409H2.38524L6.63445 11.1503H4.88106Z" fill="#343726"/>
</svg>
