<svg width="24" height="24" viewBox="0 0 24 24" fill="none" xmlns="http://www.w3.org/2000/svg">
<rect width="24" height="24" fill="white"/>
<path d="M15.0454 4.95841V6.73992C15.0455 6.90815 15.0917 7.07286 15.1786 7.21468C15.2655 7.3565 15.3895 7.46955 15.5359 7.54055L15.883 7.70933C15.8101 8.94914 15.4086 10.0387 14.8273 10.8252C14.1841 11.6965 13.3541 12.1631 12.4995 12.1631C11.6449 12.1631 10.8158 11.6965 10.1725 10.8252C9.59033 10.0387 9.18977 8.94914 9.11679 7.70933L9.46473 7.54143C9.61114 7.47005 9.73493 7.35662 9.82153 7.21447C9.90812 7.07232 9.95393 6.90738 9.95355 6.73904V4.95841C9.95355 4.52629 10.254 4.15867 10.6664 4.11007C11.8847 3.96331 13.1151 3.96331 14.3334 4.11007C14.7459 4.15867 15.0463 4.52629 15.0463 4.95841M7.48993 8.50023L4.73438 9.83902C4.42991 9.98706 4.194 10.2545 4.07811 10.5829C3.96221 10.9113 3.97573 11.2742 4.11572 11.5923L7.9168 20.2268C8.01832 20.4574 8.18128 20.6529 8.38631 20.7899C8.59135 20.927 8.82986 20.9999 9.07351 21H15.9263C16.17 20.9999 16.4085 20.927 16.6135 20.7899C16.8186 20.6529 16.9815 20.4574 17.083 20.2268L20.8841 11.5931C21.0243 11.2748 21.0378 10.9117 20.9218 10.583C20.8057 10.2544 20.5694 9.9869 20.2646 9.83902L17.509 8.50023C17.3291 9.7966 16.859 10.9746 16.1733 11.9024C15.3985 12.9523 14.3232 13.7078 13.0774 13.889L14.3572 15.7544C14.4343 15.8668 14.4758 16.0016 14.4758 16.1397C14.4758 16.2779 14.4343 16.4126 14.3572 16.525L12.6726 18.9817C12.653 19.0103 12.6271 19.0336 12.597 19.0497C12.567 19.0658 12.5337 19.0743 12.4999 19.0743C12.4661 19.0743 12.4328 19.0658 12.4028 19.0497C12.3728 19.0336 12.3468 19.0103 12.3272 18.9817L10.6427 16.525C10.5655 16.4126 10.5241 16.2779 10.5241 16.1397C10.5241 16.0016 10.5655 15.8668 10.6427 15.7544L11.9224 13.889C10.6774 13.7078 9.60136 12.9523 8.82655 11.9033C8.14084 10.9754 7.67069 9.79749 7.48993 8.50023Z" fill="#636846"/>
</svg>
