<svg width="24" height="24" viewBox="0 0 24 24" fill="none" xmlns="http://www.w3.org/2000/svg">
<rect width="24" height="24" fill="white"/>
<path d="M7.27136 4L3.15633 5.45593L3.44166 6.08773L6.1608 5.1253L5.72513 6.66361C4.9093 6.79586 4.28141 7.43068 4.28141 8.1902C4.28141 8.94216 4.89648 9.57321 5.70377 9.71302C5.33216 10.397 4.8794 11.2585 4.42364 12.2485C3.66163 13.896 3 15.7098 3 16.8056C3 17.6181 3.36435 18.1849 3.92347 18.5816C4.48302 18.9746 5.25528 19.1862 6.03266 19.1862C6.81005 19.1862 7.58317 18.9746 8.14271 18.5816C8.70226 18.1849 9.06533 17.6181 9.06533 16.8056C9.06533 15.7098 8.40327 13.896 7.64296 12.2485C7.18593 11.2585 6.73317 10.397 6.36156 9.71302C7.16884 9.57321 7.78392 8.94216 7.78392 8.1902C7.78392 7.48358 7.24146 6.88655 6.50678 6.70139L7.27136 4ZM18.206 4.00151L14.0927 5.45782L14.3746 6.08962L17.0955 5.12756L16.6598 6.66361C15.844 6.79586 15.2161 7.43068 15.2161 8.1902C15.2161 8.94216 15.8312 9.57321 16.6384 9.71302C16.2668 10.397 15.8141 11.2585 15.357 12.2485C14.5967 13.896 13.9347 15.7098 13.9347 16.8056C13.9347 17.6181 14.2977 18.1849 14.8573 18.5816C15.4168 18.9746 16.1899 19.1862 16.9673 19.1862C17.7447 19.1862 18.5178 18.9746 19.0774 18.5816C19.6369 18.1849 20 17.6181 20 16.8056C20 15.7098 19.3379 13.896 18.5776 12.2485C18.1206 11.2585 17.6678 10.397 17.2962 9.71302C18.1035 9.57321 18.7186 8.94216 18.7186 8.1902C18.7186 7.48358 18.1761 6.88655 17.4415 6.70139L18.206 4.00151ZM6.03266 7.3211C6.5794 7.3211 7.01508 7.70653 7.01508 8.1902C7.01508 8.67388 6.5794 9.0593 6.03266 9.0593C5.48593 9.0593 5.05025 8.67388 5.05025 8.1902C5.05025 7.70653 5.48593 7.3211 6.03266 7.3211ZM16.9673 7.3211C17.5141 7.3211 17.9497 7.70653 17.9497 8.1902C17.9497 8.67388 17.5141 9.0593 16.9673 9.0593C16.4206 9.0593 15.9849 8.67388 15.9849 8.1902C15.9849 7.70653 16.4206 7.3211 16.9673 7.3211ZM6.03266 19.8664C5.73367 19.8664 5.46884 19.9495 5.29799 20.0629C5.12286 20.18 5.05025 20.3047 5.05025 20.4332C5.05025 20.5617 5.12286 20.6864 5.29799 20.8035C5.46884 20.9169 5.73367 21 6.03266 21C6.33166 21 6.59648 20.9169 6.76734 20.8035C6.94246 20.6864 7.01508 20.5617 7.01508 20.4332C7.01508 20.3047 6.94246 20.18 6.76734 20.0629C6.59648 19.9495 6.33166 19.8664 6.03266 19.8664ZM16.9673 19.8664C16.6683 19.8664 16.4035 19.9495 16.2327 20.0629C16.0575 20.18 15.9849 20.3047 15.9849 20.4332C15.9849 20.5617 16.0575 20.6864 16.2327 20.8035C16.4035 20.9169 16.6683 21 16.9673 21C17.2663 21 17.5312 20.9169 17.702 20.8035C17.8771 20.6864 17.9497 20.5617 17.9497 20.4332C17.9497 20.3047 17.8771 20.18 17.702 20.0629C17.5312 19.9495 17.2663 19.8664 16.9673 19.8664Z" fill="#636846"/>
</svg>
