<svg width="24" height="24" viewBox="0 0 24 24" fill="none" xmlns="http://www.w3.org/2000/svg">
<rect width="24" height="24" fill="white"/>
<path d="M14.6161 4L11.4938 7.6122L13.7531 6.40816L13.9119 6.32319L14.0706 6.40923L14.7257 6.76476L14.6162 4H14.6161ZM7.05135 4.85084L7.92332 9.51615L11.097 7.82464L7.05135 4.85084ZM13.9096 7.08345L5.38902 11.6245L9.28151 13.685L17.7765 9.1863L13.9096 7.08345ZM15.4389 8.68209L16.3545 9.14824L9.29603 12.8667L6.90372 11.59L7.81035 11.1103L9.29607 11.9042L15.439 8.68213L15.4389 8.68209ZM18.7368 9.33391L19.062 10.1936L20 9.38307L18.7368 9.33388L18.7368 9.33391ZM18.1722 9.73298L9.54315 14.3032L9.33631 17.286L19.0688 12.1053L18.1722 9.73298ZM6.20393 10.4329L3 11.2981L4.31916 11.998L4.53713 11.4156L4.58184 11.297L4.69367 11.2378L6.204 10.4328L6.20393 10.4329ZM4.97198 12.1612L3.94129 14.9159L8.65774 17.4258L8.87792 14.2284L4.97195 12.1613L4.97198 12.1612ZM16.9682 13.9813L10.7348 17.2994L12.699 21L14.0516 15.9958L19.1482 16.9483L16.9682 13.9812L16.9682 13.9813ZM6.21069 16.8814L5.51534 18.4845L7.55883 17.5979L6.21062 16.8813L6.21069 16.8814Z" fill="#636846"/>
</svg>
