<svg width="24" height="24" viewBox="0 0 24 24" fill="none" xmlns="http://www.w3.org/2000/svg">
<rect width="24" height="24" fill="white"/>
<path d="M14.5896 4H14.4052C13.1402 4.01978 11.8346 4.40054 10.8092 5.00826C9.32288 5.88959 8.29755 7.70714 8.04307 9.43174C7.71113 11.6901 9.39295 13.7992 9.83923 16.0352C10.0052 16.9834 10.4994 17.8868 11.1338 18.3832C11.3403 17.4276 12.1849 16.7072 13.1881 16.7072C13.5274 16.7072 13.8483 16.7893 14.136 16.9349C15.5043 14.4898 18.8237 11.9179 18.9934 8.75982C19.0745 7.26293 18.407 5.44874 17.1419 4.67267C16.4006 4.21837 15.508 4.01157 14.5896 4ZM14.42 5.77649C15.5597 5.78022 16.6993 6.23078 17.5439 7.34878L17.0202 7.7594C16.0465 6.47417 14.7446 6.25094 13.4426 6.56749C12.1407 6.88217 10.8793 7.78927 10.2191 8.72996C9.93143 9.14431 9.83923 9.78264 9.9093 10.5292C9.97938 11.2758 10.208 12.1157 10.4847 12.8959C10.5658 13.131 10.6543 13.3588 10.7428 13.579C11.1707 13.2542 11.6723 13.0153 12.2587 13.0153C12.9484 13.0153 13.7119 13.3401 14.597 14.0941L14.1692 14.6093C13.3541 13.9187 12.7419 13.6872 12.2587 13.6872C11.794 13.6872 11.4104 13.8888 11.0084 14.2211C11.4104 15.1356 11.7608 15.7739 11.7608 15.7739L11.1854 16.1024C11.1854 16.1024 10.4293 14.7474 9.85767 13.1198C9.57368 12.3098 9.33025 11.4251 9.24911 10.5927C9.17166 9.76024 9.24911 8.95766 9.68063 8.34174C10.4478 7.24426 11.805 6.27408 13.2877 5.91423C13.6565 5.82427 14.0364 5.77649 14.42 5.77649ZM16.821 15.55C16.5887 16.7184 15.8916 17.185 14.7372 16.9498C15.8916 17.185 16.3526 17.8905 16.1203 19.0589C16.3526 17.8905 17.0497 17.4239 18.2041 17.6591C17.0497 17.4239 16.5887 16.7184 16.821 15.55ZM13.1881 17.3791C12.3915 17.3791 11.7497 18.0286 11.7497 18.8349C11.7497 19.6412 12.3915 20.2907 13.1881 20.2907C13.9848 20.2907 14.6265 19.6412 14.6265 18.8349C14.6265 18.0286 13.9848 17.3791 13.1881 17.3791ZM9.08314 18.4392C9.48885 19.2941 9.27124 19.9249 8.42664 20.3355C9.27124 19.9249 9.89455 20.1452 10.3003 21C9.89455 20.1452 10.1122 19.5143 10.9568 19.1037C10.1122 19.5143 9.48885 19.2941 9.08314 18.4392Z" fill="#636846"/>
</svg>
