<svg width="24" height="24" viewBox="0 0 24 24" fill="none" xmlns="http://www.w3.org/2000/svg">
<rect width="24" height="24" fill="white"/>
<path d="M19 14.625C19 16.3158 18.2625 17.9373 16.9497 19.1328C15.637 20.3283 13.8565 21 12 21C10.1435 21 8.36301 20.3283 7.05025 19.1328C5.7375 17.9373 5 16.3158 5 14.625C5.00111 13.3828 5.40068 12.168 6.14959 11.1298C6.89851 10.0917 7.96415 9.27536 9.21556 8.78125L9.48933 8.97533L10.6933 9.82675C9.51503 10.092 8.46785 10.7083 7.71816 11.5777C6.96847 12.447 6.55927 13.5196 6.55556 14.625C6.55556 17.3592 8.99778 19.5833 12 19.5833C15.0022 19.5833 17.4444 17.3592 17.4444 14.625C17.4407 13.5196 17.0315 12.447 16.2818 11.5777C15.5321 10.7083 14.485 10.092 13.3067 9.82675L14.7844 8.78125C16.0358 9.27536 17.1015 10.0917 17.8504 11.1298C18.5993 12.168 18.9989 13.3828 19 14.625ZM12 8.95833L15.8889 6.20292L14.3333 4H9.66667L8.11111 6.20292L10.4444 7.85617L12 8.95833Z" fill="#636846"/>
</svg>
