<svg xmlns="http://www.w3.org/2000/svg" version="1.1" viewBox="-5.0 -10.0 110.0 135.0">
 <path d="m88.266 67.793c1.2539 0 2.2695 1.0156 2.2695 2.2695s-1.0156 2.2695-2.2695 2.2695h-50.5c-1.0938 0-2.0078-0.77344-2.2227-1.8047l-2.9922-11.168c-0.027343-0.082031-0.046875-0.16016-0.066406-0.25l-12.664-47.258-15.926-5.2031c-1.1875-0.38672-1.8398-1.6641-1.4531-2.8555 0.38672-1.1875 1.6641-1.8438 2.8555-1.4531l17.023 5.5664c0.73828 0.21484 1.3477 0.79688 1.5586 1.5938l1.8672 6.9648h69.648c1.2539 0 2.2695 1.0156 2.2695 2.2695 0 0.25-0.039062 0.48438-0.11328 0.71094l-10.66 39.793c-0.26953 1.0156-1.1875 1.6836-2.1914 1.6836h-47.039l1.8438 6.875h48.762zm-9.168 10.93c2.6289 0 5.0117 1.0664 6.7305 2.7891 1.7227 1.7227 2.7891 4.1055 2.7891 6.7305 0 2.6289-1.0664 5.0117-2.7891 6.7305-1.7227 1.7227-4.1055 2.7891-6.7305 2.7891-2.6289 0-5.0078-1.0664-6.7305-2.7891-1.7227-1.7227-2.7891-4.1055-2.7891-6.7305 0-2.6289 1.0664-5.0117 2.7891-6.7305 1.7227-1.7227 4.1055-2.7891 6.7305-2.7891zm-31.531 0c2.6289 0 5.0117 1.0664 6.7305 2.7891 1.7227 1.7227 2.7891 4.1055 2.7891 6.7305 0 2.6289-1.0664 5.0117-2.7891 6.7305-1.7227 1.7227-4.1055 2.7891-6.7305 2.7891-2.6289 0-5.0117-1.0664-6.7305-2.7891-1.7227-1.7227-2.7891-4.1055-2.7891-6.7305 0-2.6289 1.0664-5.0117 2.7891-6.7305 1.7227-1.7227 4.1055-2.7891 6.7305-2.7891z" fill-rule="evenodd"/>
<text x="0.0" y="117.5" font-size="5.0" font-weight="bold" font-family="Arbeit Regular, Helvetica, Arial-Unicode, Arial, Sans-serif" fill="#000000">Created by SUBAIDA</text><text x="0.0" y="122.5" font-size="5.0" font-weight="bold" font-family="Arbeit Regular, Helvetica, Arial-Unicode, Arial, Sans-serif" fill="#000000">from Noun Project</text></svg>