<svg xmlns="http://www.w3.org/2000/svg" version="1.1" viewBox="-5.0 -10.0 110.0 135.0">
 <path d="m93.875 45.922c0.078125 0.89062-0.20312 1.7656-0.79688 2.4688-1.1406 1.375-3.4062 1.5625-4.7656 0.40625l-37.328-31.438c-0.29688-0.25-0.64062-0.375-0.98438-0.375-0.32812 0-0.76562 0.17188-1.0156 0.39062l-37.094 31.25v0.015625l-0.20312 0.15625c-1.375 1.1562-3.6094 0.95312-4.7812-0.39062-0.57812-0.71875-0.85938-1.5938-0.78125-2.4844 0.078125-0.90625 0.5-1.7188 1.2031-2.3125l37.297-31.422c2.9844-2.5312 7.7656-2.5469 10.75 0l37.297 31.422c0.70312 0.59375 1.125 1.4062 1.2031 2.3125zm-43.875-25.719 34.922 29.406c-1.2031 1.1719-1.8906 2.7812-1.8906 4.5312v32.078c0 1.9688-1.5938 3.5625-3.5625 3.5625h-28.094c-0.54688 0-1-0.4375-1-0.98438v-29.172c0-2.0938-1.7031-3.7969-3.7969-3.7969h-16.547c-2.0938 0-3.7969 1.7031-3.7969 3.7969v29.172c0 0.53125-0.45312 0.98438-0.98438 0.98438h-4.7188c-1.9688 0-3.5625-1.5938-3.5625-3.5625v-32.078c0-1.75-0.6875-3.3594-1.8906-4.5312zm5.3125 60.125c0 0.78125 0.625 1.4062 1.4062 1.4062h15.406c0.78125 0 1.4062-0.625 1.4062-1.4062v-23.094c0-0.78125-0.625-1.4062-1.4062-1.4062h-15.406c-0.78125 0-1.4062 0.625-1.4062 1.4062zm15.406-21.688h-4.8906v8.7344h4.8906zm-7.7031 0h-4.8906v8.7344h4.8906zm0 11.547h-4.8906v8.7344h4.8906zm7.7031 0h-4.8906v8.7344h4.8906z"/>
<text x="0.0" y="117.5" font-size="5.0" font-weight="bold" font-family="Arbeit Regular, Helvetica, Arial-Unicode, Arial, Sans-serif" fill="#000000">Created by Keyy Creative</text><text x="0.0" y="122.5" font-size="5.0" font-weight="bold" font-family="Arbeit Regular, Helvetica, Arial-Unicode, Arial, Sans-serif" fill="#000000">from Noun Project</text></svg>