<?xml version="1.0" encoding="UTF-8"?>
<svg version="1.1" xmlns="http://www.w3.org/2000/svg" width="512" height="512">
<path d="M0 0 C0.79680176 0.00346436 1.59360352 0.00692871 2.41455078 0.01049805 C8.40467777 0.11911486 13.90928632 1.01072441 19.73046875 2.4609375 C24.35611824 3.50590288 28.99134926 4.11558414 33.6875 4.75 C41.03098704 5.79545311 47.73633502 7.13727464 54.5 10.3125 C55.38429688 10.70953125 56.26859375 11.1065625 57.1796875 11.515625 C64.55328483 15.15020272 70.19445811 20.2526812 76.04003906 25.90429688 C82.29025995 31.93293802 88.74960156 37.57986763 95.625 42.875 C110.50967244 54.41780525 120.51467717 66.91783921 123.375 86.0625 C125.5450631 119.64422647 106.03014889 153.38878871 84.8125 177.8125 C81.33699613 181.60958074 77.83347204 184.54645402 73.5 187.3125 C73.65855469 188.18132812 73.81710937 189.05015625 73.98046875 189.9453125 C76.31383349 206.46536906 75.85821671 224.45552743 70.5 240.3125 C70.0875 241.56417969 69.675 242.81585938 69.25 244.10546875 C61.34210144 266.48375344 45.50416181 285.27093794 24.4375 296.25 C5.51115686 305.13770843 -17.78538632 308.25165558 -37.984375 301.703125 C-49.33101078 297.21490018 -59.34422984 292.56656552 -68.5 284.3125 C-69.11875 283.82265625 -69.7375 283.3328125 -70.375 282.828125 C-83.64208691 272.28552915 -92.21159672 256.11408994 -97.5 240.3125 C-97.91507813 239.08789062 -98.33015625 237.86328125 -98.7578125 236.6015625 C-102.13789646 225.34270115 -105.88488218 203.08226435 -100.5 192.3125 C-101.61375 192.250625 -102.7275 192.18875 -103.875 192.125 C-111.8970486 191.12758721 -119.94815722 186.60006998 -125.09350586 180.38891602 C-126.89369501 178.03600793 -128.64259184 175.65324366 -130.375 173.25 C-130.99487793 172.39599609 -131.61475586 171.54199219 -132.25341797 170.66210938 C-134.01482584 168.22088426 -135.76183987 165.77031755 -137.5 163.3125 C-137.91701172 162.72355957 -138.33402344 162.13461914 -138.76367188 161.52783203 C-149.87731821 145.61696496 -151.59055521 127.68084126 -149.16748047 108.70898438 C-147.42722027 99.1345285 -144.68278261 90.49647147 -137.8125 83.5 C-134.04728488 79.44821459 -133.9712335 76.32488169 -133.765625 70.95703125 C-133.31698683 66.49044246 -131.20129622 63.79244036 -128.5 60.3125 C-127.72269531 59.28511719 -126.94539063 58.25773437 -126.14453125 57.19921875 C-117.59986591 46.04051875 -108.55560622 35.26094852 -98.75 25.1875 C-97.99033936 24.38880493 -97.99033936 24.38880493 -97.21533203 23.57397461 C-91.77532248 18.1084952 -86.19807004 14.96226438 -78.40234375 14.84960938 C-77.04291573 14.86663497 -75.68353086 14.8875123 -74.32421875 14.91210938 C-68.75305804 14.82051389 -66.54355297 12.94512279 -62.5 9.3125 C-58.21930681 7.43440931 -54.58741887 7.06461144 -49.9375 7.125 C-48.29587891 7.13466797 -48.29587891 7.13466797 -46.62109375 7.14453125 C-43.7892811 7.29693168 -41.27076461 7.75240669 -38.5 8.3125 C-27.95497045 9.34049886 -27.95497045 9.34049886 -18.4375 5.4375 C-17.80714844 4.90382813 -17.17679688 4.37015625 -16.52734375 3.8203125 C-11.49648125 0.0786691 -6.01543792 -0.04305003 0 0 Z M-12.9375 22.06640625 C-14.95942746 23.6788934 -17.05237345 24.52062082 -19.5 25.3125 C-18.03439094 39.73042916 -9.10197962 50.88610002 1.625 60 C12.70014864 68.13841079 29.54932552 75.47505621 43.5 74.3125 C46.58333333 72.39583333 46.58333333 72.39583333 48.5 69.3125 C48.75411568 65.67424137 48.75411568 65.67424137 47.5 62.3125 C44.17786799 58.94115122 40.2207834 58.4696661 35.75 57.625 C21.83519431 54.64551311 8.86203847 48.84122878 0.765625 36.71484375 C-2.7466823 30.76900925 -4.63932352 25.15339408 -5.5 18.3125 C-9.2280222 18.3125 -10.23975461 19.68564595 -12.9375 22.06640625 Z M-60.625 29.75 C-64.34807791 31.77341191 -67.29429449 31.95608428 -71.5 32.3125 C-68.57672276 43.28338754 -64.50322173 54.96793605 -55.125 62.125 C-51.93045565 63.57015102 -49.96937367 63.82921523 -46.5 63.3125 C-43.44376723 61.22139337 -42.63536986 60.01943151 -41.9375 56.375 C-42.68930775 52.28182449 -44.49976235 51.18229254 -47.5 48.3125 C-51.97374243 42.06044496 -54.69322433 35.7614874 -56.5 28.3125 C-58.65149669 28.12573021 -58.65149669 28.12573021 -60.625 29.75 Z M-114.5 70.3125 C-117.63295861 75.01193791 -118.32968893 79.73029467 -117.5 85.3125 C-114.84295596 88.74286283 -111.3110051 90.35115036 -107.5 92.3125 C-106.18896284 93.056911 -104.88050517 93.80587737 -103.57421875 94.55859375 C-81.28963817 107.15670626 -55.24975876 113.21547386 -29.80078125 107.99609375 C-26.51430322 107.01963593 -24.58523094 106.06798374 -22.5 103.3125 C-21.75 99.8125 -21.75 99.8125 -22.5 96.3125 C-24.07328531 93.96287437 -24.07328531 93.96287437 -26.5 92.3125 C-29.40740234 92.04721563 -29.40740234 92.04721563 -32.625 92.5625 C-59.04208336 95.19597872 -83.26329851 90.25651982 -105.5 75.3125 C-106.60421075 74.40234134 -107.69607249 73.47693902 -108.7734375 72.53515625 C-111.30126057 69.99657702 -111.30126057 69.99657702 -114.5 70.3125 Z M104.5 86.3125 C103.67179528 87.4891008 102.86325034 88.67954553 102.0625 89.875 C93.13535642 101.87681298 78.59136665 106.06931232 64.65234375 109.3203125 C61.63119258 110.27120766 60.26967353 110.73671183 58.5 113.3125 C57.83323122 116.76999949 57.83323122 116.76999949 58.5 120.3125 C60.25209236 123.04930006 60.25209236 123.04930006 63.5 124.3125 C75.79728468 125.22679626 92.8456545 118.65560858 102.32421875 110.80078125 C107.36138282 104.42483604 105.67956878 93.97410149 105.5 86.3125 C105.17 86.3125 104.84 86.3125 104.5 86.3125 Z M-119.5 88.3125 C-120.48924471 89.55942223 -121.44131107 90.83595185 -122.375 92.125 C-123.87359037 94.19215104 -125.29760817 96.11304138 -127.1171875 97.90625 C-130.15911755 100.99973818 -130.48783116 104.63104509 -130.5625 108.8125 C-128.16827515 122.90883508 -117.73409599 134.97943028 -106.5625 143.1875 C-100.18536335 147.3504948 -93.0372849 151.77646564 -85.5 153.3125 C-85.108125 152.405 -84.71625 151.4975 -84.3125 150.5625 C-81.83209208 146.11487201 -78.66823667 144.09132445 -74.5 141.3125 C-75.37398437 140.98378906 -75.37398437 140.98378906 -76.265625 140.6484375 C-93.41609655 134.01476454 -106.92073535 125.97474495 -114.75 108.6875 C-117.23472286 102.14439648 -117.79868153 95.23340592 -118.5 88.3125 C-118.83 88.3125 -119.16 88.3125 -119.5 88.3125 Z M-69.5 158.3125 C-71.38959218 162.96017714 -73.25637094 167.60881523 -74.9609375 172.328125 C-75.21536621 173.02679688 -75.46979492 173.72546875 -75.73193359 174.4453125 C-76.23366638 175.82834706 -76.72907306 177.21369748 -77.21728516 178.6015625 C-78.42719062 181.92203525 -79.63539256 184.51459331 -81.625 187.484375 C-87.99409325 197.09109065 -85.6372837 215.89455363 -83.6640625 226.72265625 C-80.38441146 241.35460809 -73.50849394 254.15783907 -63.5 265.3125 C-62.72462891 266.22708984 -62.72462891 266.22708984 -61.93359375 267.16015625 C-52.29360734 277.76655733 -36.46749839 286.41682163 -22.13500977 287.48950195 C-0.27105384 288.03779378 15.65616282 284.01099475 32.5 269.3125 C33.11488281 268.79300781 33.72976563 268.27351563 34.36328125 267.73828125 C47.35489785 255.88156449 56.75340337 235.84033402 57.64794922 218.43359375 C57.74906997 215.12126041 57.79573573 211.81381791 57.8125 208.5 C57.81813965 207.42580811 57.8237793 206.35161621 57.82958984 205.24487305 C57.77521606 199.31951331 57.67680712 193.86493556 55.5 188.3125 C52.86474203 186.2637986 52.86474203 186.2637986 49.625 185.125 C44.89041693 183.19975799 42.25434797 181.68811625 39.5 177.3125 C38.41210035 174.63230449 37.59565065 171.90757707 36.8125 169.125 C35.44605175 164.10948386 35.44605175 164.10948386 33.5 159.3125 C31.97897677 159.45633922 30.45819103 159.60269014 28.9375 159.75 C28.09058594 159.83121094 27.24367188 159.91242188 26.37109375 159.99609375 C24.32269827 160.22183529 22.28021045 160.50413548 20.24438477 160.82397461 C16.68523303 161.28833287 13.30494265 161.44174466 9.71875 161.4453125 C7.83736328 161.44724609 7.83736328 161.44724609 5.91796875 161.44921875 C3.97857422 161.44341797 3.97857422 161.44341797 2 161.4375 C0.70707031 161.44136719 -0.58585937 161.44523438 -1.91796875 161.44921875 C-3.17222656 161.44792969 -4.42648437 161.44664062 -5.71875 161.4453125 C-6.85248047 161.44418457 -7.98621094 161.44305664 -9.15429688 161.44189453 C-12.5 161.3125 -12.5 161.3125 -15.84033203 160.82177734 C-20.19047679 160.21641364 -24.44982663 160.10277681 -28.8359375 160.03125 C-29.71472565 160.01284058 -30.59351379 159.99443115 -31.49893188 159.97546387 C-34.29089117 159.91711416 -37.08290928 159.86415175 -39.875 159.8125 C-43.54959118 159.74426306 -47.22401659 159.67055691 -50.8984375 159.59375 C-51.7268515 159.58017456 -52.5552655 159.56659912 -53.40878296 159.5526123 C-58.82819714 159.43901927 -64.11965251 158.97805444 -69.5 158.3125 Z " fill="#626745" transform="translate(269.5,-0.3125)"/>
<path d="M0 0 C1.70203131 1.45766622 3.34097512 2.98998301 4.9375 4.5625 C9.96151075 9.26998461 14.99562001 12.73036199 20.95703125 16.2109375 C21.96121094 16.80132812 22.96539062 17.39171875 24 18 C25.45660034 18.80739624 25.45660034 18.80739624 26.94262695 19.63110352 C30.76037494 22.58914941 32.07903967 25.34016105 33.9609375 29.69140625 C34.30881821 30.45696335 34.65669891 31.22252045 35.01512146 32.01127625 C36.15133177 34.52138532 37.26302704 37.04157249 38.375 39.5625 C39.16195477 41.31228937 39.95063254 43.06130477 40.7409668 44.80957031 C42.36699185 48.41188491 43.9840363 52.01802735 45.59423828 55.62744141 C47.88657823 60.75858814 50.21502362 65.87254674 52.55859375 70.98046875 C52.92035706 71.7689772 53.28212036 72.55748566 53.65484619 73.36988831 C54.36451055 74.91615843 55.07430578 76.4623685 55.78424072 78.0085144 C57.70469305 82.19487705 59.61761527 86.38468498 61.52581787 90.5766449 C62.85931682 93.50572173 64.20016735 96.43085912 65.55615234 99.34960938 C66.24572021 100.83944336 66.24572021 100.83944336 66.94921875 102.359375 C67.34842529 103.21499023 67.74763184 104.07060547 68.15893555 104.95214844 C69 107 69 107 69 109 C69.66 109 70.32 109 71 109 C71.26683594 108.15171631 71.53367187 107.30343262 71.80859375 106.42944336 C73.04094229 102.8821483 74.49465966 99.54095122 76.0625 96.12890625 C76.51795197 95.13446503 76.51795197 95.13446503 76.98260498 94.11993408 C77.98534996 91.93270646 78.99258187 89.74757868 80 87.5625 C80.70627312 86.02508405 81.41232355 84.48756578 82.11816406 82.94995117 C84.01027534 78.83065735 85.90665912 74.71334345 87.80395508 70.59643555 C89.02082837 67.95478471 90.23622584 65.31245961 91.45117188 62.66992188 C93.48748279 58.24094564 95.52545029 53.81273608 97.56494141 49.38522339 C98.349409 47.68216994 99.13359283 45.97898575 99.91748047 44.27566528 C101.02174573 41.87715458 102.12779837 39.4794763 103.234375 37.08203125 C103.55670105 36.38128479 103.8790271 35.68053833 104.21112061 34.95855713 C105.13131086 32.9678007 106.06436293 30.9835359 107 29 C107.33253281 28.27585403 107.66506561 27.55170807 108.00767517 26.80561829 C108.51374046 25.7370887 108.51374046 25.7370887 109.0300293 24.64697266 C109.32918747 24.00563385 109.62834564 23.36429504 109.93656921 22.70352173 C111.8816423 19.58768729 114.87046152 18.1973876 118.0625 16.5625 C125.48310512 12.45019147 133.77807033 7.7665836 138.61328125 0.61328125 C141.6137346 -1.41484843 142.54438834 -1.042812 146.046875 -0.4453125 C148.03853022 0.00541663 150.02317467 0.48813197 152 1 C152.91458984 1.23364258 153.82917969 1.46728516 154.77148438 1.70800781 C157.61171839 2.47113119 160.4309417 3.28711192 163.25 4.125 C164.28141113 4.42994385 165.31282227 4.7348877 166.37548828 5.04907227 C211.90819479 18.70195909 211.90819479 18.70195909 227 31 C227.74121094 31.56847656 228.48242188 32.13695312 229.24609375 32.72265625 C252.29950211 51.54094973 255.045918 79.60528862 258.3331182 107.23254132 C258.65858696 109.96124163 258.98818941 112.68943649 259.31775981 115.41764396 C260.09599722 121.86034072 260.86769797 128.30379627 261.63500977 134.74780273 C262.42227881 141.35857492 263.21986436 147.9680434 264.02265805 154.57694679 C264.71626302 160.28966299 265.4038004 166.00308716 266.08651668 171.71711487 C266.49230825 175.11312924 266.90017412 178.50885743 267.31375694 181.90393257 C267.77349902 185.69235173 268.22329104 189.48183026 268.6706543 193.27172852 C268.87397621 194.92189217 268.87397621 194.92189217 269.08140564 196.60539246 C269.71711097 202.07906646 270.15808208 207.53678098 270.33308411 213.04551697 C270.36749509 214.09082046 270.40190607 215.13612394 270.43735981 216.21310329 C269.88917535 219.70618483 268.7363024 220.83995447 266 223 C264 223.53125 264 223.53125 262 223.5 C261.01 223.51546875 261.01 223.51546875 260 223.53125 C257.09308676 222.75910117 255.92428095 221.28139112 254 219 C253.22659206 216.42575073 253.22659206 216.42575073 252.84727478 213.53466797 C252.69998869 212.46891541 252.5527026 211.40316284 252.40095329 210.30511475 C252.26863871 209.21442688 252.13632412 208.12373901 252 207 C251.80203418 205.49617767 251.80203418 205.49617767 251.60006905 203.9619751 C251.19246081 200.79206238 250.81486115 197.61968106 250.44360352 194.4453125 C250.23093842 192.65743317 250.23093842 192.65743317 250.01397705 190.83343506 C249.6299054 187.60224416 249.24819329 184.37078372 248.86707044 181.13924408 C248.46434789 177.73326807 248.05718681 174.32782371 247.65013123 170.92236328 C246.26844295 159.35723729 244.89171316 147.79153246 243.52514648 136.22460938 C242.76796893 129.81608383 242.00520668 123.40824776 241.23641914 117.00110435 C240.83137615 113.623311 240.42917112 110.24523547 240.03399849 106.86627197 C239.59168428 103.09486077 239.13977108 99.32470974 238.68579102 95.5546875 C238.55945786 94.45719177 238.43312469 93.35969604 238.30296326 92.22894287 C235.92963574 72.81510506 229.85418739 56.36135831 214.1875 43.75 C205.19332403 37.5478077 195.00077091 33.64896565 184.75 30.0625 C183.55084961 29.63791504 182.35169922 29.21333008 181.11621094 28.77587891 C169.54045287 24.7339618 157.81940604 21.25181327 146 18 C151.38012376 30.0981619 156.89548328 42.12947479 162.5 54.125 C162.81463196 54.7985553 163.12926392 55.4721106 163.45343018 56.16607666 C166.66586835 63.1124132 166.66586835 63.1124132 170 70 C170.34375 71.953125 170.34375 71.953125 170.5 74.25 C170.5721875 74.99765625 170.644375 75.7453125 170.71875 76.515625 C168.53806342 84.05321557 157.75396961 88.34236365 151.5 92 C149.2548096 93.33005632 147.0100268 94.66080089 144.765625 95.9921875 C143.63447266 96.66088867 142.50332031 97.32958984 141.33789062 98.01855469 C136.28618051 101.01736096 131.26585633 104.06670839 126.25 107.125 C125.30729248 107.69911621 124.36458496 108.27323242 123.39331055 108.86474609 C117.89440001 112.21874527 112.41082035 115.59653457 106.93920898 118.99487305 C104.35034897 120.60151105 101.75747915 122.20151176 99.1640625 123.80078125 C95.59944988 126.00029537 92.05766304 128.23250042 88.5234375 130.48046875 C86.7451495 131.59171866 84.96651568 132.70241541 83.1875 133.8125 C82.38159424 134.33473145 81.57568848 134.85696289 80.74536133 135.39501953 C76.70765388 137.8880381 73.08940692 139.9540633 68.16040039 139.58081055 C63.17072811 138.23936741 58.94027581 135.25203552 54.625 132.5 C52.95682008 131.46734651 51.28863397 130.43470287 49.62010193 129.40261841 C47.88708004 128.32645916 46.15945071 127.24210621 44.43310547 126.15527344 C40.10266666 123.43104875 35.74040139 120.75916201 31.37939453 118.08422852 C28.15441357 116.10469109 24.93448654 114.11711169 21.71484375 112.12890625 C15.1891242 108.1069164 8.63388495 104.13470597 2.07507324 100.16699219 C-21.08674379 86.1499953 -21.08674379 86.1499953 -27 82 C-27.60714844 81.59523438 -28.21429688 81.19046875 -28.83984375 80.7734375 C-30.78906603 77.79381825 -30.34986614 74.42171436 -30 71 C-29.11496328 68.39251199 -28.22005028 66.12148167 -27.03515625 63.66796875 C-26.7261438 62.99727356 -26.41713135 62.32657837 -26.09875488 61.63555908 C-25.10098218 59.47920117 -24.08224375 57.33354219 -23.0625 55.1875 C-22.37296958 53.70836807 -21.68474174 52.22862823 -20.99780273 50.74829102 C-19.31960395 47.14119487 -17.6244175 43.54245053 -15.92138672 39.94702148 C-14.6076487 37.17090576 -13.30424797 34.38995921 -12 31.609375 C-10.01864497 27.3971441 -8.01807643 23.19475507 -6 19 C-14.69490953 20.19850004 -22.82883712 22.70563453 -31.10498047 25.52099609 C-33.22981336 26.24313939 -35.35856996 26.95254726 -37.48828125 27.66015625 C-60.47659545 35.3565329 -80.73368814 43.30165767 -92.16162109 66.15084839 C-95.55035366 73.6251303 -96.77543736 81.13938988 -97.7265625 89.2421875 C-97.87550461 90.44756165 -98.02444672 91.65293579 -98.17790222 92.89483643 C-98.50003745 95.5141294 -98.81871418 98.13356814 -99.13150024 100.75396729 C-99.6304995 104.93343302 -100.14423871 109.11101754 -100.65893555 113.28857422 C-102.4263045 127.67847512 -104.13178815 142.07546824 -105.80871582 156.47616577 C-106.51070046 162.50425278 -107.21899199 168.53159611 -107.92798233 174.55886269 C-108.51708045 179.57581876 -109.09480047 184.59392759 -109.66416836 189.61315918 C-110.02281348 192.75533762 -110.39069589 195.89638708 -110.76088905 199.03722382 C-110.93116809 200.49916509 -111.09750092 201.96157226 -111.25957298 203.42444611 C-111.4826823 205.43405233 -111.72110397 207.44194071 -111.96020508 209.44970703 C-112.08929764 210.5757132 -112.2183902 211.70171936 -112.35139465 212.86184692 C-113.10889531 216.52686918 -114.28589656 220.28589656 -117 223 C-119.1796875 223.23828125 -119.1796875 223.23828125 -121.875 223.3125 C-123.20144531 223.36857422 -123.20144531 223.36857422 -124.5546875 223.42578125 C-127 223 -127 223 -128.7578125 221.23046875 C-131.01431744 217.17869415 -131.07974624 214.11629173 -130.53974915 209.54621887 C-130.41227798 208.43779129 -130.28480682 207.32936371 -130.1534729 206.18734741 C-130.00654999 204.97543732 -129.85962708 203.76352722 -129.70825195 202.51489258 C-129.55876602 201.23463699 -129.40928009 199.95438141 -129.25526428 198.6353302 C-128.84452497 195.12129611 -128.42448393 191.60843234 -128.00225472 188.09576249 C-127.64928427 185.15240009 -127.3007801 182.20851581 -126.95224255 179.26462573 C-126.12788682 172.3026481 -125.29593835 165.34160638 -124.45922852 158.38110352 C-123.60094196 151.24005476 -122.75496266 144.09762695 -121.91529113 136.95436746 C-121.19116832 130.79780104 -120.45934379 124.64218228 -119.7215516 118.48723906 C-119.28231852 114.82244678 -118.84578159 111.15739019 -118.41662025 107.49140358 C-115.01779046 78.51516031 -111.28630038 52.0496462 -88.375 31.6875 C-73.00539875 19.59883015 -18.33760631 -8.48682606 0 0 Z " fill="#626745" transform="translate(186,289)"/>
<path d="M0 0 C2.55679922 0.66322987 3.73630056 1.72909648 5.640625 3.5390625 C8.14991587 5.91807416 8.92799069 6.50569932 12.453125 7.2890625 C16.11946295 6.53050982 17.46084964 5.70163834 20.390625 3.5390625 C24.533841 0.58464702 27.51460142 -0.35401789 32.59765625 -0.0703125 C36.33116317 0.8468955 38.93086312 2.9228938 41.98828125 5.1796875 C44.1884101 6.79128494 44.1884101 6.79128494 47.703125 7.2890625 C51.78888547 6.38111573 53.29332571 4.70079741 56.25 1.890625 C58.38153561 0.31474611 59.63618684 0.02118776 62.265625 -0.0859375 C66.078125 0.5390625 66.078125 0.5390625 68.578125 2.0390625 C70.26319783 4.84751722 70.83021381 7.09528312 70.65234375 10.3828125 C69.16737986 15.95900342 64.29817265 20.10549115 59.515625 23.0390625 C53.1320189 25.82102314 44.91209357 25.88011682 38.38671875 23.59765625 C36.90170962 22.87650968 35.42542203 22.13696428 33.9609375 21.375 C31.01400602 20.06661134 29.08378926 20.55895459 26.078125 21.5390625 C25.088125 22.0546875 24.098125 22.5703125 23.078125 23.1015625 C16.92640617 25.86915093 9.0732038 25.55703931 2.640625 23.91796875 C-2.66751614 21.58528954 -6.95274143 17.49060851 -9.921875 12.5390625 C-10.76058192 9.38963243 -10.53296629 7.8722877 -9.921875 4.5390625 C-7.49387517 0.49239611 -4.66713526 -0.19014255 0 0 Z " fill="#636746" transform="translate(225.921875,231.4609375)"/>
<path d="M0 0 C2.59666633 2.08465188 3.85747922 3.28578266 4.51757812 6.59375 C4.52208984 7.5528125 4.52660156 8.511875 4.53125 9.5 C4.53640625 10.551875 4.5415625 11.60375 4.546875 12.6875 C4.53140625 13.780625 4.5159375 14.87375 4.5 16 C4.51546875 17.093125 4.5309375 18.18625 4.546875 19.3125 C4.54171875 20.364375 4.5365625 21.41625 4.53125 22.5 C4.52673828 23.4590625 4.52222656 24.418125 4.51757812 25.40625 C3.857725 28.71298564 2.58886445 29.90908706 0 32 C-2.74217301 32.72838971 -5.22828846 32.56913995 -8 32 C-11.24767469 29.66833612 -12.3151436 27.8467168 -13 24 C-13.14594876 21.38134239 -13.23065443 18.8064062 -13.25 16.1875 C-13.270625 15.50107422 -13.29125 14.81464844 -13.3125 14.10742188 C-13.35095049 9.02715108 -12.37774505 5.50732739 -10 1 C-6.87057535 -0.56471233 -3.38917777 -0.69701958 0 0 Z " fill="#636847" transform="translate(356,480)"/>
<path d="M0 0 C2.96991701 0.60983922 4.20486489 1.94625545 5.90234375 4.390625 C7.24887821 8.21333693 7.1227518 12.19711518 7.15234375 16.203125 C7.17296875 16.88955078 7.19359375 17.57597656 7.21484375 18.28320312 C7.25329424 23.36347392 6.2800888 26.88329761 3.90234375 31.390625 C0.7729191 32.95533733 -2.70847848 33.08764458 -6.09765625 32.390625 C-8.69432258 30.30597312 -9.95513547 29.10484234 -10.61523438 25.796875 C-10.61974609 24.8378125 -10.62425781 23.87875 -10.62890625 22.890625 C-10.6340625 21.83875 -10.63921875 20.786875 -10.64453125 19.703125 C-10.6290625 18.61 -10.61359375 17.516875 -10.59765625 16.390625 C-10.613125 15.2975 -10.62859375 14.204375 -10.64453125 13.078125 C-10.63679687 11.5003125 -10.63679687 11.5003125 -10.62890625 9.890625 C-10.62439453 8.9315625 -10.61988281 7.9725 -10.61523438 6.984375 C-9.42547569 1.02211262 -5.43113529 -0.28318769 0 0 Z " fill="#636848" transform="translate(162.09765625,479.609375)"/>
<path d="M0 0 C0.7115625 -0.01546875 1.423125 -0.0309375 2.15625 -0.046875 C5.60314984 -0.02115187 7.64752229 0.24568064 10.46875 2.28125 C12.08267327 4.61979188 12.54379543 5.69709278 12.5 8.5 C12.5103125 9.16 12.520625 9.82 12.53125 10.5 C11.72167176 13.54782397 10.55457707 14.65682414 8 16.5 C5.16934716 16.90100915 2.81653341 17.06122899 0 17 C-0.7115625 17.01546875 -1.423125 17.0309375 -2.15625 17.046875 C-5.60314984 17.02115187 -7.64752229 16.75431936 -10.46875 14.71875 C-12.08267327 12.38020812 -12.54379543 11.30290722 -12.5 8.5 C-12.51546875 7.51 -12.51546875 7.51 -12.53125 6.5 C-10.82633794 0.08150756 -5.75061521 -0.12501337 0 0 Z " fill="#636845" transform="translate(292,191.5)"/>
<path d="M0 0 C0.7115625 -0.01546875 1.423125 -0.0309375 2.15625 -0.046875 C5.60314984 -0.02115187 7.64752229 0.24568064 10.46875 2.28125 C12.08267327 4.61979188 12.54379543 5.69709278 12.5 8.5 C12.5103125 9.16 12.520625 9.82 12.53125 10.5 C11.72167176 13.54782397 10.55457707 14.65682414 8 16.5 C5.16934716 16.90100915 2.81653341 17.06122899 0 17 C-0.7115625 17.01546875 -1.423125 17.0309375 -2.15625 17.046875 C-5.60314984 17.02115187 -7.64752229 16.75431936 -10.46875 14.71875 C-12.08267327 12.38020812 -12.54379543 11.30290722 -12.5 8.5 C-12.51546875 7.51 -12.51546875 7.51 -12.53125 6.5 C-10.82633794 0.08150756 -5.75061521 -0.12501337 0 0 Z " fill="#636845" transform="translate(220,191.5)"/>
<path d="M0 0 C2.5 1.5 2.5 1.5 4 4 C4.791013 8.02098277 4.62153384 10.96411027 2.5 14.5 C-1.03588973 16.62153384 -3.97901723 16.791013 -8 16 C-10.5 14.5 -10.5 14.5 -12 12 C-12.791013 7.97901723 -12.62153384 5.03588973 -10.5 1.5 C-6.96411027 -0.62153384 -4.02098277 -0.791013 0 0 Z " fill="#626746" transform="translate(260,480)"/>
<path d="M0 0 C2.5 1.5 2.5 1.5 4 4 C4.791013 8.02098277 4.62153384 10.96411027 2.5 14.5 C-1.03588973 16.62153384 -3.97901723 16.791013 -8 16 C-10.5 14.5 -10.5 14.5 -12 12 C-12.791013 7.97901723 -12.62153384 5.03588973 -10.5 1.5 C-6.96411027 -0.62153384 -4.02098277 -0.791013 0 0 Z " fill="#626746" transform="translate(260,448)"/>
</svg>
