<svg xmlns="http://www.w3.org/2000/svg" version="1.1" viewBox="-5.0 -10.0 110.0 135.0">
 <path d="m96.512 24.262-4.5781-1.4805 1.9219-0.46875c0.71875-0.32812 0.67188-0.69922 0.80078-1.4102l-0.058594-0.10938c-0.51172 0.089843-1.0391 0.17188-1.5586 0.21094-1.9102 0.14844-4.4609 0.19922-6.3594 0-0.62891-0.070312-1.7383-0.51172-2.4492-0.67188-4.9297-1.1289-10.031-1.2812-15.059-1.0508-2.75 0.12891-5.5508 0.51172-8.2891 0.21094-0.71094-0.078126-1.4102-0.26172-2.1016-0.42188l-2.5117 3.0117c0.39062-0.83984 0.85938-1.6484 1.25-2.5 0.60938-1.3203 1.2109-2.8711 1.5312-4.2891 0.14844-0.66016 0.21875-1.3203 0.30078-1.9883 2.8984-0.30859 5.9219-0.44141 8.7812-1.0508 0.44141-0.089844 2.25-0.46094 2.25-1.0312-0.19922-0.53125-0.92187-0.76172-1.4219-0.94141-2.6914-1-5.8516-1.3086-8.6484-1.9609-1.7305-0.39844-1.8203-1.7617-2.5391-3.1211-0.76172-1.4297-1.6211-2.1602-3.1992-2.5586-2.0898-0.53125-4.3008-0.35938-6.0508 0.94141-2.1406 1.5898-4.1211 3.3789-6.5195 4.6289-2.5703 0.51953-5.1797 0.87891-7.7188 1.5508-0.73047 0.19141-4.75 1.1406-2.4492 2.1016 1.1094 0.46094 2.5 0.55078 3.6797 0.78906l7.3984 0.76172c-0.48828 2.5 0.73828 4.8906 2.0195 6.9414 0.76953 1.2305 1.6484 2.3906 2.5 3.5586l-0.71875-0.48828c-1.8398-1.4297-3.5391-3.0391-4.8984-4.9414-3.4219 1.7695-7.2188 1.9219-10.98 1.3789-5.4688-0.78906-10.762-2.7383-16.309-2.9805-1.4883-0.66016-3.0195-1.2188-4.4883-1.9219-1.9688-0.94922-3.8203-2.3711-6.0703-2.5781 0.19141 1.1797 1.1484 2.0117 1.9688 2.8008l2.1797 1.5586c-1.0898-0.26953-2.1914-0.55859-3.3086-0.64844-0.17969 0.12891-1.3398 1.0898-1.3203 1.1992 0.62109 0.78906 1.5898 1.3398 2.4883 1.7695 2.4492 1.1602 5.1406 1.5898 7.7695 2.1406l-0.89844 6.8203c2.6289 0.39844 5.2695 0.78906 7.8984 1.1484 3.9883 0.55078 8.6992 0.80859 12.5 1.9883 3.5781 1.1094 4.3008 2.7617 4.75 6.3516 0.51172 4.1484 0.39844 8.9688-0.050782 13.141-0.44141 4.0703-1.3984 8.0781-2.75 11.93l6.3008-7.7617 0.10938 0.03125-0.37891 6.6016c0-0.058594 0.039063-0.12109 0.078126-0.16016 0.67187-0.75 1.2812-1.5586 1.9414-2.3086 1.7383-2 3.5586-3.9609 5.6094-5.6484 3.8281 1.4805 6.3086 4.9883 8.8008 8.0703-0.12891-2.3789-0.37891-4.7617-0.37891-7.1406l0.050781-0.19141c0.78906 1.6992 1.8281 3.2695 2.8281 4.8398 1.0898 1.6992 2.2188 3.3789 3.3516 5.0508 0.69922 1.0391 1.4102 2.1016 2.1719 3.0898l-0.42969-7.0312c-0.19141-7.9883-0.57812-15.98-0.64062-23.98 0-1.0586-0.10156-1.6016 0.62109-2.5 1.6289-2.0391 6.3398-2.6719 8.8398-3.0117 3.6484-0.51172 7.3516-0.71875 11.031-0.98047 0.78906-1.3516 1.1211-2.8984 1.4414-4.4219 1.1484 0.35938 2.3281 0.71875 3.3594 1.3594 0.14844 0.10156 0.85156 0.64062 0.92188 0.62891l1.0586-0.92969-0.69922-0.78125 4.4492 0.51953 0.89063-1.6797z"/>
 <path d="m53.039 58.891c-0.058593-0.60938-0.55078-1.0898-1.1602-1.1602-0.60938-0.070313-1.6094-0.039063-2.25-0.03125-0.94922 0.011719-2.1094-0.070313-2.3008 1.1406v37.98c0 0.23047 0.30859 0.78906 0.51172 0.82813h4.6914c0.19922-0.039063 0.53906-0.71094 0.51172-0.94141v-37.82z"/>
<text x="0.0" y="117.5" font-size="5.0" font-weight="bold" font-family="Arbeit Regular, Helvetica, Arial-Unicode, Arial, Sans-serif" fill="#000000">Created by Danil Polshin</text><text x="0.0" y="122.5" font-size="5.0" font-weight="bold" font-family="Arbeit Regular, Helvetica, Arial-Unicode, Arial, Sans-serif" fill="#000000">from Noun Project</text></svg>