<svg xmlns="http://www.w3.org/2000/svg" version="1.1" viewBox="-5.0 -10.0 110.0 135.0">
 <path d="m30.637 59.68c-4.668 0-8.3125 3.7578-8.3125 8.3125 0 4.5547 3.7578 8.3125 8.3125 8.3125 4.5547 0 8.3125-3.7578 8.3125-8.3125 0.11719-4.5508-3.6406-8.3125-8.3125-8.3125z"/>
 <path d="m52.164 65.148c-0.22656-1.8242-0.68359-3.5312-1.3672-5.125l0.33984-0.45703c0.45703-0.57031 0.45703-1.3672-0.11328-1.9375l-3.1875-2.8438c-1.1406-1.3672-2.3906-2.7344-3.7578-3.7578l0.11328-0.57031c0.11328-0.68359-0.33984-1.4805-1.0234-1.5938l-4.2148-0.91016c-1.5938-0.68359-3.418-1.1406-5.2383-1.3672l-0.23047-0.57422c-0.22656-0.68359-1.0234-1.1406-1.707-0.79688l-4.1016 1.3672c-1.8242 0.22656-3.5312 0.68359-5.125 1.3672l-0.45703-0.33984c-0.57031-0.45703-1.3672-0.45703-1.9375 0.11328l-2.8477 3.1875c-1.3672 1.1406-2.7344 2.3906-3.7578 3.7578l-0.57031-0.11328c-0.68359-0.11328-1.4805 0.33984-1.5938 1.0234l-0.91016 4.2148c-0.68359 1.5938-1.1406 3.418-1.3672 5.2383l-0.57031 0.22656c-0.68359 0.22656-1.1406 1.0234-0.79687 1.707l1.3711 4.1055c0.22656 1.8242 0.68359 3.5312 1.3672 5.125l-0.33984 0.45703c-0.45703 0.57031-0.45703 1.3672 0.11328 1.9375l3.1875 2.8477c1.1406 1.3672 2.3906 2.7344 3.7578 3.7578l-0.11328 0.57031c-0.11328 0.68359 0.33984 1.4805 1.0234 1.5938l4.2148 0.91016c1.5938 0.68359 3.418 1.1406 5.2383 1.3672l0.22656 0.57031c0.22656 0.68359 1.0234 1.1406 1.707 0.79688l4.1016-1.3672c1.8242-0.22656 3.5312-0.68359 5.125-1.3672l0.45703 0.33984c0.57031 0.45703 1.3672 0.45703 1.9375-0.11328l2.8477-3.1875c1.3672-1.1406 2.7344-2.3906 3.7578-3.7578l0.57031 0.11328c0.68359 0.11328 1.4805-0.33984 1.5938-1.0234l0.91016-4.2148c0.68359-1.5938 1.1406-3.418 1.3672-5.2383l0.57031-0.22656c0.68359-0.22656 1.1406-1.0234 0.79688-1.707zm-21.527 16.969c-7.7461 0-14.008-6.2656-14.008-14.008 0-7.7461 6.2656-14.008 14.008-14.008 7.7461 0 14.008 6.2656 14.008 14.008 0.003907 7.7461-6.2617 14.008-14.008 14.008z"/>
 <path d="m83.598 67.426c-6.1484 0-11.16 5.0117-11.16 11.16 0 6.1484 5.0117 11.16 11.16 11.16 6.1484 0 11.16-5.0117 11.16-11.16 0.003907-6.1484-5.0078-11.16-11.16-11.16zm0 15.488c-2.3906 0-4.3281-1.9375-4.3281-4.3281 0-2.3906 1.9375-4.3281 4.3281-4.3281s4.3281 1.9375 4.3281 4.3281c0 2.3945-1.9336 4.3281-4.3281 4.3281z"/>
 <path d="m96.812 55.922c1.0234-7.4023 2.0508-14.922 3.0742-22.324 0.11328-0.79688-1.707-1.3672-1.707-1.3672l-16.176-0.91016v-2.7344c0.33984-0.22656 0.68359-0.68359 0.68359-1.1406v-4.7852c0-0.45703-0.22656-0.91016-0.68359-1.1406v-2.1641c0-0.79688-0.57031-1.3672-1.3672-1.3672h-0.68359c-0.79688 0-1.3672 0.57031-1.3672 1.3672v2.1641c-0.33984 0.22656-0.68359 0.68359-0.68359 1.1406v4.7852c0 0.45703 0.22656 0.91016 0.68359 1.1406v2.5039l-13.895-0.91016c-0.91016-7.2852-2.0508-14.574-3.0742-21.867-0.22656-1.4805-1.3672-2.7344-2.5039-2.7344h-39.293c-1.1406 0-2.2773 1.2539-2.5039 2.7344-1.5938 10.934-6.4922 30.523-8.4297 38.156-5.1289 5.2383-8.4297 12.188-8.8867 20.047h3.6445c0.79688-14.238 12.641-25.512 27.105-25.512 13.211 0 24.258 9.5664 26.652 22.094l0.22656 3.418h15.145c2.8477-2.6211 6.7188-4.2148 10.934-4.2148 4.2148 0 7.9727 1.5938 10.934 4.2148h2.1641c0.79687 0 1.3672-0.57031 1.3672-1.3672v-7.8594c-0.22266-0.68359-0.67578-1.2539-1.3594-1.3672zm-62.531-21.07h-16.285l4.668-23.805h14.465l1.0234 24.145c-1.25-0.22656-2.5039-0.33984-3.8711-0.33984zm23.465-5.125-3.6445-2.3906 2.6211-3.8711c0.22656-0.33984-0.11328-1.0234-0.68359-1.3672l-0.23047-0.23047c-0.57031-0.45703-1.3672-0.45703-1.5938-0.11328l-6.832 10.477c-0.22656 0.33984 0.11328 1.0234 0.68359 1.3672l0.33984 0.22656c0.57031 0.45703 1.3672 0.45703 1.5938 0.11328l2.6211-3.8711 3.8711 2.5039c-0.22656 0.45703-0.33984 0.91016-0.33984 1.1406 0.45703 3.0742 0.91016 6.2656 1.2539 9.3398-1.9375 1.1406-8.9961-4.7852-17.086-7.1758l-1.1406-24.715h19.477l2.8477 18.793zm33.711 18.223h-20.727c-0.45703 0-0.79688-0.33984-0.79688-0.79688 0-0.45703 0.33984-0.79688 0.79688-0.79688h20.844c0.45703 0 0.79688 0.33984 0.79688 0.79688-0.11719 0.45703-0.45703 0.79688-0.91406 0.79688zm0-4.5547h-20.727c-0.45703 0-0.79688-0.33984-0.79688-0.79688 0-0.45703 0.33984-0.79688 0.79688-0.79688h20.844c0.45703 0 0.79688 0.33984 0.79688 0.79688-0.11719 0.45312-0.45703 0.79688-0.91406 0.79688zm0-4.6719h-20.727c-0.45703 0-0.79688-0.33984-0.79688-0.79688s0.33984-0.79688 0.79688-0.79688h20.844c0.45703 0 0.79688 0.33984 0.79688 0.79688-0.11719 0.45703-0.45703 0.79688-0.91406 0.79688z"/>
<text x="0.0" y="117.5" font-size="5.0" font-weight="bold" font-family="Arbeit Regular, Helvetica, Arial-Unicode, Arial, Sans-serif" fill="#000000">Created by PureSolution</text><text x="0.0" y="122.5" font-size="5.0" font-weight="bold" font-family="Arbeit Regular, Helvetica, Arial-Unicode, Arial, Sans-serif" fill="#000000">from Noun Project</text></svg>