<svg xmlns="http://www.w3.org/2000/svg" version="1.1" viewBox="-5.0 -10.0 110.0 135.0">
 <path d="m52.996 93.152v-11.668c0-0.82031-0.33984-1.5703-0.88281-2.1133l0.003907-0.003906c-1.1758-1.1719-3.0625-1.1719-4.2344 0l0.003907 0.003906c-0.54297 0.54297-0.88281 1.293-0.88281 2.1133v11.664h-3.3594v-11.664c0-1.75 0.71484-3.3398 1.8672-4.4883 0.042969 0 1.6367-1.8672 4.4883-1.8672 2.8555 0 4.4492 1.8672 4.4883 1.8672 1.1523 1.1523 1.8672 2.7422 1.8672 4.4883v11.664zm-49.555 0v3.3594h93.121v-3.3594h-26.156l-7.5547-35.121-11.168-12.594h-3.3672l-11.172 12.594-7.5547 35.121zm54.488-61.953 24.789-21.984-5.7227-5.7227-21.988 24.789c1.1797 0.74219 2.1758 1.7422 2.9219 2.918zm0 10.016 24.789 21.988-5.7227 5.7227-21.988-24.785c1.1797-0.74609 2.1758-1.7461 2.9219-2.9258zm-12.938 2.9258-21.988 24.789-5.7227-5.7227 24.789-21.992c0.74609 1.1797 1.7422 2.1758 2.9219 2.9258zm-2.9219-12.941c0.74609-1.1797 1.7422-2.1758 2.9219-2.9219l-21.988-24.789-5.7227 5.7266zm12.188 0.75391c2.3477 2.3516 2.3516 6.1602 0 8.5117-3.7812 3.7812-10.273 1.0938-10.273-4.2578-0.003906-5.3438 6.4922-8.0352 10.273-4.2539z" fill-rule="evenodd"/>
<text x="0.0" y="117.5" font-size="5.0" font-weight="bold" font-family="Arbeit Regular, Helvetica, Arial-Unicode, Arial, Sans-serif" fill="#000000">Created by Good Women</text><text x="0.0" y="122.5" font-size="5.0" font-weight="bold" font-family="Arbeit Regular, Helvetica, Arial-Unicode, Arial, Sans-serif" fill="#000000">from Noun Project</text></svg>