<?xml version="1.0" encoding="UTF-8"?>
<svg version="1.1" xmlns="http://www.w3.org/2000/svg" width="512" height="512">
<path d="M0 0 C2.17121461 1.72164546 3.73094333 3.45798041 4.97265625 5.94140625 C5.04432975 8.4929828 5.06574067 11.01613596 5.03515625 13.56640625 C5.03064453 14.2728125 5.02613281 14.97921875 5.02148438 15.70703125 C5.009695 17.451859 4.99175949 19.19664325 4.97265625 20.94140625 C5.84470703 21.34359375 5.84470703 21.34359375 6.734375 21.75390625 C16.73258591 27.05836719 24.03582964 37.43888202 27.34765625 48.078125 C28.36981898 54.39636836 27.98718647 60.70056206 27.83251953 67.08227539 C27.74015026 74.39826379 28.55649783 79.31772478 31.671875 85.9609375 C34.69430812 92.88621218 35.49169023 100.70242806 36.609375 108.14453125 C39.06419714 124.10633844 45.34427834 137.11800054 53.21435547 151.11547852 C58.02146586 159.72254301 62.48210177 168.59493055 64.72265625 178.25390625 C64.944375 179.17816406 65.16609375 180.10242188 65.39453125 181.0546875 C66.46224728 186.38605336 66.97040721 191.24725453 66.75317383 196.68481445 C66.58119347 208.34508265 72.19190637 214.77559123 79.1796875 223.57177734 C87.99366018 235.22052718 94.82831939 248.72401954 100.97265625 261.94140625 C101.50375 263.07449219 102.03484375 264.20757812 102.58203125 265.375 C115.09699235 293.27562204 122.68299108 326.43974921 112.87109375 356.29296875 C106.73500118 371.93010788 97.80179828 380.60488335 82.97265625 387.94140625 C82.97265625 389.59140625 82.97265625 391.24140625 82.97265625 392.94140625 C83.96265625 392.71453125 84.95265625 392.48765625 85.97265625 392.25390625 C90.50439855 391.6209301 94.0034253 392.75666148 97.97265625 394.94140625 C103.39999524 399.66083146 105.31024488 403.16500522 105.875 410.16796875 C106.26567146 421.26303814 106.26567146 421.26303814 103.76025391 424.51513672 C101.44156064 426.3651512 99.75831158 426.53837903 96.82421875 426.890625 C95.81875 427.01630859 94.81328125 427.14199219 93.77734375 427.27148438 C92.72804688 427.38943359 91.67875 427.50738281 90.59765625 427.62890625 C89.55609375 427.75845703 88.51453125 427.88800781 87.44140625 428.02148438 C82.92105158 428.56774207 78.53085927 429.01399566 73.97265625 428.94140625 C74.359375 430.11832031 74.74609375 431.29523438 75.14453125 432.5078125 C78.1553418 441.93523152 80.63798918 451.31251596 82.34765625 461.06640625 C82.51491211 462.0004126 82.68216797 462.93441895 82.85449219 463.89672852 C85.47225985 479.69200084 85.47225985 479.69200084 81.97265625 484.94140625 C78.85988941 485.24430917 75.94498999 485.34973932 72.82891846 485.3290863 C71.86928562 485.33447184 70.90965278 485.33985738 69.92094016 485.34540612 C66.6844701 485.359787 63.44840325 485.3525568 60.21191406 485.34545898 C57.89938526 485.35115767 55.58685928 485.35811997 53.27433777 485.36625671 C46.97409011 485.38426966 40.67398113 485.38300315 34.3737154 485.37731433 C29.11348453 485.37423071 23.85328062 485.3803065 18.59305358 485.38635308 C5.46209183 485.40123242 -7.66879195 485.39756295 -20.79975346 485.38548977 C-32.18101753 485.37558336 -43.56211843 485.38844947 -54.94335732 485.41242396 C-66.63913351 485.43687418 -78.33483391 485.4464066 -90.03063512 485.43977123 C-96.59274777 485.4364063 -103.15472602 485.43878463 -109.71681976 485.45602226 C-115.89908046 485.47155046 -122.08103213 485.46747048 -128.26328087 485.44871712 C-130.52465699 485.44504587 -132.78605627 485.44809663 -135.04741096 485.45860291 C-153.2806909 485.53679915 -169.14732534 484.16672488 -183.27734375 471.31640625 C-193.17248826 460.84037269 -195.36192193 448.1773154 -195.22265625 434.34375 C-195.21982635 433.26887833 -195.21699646 432.19400665 -195.21408081 431.08656311 C-195.20296649 427.68389323 -195.17787822 424.28149536 -195.15234375 420.87890625 C-195.14230264 418.55924862 -195.13317878 416.23958682 -195.125 413.91992188 C-195.10305587 408.26032528 -195.0696664 402.60088521 -195.02734375 396.94140625 C-196.42956177 397.42818848 -196.42956177 397.42818848 -197.86010742 397.92480469 C-205.84163876 400.48667137 -215.57981349 399.5049499 -223.15234375 395.94140625 C-229.32572489 392.38703529 -233.99689354 388.14876783 -236.20703125 381.26953125 C-237.10831544 376.82029147 -237.10987317 372.45983483 -237.01171875 367.94140625 C-236.9961795 367.21608704 -236.98064026 366.49076782 -236.96463013 365.74346924 C-236.89089766 362.71213558 -236.80736432 359.68212421 -236.68457031 356.65234375 C-236.14611944 344.86307361 -236.14611944 344.86307361 -241.58935547 334.65429688 C-245.0452732 330.53770624 -245.56533065 324.81246042 -245.3828125 319.59765625 C-241.63627764 291.6015716 -220.99403951 261.66053499 -202.21484375 241.31640625 C-199.48535607 238.35296249 -196.86253483 235.3022303 -194.2421875 232.2421875 C-184.19191531 221.80195765 -171.89277942 212.6007505 -159.46484375 205.19140625 C-158.86349609 204.83071045 -158.26214844 204.47001465 -157.64257812 204.09838867 C-154.41059726 202.20403141 -151.15305667 200.51184117 -147.74609375 198.953125 C-138.60573038 194.66331011 -138.60573038 194.66331011 -133.24755859 186.46850586 C-132.34910041 183.69942707 -131.54139379 180.90776427 -130.73632812 178.11035156 C-125.88622514 163.27277756 -115.52616331 150.82529287 -105.08984375 139.56640625 C-98.61828836 132.51703342 -95.01047601 124.50566481 -94.5 114.87109375 C-94.39461914 113.1540625 -94.39461914 113.1540625 -94.28710938 111.40234375 C-94.15689609 109.03529834 -94.02923926 106.66811073 -93.90429688 104.30078125 C-93.4766661 97.41245857 -92.53527112 91.10204558 -90.62182617 84.46313477 C-89.81666974 81.04775046 -90.1990403 78.32364533 -91.02734375 74.94140625 C-94.03076988 62.44185341 -92.53245961 49.77439101 -86.15234375 38.69140625 C-77.2874046 24.25560371 -63.26625743 15.52752941 -48.02734375 8.94140625 C-47.37507812 8.6592627 -46.7228125 8.37711914 -46.05078125 8.08642578 C-12.03828472 -6.28588662 -12.03828472 -6.28588662 0 0 Z M-24.02734375 13.00390625 C-25.402854 13.33672607 -25.402854 13.33672607 -26.80615234 13.67626953 C-46.44533409 18.67402964 -65.54375739 28.61229952 -77.06640625 45.80078125 C-78.22464588 48.38092481 -78.35177852 50.14199764 -78.02734375 52.94140625 C-77.36734375 53.60140625 -76.70734375 54.26140625 -76.02734375 54.94140625 C-72.2922262 54.94140625 -70.21078986 53.4243511 -67.40234375 51.19140625 C-54.84942131 41.40716577 -38.6327994 38.37085956 -23.02734375 39.94140625 C-11.0361646 41.65893012 -0.09560941 46.22922914 9.97265625 52.94140625 C12.12540573 52.63300026 12.12540573 52.63300026 13.97265625 51.94140625 C14.91785366 49.42842632 15.15922489 48.35669712 14.0390625 45.86328125 C9.25505418 38.95442767 3.76259975 31.60726201 -4.02734375 27.94140625 C-4.68734375 27.94140625 -5.34734375 27.94140625 -6.02734375 27.94140625 C-6.02734375 22.33140625 -6.02734375 16.72140625 -6.02734375 10.94140625 C-12.74258896 10.94140625 -17.67610818 11.46275447 -24.02734375 13.00390625 Z M-30.02734375 99.94140625 C-31.51097614 101.89611327 -31.51097614 101.89611327 -32.96484375 104.31640625 C-34.89322004 107.42350871 -35.92457448 108.8728934 -39.02734375 110.94140625 C-45.79357148 110.94140625 -50.50141904 107.57717563 -56.02734375 103.94140625 C-57.26720535 110.45333162 -57.28596034 116.91383562 -57.32250977 123.51660156 C-57.33400947 124.95940982 -57.35442985 126.4021762 -57.3840332 127.84472656 C-57.59653563 138.23004049 -56.63183266 146.32264413 -50.90234375 155.25390625 C-44.72836897 161.0252305 -36.86360128 164.34958861 -28.375 164.22265625 C-20.97614724 163.33627123 -14.1025076 160.3790818 -9.02734375 154.94140625 C-3.0762638 145.89317025 -2.79565567 138.69801638 -2.71484375 128.00390625 C-2.68583984 126.72837891 -2.65683594 125.45285156 -2.62695312 124.13867188 C-2.61438477 122.29499023 -2.61438477 122.29499023 -2.6015625 120.4140625 C-2.58697998 119.29265869 -2.57239746 118.17125488 -2.55737305 117.01586914 C-3.13365491 113.24593794 -4.36149104 111.62173581 -7.02734375 108.94140625 C-9.99044917 107.66971019 -9.99044917 107.66971019 -13.27734375 106.94140625 C-18.33577963 105.55303915 -22.27220404 103.92792955 -26.5390625 100.89453125 C-28.01349362 99.76163807 -28.01349362 99.76163807 -30.02734375 99.94140625 Z M-16.75 180 C-24.64906151 184.65503959 -32.09602047 184.81951474 -41.02734375 184.94140625 C-41.81935552 187.62880497 -42.61096241 190.31632188 -43.40234375 193.00390625 C-43.6240625 193.75607422 -43.84578125 194.50824219 -44.07421875 195.28320312 C-45.41272665 199.8301932 -46.731589 204.3820449 -48.02734375 208.94140625 C-41.31842468 214.63922936 -34.54378905 220.13344664 -27.4609375 225.36328125 C-24.73119339 227.39340942 -22.04986247 229.48016072 -19.375 231.58203125 C-18.56434082 232.21850586 -17.75368164 232.85498047 -16.91845703 233.51074219 C-15.30351426 234.78148522 -13.69113354 236.05549217 -12.08154297 237.33300781 C-11.34049316 237.9153418 -10.59944336 238.49767578 -9.8359375 239.09765625 C-9.17392334 239.62166016 -8.51190918 240.14566406 -7.82983398 240.68554688 C-5.94226112 242.12691514 -5.94226112 242.12691514 -3.02734375 242.94140625 C-2.97329926 240.19114208 -2.93365069 237.44194422 -2.90234375 234.69140625 C-2.88558594 233.91410156 -2.86882812 233.13679688 -2.8515625 232.3359375 C-2.76766074 226.85833689 -2.76766074 226.85833689 -5.02734375 221.94140625 C-5.87296875 222.60140625 -6.71859375 223.26140625 -7.58984375 223.94140625 C-11.46171322 226.1941303 -13.63013172 226.29318321 -18.02734375 225.94140625 C-18.99625567 221.09684666 -18.99625567 221.09684666 -18.02734375 217.94140625 C-14.68536805 214.48216825 -10.95893644 211.6986271 -7.02734375 208.94140625 C-8.47697924 203.53354619 -9.94973079 198.15070103 -11.65234375 192.81640625 C-13.06868286 188.18920412 -13.63876398 183.75979535 -14.02734375 178.94140625 C-15.22233231 178.85414652 -15.22233231 178.85414652 -16.75 180 Z M-119.83984375 198.06640625 C-120.48931976 198.35208466 -121.13879578 198.63776306 -121.80795288 198.93209839 C-173.35132784 221.63801039 -210.74679796 259.63672553 -231.73046875 312.07421875 C-232.92860687 315.3494226 -233.40590253 318.17504639 -233.33984375 321.69140625 C-233.33597656 322.59375 -233.33210938 323.49609375 -233.328125 324.42578125 C-232.99896508 327.17875516 -232.68207427 328.70944415 -231.02734375 330.94140625 C-221.15307634 335.7814405 -209.72395077 336.73986199 -199.27734375 333.37890625 C-185.26998267 327.51205501 -176.73879281 315.213354 -170.83984375 301.61328125 C-167.94266556 294.46733951 -165.70125475 287.04074991 -163.48632812 279.65991211 C-161.10494841 272.0524201 -157.98543706 266.17401582 -153.02734375 259.94140625 C-152.41052734 259.15266113 -151.79371094 258.36391602 -151.15820312 257.55126953 C-139.58758817 243.13471036 -119.8471812 232.93628165 -102.02734375 228.94140625 C-99.90258979 228.77163172 -97.77759124 228.60488683 -95.65234375 228.44140625 C-92.17654718 227.87727173 -90.54042216 227.47090317 -88.07421875 224.92578125 C-86.10493667 221.70499281 -84.55037442 218.3857159 -83.02734375 214.94140625 C-82.14806561 213.04453656 -81.26636401 211.1487892 -80.3828125 209.25390625 C-77.87711443 203.83991802 -75.43513824 198.39955945 -73.02734375 192.94140625 C-75.87214876 189.9004078 -77.72061444 188.22282723 -81.98046875 187.703125 C-95.26596047 187.2738319 -107.92008319 192.76353354 -119.83984375 198.06640625 Z M21.2265625 191.9765625 C20.15277344 192.62496094 19.07898438 193.27335938 17.97265625 193.94140625 C22.94312644 210.03895177 29.09507161 224.64964748 38.1484375 238.87890625 C43.87013992 248.48450517 47.45940423 258.24352606 46.43701172 269.40307617 C45.31791201 283.63399667 50.79589051 292.13153301 59.46044922 303.0222168 C62.80823601 307.27099819 63.17539676 309.56878275 62.97265625 314.94140625 C62.24820313 315.1940625 61.52375 315.44671875 60.77734375 315.70703125 C55.86893564 317.86727772 52.06788524 321.53407286 47.97265625 324.94140625 C47.32683594 325.43898438 46.68101562 325.9365625 46.015625 326.44921875 C39.33946346 331.72383847 32.73111448 339.72598881 31.671875 348.40625 C31.6399218 355.148375 32.62642737 359.26827776 37.1875 364.46484375 C44.664616 371.11349949 55.98012636 371.57100652 65.5625 371.25390625 C76.28545068 370.27127618 83.81152432 365.00466068 90.66015625 356.81640625 C100.28884551 343.62153578 106.85428852 324.57334317 104.4140625 308.19140625 C96.83600717 270.11730774 74.89269045 234.16102382 49.97265625 204.94140625 C49.21984375 204.04164063 48.46703125 203.141875 47.69140625 202.21484375 C40.63308873 193.9225143 40.63308873 193.9225143 30.94140625 189.5078125 C27.11059867 189.26470356 24.42797532 190.04341646 21.2265625 191.9765625 Z M-62.55297852 197.1550293 C-64.27242759 199.23835581 -65.22903904 201.2322693 -66.3046875 203.7109375 C-66.72991699 204.67153076 -67.15514648 205.63212402 -67.59326172 206.62182617 C-68.27219482 208.17220581 -68.27219482 208.17220581 -68.96484375 209.75390625 C-72.76250481 218.26552823 -76.84240937 226.50057462 -81.40234375 234.62890625 C-89.58681493 249.26961215 -96.40901423 264.12855842 -91.90234375 281.25390625 C-88.44962401 291.2863372 -79.88115321 299.43166151 -71.02734375 304.94140625 C-68.08841668 306.22590235 -65.12707987 307.13021014 -62.02734375 307.94140625 C-61.25261719 308.14636719 -60.47789062 308.35132813 -59.6796875 308.5625 C-57.80078448 309.04299548 -55.91470791 309.49530199 -54.02734375 309.94140625 C-53.15234375 312.44140625 -53.15234375 312.44140625 -53.02734375 315.94140625 C-54.69054729 318.86888996 -56.8899932 321.3490986 -59.02734375 323.94140625 C-60.13544675 325.42320207 -61.21924906 326.92349758 -62.27734375 328.44140625 C-62.99664062 329.446875 -62.99664062 329.446875 -63.73046875 330.47265625 C-66.8025262 336.32066922 -67.32126725 342.44019978 -67.22265625 348.94140625 C-67.21841141 350.0231311 -67.21841141 350.0231311 -67.21408081 351.12670898 C-67.20301071 353.39845372 -67.1779327 355.66978352 -67.15234375 357.94140625 C-67.14229685 359.49478592 -67.13317402 361.04817185 -67.125 362.6015625 C-67.10311486 366.38166687 -67.06867889 370.16146657 -67.02734375 373.94140625 C-64.99213135 374.58597854 -62.95536106 375.22563283 -60.91796875 375.86328125 C-59.21688965 376.39840332 -59.21688965 376.39840332 -57.48144531 376.94433594 C-36.27616014 383.06551099 -5.04161973 383.29557529 14.6796875 372.453125 C18.11477352 370.21671197 21.13820067 367.90790168 23.97265625 364.94140625 C23.8025 364.36777344 23.63234375 363.79414063 23.45703125 363.203125 C21.67508858 356.95684722 20.20204033 350.66647952 18.84765625 344.31640625 C18.67717773 343.52967529 18.50669922 342.74294434 18.33105469 341.93237305 C17.33639093 337.18893432 16.64323952 332.50773571 16.22314453 327.67822266 C16.14581433 325.91492129 16.14581433 325.91492129 14.97265625 324.94140625 C13.39659428 324.59408889 11.81128547 324.28826148 10.22265625 324.00390625 C2.59940096 322.50103592 2.59940096 322.50103592 -0.02734375 320.94140625 C-2.43313766 317.00465259 -1.86398414 314.33073697 -1.02734375 309.94140625 C-0.06054688 309.72226562 0.90625 309.503125 1.90234375 309.27734375 C14.53244073 306.26739016 24.18799729 301.85431153 31.97265625 290.94140625 C37.27165549 281.49536413 38.45685392 271.31174634 35.97265625 260.75390625 C33.12729766 251.34129821 28.19994664 242.35846415 22.97265625 234.06640625 C16.57547294 223.701571 11.93167839 212.07946948 8.76171875 200.34765625 C8.12420543 197.79190791 8.12420543 197.79190791 5.97265625 195.94140625 C3.38911407 195.77453177 3.38911407 195.77453177 0.97265625 195.94140625 C1.47925781 197.84599609 1.47925781 197.84599609 1.99609375 199.7890625 C8.18010151 223.45091963 12.82202438 248.7495989 0.5625 271.3203125 C-4.09302369 278.99563534 -10.2487992 284.66348395 -18.9453125 287.5859375 C-27.65400441 289.07278734 -35.41600301 288.46625842 -43.02734375 283.94140625 C-43.6409375 283.61398437 -44.25453125 283.2865625 -44.88671875 282.94921875 C-53.37513803 277.80358405 -58.25710477 267.15697513 -61.02734375 257.94140625 C-65.92543815 237.62131177 -62.0721225 215.64063445 -56.02734375 195.94140625 C-59.54819557 195.57978837 -59.54819557 195.57978837 -62.55297852 197.1550293 Z M-51.02734375 221.94140625 C-52.13899607 226.37926235 -52.14262138 230.71097011 -52.08984375 235.25390625 C-52.08533203 235.99447266 -52.08082031 236.73503906 -52.07617188 237.49804688 C-52.0644655 239.31253524 -52.04653273 241.12698159 -52.02734375 242.94140625 C-48.44221269 241.31956124 -45.43742052 239.14884386 -42.27734375 236.81640625 C-41.2925 236.09195313 -40.30765625 235.3675 -39.29296875 234.62109375 C-38.5453125 234.06679687 -37.79765625 233.5125 -37.02734375 232.94140625 C-40.79509086 229.05948499 -44.65532164 225.14608744 -49.02734375 221.94140625 C-49.68734375 221.94140625 -50.34734375 221.94140625 -51.02734375 221.94140625 Z M-34.71484375 244.37890625 C-35.70871094 245.20261719 -36.70257813 246.02632812 -37.7265625 246.875 C-38.48582031 247.55691406 -39.24507812 248.23882812 -40.02734375 248.94140625 C-40.02734375 249.27140625 -40.02734375 249.60140625 -40.02734375 249.94140625 C-31.77734375 249.94140625 -23.52734375 249.94140625 -15.02734375 249.94140625 C-23.96711723 239.77148839 -23.96711723 239.77148839 -34.71484375 244.37890625 Z M-142.21484375 263.81640625 C-152.26019902 274.06803165 -155.34983287 285.25491198 -155.27160645 299.21965027 C-155.2418191 301.71049383 -155.1982422 304.20081155 -155.15234375 306.69140625 C-155.11709689 309.20165891 -155.08632218 311.71185656 -155.06100464 314.222229 C-155.0442307 315.77386818 -155.02126299 317.32545744 -154.99099731 318.87689209 C-154.93244205 323.12538204 -155.31797055 326.68516703 -156.02734375 330.94140625 C-131.60734375 330.94140625 -107.18734375 330.94140625 -82.02734375 330.94140625 C-81.03223648 326.96097717 -80.92702261 323.77608965 -80.96484375 319.69140625 C-80.97386719 318.428125 -80.98289062 317.16484375 -80.9921875 315.86328125 C-81.00378906 314.8990625 -81.01539063 313.93484375 -81.02734375 312.94140625 C-82.01992187 312.67328125 -83.0125 312.40515625 -84.03515625 312.12890625 C-101.90494277 307.07133594 -117.81428594 298.05636654 -128.02734375 281.94140625 C-131.7841675 275.16643034 -135.26286219 268.18238332 -138.02734375 260.94140625 C-139.86159537 260.94140625 -140.95354458 262.60800925 -142.21484375 263.81640625 Z M40.97265625 296.94140625 C40.47958984 297.68583984 40.47958984 297.68583984 39.9765625 298.4453125 C36.99230072 302.70738827 34.57837108 305.23955159 30.03515625 307.81640625 C27.56188419 309.36802177 27.56188419 309.36802177 25.97265625 311.94140625 C25.09988157 317.90819107 26.11457864 324.02254972 26.97265625 329.94140625 C29.45418931 327.46868859 31.92612256 324.98930634 34.3671875 322.4765625 C39.27116838 317.46166768 44.18671365 312.91722156 49.97265625 308.94140625 C48.85362079 307.12521769 47.72724341 305.31355099 46.59765625 303.50390625 C45.97117187 302.49457031 45.3446875 301.48523438 44.69921875 300.4453125 C43.21449323 297.86129562 43.21449323 297.86129562 40.97265625 296.94140625 Z M-163.02734375 341.94140625 C-163.02734375 349.20140625 -163.02734375 356.46140625 -163.02734375 363.94140625 C-158.94746094 364.03228516 -158.94746094 364.03228516 -154.78515625 364.125 C-152.15736044 364.18676891 -149.5296086 364.25016508 -146.90185547 364.3137207 C-145.072468 364.3570919 -143.24303948 364.39876536 -141.41357422 364.4387207 C-138.78730889 364.49637043 -136.16125065 364.5600799 -133.53515625 364.625 C-132.71427521 364.64171249 -131.89339417 364.65842499 -131.04763794 364.67564392 C-125.25508716 364.82753454 -125.25508716 364.82753454 -123.02734375 365.94140625 C-122.98492652 368.274354 -122.98641438 370.60843192 -123.02734375 372.94140625 C-124.86478179 374.77884429 -127.49223582 374.3198925 -129.95751953 374.53540039 C-141.98062086 375.60996357 -151.29430924 376.90835524 -159.46875 386.52734375 C-163.64238862 392.99177649 -163.33418539 399.54853343 -163.328125 406.98828125 C-163.33241013 408.15466125 -163.33669525 409.32104126 -163.34111023 410.52276611 C-163.34684395 412.98717603 -163.34736086 415.45160287 -163.34301758 417.91601562 C-163.33986649 421.66436063 -163.36329928 425.41190923 -163.38867188 429.16015625 C-163.39094601 431.56119693 -163.39164784 433.96223971 -163.390625 436.36328125 C-163.39983475 437.47403015 -163.40904449 438.58477905 -163.41853333 439.72918701 C-163.3557744 450.41941081 -161.18968223 460.55143521 -153.546875 468.4765625 C-148.19392518 473.19651568 -143.41950641 474.25143575 -136.453125 474.2421875 C-135.36731392 474.24861519 -135.36731392 474.24861519 -134.25956726 474.25517273 C-132.730754 474.26089847 -131.2019135 474.26142926 -129.6730957 474.25708008 C-127.36425698 474.25393946 -125.05672565 474.27733176 -122.74804688 474.30273438 C-109.50041242 474.36083686 -98.9183459 472.47372648 -89.05078125 463.0546875 C-80.01239213 453.26630438 -77.70392657 442.48305487 -77.76855469 429.42431641 C-77.76505005 428.53195282 -77.76154541 427.63958923 -77.75793457 426.72018433 C-77.74921937 423.80686382 -77.75492691 420.89379118 -77.76171875 417.98046875 C-77.76036988 415.94168044 -77.7584275 413.90289244 -77.75592041 411.86410522 C-77.75298362 407.60940461 -77.75722281 403.35478841 -77.76660156 399.10009766 C-77.77803891 393.64591127 -77.77140047 388.19192081 -77.75945663 382.73774147 C-77.7522361 378.53590411 -77.75452611 374.33411338 -77.75971222 370.13227463 C-77.76104592 368.12041577 -77.75941078 366.10855267 -77.75475311 364.09669876 C-77.74967998 361.29172744 -77.75740729 358.48707634 -77.76855469 355.68212891 C-77.76450623 354.85195251 -77.76045776 354.02177612 -77.75628662 353.16644287 C-77.74439752 347.72602548 -77.74439752 347.72602548 -80.02734375 342.94140625 C-83.10004077 341.40505774 -86.31935493 341.811728 -89.68994141 341.82788086 C-90.48027267 341.82773483 -91.27060394 341.82758881 -92.08488464 341.82743835 C-94.70375286 341.82813642 -97.32255042 341.83592386 -99.94140625 341.84375 C-101.75458741 341.84561456 -103.56776908 341.84703828 -105.38095093 341.84803772 C-110.15837998 341.85185993 -114.93577874 341.8616877 -119.7131958 341.8727417 C-124.58613678 341.88296218 -129.45908265 341.88753671 -134.33203125 341.89257812 C-143.89715088 341.90331022 -153.46224006 341.92090464 -163.02734375 341.94140625 Z M-225.02734375 348.94140625 C-227.52613536 357.88221971 -227.58308649 372.25366368 -224.02734375 380.94140625 C-219.4915387 385.84497928 -213.85394962 387.35245451 -207.37890625 387.98046875 C-202.65867743 387.90205963 -198.39247492 386.30653742 -195.02734375 382.94140625 C-194.7481708 379.73326999 -194.7481708 379.73326999 -194.83203125 375.96484375 C-194.83627609 374.9369725 -194.83627609 374.9369725 -194.84060669 373.88833618 C-194.85181094 371.69751598 -194.87691516 369.50710309 -194.90234375 367.31640625 C-194.91237327 365.83203715 -194.92149917 364.34766165 -194.9296875 362.86328125 C-194.95175081 359.22252364 -194.98628199 355.58200469 -195.02734375 351.94140625 C-195.68742432 351.88605713 -196.34750488 351.83070801 -197.02758789 351.77368164 C-200.04851998 351.51917864 -203.06917944 351.26156727 -206.08984375 351.00390625 C-207.64735352 350.87338867 -207.64735352 350.87338867 -209.23632812 350.74023438 C-214.53061982 350.28643794 -219.77778426 349.76793264 -225.02734375 348.94140625 Z M53.97265625 386.94140625 C56.32070548 392.81152933 59.01668184 398.44801016 61.78515625 404.12890625 C62.30658203 405.23427734 62.82800781 406.33964844 63.36523438 407.47851562 C63.88150391 408.53232422 64.39777344 409.58613281 64.9296875 410.671875 C65.3935083 411.63504639 65.8573291 412.59821777 66.33520508 413.59057617 C68.3308955 416.45571753 69.60563505 417.11889197 72.97265625 417.94140625 C75.49371867 417.95013395 75.49371867 417.95013395 78.0546875 417.48046875 C78.98603516 417.33867187 79.91738281 417.196875 80.87695312 417.05078125 C81.83666016 416.8909375 82.79636719 416.73109375 83.78515625 416.56640625 C84.76419922 416.41429687 85.74324219 416.2621875 86.75195312 416.10546875 C89.16101734 415.7294197 91.56741521 415.34106194 93.97265625 414.94140625 C94.38949561 409.76539661 94.38949561 409.76539661 92.953125 404.953125 C89.83512227 403.36029915 86.69500078 403.62973824 83.28515625 403.75390625 C82.58326172 403.76744141 81.88136719 403.78097656 81.15820312 403.79492188 C79.42935796 403.83020443 77.7009086 403.88401042 75.97265625 403.94140625 C73.84646923 399.20580789 72.42995995 395.04196918 70.97265625 389.94140625 C65.36265625 388.95140625 59.75265625 387.96140625 53.97265625 386.94140625 Z " fill="#626745" transform="translate(320.02734375,14.05859375)"/>
<path d="M0 0 C2 2 2 2 2.3125 4.9375 C2 8 2 8 0.9375 9.9375 C-2.15212727 11.63181173 -4.67217418 10.73951685 -8 10 C-9 9 -9 9 -9.25 5.625 C-9 2 -9 2 -7.875 0 C-5.01126853 -1.52732345 -3.04699809 -0.84278671 0 0 Z " fill="#616545" transform="translate(284,138)"/>
<path d="M0 0 C1.52150158 3.04300316 1.23899393 5.654085 1 9 C-2.23253796 11.15502531 -3.25150923 11.46856135 -7 11 C-8.8125 9.875 -8.8125 9.875 -10 8 C-10.4375 5 -10.4375 5 -10 2 C-6.95805567 -1.62693363 -4.34226025 -1.25443074 0 0 Z " fill="#616544" transform="translate(305,138)"/>
<path d="M0 0 C3.0625 0.3125 3.0625 0.3125 5 1.375 C6.71037795 4.49392449 5.86763863 6.96807801 5.0625 10.3125 C2.29999964 11.69375018 0.11518901 11.50329306 -2.9375 11.3125 C-4.9375 9.3125 -4.9375 9.3125 -5.1875 5.8125 C-4.87458101 1.43163414 -4.40975115 0.46912246 0 0 Z " fill="#636846" transform="translate(215.9375,377.6875)"/>
</svg>
