<svg width="36" height="51" viewBox="0 0 36 51" fill="none" xmlns="http://www.w3.org/2000/svg">
<path opacity="0.25" d="M34.5444 35.3785C33.7435 33.4839 33.678 31.52 34.2682 29.559C34.5087 28.7136 34.8542 27.8583 35.0513 26.9954C35.4455 25.2695 35.1547 23.7381 34.0305 22.3937C32.7002 20.8089 31.2901 19.2966 29.9164 17.6943C29.779 17.5341 29.7214 17.3013 29.6639 17.0686C29.5135 16.0653 29.4247 15.0345 29.151 14.086C28.0058 10.1672 24.3178 8.41533 20.5698 9.93824C19.4171 10.4151 18.3654 11.1422 17.3642 11.9945C17.2046 12.1395 17.0631 12.2394 16.7843 12.1791C14.7387 11.6145 12.6799 12.4583 11.5321 14.2987C11.3977 14.5062 11.2563 14.6062 11.0027 14.6085C10.3471 14.6054 9.77536 14.2697 9.34506 13.834C8.39052 12.82 8.09567 11.5488 8.23925 10.1929C8.38283 8.83708 8.61329 7.51632 8.90537 6.1681C9.05901 5.28759 9.27427 4.37962 9.47135 3.51667C10.1815 3.38468 10.5442 3.11229 10.6392 2.62702C10.7342 2.14175 10.5575 1.70378 10.1847 1.50082C9.56957 1.14754 9.12707 1.49241 8.73506 1.96242C8.55426 1.78464 8.44213 1.68697 8.30476 1.52674C7.60678 0.878178 6.77442 0.437152 5.79955 0.72403C5.11461 0.918587 4.49537 0.825493 3.92363 0.489764C3.79332 0.437116 3.61957 0.366917 3.48926 0.314268C2.84884 -0.101577 2.19322 -0.104637 1.52241 0.305088C1.39916 0.360023 1.25772 0.459974 1.10922 0.452342C0.6021 0.456914 0.351534 0.826968 0.144404 1.21457C-0.0263488 1.51214 -0.0738521 1.75477 0.157453 2.05769C0.182702 2.12026 0.2332 2.24539 0.215012 2.29041C0.01901 2.52541 0.192757 2.59561 0.348317 2.71082C0.814995 3.05647 1.31805 3.31208 1.90498 3.23503C2.49191 3.15797 2.78485 3.43342 3.06665 3.86147C3.48582 4.44975 3.88681 5.08305 4.3858 5.59884C4.74741 5.95441 4.76859 6.27716 4.58671 6.72733C3.90263 8.54556 3.32361 10.3539 3.19714 12.2927C2.91896 16.1077 4.7572 19.3115 8.09071 20.8155C8.61195 21.0261 9.08976 21.2191 9.611 21.4297C9.57463 21.5197 9.55644 21.5648 9.52006 21.6548C8.72685 23.7431 7.93363 25.8315 7.18386 27.9373C6.99085 28.5401 6.79078 29.0353 6.22503 29.4351C5.57947 29.9074 5.32484 30.5376 5.39951 31.3533C5.43888 31.631 5.46006 31.9538 5.45599 32.2139C5.46305 32.3215 5.45193 32.4741 5.39736 32.6092C4.83354 34.0047 4.24446 35.3377 3.68063 36.7332C3.35324 37.5435 2.77636 38.0959 1.9318 38.4354C1.31555 38.7101 0.724554 39.0473 0.0901177 39.367C1.65384 39.9988 3.08726 40.578 4.60755 41.1922C4.49949 40.8343 4.41668 40.5391 4.31569 40.2888C3.98039 39.3678 4.02897 38.4973 4.47961 37.632C4.9848 36.6317 5.40313 35.5963 5.89014 34.6411C6.3044 33.8659 6.51966 32.9579 7.28847 32.4307C8.05729 31.9034 8.36649 31.1381 8.28475 30.2149C8.27063 29.9997 8.25651 29.7846 8.3727 29.6221C8.87383 28.882 9.44364 28.222 10.0064 27.4544C9.90733 28.1998 9.82644 28.9003 9.76375 29.5557C9.71218 30.0585 9.59192 30.4812 9.23629 30.8612C8.68466 31.4762 8.48053 32.2315 8.7037 33.0548C8.76126 33.2875 8.79357 33.4577 8.80769 33.6729C8.82181 33.888 8.81774 34.1482 8.81368 34.4084C8.5721 35.8817 8.28708 37.3376 8.0273 38.8559C7.99799 39.0535 7.95048 39.2962 7.8343 39.4587C7.55848 39.7662 7.22104 40.1011 6.83311 40.311C6.22392 40.6932 5.60767 40.9679 4.91161 41.315C6.47533 41.9468 7.95218 42.5435 9.55935 43.1929C9.40785 42.8175 9.34324 42.4772 9.1988 42.2093C8.87057 41.396 8.77065 40.5178 8.98591 39.6098C9.29618 38.2165 9.60645 36.8233 9.9349 35.385C10.0845 34.7647 10.2088 34.0818 10.7493 33.6195C11.4676 32.9671 11.7081 32.1217 11.4779 31.1908C11.4456 31.0207 11.4315 30.8055 11.486 30.6705C12.0721 28.9697 12.6764 27.224 13.2625 25.5233C13.4191 25.0105 13.5757 24.4978 13.7505 23.94C14.0617 24.1705 14.3294 24.3833 14.597 24.5962C17.1981 26.5373 20.1154 27.8207 23.3308 28.4915C23.6096 28.5518 23.6601 28.6769 23.7177 28.9096C24.1771 31.3993 24.1112 33.9386 24.0018 36.4603C23.9978 36.7205 23.925 36.9005 23.6785 37.0104C23.0693 37.3927 22.6844 37.9703 22.5853 38.7157C22.4903 39.201 22.3518 39.6687 22.0831 40.0838C21.4041 41.0139 20.6383 41.9089 19.8725 42.8039C19.1067 43.6988 18.2217 44.3886 17.0549 44.6503C16.4316 44.8174 15.884 45.1722 15.2314 45.5369C16.7951 46.1687 18.1851 46.7302 19.6619 47.3269C19.6549 47.2193 19.6731 47.1743 19.6731 47.1743C19.6408 47.0042 19.6084 46.834 19.5761 46.6639C19.2702 45.5453 19.6157 44.69 20.4068 43.8576C21.0817 43.1877 21.7131 42.5002 22.3628 41.7677C23.0306 40.9902 23.6802 40.2578 24.6914 39.8808C25.3329 39.6687 25.5876 39.0385 25.6503 38.3831C25.72 37.8352 25.7645 37.2248 25.9212 36.7121C26.2092 35.6241 26.4972 34.536 26.7852 33.448C26.8287 33.4655 26.8721 33.4831 26.8539 33.5281C27.2932 35.0671 27.7072 36.5435 28.1465 38.0825C28.197 38.2076 28.1495 38.4503 28.0515 38.5678C27.5322 39.3529 27.3967 40.1884 27.5835 41.1017C27.6411 41.3344 27.6805 41.6121 27.633 41.8548C27.254 43.1679 26.8134 44.5085 26.4779 45.8392C26.2263 46.8372 25.5878 47.417 24.6816 47.784C24.0835 48.0137 23.536 48.3685 22.9015 48.6882C24.4652 49.32 25.9421 49.9166 27.4624 50.5309C27.3109 50.1555 27.2463 49.8152 27.12 49.5023C26.8605 48.7691 26.8545 48.0336 27.1455 47.3133C27.5749 46.1253 27.9792 44.8747 28.4086 43.6868C28.7289 42.7689 28.9876 41.8784 29.811 41.2162C30.4131 40.7263 30.5556 39.9984 30.3395 39.2827C30.2567 38.9874 30.1487 38.6296 30.1709 38.3244C30.1942 37.3912 30.1741 36.4405 30.3025 35.4975C30.5522 33.5037 31.2727 31.5955 31.8881 29.6971C32.3469 28.3115 32.7622 26.9084 33.0725 25.5151C33.2514 24.6972 33.2201 23.8991 33.2687 23.0285C33.4313 23.2513 33.5939 23.4741 33.7131 23.6793C34.4535 24.9734 34.3281 26.2842 33.8875 27.6248C33.5197 28.7854 33.1084 29.9283 32.8274 31.124C32.4192 32.6347 32.3332 34.2233 32.7724 35.7623C33.1219 36.8984 32.9158 36.658 33.9735 36.6664C34.0351 36.639 34.122 36.6741 34.1836 36.6466C34.2452 36.6191 34.3503 36.6092 34.3685 36.5642C34.5322 36.159 34.7645 35.834 34.5444 35.3785Z" fill="#636846"/>
</svg>
