<svg width="54" height="40" viewBox="0 0 54 40" fill="none" xmlns="http://www.w3.org/2000/svg">
<path opacity="0.25" d="M48.5775 12.5214C46.6853 11.715 45.2739 10.3477 44.3362 8.52717C43.922 7.75196 43.5764 6.89664 43.1187 6.13899C42.2033 4.62367 40.9304 3.72411 39.1878 3.53795C37.13 3.32205 35.0651 3.21373 32.9639 3.01537C32.7538 2.99554 32.5507 2.86812 32.3476 2.7407C31.5424 2.12344 30.7625 1.44361 29.9068 0.951485C26.3608 -1.07196 22.4909 0.229775 20.8527 3.92884C20.3548 5.07258 20.1034 6.3262 19.9752 7.63476C19.9611 7.84992 19.9288 8.02007 19.6863 8.17039C17.8226 9.18521 16.9278 11.2224 17.3806 13.3436C17.4281 13.5862 17.3958 13.7564 17.215 13.9341C16.7412 14.3874 16.0967 14.543 15.4845 14.5285C14.0935 14.4622 12.9984 13.7526 12.1598 12.6775C11.3212 11.6025 10.5695 10.4923 9.84307 9.31959C9.34194 8.57949 8.86605 7.77681 8.40836 7.01916C8.82753 6.43087 8.89921 5.98299 8.63046 5.56792C8.3617 5.15285 7.93033 4.96058 7.52121 5.07351C6.83328 5.24672 6.75454 5.80219 6.79905 6.41259C6.54549 6.4103 6.39699 6.41793 6.18687 6.3981C5.23425 6.41642 4.32914 6.67738 3.82716 7.56094C3.46961 8.17669 2.95949 8.53989 2.315 8.69555C2.18469 8.7482 2.01095 8.8184 1.88063 8.87105C1.13108 9.01679 0.657343 9.47002 0.459419 10.2307C0.408921 10.3559 0.376612 10.526 0.264489 10.6237C-0.0971268 10.9792 -0.0203079 11.4195 0.0999477 11.8422C0.183827 12.1749 0.318204 12.3824 0.695014 12.4396C0.756639 12.4671 0.879889 12.522 0.898077 12.567C0.920331 12.8722 1.09408 12.802 1.28601 12.7769C1.86182 12.7013 2.40125 12.5357 2.76993 12.0726C3.1386 11.6095 3.54066 11.6041 4.04072 11.7163C4.7509 11.8483 5.47928 12.0253 6.19652 12.0497C6.70364 12.0542 6.94308 12.2717 7.12496 12.7219C7.89592 14.505 8.73556 16.208 9.99139 17.6905C12.4414 20.628 15.9893 21.6558 19.432 20.4219C19.9532 20.2113 20.431 20.0183 20.9523 19.8077C20.9886 19.8977 21.0068 19.9428 21.0432 20.0328C21.9233 22.086 22.8034 24.1393 23.7269 26.1749C24.0068 26.7426 24.2068 27.2378 24.0776 27.9184C23.9413 28.7066 24.1959 29.3368 24.8163 29.8717C25.0375 30.0441 25.2769 30.2616 25.4548 30.4515C25.5346 30.524 25.6326 30.6415 25.6871 30.7766C26.251 32.1721 26.7532 33.5402 27.317 34.9357C27.6444 35.746 27.6131 36.5441 27.2415 37.375C26.989 38.0007 26.7981 38.6538 26.5638 39.3245C28.1276 38.6927 29.561 38.1136 31.0813 37.4993C30.7549 37.317 30.4903 37.1621 30.2438 37.0522C29.3628 36.6227 28.793 35.9627 28.5161 35.0272C28.1847 33.9568 27.7663 32.9214 27.4531 31.8959C27.2126 31.0505 26.7367 30.2478 26.9235 29.3345C27.1103 28.4212 26.8011 27.6559 26.101 27.0485C25.9413 26.9036 25.7817 26.7586 25.7524 26.561C25.5987 25.6805 25.5502 24.8099 25.4218 23.8668C25.8683 24.4719 26.2967 25.0319 26.7069 25.5469C27.0191 25.9445 27.2262 26.3321 27.2344 26.8524C27.2648 27.678 27.6426 28.3632 28.3751 28.8004C28.5781 28.9278 28.7196 29.0277 28.8792 29.1727C29.0388 29.3177 29.2166 29.5077 29.3945 29.6977C30.2442 30.9253 31.0504 32.1705 31.9183 33.4432C32.0345 33.6057 32.1689 33.8133 32.1982 34.0109C32.2134 34.4237 32.2033 34.899 32.07 35.3194C31.8974 36.0176 31.6449 36.6432 31.3853 37.3765C32.949 36.7447 34.4259 36.148 36.0331 35.4987C35.6633 35.3339 35.3804 35.134 35.0905 35.0417C34.2894 34.6846 33.6074 34.1223 33.1315 33.3196C32.3869 32.1018 31.6423 30.8841 30.8794 29.6213C30.5561 29.0712 30.1712 28.4936 30.2388 27.7856C30.3023 26.8173 29.8881 26.0421 29.0758 25.5324C28.9344 25.4325 28.7748 25.2875 28.7202 25.1524C27.9604 23.5219 27.1824 21.8464 26.4225 20.2158C26.179 19.7382 25.9355 19.2606 25.6738 18.7379C26.0577 18.6876 26.3981 18.6547 26.7386 18.6219C29.958 18.2114 32.9481 17.108 35.727 15.3569C35.9694 15.2066 36.0927 15.2615 36.2957 15.389C38.3557 16.8608 40.0722 18.7332 41.7453 20.6231C41.9231 20.8131 41.9958 20.9932 41.8948 21.2434C41.7222 21.9416 41.8465 22.6245 42.2931 23.2295C42.5618 23.6446 42.7871 24.0772 42.8821 24.5625C43.0398 25.7032 43.1107 26.8789 43.1815 28.0547C43.2523 29.2305 43.0948 30.3415 42.4373 31.3402C42.105 31.8934 41.9576 32.529 41.7415 33.2447C43.3052 32.6129 44.6952 32.0513 46.172 31.4546C46.0922 31.3822 46.074 31.3371 46.074 31.3371C45.9326 31.2372 45.7911 31.1372 45.6497 31.0373C44.6526 30.4452 44.307 29.5899 44.2978 28.4416C44.3179 27.4909 44.2946 26.5577 44.2531 25.5795C44.1934 24.5564 44.1519 23.5782 44.6175 22.6046C44.9316 22.0064 44.6769 21.3761 44.2668 20.8611C43.9364 20.4186 43.5444 19.9486 43.3009 19.4709C42.7522 18.4882 42.2036 17.5055 41.655 16.5227C41.6984 16.5052 41.7418 16.4876 41.76 16.5326C43.1451 17.3345 44.4685 18.109 45.8536 18.9109C45.9768 18.9658 46.1112 19.1733 46.1223 19.3259C46.2942 20.2515 46.7771 20.9465 47.5459 21.4738C47.749 21.6012 47.9702 21.7736 48.1046 21.9812C48.7442 23.189 49.3585 24.4594 50.0415 25.6497C50.5538 26.5424 50.4973 27.403 50.1004 28.2965C49.8297 28.8772 49.6823 29.5128 49.448 30.1834C51.0117 29.5516 52.4886 28.955 54.0088 28.3407C53.6391 28.1759 53.3562 27.976 53.0481 27.8387C52.352 27.4915 51.8368 26.9666 51.5458 26.2463C51.0294 25.0934 50.4515 23.9131 49.9352 22.7602C49.528 21.8774 49.0955 21.0572 49.2278 20.0088C49.3206 19.2381 48.9175 18.6155 48.2649 18.2508C48.0002 18.096 47.6739 17.9136 47.4779 17.6786C46.8464 16.9911 46.1715 16.3212 45.6088 15.5537C44.4035 13.946 43.5961 12.0729 42.7201 10.2798C42.0876 8.9644 41.4116 7.66654 40.667 6.44879C40.2275 5.73615 39.6506 5.18375 39.0808 4.52376C39.3525 4.57106 39.6243 4.61836 39.8526 4.68321C41.2841 5.09979 42.1045 6.12984 42.7188 7.40024C43.2604 8.49056 43.7585 9.59843 44.387 10.6537C45.1427 12.024 46.1844 13.2265 47.5694 14.0284C48.61 14.6029 48.2948 14.5732 49.0615 13.8445C49.0867 13.7819 49.1736 13.7468 49.1988 13.6843C49.2241 13.6217 49.2928 13.5416 49.2746 13.4966C49.1109 13.0914 49.0523 12.6962 48.5775 12.5214Z" fill="#636846"/>
</svg>
