<svg width="49" height="43" viewBox="0 0 49 43" fill="none" xmlns="http://www.w3.org/2000/svg">
<g opacity="0.25">
<path d="M23.9437 1.8276C24.0327 1.82007 24.1218 1.81254 24.2135 1.80479C24.8835 1.75447 25.5044 1.76821 26.1643 1.82117C26.688 1.85512 27.2099 1.856 27.7388 1.85816C28.5661 1.86558 29.3241 1.90169 30.1008 2.07612C30.2022 2.09755 30.3037 2.11898 30.4082 2.14107C31.256 2.34433 31.9201 2.67573 32.6106 3.04673C33.3489 3.44233 34.1079 3.80698 34.9111 4.14091C36.6506 4.86984 37.8512 5.71898 38.2976 7.14132C38.7626 9.66407 36.8061 12.4111 34.5975 14.4687C34.2344 14.7903 33.8624 15.0471 33.3966 15.299C33.4201 15.3632 33.4435 15.4275 33.4677 15.4937C33.8379 16.7224 33.9062 18.0897 33.4127 19.3433C33.3749 19.4421 33.3371 19.541 33.2982 19.6428C32.563 21.4154 30.9181 22.9934 28.6373 24.031C26.5818 24.8893 23.9997 25.3529 21.6997 25.0542C20.4023 24.8251 19.2528 24.5709 18.1752 24.0351C18.1028 24.004 18.0304 23.973 17.9559 23.941C16.4038 23.272 15.3392 22.1307 14.6437 20.9853C14.5892 20.8966 14.5347 20.8079 14.4785 20.7165C14.0263 19.8966 13.4601 18.2469 13.9904 17.3785C13.8655 17.3847 13.7407 17.3909 13.6121 17.3972C12.7092 17.4001 11.7797 17.1358 11.1637 16.7156C10.947 16.5549 10.7359 16.3915 10.5264 16.2264C10.4515 16.1678 10.3766 16.1091 10.2994 16.0487C10.0864 15.881 9.87498 15.7124 9.66451 15.5432C9.61401 15.5027 9.56352 15.4621 9.5115 15.4204C8.16443 14.3237 7.85415 12.9817 7.99911 11.5208C8.13008 10.7785 8.37944 10.0973 9.10062 9.50012C9.49442 9.15637 9.48222 8.91902 9.46961 8.51038C9.49013 8.16763 9.70862 7.94256 9.98734 7.65254C10.0674 7.56711 10.1474 7.48168 10.2299 7.39367C11.1105 6.46483 12.0495 5.55983 13.0782 4.70087C13.1578 4.63294 13.1578 4.63294 13.239 4.56364C13.8105 4.09643 14.4128 3.80358 15.283 3.71885C15.435 3.70685 15.587 3.69514 15.739 3.68372C16.3608 3.62233 16.5952 3.45866 17.0229 3.14395C17.4887 2.95984 17.892 2.89632 18.4119 2.85545C18.5953 2.84014 18.5953 2.84014 18.7825 2.82451C19.0999 2.80838 19.3843 2.81827 19.6976 2.83362C20.8825 2.80842 20.8825 2.80842 21.9199 2.41972C21.9868 2.37314 22.0537 2.32655 22.1226 2.27854C22.6598 1.94593 23.2714 1.88313 23.9437 1.8276ZM22.6446 3.62568C22.4294 3.7676 22.2011 3.85182 21.9329 3.93573C22.1922 5.01363 23.2641 5.77141 24.5229 6.35698C25.8142 6.86525 27.7452 7.25635 29.2961 7.03192C29.6278 6.85659 29.6278 6.85659 29.8215 6.60428C29.8258 6.32618 29.8258 6.32618 29.6634 6.08377C29.2699 5.86085 28.8247 5.86381 28.3196 5.84352C26.7453 5.75382 25.2575 5.44092 24.2726 4.60143C23.8408 4.18533 23.5921 3.77843 23.4506 3.26861C23.0341 3.30505 22.9302 3.41896 22.6446 3.62568ZM17.3678 4.67386C16.9653 4.86353 16.6373 4.90617 16.1698 4.97428C16.5691 5.7768 17.1017 6.62214 18.1968 7.07265C18.5633 7.15091 18.7841 7.15136 19.1683 7.07831C19.4959 6.89003 19.5782 6.79107 19.6321 6.50817C19.5209 6.20544 19.3114 6.13984 18.9572 5.95176C18.4159 5.52187 18.0704 5.07128 17.8191 4.52464C17.5775 4.53152 17.5775 4.53152 17.3678 4.67386ZM11.6177 8.27324C11.2988 8.65987 11.2523 9.02411 11.382 9.43888C11.7015 9.67278 12.1068 9.76009 12.5456 9.87142C12.697 9.915 12.8481 9.95895 12.999 10.0032C15.5722 10.7397 18.5215 10.9442 21.3301 10.3001C21.6908 10.194 21.9 10.103 22.1147 9.87391C22.1753 9.60144 22.1753 9.60144 22.0683 9.34362C21.877 9.18101 21.877 9.18101 21.5949 9.0797C21.2683 9.08803 21.2683 9.08803 20.9123 9.15851C17.9784 9.61622 15.2397 9.47877 12.6563 8.56405C12.5269 8.50589 12.3988 8.44646 12.2722 8.38564C11.973 8.21804 11.973 8.21804 11.6177 8.27324ZM36.1905 7.34475C36.1058 7.44197 36.0234 7.54006 35.9418 7.63845C35.024 8.63489 33.427 9.09465 31.8912 9.47717C31.56 9.57874 31.411 9.62731 31.2303 9.83973C31.1788 10.1082 31.1788 10.1082 31.2767 10.37C31.4906 10.5602 31.4906 10.5602 31.8619 10.6242C33.2418 10.5732 35.1029 9.9088 36.1098 9.22111C36.6303 8.68887 36.3731 7.91362 36.3023 7.33497C36.2654 7.3382 36.2285 7.34142 36.1905 7.34475ZM11.1784 9.68569C11.0761 9.78982 10.9782 9.89583 10.8825 10.0026C10.7287 10.1739 10.5824 10.3333 10.391 10.4869C10.0716 10.751 10.059 11.0293 10.0784 11.3468C10.4393 12.3912 11.685 13.2037 12.9875 13.7163C13.7275 13.9693 14.5554 14.2347 15.4077 14.2774C15.4455 14.2048 15.4832 14.1323 15.5221 14.0575C15.7698 13.6963 16.1098 13.5121 16.5571 13.2608C16.4573 13.2445 16.4573 13.2445 16.3554 13.2278C14.3954 12.8929 12.8334 12.4158 11.8441 11.1828C11.5232 10.7114 11.4143 10.1934 11.2901 9.67592C11.2533 9.67914 11.2164 9.68237 11.1784 9.68569ZM17.2284 14.4998C17.0481 14.8703 16.8703 15.2408 16.7112 15.6149C16.6874 15.6703 16.6636 15.7257 16.6391 15.7828C16.5922 15.8925 16.546 16.0023 16.5007 16.1122C16.3875 16.3756 16.2697 16.5838 16.0671 16.8282C15.4192 17.6182 15.8071 19.0196 16.0993 19.8206C16.5627 20.897 17.4158 21.7997 18.6078 22.5469C18.7005 22.6086 18.7005 22.6086 18.7951 22.6715C19.9424 23.3808 21.7678 23.8814 23.3761 23.8226C25.8224 23.6504 27.5751 23.1897 29.3595 21.9116C29.4248 21.8662 29.49 21.8208 29.5573 21.7741C30.9301 20.7489 31.8473 19.1388 31.8319 17.8115C31.8212 17.5595 31.8045 17.3085 31.7844 17.0573C31.7779 16.9759 31.7714 16.8945 31.7647 16.8106C31.7194 16.3622 31.6723 15.95 31.3923 15.5506C31.0843 15.4212 31.0843 15.4212 30.7148 15.3666C30.1731 15.267 29.8685 15.1783 29.5318 14.8737C29.3925 14.6813 29.2833 14.4829 29.1773 14.2798C28.9914 13.9132 28.9914 13.9132 28.7422 13.5688C28.5732 13.5946 28.4043 13.6205 28.2354 13.6465C28.1413 13.661 28.0472 13.6754 27.9503 13.6903C27.7229 13.7274 27.4966 13.7687 27.2713 13.8129C26.8767 13.8828 26.5001 13.9275 26.0995 13.9628C25.8893 13.9814 25.8893 13.9814 25.6749 14.0003C25.4582 14.0188 25.4582 14.0188 25.2371 14.0377C25.0927 14.0506 24.9483 14.0635 24.7995 14.0769C24.6593 14.089 24.5192 14.1012 24.3748 14.1137C24.2481 14.1247 24.1215 14.1357 23.991 14.147C23.6163 14.1699 23.6163 14.1699 23.2399 14.1654C22.7499 14.1621 22.2733 14.1951 21.7828 14.2325C21.6845 14.2397 21.5862 14.2469 21.4849 14.2543C21.1726 14.2772 20.8603 14.3005 20.548 14.3239C20.137 14.3546 19.726 14.3849 19.315 14.415C19.2224 14.4221 19.1298 14.4292 19.0343 14.4365C18.4281 14.4808 17.8339 14.4976 17.2284 14.4998Z" fill="#626745"/>
<path d="M16.5325 24.5563C16.7323 24.6501 16.9256 24.7502 17.1143 24.8537C17.7068 25.1612 18.2922 25.3741 18.9813 25.5795C19.0974 25.6145 19.2135 25.6494 19.3331 25.6853C19.5012 25.7323 19.5012 25.7323 19.6726 25.7801C20.1188 25.9669 20.2843 26.1624 20.5234 26.4736C20.5673 26.5282 20.6113 26.5828 20.6566 26.6391C20.8001 26.8181 20.941 26.9982 21.082 27.1783C21.1815 27.3031 21.2812 27.4279 21.3811 27.5526C21.5866 27.8096 21.7912 28.067 21.995 28.3247C22.2851 28.691 22.5791 29.0557 22.8748 29.4197C22.9204 29.4759 22.9661 29.5321 23.0131 29.59C23.1026 29.7002 23.1922 29.8104 23.2817 29.9206C23.524 30.2189 23.7655 30.5176 24.0065 30.8165C24.1749 31.0254 24.3441 31.2339 24.5149 31.4417C24.6018 31.5479 24.6018 31.5479 24.6905 31.6561C24.7408 31.717 24.791 31.778 24.8428 31.8407C24.9504 31.9876 24.9504 31.9876 24.9636 32.1391C25.0374 32.1327 25.1111 32.1262 25.1871 32.1196C25.2112 32.0527 25.2354 31.9859 25.2604 31.917C25.3745 31.6362 25.5148 31.3689 25.6673 31.0951C25.7116 31.0153 25.7116 31.0153 25.7568 30.9339C25.8544 30.7584 25.9524 30.583 26.0505 30.4076C26.1192 30.2843 26.1879 30.1609 26.2565 30.0375C26.4406 29.707 26.6252 29.3765 26.8099 29.0461C26.9283 28.8341 27.0466 28.6221 27.1648 28.41C27.363 28.0546 27.5613 27.6992 27.7598 27.3439C27.8362 27.2072 27.9125 27.0705 27.9888 26.9338C28.0962 26.7413 28.2039 26.5489 28.3117 26.3564C28.343 26.3002 28.3744 26.244 28.4067 26.186C28.4963 26.0262 28.5874 25.8668 28.6788 25.7074C28.7111 25.6493 28.7435 25.5911 28.7768 25.5313C28.8263 25.4454 28.8263 25.4454 28.8767 25.3578C28.9059 25.3063 28.9351 25.2547 28.9651 25.2017C29.1618 24.9466 29.4865 24.8121 29.8323 24.657C30.6341 24.273 31.5297 23.8371 32.0225 23.2479C32.3443 23.065 32.4507 23.0841 32.846 23.0951C33.0715 23.1098 33.2964 23.1269 33.5206 23.1464C33.6244 23.1552 33.7281 23.1639 33.835 23.1729C34.1573 23.203 34.4777 23.2372 34.7982 23.2732C34.9155 23.2862 35.0327 23.2992 35.1535 23.3126C40.331 23.9018 40.331 23.9018 42.0985 24.686C42.1851 24.7218 42.2717 24.7576 42.3609 24.7945C45.0611 25.9947 45.554 28.0939 46.1043 30.1547C46.1588 30.3582 46.2137 30.5616 46.2686 30.7651C46.3982 31.2455 46.5271 31.7261 46.6556 32.2068C46.7873 32.6999 46.9203 33.1928 47.0537 33.6856C47.1691 34.1116 47.2838 34.5377 47.3979 34.9639C47.4658 35.2172 47.5338 35.4704 47.6025 35.7236C47.679 36.0061 47.7544 36.2887 47.8295 36.5715C47.8631 36.6945 47.8631 36.6945 47.8975 36.82C48.0048 37.2284 48.0902 37.6376 48.1463 38.0532C48.157 38.132 48.1678 38.2109 48.1789 38.2921C48.1408 38.5621 48.0195 38.6592 47.7281 38.8496C47.5082 38.9094 47.5082 38.9094 47.2846 38.9266C47.1741 38.9374 47.1741 38.9374 47.0613 38.9485C46.7315 38.9184 46.5911 38.8179 46.361 38.6639C46.2575 38.4764 46.2575 38.4764 46.196 38.2611C46.1725 38.1818 46.1489 38.1025 46.1247 38.0209C46.1027 37.9395 46.0807 37.8582 46.058 37.7744C46.0259 37.6624 46.0259 37.6624 45.9932 37.5482C45.9266 37.312 45.8634 37.0754 45.8009 36.8385C45.7653 36.7052 45.7653 36.7052 45.729 36.5691C45.6647 36.3281 45.6006 36.087 45.5366 35.8459C45.469 35.5919 45.401 35.3379 45.3329 35.0839C45.1019 34.2213 44.8715 33.3586 44.6421 32.4957C44.5151 32.0176 44.3874 31.5396 44.259 31.0618C44.1914 30.8099 44.124 30.5579 44.0575 30.3058C43.9831 30.0244 43.9076 29.7432 43.8319 29.462C43.8105 29.3801 43.7891 29.2982 43.7671 29.2138C43.3733 27.7664 42.5855 26.5793 40.7516 25.7771C39.7057 25.3951 38.5411 25.1994 37.3721 25.0279C37.2353 25.0075 37.0985 24.987 36.9576 24.966C35.6376 24.7729 34.305 24.6237 32.963 24.4929C33.6442 25.3568 34.3402 26.2143 35.0458 27.0682C35.0854 27.1162 35.125 27.1641 35.1659 27.2135C35.5708 27.7083 35.5708 27.7083 35.9889 28.1975C36.0403 28.3421 36.0403 28.3421 36.073 28.5146C36.086 28.5705 36.099 28.6265 36.1124 28.6841C35.9187 29.2764 34.7424 29.7067 34.0679 30.0449C33.8259 30.1676 33.5839 30.2904 33.342 30.4132C33.2201 30.4749 33.0981 30.5366 32.9725 30.6002C32.428 30.8768 31.8873 31.1568 31.3472 31.4375C31.2457 31.4902 31.1442 31.5429 31.0396 31.5972C30.4475 31.9051 29.8572 32.2146 29.2685 32.5255C28.9899 32.6725 28.7108 32.819 28.4317 32.9655C28.048 33.167 27.6671 33.3707 27.2872 33.5756C27.0958 33.6771 26.9045 33.7786 26.7131 33.8801C26.6265 33.9276 26.54 33.975 26.4508 34.0239C26.0162 34.2522 25.6256 34.4441 25.0725 34.464C24.5062 34.4111 24.0137 34.2262 23.5134 34.0599C23.3202 33.998 23.127 33.936 22.9337 33.8742C22.733 33.8096 22.5328 33.7443 22.3327 33.6789C21.8308 33.5148 21.3258 33.355 20.8208 33.195C20.4474 33.0766 20.0745 32.9575 19.7016 32.8384C18.9459 32.5975 18.1872 32.3606 17.4282 32.1242C14.7476 31.2887 14.7476 31.2887 14.0595 31.0321C13.989 31.0074 13.9185 30.9827 13.8458 30.9572C13.6083 30.7505 13.635 30.4908 13.6514 30.2281C13.733 30.022 13.8179 29.8412 13.9341 29.6437C13.9641 29.5899 13.9942 29.5361 14.0252 29.4806C14.1224 29.3075 14.222 29.135 14.3217 28.9625C14.3889 28.8437 14.456 28.7248 14.5229 28.606C14.6865 28.3163 14.8521 28.0271 15.0185 27.7381C15.1469 27.515 15.274 27.2916 15.4013 27.0682C15.5948 26.7297 15.7904 26.3918 15.9881 26.0543C15.0246 26.2301 14.1325 26.4995 13.2266 26.7937C12.994 26.8692 12.7608 26.9437 12.5276 27.0181C10.0103 27.8259 7.79985 28.6257 6.67455 30.4684C6.34549 31.0677 6.25843 31.6489 6.20587 32.272C6.19722 32.3648 6.18857 32.4576 6.17966 32.5532C6.16103 32.7547 6.14278 32.9563 6.12521 33.1578C6.09716 33.4793 6.06745 33.8008 6.03764 34.1223C5.93556 35.2297 5.84044 36.337 5.74853 37.4443C5.71006 37.9078 5.67087 38.3713 5.63161 38.8349C5.59905 39.2207 5.56776 39.6065 5.53742 39.9923C5.51818 40.2338 5.49789 40.4754 5.47735 40.7169C5.46802 40.8293 5.45913 40.9417 5.45072 41.0541C5.43911 41.2086 5.42578 41.363 5.41237 41.5174C5.40541 41.604 5.39845 41.6905 5.39128 41.7797C5.33095 42.0648 5.22436 42.361 4.93913 42.5932C4.69719 42.6325 4.69719 42.6325 4.39656 42.6645C4.24874 42.6817 4.24874 42.6817 4.09794 42.6993C3.82192 42.6909 3.82192 42.6909 3.61381 42.5741C3.33486 42.2892 3.30725 42.0578 3.33729 41.7063C3.34419 41.6211 3.35108 41.5359 3.35819 41.4481C3.36657 41.3549 3.37495 41.2616 3.38359 41.1656C3.3918 41.0671 3.40002 40.9687 3.40848 40.8672C3.43108 40.597 3.45473 40.3268 3.47862 40.0566C3.49855 39.8301 3.51797 39.6037 3.5374 39.3773C3.58335 38.8418 3.63016 38.3064 3.67751 37.7709C3.72607 37.2216 3.77325 36.6722 3.81971 36.1229C3.85981 35.6494 3.90077 35.1759 3.9424 34.7025C3.96719 34.4205 3.99167 34.1386 4.01531 33.8567C4.20299 31.6284 4.44447 29.5871 6.86918 27.8206C8.50616 26.7546 14.4275 24.0927 16.5325 24.5563Z" fill="#626745"/>
<path d="M20.612 19.8082C20.9021 19.8334 21.0409 19.9026 21.2657 20.0211C21.5618 20.1768 21.6526 20.2137 22.0516 20.2386C22.4562 20.1453 22.6005 20.0694 22.9135 19.8769C23.3568 19.6126 23.6836 19.5124 24.2534 19.4842C24.6766 19.5172 24.9808 19.6491 25.3373 19.7901C25.5938 19.8907 25.5938 19.8907 25.9898 19.8941C26.4402 19.7854 26.5971 19.6434 26.9088 19.4016C27.1365 19.2614 27.2748 19.2269 27.5678 19.193C27.9979 19.2031 27.9979 19.2031 28.2871 19.2923C28.494 19.4886 28.5722 19.6533 28.5742 19.9041C28.4452 20.3411 27.9287 20.7028 27.4138 20.9717C26.7191 21.2449 25.8012 21.3297 25.057 21.2206C24.8863 21.1805 24.7165 21.1389 24.5478 21.0955C24.2099 21.0252 23.9975 21.0813 23.6682 21.1849C23.5611 21.2337 23.4539 21.2824 23.3434 21.3326C22.6745 21.6024 21.7951 21.6555 21.0656 21.5942C20.4571 21.4694 19.9512 21.2011 19.5866 20.855C19.4721 20.6246 19.4874 20.5075 19.5336 20.249C19.7781 19.9187 20.0893 19.8394 20.612 19.8082Z" fill="#636746"/>
<path d="M36.7916 37.3668C37.0955 37.4993 37.2443 37.578 37.34 37.8222C37.3469 37.8948 37.3537 37.9674 37.3608 38.0422C37.3683 38.1218 37.3759 38.2015 37.3837 38.2835C37.3892 38.3665 37.3947 38.4494 37.4004 38.5349C37.4093 38.6176 37.4183 38.7002 37.4276 38.7854C37.434 38.8651 37.4404 38.9448 37.4469 39.027C37.4528 39.0997 37.4586 39.1724 37.4647 39.2473C37.4129 39.5042 37.279 39.6072 37.0037 39.7909C36.7021 39.8729 36.4233 39.8852 36.1099 39.8691C35.7316 39.7243 35.6003 39.5967 35.4983 39.312C35.4646 39.115 35.4381 38.9208 35.4186 38.7226C35.4117 38.6708 35.4049 38.619 35.3978 38.5656C35.3598 38.1811 35.4452 37.905 35.681 37.5403C36.0203 37.3912 36.4083 37.3471 36.7916 37.3668Z" fill="#636847"/>
<path d="M15.1257 39.2323C15.4616 39.2495 15.6084 39.3386 15.8142 39.5072C15.99 39.7837 16.0023 40.0867 16.0322 40.3899C16.039 40.4417 16.0459 40.4935 16.053 40.5468C16.0909 40.9313 16.0055 41.2075 15.7697 41.5721C15.4305 41.7213 15.0424 41.7653 14.6592 41.7456C14.3553 41.6131 14.2064 41.5344 14.1108 41.2903C14.1039 41.2177 14.097 41.1451 14.09 41.0703C14.0824 40.9906 14.0749 40.911 14.0671 40.829C14.0616 40.746 14.0561 40.663 14.0504 40.5776C14.0414 40.4949 14.0324 40.4122 14.0232 40.3271C14.0136 40.2075 14.0136 40.2075 14.0038 40.0855C13.998 40.0128 13.9921 39.9401 13.9861 39.8652C14.0795 39.4019 14.5171 39.2639 15.1257 39.2323Z" fill="#636848"/>
<path d="M27.7287 16.1366C27.8081 16.1284 27.8875 16.1203 27.9693 16.1119C28.3545 16.0802 28.5847 16.0804 28.9134 16.2071C29.1092 16.3684 29.1678 16.4455 29.1815 16.6583C29.187 16.7082 29.1926 16.7581 29.1983 16.8095C29.128 17.0483 29.005 17.1437 28.7318 17.3083C28.4182 17.3664 28.1564 17.4015 27.8413 17.4244C27.762 17.4325 27.6826 17.4407 27.6008 17.449C27.2155 17.4808 26.9853 17.4805 26.6567 17.3539C26.4608 17.1925 26.4022 17.1154 26.3885 16.9027C26.3802 16.8278 26.3802 16.8278 26.3718 16.7515C26.5197 16.2486 27.0854 16.1833 27.7287 16.1366Z" fill="#636845"/>
<path d="M19.6855 16.8407C19.7649 16.8325 19.8443 16.8244 19.9261 16.816C20.3113 16.7843 20.5415 16.7845 20.8702 16.9112C21.066 17.0725 21.1246 17.1496 21.1383 17.3624C21.1438 17.4123 21.1494 17.4622 21.1551 17.5136C21.0848 17.7524 20.9618 17.8478 20.6886 18.0124C20.375 18.0705 20.1132 18.1056 19.7981 18.1285C19.7187 18.1366 19.6393 18.1448 19.5575 18.1531C19.1723 18.1849 18.9421 18.1846 18.6134 18.058C18.4176 17.8966 18.359 17.8195 18.3453 17.6068C18.337 17.5319 18.337 17.5319 18.3285 17.4556C18.4765 16.9527 19.0422 16.8874 19.6855 16.8407Z" fill="#636845"/>
<path d="M26.066 38.3071C26.3552 38.3963 26.3552 38.3963 26.5394 38.571C26.6544 38.8679 26.655 39.0925 26.4414 39.3811C26.0604 39.5763 25.7327 39.6179 25.2782 39.5973C24.989 39.5081 24.989 39.5081 24.8049 39.3334C24.6898 39.0365 24.6893 38.8119 24.9028 38.5233C25.2838 38.328 25.6115 38.2864 26.066 38.3071Z" fill="#626746"/>
<path d="M25.8533 35.8823C26.1426 35.9714 26.1426 35.9714 26.3267 36.1462C26.4417 36.443 26.4423 36.6677 26.2287 36.9563C25.8478 37.1515 25.5201 37.1931 25.0656 37.1725C24.7764 37.0833 24.7764 37.0833 24.5922 36.9086C24.4772 36.6117 24.4766 36.3871 24.6902 36.0985C25.0712 35.9032 25.3989 35.8616 25.8533 35.8823Z" fill="#626746"/>
</g>
</svg>
