<svg width="49" height="43" viewBox="0 0 49 43" fill="none" xmlns="http://www.w3.org/2000/svg">
<g opacity="0.25">
<path d="M27.3423 2.09524C27.4313 2.10329 27.5203 2.11134 27.6119 2.11963C28.2804 2.18641 28.8895 2.30776 29.5302 2.47452C30.0401 2.59889 30.5539 2.69038 31.0744 2.78434C31.8879 2.93532 32.6281 3.10251 33.3627 3.40916C33.4588 3.44788 33.555 3.4866 33.6541 3.52649C34.4538 3.8739 35.0502 4.31557 35.6658 4.80084C36.3241 5.31863 37.0083 5.80955 37.7414 6.27788C39.3278 7.29779 40.3627 8.34251 40.5554 9.82076C40.5753 12.3859 38.1714 14.7515 35.6391 16.3943C35.2256 16.648 34.8147 16.8362 34.3123 17.0034C34.3242 17.0708 34.3362 17.1382 34.3485 17.2076C34.4997 18.4818 34.3296 19.8402 33.6258 20.9891C33.5715 21.0799 33.5171 21.1707 33.4611 21.2642C32.4293 22.8822 30.5353 24.1506 28.109 24.7764C25.9356 25.2647 23.3123 25.2729 21.099 24.5793C19.8611 24.1284 18.7733 23.6784 17.8051 22.9637C17.7392 22.9205 17.6733 22.8773 17.6054 22.8329C16.1931 21.9046 15.3429 20.5957 14.8568 19.347C14.8185 19.2502 14.7803 19.1534 14.7409 19.0536C14.4379 18.1676 14.1668 16.4447 14.8398 15.6815C14.7157 15.6659 14.5917 15.6503 14.4639 15.6343C13.5743 15.4803 12.7049 15.0586 12.1712 14.5378C11.9857 14.342 11.8061 14.1444 11.6284 13.9454C11.5649 13.8746 11.5013 13.8039 11.4357 13.731C11.2551 13.5288 11.0762 13.3261 10.8983 13.1229C10.8556 13.0742 10.8129 13.0256 10.769 12.9754C9.63278 11.6614 9.56025 10.286 9.9567 8.87243C10.2146 8.16413 10.5784 7.53659 11.3924 7.07372C11.8399 6.80358 11.8691 6.56772 11.9276 6.16309C12.0073 5.82911 12.2616 5.64541 12.5864 5.40819C12.6801 5.33796 12.7737 5.26773 12.8702 5.19537C13.8988 4.43356 14.9807 3.70536 16.1429 3.0381C16.2331 2.98502 16.2331 2.98502 16.3251 2.93086C16.9691 2.57 17.613 2.38617 18.4847 2.45384C18.6364 2.46841 18.7882 2.48328 18.9399 2.49843C19.5629 2.54595 19.8222 2.42547 20.298 2.18981C20.7887 2.08938 21.1969 2.09686 21.716 2.14689C21.8993 2.16366 21.8993 2.16366 22.0864 2.18078C22.4017 2.22001 22.6801 2.27913 22.9859 2.34864C24.1572 2.52958 24.1572 2.52958 25.2464 2.32694C25.3203 2.29267 25.3943 2.25841 25.4705 2.2231C26.0573 1.98883 26.6705 2.03318 27.3423 2.09524ZM25.7506 3.64041C25.514 3.7428 25.2746 3.78611 24.9959 3.82218C25.0641 4.92873 25.9881 5.86113 27.1261 6.65639C28.3095 7.38117 30.1433 8.10164 31.7096 8.14993C32.0668 8.03487 32.0668 8.03487 32.3013 7.82003C32.3538 7.5469 32.3538 7.5469 32.236 7.27997C31.8872 6.9921 31.4482 6.91771 30.9543 6.81002C29.4195 6.44831 28.0086 5.8818 27.1845 4.88404C26.8315 4.39928 26.6572 3.95538 26.6064 3.42873C26.1899 3.3923 26.0678 3.48643 25.7506 3.64041ZM20.372 3.75637C19.9427 3.87326 19.6123 3.8583 19.1401 3.8442C19.394 4.70386 19.7716 5.62884 20.7719 6.26268C21.1192 6.40338 21.3366 6.44218 21.7276 6.43694C22.0829 6.3084 22.1812 6.22525 22.2833 5.95599C22.2265 5.63857 22.0315 5.53758 21.7153 5.29085C21.257 4.7735 20.9949 4.26975 20.8424 3.68779C20.6033 3.65261 20.6033 3.65261 20.372 3.75637ZM14.0842 6.30257C13.7031 6.62795 13.594 6.97858 13.6497 7.40957C13.9238 7.6954 14.3077 7.85176 14.7205 8.03759C14.862 8.1068 15.0032 8.17633 15.1442 8.24612C17.5503 9.4183 20.4194 10.1318 23.2971 9.98515C23.6708 9.9433 23.8926 9.89007 24.1438 9.70171C24.2508 9.4439 24.2508 9.4439 24.1902 9.17142C24.03 8.97805 24.03 8.97805 23.7698 8.82931C23.4468 8.7808 23.4468 8.7808 23.0839 8.78838C20.1151 8.72967 17.4418 8.11874 15.0566 6.76931C14.9393 6.68957 14.8234 6.6088 14.7093 6.52692C14.4437 6.30991 14.4437 6.30991 14.0842 6.30257ZM38.445 9.65521C38.3447 9.73625 38.2465 9.81853 38.1491 9.90126C37.0722 10.7232 35.4195 10.8986 33.8407 11.0087C33.4969 11.0512 33.3417 11.0731 33.1269 11.251C33.0295 11.5064 33.0295 11.5064 33.0805 11.7813C33.2581 12.0057 33.2581 12.0057 33.6126 12.1331C34.9804 12.3226 36.9286 11.9914 38.0396 11.489C38.6446 11.0553 38.526 10.2471 38.5567 9.66499C38.5199 9.66176 38.483 9.65854 38.445 9.65521ZM13.4063 7.61728C13.2876 7.70207 13.1727 7.78947 13.0599 7.878C12.8788 8.01994 12.7069 8.15154 12.4918 8.2696C12.1314 8.47421 12.0706 8.74609 12.0346 9.06212C12.2086 10.1534 13.2943 11.1698 14.488 11.9008C15.1729 12.2785 15.9422 12.6836 16.774 12.8737C16.8238 12.8087 16.8736 12.7438 16.9249 12.6769C17.2315 12.3643 17.5984 12.2419 18.0825 12.0721C17.987 12.0387 17.987 12.0387 17.8896 12.0046C16.0176 11.3344 14.5621 10.5933 13.802 9.20721C13.5678 8.68725 13.5505 8.1582 13.5181 7.62706C13.4812 7.62383 13.4443 7.62061 13.4063 7.61728ZM18.5284 13.4088C18.2865 13.7424 18.0472 14.0763 17.8254 14.4172C17.7924 14.4676 17.7593 14.5181 17.7253 14.57C17.6601 14.6699 17.5955 14.77 17.5318 14.8704C17.3746 15.1101 17.2224 15.2947 16.9805 15.5002C16.2053 16.1657 16.3439 17.6132 16.4926 18.4528C16.762 19.5932 17.4454 20.6304 18.4896 21.5732C18.5702 21.6501 18.5702 21.6501 18.6524 21.7285C19.659 22.6262 21.3698 23.4362 22.9639 23.6575C25.403 23.9128 27.209 23.7634 29.1883 22.8145C29.2604 22.7812 29.3325 22.7479 29.4069 22.7135C30.9369 21.9423 32.1197 20.5159 32.335 19.206C32.3683 18.9561 32.3954 18.706 32.4192 18.4551C32.427 18.3738 32.4347 18.2925 32.4427 18.2087C32.4759 17.7593 32.5011 17.3451 32.2947 16.9032C32.0138 16.7223 32.0138 16.7223 31.6594 16.6043C31.1433 16.4122 30.8588 16.2719 30.5801 15.9135C30.4763 15.6999 30.4031 15.4855 30.3341 15.267C30.2146 14.8737 30.2146 14.8737 30.029 14.4913C29.8581 14.4873 29.6873 14.4836 29.5164 14.4799C29.4212 14.4777 29.3261 14.4756 29.2281 14.4734C28.9977 14.4705 28.7676 14.4719 28.5381 14.4763C28.1374 14.4766 27.7587 14.4552 27.358 14.4204C27.1478 14.4022 27.1478 14.4022 26.9334 14.3836C26.7168 14.3642 26.7168 14.3642 26.4957 14.3444C26.3513 14.3321 26.2068 14.3197 26.0579 14.307C25.9178 14.2946 25.7777 14.2823 25.6334 14.2696C25.5067 14.2584 25.38 14.2472 25.2496 14.2357C24.8766 14.1932 24.8766 14.1932 24.5067 14.1234C24.0247 14.035 23.5496 13.9848 23.0601 13.9365C22.962 13.9265 22.8639 13.9165 22.7629 13.9062C22.4514 13.8745 22.1398 13.8432 21.8282 13.812C21.4181 13.7709 21.0081 13.7294 20.5981 13.6877C20.5057 13.6786 20.4132 13.6694 20.3179 13.66C19.7132 13.5985 19.1251 13.5118 18.5284 13.4088Z" fill="#626745"/>
<path d="M16.0968 23.1917C16.2773 23.3187 16.4502 23.4508 16.6182 23.5856C17.1483 23.9913 17.6877 24.3026 18.3307 24.6246C18.439 24.6791 18.5472 24.7336 18.6588 24.7898C18.8162 24.8652 18.8162 24.8652 18.9767 24.9422C19.3837 25.2036 19.5127 25.4249 19.6942 25.7729C19.7279 25.8343 19.7617 25.8957 19.7966 25.9589C19.9069 26.1602 20.0144 26.362 20.1219 26.5638C20.1982 26.704 20.2747 26.8443 20.3514 26.9844C20.5092 27.2732 20.666 27.5622 20.8219 27.8514C21.044 28.2625 21.2703 28.6726 21.4982 29.0825C21.5334 29.1458 21.5686 29.209 21.6049 29.2742C21.6739 29.3983 21.743 29.5224 21.812 29.6464C21.9988 29.9823 22.1848 30.3184 22.3702 30.6546C22.4998 30.8896 22.6302 31.1243 22.7623 31.3586C22.8295 31.4782 22.8295 31.4782 22.898 31.6002C22.9369 31.669 22.9759 31.7377 23.016 31.8085C23.0964 31.9718 23.0964 31.9718 23.0831 32.1233C23.1568 32.1298 23.2306 32.1362 23.3066 32.1429C23.342 32.0812 23.3774 32.0196 23.4139 31.9561C23.5751 31.6994 23.7597 31.4605 23.9574 31.2173C24.0149 31.1464 24.0149 31.1464 24.0736 31.0741C24.2001 30.9182 24.3271 30.7626 24.4541 30.6069C24.5432 30.4973 24.6323 30.3877 24.7213 30.2782C24.96 29.9846 25.1992 29.6912 25.4384 29.3979C25.5919 29.2097 25.7452 29.0214 25.8984 28.8331C26.1553 28.5175 26.4123 28.2019 26.6695 27.8865C26.7684 27.7651 26.8673 27.6438 26.9662 27.5224C27.1055 27.3515 27.2449 27.1806 27.3844 27.0098C27.4251 26.9599 27.4658 26.91 27.5076 26.8585C27.6236 26.7167 27.741 26.5755 27.8587 26.4344C27.9007 26.3828 27.9426 26.3312 27.9858 26.278C28.0495 26.202 28.0495 26.202 28.1144 26.1245C28.152 26.0788 28.1897 26.0332 28.2285 25.9861C28.4665 25.7691 28.8096 25.693 29.177 25.6003C30.0333 25.3613 30.9911 25.0876 31.5787 24.593C31.9274 24.4687 32.0289 24.5059 32.4162 24.5854C32.6357 24.6391 32.8542 24.695 33.0717 24.7531C33.1723 24.7798 33.273 24.8064 33.3767 24.8338C33.6889 24.9194 33.9985 25.0088 34.3079 25.0998C34.4211 25.133 34.5343 25.1662 34.6509 25.2004C39.6474 26.6797 39.6474 26.6797 41.2519 27.7588C41.331 27.8091 41.41 27.8594 41.4914 27.9113C43.9423 29.5622 44.0631 31.715 44.2472 33.84C44.2655 34.0499 44.2843 34.2598 44.303 34.4697C44.3472 34.9654 44.3908 35.4611 44.4338 35.9567C44.4779 36.4652 44.5232 36.9737 44.5691 37.4822C44.6087 37.9218 44.6477 38.3613 44.6861 38.8008C44.7089 39.0621 44.732 39.3233 44.7557 39.5845C44.7819 39.876 44.8071 40.1675 44.8319 40.4589C44.8437 40.5859 44.8437 40.5859 44.8557 40.7155C44.8905 41.1364 44.9036 41.5541 44.8866 41.9731C44.8835 42.0527 44.8804 42.1322 44.8772 42.2141C44.7929 42.4734 44.6565 42.548 44.3365 42.6849C44.1096 42.7056 44.1096 42.7056 43.8863 42.6837C43.7756 42.6752 43.7756 42.6752 43.6627 42.6665C43.343 42.5796 43.2222 42.4562 43.0224 42.2646C42.953 42.062 42.953 42.062 42.9298 41.8393C42.9204 41.7571 42.911 41.6749 42.9014 41.5903C42.8938 41.5064 42.8863 41.4224 42.8785 41.336C42.8663 41.2201 42.8663 41.2201 42.8539 41.1019C42.8294 40.8578 42.8082 40.6138 42.7878 40.3697C42.7759 40.2322 42.7759 40.2322 42.7637 40.0919C42.7422 39.8433 42.721 39.5948 42.6999 39.3463C42.6774 39.0843 42.6545 38.8224 42.6316 38.5604C42.5539 37.6708 42.4767 36.7812 42.4007 35.8916C42.3586 35.3987 42.3159 34.9058 42.2724 34.4129C42.2496 34.1531 42.227 33.8933 42.2053 33.6334C42.1809 33.3434 42.1554 33.0534 42.1296 32.7634C42.1228 32.679 42.1159 32.5946 42.1089 32.5077C41.9724 31.0138 41.4027 29.708 39.736 28.5995C38.7723 28.0417 37.6594 27.6467 36.5379 27.2748C36.4068 27.231 36.2756 27.1871 36.1405 27.1419C34.874 26.7225 33.5876 26.3442 32.2887 25.9823C32.8096 26.9514 33.346 27.9167 33.8927 28.8802C33.9234 28.9343 33.9541 28.9884 33.9857 29.0441C34.2985 29.6018 34.2985 29.6018 34.6254 30.1561C34.6508 30.3074 34.6508 30.3074 34.6531 30.483C34.6562 30.5403 34.6593 30.5977 34.6625 30.6567C34.3689 31.2064 33.1357 31.4259 32.4127 31.6419C32.1531 31.7207 31.8935 31.7996 31.6339 31.8785C31.5031 31.9181 31.3723 31.9577 31.2375 31.9985C30.6533 32.1763 30.0722 32.3582 29.4915 32.5409C29.3824 32.5752 29.2733 32.6094 29.1609 32.6448C28.5243 32.8451 27.8893 33.0474 27.2555 33.2513C26.9556 33.3477 26.6553 33.4436 26.355 33.5394C25.9421 33.6712 25.5317 33.8057 25.1219 33.9414C24.9159 34.0082 24.7098 34.075 24.5037 34.1417C24.4102 34.1734 24.3167 34.205 24.2204 34.2377C23.7528 34.3871 23.3348 34.5082 22.7866 34.4318C22.2381 34.2814 21.7852 34.0137 21.3214 33.7631C21.1418 33.6685 20.9623 33.574 20.7828 33.4795C20.5963 33.381 20.4104 33.282 20.2248 33.1828C19.759 32.9341 19.2894 32.6891 18.8199 32.4438C18.4727 32.2623 18.1262 32.0803 17.7796 31.8982C17.0772 31.5297 16.3712 31.1647 15.6648 30.8001C13.17 29.5118 13.17 29.5118 12.5369 29.1396C12.4717 29.103 12.4066 29.0664 12.3395 29.0287C12.1414 28.784 12.2129 28.5328 12.2746 28.277C12.3908 28.0881 12.5058 27.9248 12.6544 27.7506C12.6934 27.7028 12.7324 27.655 12.7725 27.6057C12.8983 27.4521 13.0263 27.2996 13.1545 27.147C13.2413 27.0416 13.328 26.9363 13.4146 26.8308C13.626 26.574 13.8392 26.3179 14.0533 26.0622C14.2185 25.8648 14.3825 25.6668 14.5467 25.4689C14.7959 25.1692 15.0473 24.8704 15.3006 24.5724C14.3212 24.5782 13.3959 24.6886 12.4526 24.821C12.2104 24.8549 11.9679 24.8878 11.7253 24.9206C9.10598 25.279 6.79019 25.6829 5.36202 27.3021C4.93389 27.8352 4.74722 28.3924 4.58726 28.997C4.56263 29.0868 4.538 29.1767 4.51263 29.2693C4.45928 29.4645 4.40631 29.6599 4.354 29.8553C4.27055 30.167 4.18547 30.4785 4.10028 30.7899C3.80746 31.8627 3.5215 32.9367 3.23871 34.0112C3.12033 34.461 3.00125 34.9107 2.8821 35.3604C2.78303 35.7347 2.68523 36.1092 2.58836 36.4838C2.52746 36.7184 2.46554 36.9527 2.40337 37.187C2.37466 37.2961 2.34638 37.4053 2.31858 37.5145C2.28033 37.6646 2.24039 37.8143 2.20037 37.9641C2.17849 38.0481 2.1566 38.1322 2.13405 38.2188C2.02513 38.489 1.86872 38.7623 1.54752 38.9413C1.30242 38.9381 1.30242 38.9381 1.00081 38.9174C0.852243 38.9086 0.852243 38.9086 0.700679 38.8997C0.430309 38.8436 0.430309 38.8436 0.245653 38.6924C0.0204083 38.3634 0.0333952 38.1307 0.124013 37.7898C0.1456 37.7071 0.167188 37.6244 0.189429 37.5391C0.213876 37.4488 0.238322 37.3584 0.26351 37.2653C0.288695 37.1698 0.313881 37.0742 0.33983 36.9758C0.409008 36.7136 0.479217 36.4516 0.549669 36.1896C0.608611 35.9701 0.667058 35.7505 0.725508 35.5309C0.863747 35.0116 1.00283 34.4924 1.14244 33.9733C1.28565 33.4407 1.42751 32.9079 1.56866 32.3749C1.69036 31.9156 1.81292 31.4565 1.93614 30.9974C2.0095 30.7241 2.08256 30.4507 2.1548 30.1772C2.72657 28.0153 3.31885 26.0469 6.01347 24.7283C7.81069 23.9628 14.1044 22.3695 16.0968 23.1917Z" fill="#626745"/>
<path d="M20.939 19.2236C21.2203 19.2988 21.345 19.3911 21.5457 19.5468C21.8103 19.7516 21.8933 19.8037 22.282 19.8975C22.6966 19.8759 22.852 19.8262 23.1936 19.691C23.6761 19.5077 24.0153 19.4657 24.5813 19.5369C24.9923 19.6429 25.269 19.8256 25.5956 20.0264C25.8308 20.17 25.8308 20.17 26.2201 20.2421C26.6826 20.2132 26.8618 20.1006 27.2108 19.9166C27.4593 19.8181 27.6015 19.8081 27.8959 19.8257C28.3177 19.9103 28.3177 19.9103 28.5871 20.0484C28.7567 20.2776 28.8052 20.4534 28.7635 20.7007C28.5607 21.1086 27.9892 21.3752 27.4354 21.5506C26.7038 21.699 25.7851 21.6231 25.0712 21.3864C24.9101 21.3173 24.75 21.2468 24.5915 21.1748C24.2709 21.0469 24.052 21.0653 23.7097 21.1102C23.5957 21.1396 23.4817 21.169 23.3642 21.1992C22.6586 21.3488 21.7833 21.2484 21.0755 21.0613C20.4979 20.8327 20.0463 20.4806 19.7474 20.0765C19.6746 19.8297 19.7101 19.717 19.8005 19.4705C20.0985 19.1877 20.4189 19.1636 20.939 19.2236Z" fill="#636746"/>
<path d="M33.8238 39.3252C34.1001 39.5085 34.233 39.6118 34.2848 39.8688C34.2789 39.9415 34.2731 40.0142 34.2671 40.0891C34.2607 40.1689 34.2543 40.2486 34.2477 40.3308C34.2387 40.4134 34.2297 40.4961 34.2205 40.5812C34.215 40.6642 34.2095 40.7472 34.2038 40.8326C34.1962 40.9123 34.1887 40.9919 34.1809 41.0739C34.174 41.1466 34.1672 41.2192 34.1601 41.294C34.0645 41.538 33.9148 41.6162 33.6117 41.7493C33.3005 41.7777 33.0238 41.7413 32.7179 41.6711C32.3706 41.4627 32.2634 41.3143 32.2124 41.0162C32.2134 40.8164 32.221 40.6205 32.2362 40.4219C32.2385 40.3697 32.2407 40.3175 32.243 40.2638C32.2724 39.8785 32.4044 39.6214 32.7 39.3032C33.06 39.2152 33.4498 39.2392 33.8238 39.3252Z" fill="#636847"/>
<path d="M12.163 37.4002C12.4908 37.4754 12.6199 37.5888 12.7934 37.7905C12.9185 38.0933 12.878 38.3938 12.8547 38.6976C12.8525 38.7498 12.8502 38.802 12.8479 38.8558C12.8185 39.241 12.6865 39.4981 12.391 39.8163C12.031 39.9043 11.6412 39.8803 11.2671 39.7944C10.9909 39.6111 10.858 39.5077 10.8061 39.2507C10.812 39.178 10.8178 39.1053 10.8239 39.0304C10.8303 38.9507 10.8367 38.8709 10.8432 38.7888C10.8522 38.7061 10.8612 38.6235 10.8704 38.5383C10.876 38.4553 10.8815 38.3724 10.8872 38.2869C10.8985 38.1675 10.8985 38.1675 10.91 38.0456C10.9169 37.973 10.9237 37.9004 10.9308 37.8256C11.1032 37.3855 11.5582 37.3257 12.163 37.4002Z" fill="#636848"/>
<path d="M28.5849 16.8443C28.6645 16.8501 28.7441 16.8559 28.8261 16.8618C29.2111 16.8975 29.4377 16.9377 29.7394 17.1194C29.9042 17.3124 29.9486 17.3985 29.9251 17.6104C29.9219 17.6605 29.9187 17.7106 29.9153 17.7622C29.8047 17.9852 29.667 18.0578 29.3693 18.1724C29.0504 18.1752 28.7865 18.1643 28.4723 18.1321C28.3927 18.1263 28.3131 18.1206 28.2311 18.1146C27.8461 18.079 27.6195 18.0388 27.3178 17.857C27.153 17.6641 27.1086 17.5779 27.1321 17.366C27.1369 17.2909 27.1369 17.2909 27.1419 17.2142C27.3749 16.7447 27.9433 16.7786 28.5849 16.8443Z" fill="#636845"/>
<path d="M20.5415 16.1407C20.6211 16.1465 20.7007 16.1522 20.7827 16.1582C21.1676 16.1938 21.3942 16.234 21.6959 16.4158C21.8607 16.6088 21.9051 16.6949 21.8817 16.9068C21.8784 16.9569 21.8752 17.007 21.8719 17.0586C21.7612 17.2816 21.6235 17.3542 21.3259 17.4688C21.007 17.4715 20.7431 17.4607 20.4288 17.4285C20.3492 17.4227 20.2696 17.4169 20.1876 17.411C19.8027 17.3753 19.5761 17.3351 19.2744 17.1534C19.1095 16.9604 19.0652 16.8743 19.0886 16.6624C19.0935 16.5873 19.0935 16.5873 19.0984 16.5106C19.3314 16.041 19.8998 16.075 20.5415 16.1407Z" fill="#636845"/>
<path d="M23.0977 38.3889C23.3671 38.5269 23.3671 38.5269 23.5181 38.731C23.5798 39.0433 23.5414 39.2646 23.2809 39.5118C22.8719 39.6379 22.5419 39.622 22.0979 39.5228C21.8286 39.3847 21.8286 39.3847 21.6776 39.1806C21.6158 38.8683 21.6543 38.647 21.9147 38.3999C22.3238 38.2737 22.6538 38.2897 23.0977 38.3889Z" fill="#626746"/>
<path d="M23.3094 35.9641C23.5788 36.1021 23.5788 36.1021 23.7298 36.3062C23.7915 36.6185 23.7531 36.8398 23.4926 37.0869C23.0835 37.2131 22.7536 37.1972 22.3096 37.098C22.0402 36.9599 22.0402 36.9599 21.8892 36.7558C21.8275 36.4435 21.866 36.2222 22.1264 35.9751C22.5355 35.8489 22.8654 35.8648 23.3094 35.9641Z" fill="#626746"/>
</g>
</svg>
