<svg width="58" height="55" viewBox="0 0 58 55" fill="none" xmlns="http://www.w3.org/2000/svg">
<g opacity="0.25">
<path d="M44.3706 8.05929L42.1147 8.4854L42.8661 7.90546C43.1197 7.63235 43.0327 7.50578 42.9612 7.21691L42.9161 7.1891C42.7098 7.33065 42.4952 7.47265 42.2764 7.59717C41.4726 8.05681 40.3728 8.61633 39.5117 8.94559C39.2257 9.05308 38.6642 9.12593 38.3264 9.21775C35.9808 9.84775 33.7357 10.8734 31.5912 12.0242C30.4188 12.6548 29.2699 13.3894 28.0255 13.8594C27.7024 13.9814 27.3655 14.0622 27.0362 14.1498L26.4846 15.7903C26.5037 15.3985 26.5624 15.0017 26.5795 14.6056C26.6075 13.9907 26.5908 13.2927 26.4756 12.7032C26.4217 12.4288 26.3338 12.1711 26.2496 11.908C27.4543 11.1799 28.7449 10.49 29.8786 9.65952C30.0544 9.53287 30.7741 9.01288 30.6717 8.80311C30.4898 8.64992 30.1343 8.71837 29.8847 8.7583C28.5352 8.96111 27.106 9.51767 25.7731 9.87073C24.9493 10.0911 24.6657 9.60865 24.1093 9.261C23.5216 8.89659 23.017 8.81009 22.2594 8.99815C21.2556 9.24584 20.3252 9.77787 19.7978 10.6274C19.1525 11.6661 18.6125 12.7442 17.7941 13.7126C16.7699 14.4487 15.7 15.1341 14.7167 15.9197C14.4334 16.145 12.8563 17.3464 14.029 17.2121C14.594 17.1464 15.2146 16.8846 15.7702 16.7221L19.1232 15.4336C19.3595 16.4568 20.3217 17.0761 21.2466 17.5588C21.8019 17.8483 22.3921 18.0887 22.9719 18.3378L22.5718 18.3106C21.5155 18.1747 20.488 17.943 19.5558 17.5315C18.3856 18.908 16.7623 19.7691 15.0297 20.3669C12.5107 21.2362 9.85982 21.6415 7.40489 22.7285C6.63943 22.8013 5.87353 22.9204 5.10885 22.9732C4.08263 23.0415 3.02261 22.9111 2.00732 23.312C2.30219 23.7054 2.8675 23.8085 3.36573 23.9248L4.59296 24.036C4.07083 24.1679 3.54006 24.2952 3.03826 24.499C2.98327 24.5845 2.65132 25.184 2.67943 25.2201C3.09101 25.3786 3.61095 25.3758 4.07866 25.3434C5.35157 25.2509 6.59869 24.8382 7.84039 24.4834L8.67347 27.1828C9.88783 26.7719 11.1059 26.3557 12.3132 25.9305C14.1459 25.2874 16.2402 24.3834 18.1042 24.0115C19.8587 23.6609 20.4694 24.1155 21.3087 25.3408C22.2755 26.7583 23.0911 28.5555 23.6443 30.1855C24.1827 31.7764 24.4857 33.4536 24.5892 35.1571L25.9359 30.966L25.989 30.9543L27.0087 33.463C26.9982 33.4415 27.004 33.4102 27.0139 33.3875C27.1715 32.9692 27.2913 32.5425 27.4437 32.1267C27.8406 31.0224 28.2801 29.9151 28.8689 28.8595C30.7988 28.5924 32.5065 29.3568 34.1429 29.9621C33.66 29.1144 33.1238 28.2908 32.697 27.4158L32.6848 27.3346C33.3327 27.7923 34.0661 28.1497 34.7826 28.5153C35.5612 28.9092 36.3534 29.2877 37.1458 29.6626C37.6362 29.8965 38.136 30.1366 38.6444 30.3386L37.1961 27.8433C35.6797 24.9453 34.0777 22.0876 32.6152 19.158C32.4253 18.7686 32.2837 18.5903 32.4367 18.1066C32.779 17.0112 34.7135 15.7795 35.7393 15.1244C37.2336 14.1626 38.8064 13.3012 40.359 12.4248C40.4595 11.7603 40.3264 11.1209 40.1923 10.4926C40.756 10.3813 41.3333 10.2633 41.8966 10.2803C41.9794 10.2862 42.3818 10.3354 42.4102 10.3162L42.7036 9.74973L42.2595 9.61061L44.2869 8.85833L44.3728 8.0516L44.3706 8.05929Z" fill="#636846"/>
<path d="M31.6846 30.0133C31.5498 29.8015 31.2496 29.7292 30.9721 29.8325C30.6945 29.9358 30.2654 30.1594 29.9883 30.2981C29.5777 30.5037 29.0586 30.7195 29.1927 31.2055L36.0069 45.1766C36.0482 45.2614 36.2826 45.4014 36.3779 45.3727L38.4174 44.378C38.497 44.3214 38.5242 44.0022 38.471 43.9232L31.6855 30.0109L31.6846 30.0133Z" fill="#636846"/>
</g>
</svg>
