<svg width="58" height="55" viewBox="0 0 58 55" fill="none" xmlns="http://www.w3.org/2000/svg">
<g opacity="0.25">
<path d="M53.6067 27.7813L51.882 26.266L52.8016 26.5011C53.173 26.5328 53.2192 26.3863 53.4028 26.1521L53.3969 26.0994C53.1584 26.024 52.9144 25.9423 52.6815 25.8466C51.8244 25.4961 50.7065 24.974 49.9168 24.4982C49.6561 24.3389 49.253 23.9413 48.9726 23.7317C47.0321 22.2711 44.8417 21.1335 42.6145 20.1521C41.3958 19.6164 40.1095 19.1634 38.9731 18.4721C38.678 18.2926 38.407 18.0768 38.1351 17.8713L36.5028 18.4466C36.8233 18.2205 37.1722 18.0225 37.4948 17.792C37.9966 17.4356 38.5363 16.9926 38.93 16.5389C39.113 16.3276 39.262 16.0996 39.4175 15.8713C40.7329 16.3723 42.0711 16.9646 43.4235 17.3467C43.6315 17.4072 44.4844 17.6542 44.5867 17.4444C44.5954 17.2068 44.3226 16.9688 44.1374 16.7966C43.1468 15.8581 41.8283 15.0745 40.7295 14.2415C40.0487 13.728 40.2542 13.2075 40.1856 12.5551C40.111 11.8676 39.8684 11.4167 39.2539 10.9355C38.4407 10.297 37.4486 9.8914 36.4545 9.99884C35.2386 10.1298 34.0566 10.368 32.7897 10.3192C31.5791 9.96536 30.3802 9.54427 29.1558 9.25305C28.8039 9.16858 26.8862 8.66546 27.714 9.50682C28.1136 9.91161 28.702 10.2395 29.1721 10.5773L32.2518 12.4262C31.591 13.2423 31.6953 14.3818 31.8844 15.4079C31.9982 16.0237 32.1721 16.6368 32.3328 17.247L32.1079 16.915C31.5646 15.999 31.1146 15.0466 30.865 14.0586C29.0599 13.984 27.3819 13.235 25.8442 12.2377C23.6082 10.7879 21.6568 8.9485 19.2888 7.68325C18.7602 7.12484 18.1948 6.59467 17.6824 6.02459C16.9968 5.25796 16.447 4.34234 15.506 3.78911C15.3775 4.26366 15.6443 4.77263 15.8594 5.23685L16.5273 6.27236C16.1019 5.94214 15.6749 5.60223 15.2053 5.33229C15.104 5.34161 14.4273 5.4491 14.4162 5.49348C14.5446 5.91543 14.8669 6.32342 15.1804 6.672C16.037 7.6181 17.13 8.3468 18.1741 9.10684L16.5598 11.4252C17.6312 12.1292 18.7091 12.8328 19.7875 13.5224C21.4225 14.5707 23.4243 15.6644 24.865 16.9042C26.2214 18.071 26.2392 18.8321 25.7904 20.2479C25.2686 21.8824 24.3545 23.6316 23.4106 25.0711C22.4885 26.4748 21.3534 27.7461 20.0747 28.8765L24.2064 27.3573L24.2484 27.392L22.8992 29.7401C22.9097 29.7185 22.9379 29.7038 22.9619 29.6977C23.3886 29.5643 23.7985 29.396 24.2201 29.2601C25.3346 28.893 26.4778 28.5577 27.6721 28.3717C29.0707 29.728 29.5197 31.5444 30.0502 33.2065C30.421 32.3041 30.7398 31.3746 31.1666 30.4995L31.223 30.4398C31.2612 31.2322 31.4312 32.0301 31.5842 32.8198C31.7531 33.676 31.9426 34.5332 32.1351 35.3884C32.2526 35.9189 32.3711 36.4605 32.5249 36.9856L33.5996 34.308C34.9496 31.3289 36.2153 28.3071 37.6235 25.351C37.8134 24.9616 37.8667 24.7403 38.342 24.5631C39.416 24.1583 41.5775 24.9244 42.7253 25.3295C44.4032 25.9149 46.0503 26.6239 47.6968 27.3078C48.2824 26.9779 48.7042 26.4793 49.1168 25.9868C49.5516 26.3625 50 26.7449 50.3334 27.1992C50.3797 27.268 50.5886 27.6154 50.6213 27.626L51.2483 27.5085L51.0845 27.0728L52.9255 28.2073L53.6141 27.7783L53.6067 27.7813Z" fill="#636846"/>
<path d="M28.4962 31.3007C28.5801 31.0641 28.4523 30.7831 28.2 30.6279C27.9477 30.4729 27.5073 30.2723 27.2274 30.1394C26.8127 29.9424 26.323 29.6662 26.0226 30.0711L19.2084 44.0422C19.167 44.127 19.201 44.3979 19.2823 44.4553L21.3218 45.4501C21.4154 45.4779 21.6837 45.3029 21.7132 45.2123L28.4986 31.3L28.4962 31.3007Z" fill="#636846"/>
</g>
</svg>
