<svg width="54" height="50" viewBox="0 0 54 50" fill="none" xmlns="http://www.w3.org/2000/svg">
<g opacity="0.25">
<path d="M17.2184 27.5161C15.197 26.9364 13.1466 28.1308 12.5742 30.1269C12.0018 32.1231 13.1568 34.2366 15.1292 34.8021C17.1015 35.3677 19.201 34.1874 19.7734 32.1913C20.396 30.2114 19.2415 28.0962 17.2184 27.5161Z" fill="#636846"/>
<path d="M25.8542 32.585C25.9853 31.7574 26.0019 30.9525 25.9062 30.1691L26.1108 30.011C26.3804 29.8178 26.4805 29.4686 26.3052 29.1478L25.2823 27.5057C24.9602 26.7649 24.5907 26.0105 24.1273 25.3922L24.248 25.1563C24.383 24.8708 24.2869 24.4653 24.0051 24.3308L22.2944 23.4085C21.6901 22.911 20.9576 22.4842 20.1978 22.1589L20.1702 21.8786C20.158 21.5509 19.8704 21.2517 19.5311 21.3174L17.5832 21.4073C16.7648 21.2801 15.9682 21.2684 15.1921 21.3701L15.0369 21.1644C14.8474 20.8933 14.5023 20.7944 14.1837 20.9735L12.5499 22.0169C11.8146 22.347 11.0654 22.725 10.4504 23.1971L10.2177 23.0767C9.93593 22.9422 9.5339 23.0418 9.39894 23.3273L8.47514 25.0615C7.97883 25.6751 7.55168 26.4178 7.2248 27.1874L6.94937 27.2159C6.62488 27.2303 6.32684 27.5228 6.38978 27.8651L6.46758 29.8346C6.33644 30.6622 6.31984 31.467 6.41557 32.2504L6.21097 32.4085C5.94139 32.6017 5.84125 32.951 6.01654 33.2717L7.03897 34.9155C7.36107 35.6564 7.73055 36.4108 8.19398 37.029L8.07326 37.2649C7.9383 37.5504 8.03437 37.956 8.31614 38.0905L10.0269 39.0127C10.6312 39.5102 11.3637 39.937 12.1234 40.2624L12.1499 40.5404C12.1621 40.8682 12.4497 41.1674 12.7889 41.1016L14.7369 41.0117C15.5553 41.139 16.3519 41.1506 17.128 41.0489L17.2832 41.2546C17.4727 41.5257 17.8178 41.6247 18.1364 41.4456L19.7701 40.4022C20.5055 40.0721 21.2547 39.694 21.8696 39.2219L22.1024 39.3424C22.3841 39.4769 22.7862 39.3773 22.9211 39.0918L23.8449 37.3576C24.3412 36.744 24.7684 36.0013 25.0953 35.2316L25.3707 35.2032C25.6952 35.1888 25.9932 34.8963 25.9303 34.554L25.8542 32.585ZM14.3998 37.3488C11.0455 36.3869 9.12127 32.8634 10.0942 29.4703C11.0677 26.0755 14.5678 24.1091 17.9205 25.0705C21.2749 26.0323 23.1991 29.5558 22.2261 32.949C21.2544 36.3443 17.7542 38.3106 14.3998 37.3488Z" fill="#636846"/>
<path d="M39.179 37.4893C36.5165 36.7258 33.7165 38.2999 32.9439 40.9945C32.1712 43.6891 33.7117 46.5078 36.3741 47.2712C39.0365 48.0346 41.8365 46.4605 42.6092 43.766C43.3835 41.0719 41.8431 38.2532 39.179 37.4893ZM37.2326 44.277C36.1974 43.9802 35.6019 42.8905 35.9023 41.8428C36.2028 40.7951 37.2852 40.1865 38.3205 40.4834C39.3557 40.7802 39.9512 41.8699 39.6508 42.9176C39.3498 43.967 38.2695 44.5743 37.2326 44.277Z" fill="#636846"/>
<path d="M46.3469 34.0848C47.7203 30.9677 49.1102 27.7997 50.4836 24.6828C50.6328 24.3476 49.9162 23.8717 49.9162 23.8717L43.0258 21.4642L43.3695 20.2658C43.5451 20.2087 43.7514 20.0511 43.8088 19.8508L44.4102 17.7537C44.4676 17.5534 44.4264 17.3267 44.2575 17.1689L44.5294 16.2205C44.6296 15.8712 44.4543 15.5505 44.1092 15.4515L43.8132 15.3666C43.4681 15.2677 43.1495 15.4468 43.0493 15.7961L42.7774 16.7445C42.6017 16.8016 42.3954 16.9592 42.338 17.1595L41.7367 19.2567C41.6792 19.457 41.7204 19.6837 41.8893 19.8414L41.5747 20.9388L35.6721 18.8145C36.1935 15.5087 36.6155 12.1727 37.0888 8.8494C37.1768 8.17243 36.8404 7.48126 36.3482 7.34012L19.333 2.46109C18.8391 2.31946 18.1893 2.72785 17.9051 3.34856C15.8409 7.94258 11.258 15.9194 9.45975 19.0241C6.58047 20.6829 4.27775 23.3188 3.09222 26.7064L4.67041 27.1589C6.80476 21.0179 13.3505 17.5477 19.6138 19.3437C25.3347 20.9841 28.9162 26.5484 28.3785 32.336L28.0471 33.8621L34.6054 35.7426C36.1679 34.9475 38.0445 34.7297 39.8698 35.2531C41.695 35.7765 43.122 36.9416 44.075 38.458L45.0121 38.7267C45.3572 38.8257 45.6758 38.6465 45.776 38.2973L46.7636 34.8528C46.7531 34.5256 46.6287 34.2193 46.3469 34.0848ZM21.9167 17.0862L14.8648 15.0641L19.8777 5.21093L26.1416 7.00705L23.5505 17.7159C23.0376 17.4614 22.5088 17.2559 21.9167 17.0862ZM32.7219 17.7538L31.4441 16.2535L33.0656 14.8824C33.2065 14.7616 33.1452 14.4199 32.9414 14.1984L32.8706 14.0687C32.6811 13.7976 32.336 13.6987 32.1947 13.8212L27.9196 17.5645C27.7787 17.6853 27.84 18.0271 28.0438 18.2486L28.1625 18.3901C28.352 18.6612 28.6971 18.7601 28.8384 18.6376L30.4599 17.2665L31.8215 18.8446C31.666 19.0167 31.56 19.2012 31.531 19.3022C31.3426 20.7063 31.1378 22.1612 30.9003 23.5512C29.918 23.8105 27.606 20.337 24.4033 18.2848L27.0152 7.31155L35.4494 9.73002L34.3209 18.3198L32.7219 17.7538ZM45.0298 29.9261L36.0544 27.3524C35.8564 27.2956 35.752 27.1045 35.8094 26.9042C35.8669 26.7039 36.0567 26.5971 36.2546 26.6539L45.2808 29.2421C45.4787 29.2989 45.5832 29.49 45.5257 29.6903C45.4175 29.876 45.2278 29.9828 45.0298 29.9261ZM45.6022 27.9299L36.6267 25.3562C36.4288 25.2995 36.3244 25.1084 36.3818 24.9081C36.4392 24.7078 36.6291 24.601 36.827 24.6578L45.8532 27.246C46.0511 27.3027 46.1555 27.4939 46.0981 27.6942C45.9904 27.8782 45.8001 27.9867 45.6022 27.9299ZM46.1893 25.8824L37.2139 23.3087C37.0159 23.252 36.9115 23.0609 36.9689 22.8605C37.0264 22.6602 37.2162 22.5535 37.4141 22.6103L46.4403 25.1985C46.6382 25.2552 46.7427 25.4464 46.6852 25.6467C46.577 25.8324 46.3872 25.9392 46.1893 25.8824Z" fill="#636846"/>
</g>
</svg>
