<svg width="54" height="50" viewBox="0 0 54 50" fill="none" xmlns="http://www.w3.org/2000/svg">
<g opacity="0.25">
<path d="M20.0666 32.311C18.0452 32.8906 16.9393 34.99 17.5117 36.9862C18.084 38.9823 20.1835 40.1626 22.1559 39.597C24.1282 39.0315 25.2832 36.918 24.7108 34.9218C24.1897 32.9129 22.0897 31.7309 20.0666 32.311Z" fill="#636846"/>
<path d="M30.0764 32.0338C29.7491 31.2624 29.3366 30.5711 28.8403 29.9574L28.9301 29.7149C29.0563 29.4083 28.9561 29.059 28.6375 28.8799L26.8998 28.0294C26.2341 27.5718 25.521 27.1278 24.8004 26.8491L24.7777 26.5851C24.7409 26.2714 24.4445 25.9784 24.1343 26.0136L22.1948 26.1381C21.4187 26.0364 20.5713 26.0626 19.7546 26.1894L19.5826 25.9663C19.3986 25.6949 18.9961 25.5935 18.7433 25.829L17.139 26.9375C16.3775 27.2633 15.6958 27.6756 15.0915 28.1731L14.8509 28.0809C14.5465 27.9514 14.2014 28.0504 14.0261 28.3711L13.1935 30.1217C12.7448 30.7913 12.3099 31.5089 12.0385 32.2352L11.7773 32.2563C11.4671 32.2916 11.1789 32.5891 11.2158 32.9028L11.3513 34.863C11.2556 35.6463 11.2869 36.5026 11.4175 37.3285L11.1991 37.4986C10.9315 37.6827 10.8337 38.0887 11.0685 38.3456L12.1782 39.9746C12.5055 40.746 12.9179 41.4373 13.4143 42.0509L13.3245 42.2934C13.1983 42.6001 13.2984 42.9494 13.6171 43.1285L15.3552 43.9807C16.021 44.4383 16.7341 44.8823 17.4547 45.161L17.4773 45.425C17.5142 45.7387 17.8105 46.0317 18.1208 45.9965L20.0603 45.872C20.8364 45.9737 21.6838 45.9475 22.5005 45.8207L22.6703 46.0426C22.8543 46.314 23.2568 46.4154 23.5096 46.1798L25.1139 45.0713C25.8754 44.7455 26.5571 44.3333 27.1614 43.8358L27.402 43.928C27.7064 44.0575 28.0515 43.9585 28.2268 43.6377L29.0594 41.8872C29.5081 41.2176 29.943 40.5 30.2144 39.7737L30.4756 39.7525C30.7858 39.7173 31.074 39.4198 31.0371 39.1061L30.9016 37.1459C30.9973 36.3625 30.966 35.5063 30.8353 34.6804L31.0538 34.5103C31.3214 34.3261 31.4191 33.9202 31.1844 33.6633L30.0764 32.0338ZM22.887 42.1436C19.5327 43.1054 16.0337 41.137 15.0607 37.7438C14.0872 34.349 16.0135 30.8267 19.3662 29.8653C22.7206 28.9035 26.2196 30.8719 27.1925 34.2651C28.1677 37.6594 26.2414 41.1817 22.887 42.1436Z" fill="#636846"/>
<path d="M43.9752 29.1312C41.3128 29.8947 39.7724 32.7134 40.545 35.4079C41.3177 38.1025 44.1177 39.6766 46.7802 38.9132C49.4426 38.1497 50.983 35.331 50.2104 32.6364C49.4394 29.9414 46.6393 28.3673 43.9752 29.1312ZM45.9216 35.919C44.8864 36.2158 43.8039 35.6073 43.5035 34.5596C43.203 33.5119 43.7986 32.4222 44.8338 32.1253C45.869 31.8285 46.9515 32.437 47.2519 33.4847C47.5528 34.5341 46.9585 35.6217 45.9216 35.919Z" fill="#636846"/>
<path d="M48.2499 22.4458C47.7629 19.0746 47.2628 15.6515 46.7757 12.2804C46.7247 11.9171 45.8647 11.8932 45.8647 11.8932L38.7456 13.5029L38.402 12.3045C38.5207 12.163 38.6121 11.92 38.5547 11.7197L37.9533 9.62257C37.8959 9.42227 37.7408 9.25182 37.514 9.20757L37.242 8.25913C37.1419 7.90989 36.8232 7.73076 36.4781 7.82971L36.1821 7.9146C35.837 8.01354 35.6618 8.3343 35.7619 8.68355L36.0339 9.63198C35.9152 9.77347 35.8237 10.0165 35.8812 10.2167L36.4825 12.3139C36.54 12.5142 36.695 12.6847 36.9219 12.7289L37.2365 13.8263L31.1052 15.1527C29.7955 12.0729 28.3856 9.02018 27.0259 5.95103C26.7418 5.33032 26.0903 4.92242 25.598 5.06356L8.58285 9.94259C8.08893 10.0842 7.75428 10.7749 7.84221 11.4519C8.5261 16.4417 8.86666 25.635 8.98689 29.2208C7.42419 32.1534 6.8682 35.609 7.65793 39.1101L9.23612 38.6575C7.79192 32.3186 11.504 25.907 17.7674 24.111C23.4882 22.4706 29.4742 25.2914 32.0852 30.4845L32.6128 31.9544L39.1711 30.0738C40.0749 28.5715 41.5509 27.3923 43.3762 26.8689C45.2014 26.3456 47.029 26.5775 48.6407 27.3584L49.5778 27.0897C49.9229 26.9908 50.0982 26.67 49.998 26.3208L49.0103 22.8763C48.828 22.6044 48.5602 22.4106 48.2499 22.4458ZM18.5241 20.9762L11.4721 22.9983L10.502 11.9859L16.7658 10.1898L20.2433 20.6445C19.6735 20.7004 19.1161 20.8064 18.5241 20.9762ZM28.0412 15.8165L26.1626 15.2213L26.8111 13.1993C26.8665 13.0222 26.6334 12.7648 26.3433 12.685L26.2145 12.6126C25.9101 12.4831 25.565 12.5821 25.5101 12.7608L23.8682 18.2008C23.8128 18.3779 24.0459 18.6353 24.3361 18.7151L24.5117 18.7722C24.8161 18.9017 25.1612 18.8028 25.2161 18.624L25.8647 16.602L27.8556 17.2186C27.815 17.4471 27.8229 17.6597 27.8518 17.7607C28.4361 19.0513 29.0333 20.3937 29.5685 21.6983C28.8729 22.4387 25.0716 20.7182 21.2679 20.675L17.6681 9.98504L26.1023 7.56657L29.6971 15.4492L28.0412 15.8165ZM44.9292 19.617L35.9537 22.1906C35.7558 22.2474 35.566 22.1406 35.5085 21.9403C35.4511 21.74 35.5555 21.5489 35.7534 21.4921L44.7796 18.9039C44.9775 18.8472 45.1674 18.9539 45.2248 19.1542C45.2315 19.3691 45.1271 19.5602 44.9292 19.617ZM44.3568 17.6208L35.3814 20.1945C35.1834 20.2512 34.9936 20.1445 34.9361 19.9442C34.8787 19.7439 34.9832 19.5528 35.1811 19.496L44.2072 16.9078C44.4051 16.8511 44.595 16.9578 44.6524 17.1581C44.6586 17.3712 44.5547 17.5641 44.3568 17.6208ZM43.7697 15.5733L34.7942 18.147C34.5963 18.2037 34.4065 18.097 34.349 17.8967C34.2916 17.6964 34.396 17.5053 34.594 17.4485L43.6201 14.8603C43.818 14.8036 44.0079 14.9103 44.0653 15.1106C44.072 15.3254 43.9676 15.5166 43.7697 15.5733Z" fill="#636846"/>
</g>
</svg>
