<svg width="45" height="39" viewBox="0 0 45 39" fill="none" xmlns="http://www.w3.org/2000/svg">
<path opacity="0.25" fill-rule="evenodd" clip-rule="evenodd" d="M23.9471 37.5916V32.6997C23.9471 32.3558 23.7828 32.0414 23.5205 31.8137L23.5223 31.8121C22.9541 31.3207 22.0424 31.3207 21.4761 31.8121L21.478 31.8137C21.2156 32.0413 21.0514 32.3558 21.0514 32.6997V37.5899H19.428V32.6997C19.428 31.966 19.7734 31.2995 20.3303 30.818C20.3511 30.818 21.1212 30.0351 22.4992 30.0351C23.8791 30.0351 24.6493 30.818 24.6682 30.818C25.225 31.3011 25.5705 31.9677 25.5705 32.6997V37.5899L23.9471 37.5916ZM0 37.5916V39H45V37.5916H32.3603L28.7096 22.867L23.3127 17.5869H21.6855L16.2868 22.867L12.636 37.5916H0ZM26.3309 11.6176L38.31 2.40069L35.5445 0.0014255L24.919 10.3943C25.4891 10.7055 25.9704 11.1246 26.3309 11.6176ZM26.3309 15.8168L38.31 25.0353L35.5445 27.4346L24.919 17.0434C25.4891 16.7306 25.9704 16.3114 26.3309 15.8168ZM20.0787 17.0434L9.45319 27.4363L6.68774 25.0371L18.6668 15.8168C19.0274 16.3114 19.5086 16.729 20.0787 17.0434ZM18.6667 11.6179C19.0273 11.1233 19.5086 10.7057 20.0787 10.3929L9.45319 0L6.68774 2.4009L18.6667 11.6179ZM24.5565 11.934C25.691 12.9199 25.6929 14.5167 24.5565 15.5025C22.7293 17.0878 19.5921 15.9611 19.5921 13.7174C19.5903 11.477 22.7294 10.3486 24.5565 11.934Z" fill="#636846"/>
</svg>
