<svg width="55" height="51" viewBox="0 0 55 51" fill="none" xmlns="http://www.w3.org/2000/svg">
<g opacity="0.25">
<path d="M40.9057 9.71105C41.1194 9.92474 41.2607 10.1161 41.346 10.3519C41.2916 10.548 41.232 10.74 41.1656 10.9321C41.1477 10.9854 41.1298 11.0388 41.1113 11.0938C41.067 11.2255 41.0219 11.3571 40.9767 11.4886C41.0697 11.5525 41.0697 11.5525 41.1645 11.6177C42.2135 12.4029 42.8195 13.4694 42.9482 14.4026C42.9132 14.9206 42.7129 15.3836 42.5375 15.8613C42.3465 16.4121 42.3217 16.8162 42.5256 17.439C42.7117 18.0797 42.6133 18.7025 42.5619 19.3093C42.4585 20.613 42.8791 21.8397 43.4629 23.2021C43.8181 24.0385 44.1259 24.8819 44.1524 25.6997C44.1558 25.7782 44.1592 25.8568 44.1627 25.9377C44.1574 26.3826 44.0976 26.7704 43.9381 27.1742C43.6307 28.0512 44.1343 28.7535 44.7421 29.6879C45.4952 30.9085 45.969 32.1938 46.3684 33.4309C46.4032 33.5371 46.4379 33.6433 46.4738 33.7527C47.2632 36.3467 47.3416 39.1506 45.4491 41.0367C44.3401 41.9864 43.0727 42.3014 41.1426 42.2889C41.1019 42.4139 41.0613 42.5389 41.0195 42.6678C41.1418 42.6885 41.2642 42.7093 41.3903 42.7307C41.9405 42.8564 42.3254 43.0766 42.7398 43.3943C43.2639 43.96 43.403 44.2987 43.2972 44.851C43.0701 45.7068 43.0701 45.7068 42.6945 45.8572C42.3754 45.9085 42.1725 45.8571 41.8177 45.7713C41.696 45.7423 41.5743 45.7133 41.4489 45.6834C41.3222 45.6521 41.1955 45.6208 41.0649 45.5886C40.9389 45.5585 40.8128 45.5284 40.6829 45.4973C40.1362 45.3655 39.6073 45.231 39.0713 45.0508C39.0879 45.1548 39.1046 45.2588 39.1217 45.3659C39.2448 46.1957 39.3068 47.0015 39.2684 47.8062C39.2651 47.8833 39.2618 47.9605 39.2585 48.0401C39.1784 49.3373 39.1784 49.3373 38.6363 49.601C38.2616 49.5046 37.9151 49.4009 37.548 49.2799C37.4347 49.2435 37.3213 49.2071 37.2045 49.1696C36.8224 49.0466 36.4408 48.9221 36.0591 48.7975C35.7862 48.7092 35.5132 48.6211 35.2401 48.5331C34.4964 48.293 33.7532 48.0514 33.0101 47.8094C32.3896 47.6076 31.7689 47.4064 31.1481 47.2052C29.5987 46.703 28.0496 46.1994 26.5008 45.6951C25.1584 45.2581 23.8154 44.8228 22.4721 44.3884C21.0917 43.9419 19.7116 43.4943 18.332 43.0455C17.5579 42.7937 16.7837 42.5423 16.0091 42.2921C15.2794 42.0563 14.5502 41.819 13.8213 41.5806C13.5546 41.4936 13.2877 41.4072 13.0207 41.3213C10.8677 40.6283 9.02958 39.9163 7.67899 38.4009C6.76955 37.2277 6.82304 36.1842 7.18008 35.1413C7.20687 35.0599 7.23367 34.9786 7.26128 34.8948C7.34637 34.6374 7.43311 34.3805 7.5199 34.1236C7.5782 33.9482 7.63639 33.7728 7.69446 33.5974C7.8364 33.1693 7.97969 32.7417 8.12402 32.3145C7.94661 32.2976 7.94661 32.2976 7.76562 32.2804C6.76092 32.1686 5.63624 31.7209 4.83061 31.1606C4.18982 30.6546 3.7431 30.1544 3.65173 29.5484C3.65495 29.1767 3.76213 28.8462 3.88496 28.5076C3.90465 28.4532 3.92435 28.3989 3.94463 28.3428C4.02797 28.116 4.11243 27.8896 4.20151 27.6647C4.55531 26.7919 4.55531 26.7919 4.1645 25.8097C3.85815 25.3653 3.93776 24.9115 4.08769 24.5233C5.219 22.5455 8.39145 21.0679 11.1078 20.2461C11.5028 20.1262 11.8873 19.9955 12.2718 19.8641C13.7146 19.4582 15.3921 19.2324 17.0407 19.1473C17.1205 19.143 17.2003 19.1388 17.2826 19.1343C17.7105 19.1147 18.1365 19.1113 18.5768 19.1238C19.7608 19.1491 19.7608 19.1491 20.5947 18.7335C20.7688 18.5581 20.9329 18.3775 21.0967 18.1964C22.0342 17.258 23.5629 16.7119 25.0714 16.2587C26.0084 15.9726 26.6313 15.5038 26.9287 14.7933C26.9834 14.6672 26.9834 14.6672 27.0393 14.5386C27.1129 14.3642 27.1862 14.1898 27.2593 14.0152C27.4793 13.5096 27.7458 13.0675 28.135 12.6377C28.314 12.4098 28.336 12.1887 28.3216 11.9006C28.275 10.8383 28.7636 9.93585 29.7892 9.34058C31.1905 8.58648 33.0595 8.46255 35.0195 8.54761C35.1034 8.55123 35.1873 8.55485 35.2737 8.55858C39.6402 8.77326 39.6402 8.77326 40.9057 9.71105ZM37.7509 9.77543C37.5804 9.74792 37.5804 9.74792 37.4065 9.71986C34.9665 9.34576 32.4687 9.36678 30.6861 10.2276C30.4859 10.3787 30.4276 10.5073 30.3969 10.7319C30.4585 10.8072 30.5201 10.8825 30.5836 10.9601C31.0243 11.1033 31.3072 11.0681 31.6935 11.0065C33.4153 10.7463 35.4032 11.1378 37.2056 11.855C38.578 12.4448 39.7561 13.2105 40.7787 14.1051C41.0402 14.1642 41.0402 14.1642 41.2752 14.1826C41.4486 14.0285 41.5034 13.9565 41.4327 13.7246C41.0384 13.0177 40.5713 12.2504 39.7426 11.674C39.6647 11.6487 39.5868 11.6234 39.5066 11.5973C39.6447 11.1722 39.7829 10.7471 39.9252 10.3091C39.133 10.0517 38.5381 9.9021 37.7509 9.77543ZM34.9025 16.1334C34.6793 16.2246 34.6793 16.2246 34.4482 16.3523C34.1442 16.5138 33.9868 16.5841 33.5699 16.6219C32.7716 16.3626 32.299 15.9272 31.7366 15.4398C31.43 15.8858 31.2688 16.3746 31.1019 16.8735C31.065 16.9824 31.0271 17.091 30.988 17.1992C30.7073 17.978 30.6218 18.6282 31.0779 19.5246C31.6641 20.1986 32.5101 20.752 33.5147 21.0678C34.4094 21.2842 35.2931 21.3236 36.0257 21.1061C36.9506 20.6486 37.1609 20.1141 37.4337 19.3068C37.4685 19.2113 37.5034 19.1157 37.5392 19.0173C37.5861 18.8781 37.5861 18.8781 37.6339 18.736C37.6633 18.6516 37.6926 18.5672 37.7228 18.4802C37.7477 18.1724 37.6428 18.0023 37.3943 17.697C37.076 17.487 37.076 17.487 36.7062 17.3059C36.1436 17.0068 35.7192 16.7327 35.2905 16.3393C35.1445 16.1969 35.1445 16.1969 34.9025 16.1334ZM34.4977 22.709C33.4512 22.7589 32.5686 22.4859 31.5119 22.1528C31.3523 22.3261 31.1927 22.4994 31.0332 22.6727C30.9885 22.7212 30.9438 22.7697 30.8978 22.8197C30.628 23.1129 30.3603 23.4073 30.0952 23.7031C30.7464 24.3921 31.4103 25.0681 32.1171 25.7359C32.3892 25.9944 32.6541 26.2553 32.918 26.5171C32.9979 26.5964 33.0779 26.6757 33.1603 26.7574C33.3195 26.9156 33.4784 27.074 33.6368 27.2325C33.7099 27.305 33.783 27.3775 33.8583 27.4523C33.9235 27.5174 33.9887 27.5824 34.0559 27.6495C34.2431 27.8311 34.2431 27.8311 34.5669 28.0045C34.641 27.7982 34.7133 27.5914 34.7848 27.3842C34.8059 27.3259 34.827 27.2676 34.8487 27.2076C34.9935 26.7958 34.9935 26.7958 34.848 26.3365C34.732 26.3541 34.616 26.3717 34.4964 26.3899C33.9842 26.4122 33.7259 26.3365 33.2158 26.1413C33.2208 25.7371 33.2208 25.7371 33.4128 25.5351C33.8922 25.4011 34.4004 25.333 34.9321 25.2748C34.8943 24.8094 34.853 24.345 34.7835 23.8756C34.7303 23.4706 34.7722 23.1131 34.8449 22.7331C34.7061 22.6807 34.7061 22.6807 34.4977 22.709ZM21.8909 20.1263C21.8072 20.1231 21.7236 20.1198 21.6374 20.1165C14.9975 19.8613 9.6502 21.3073 5.88356 24.4765C5.66157 24.6788 5.53569 24.8746 5.4569 25.1436C5.43514 25.2122 5.41338 25.2807 5.39096 25.3513C5.36201 25.5725 5.36171 25.7006 5.50197 25.9332C6.54771 26.6785 7.87246 27.1892 9.18765 27.335C10.9846 27.4273 12.2939 26.8224 13.3247 26.0179C13.8424 25.5875 14.2897 25.1106 14.7327 24.6362C15.201 24.151 15.7137 23.8252 16.4521 23.5429C16.5443 23.5068 16.6365 23.4707 16.7315 23.4334C18.4515 22.7845 21.0315 22.7684 23.2321 23.1488C23.4869 23.2173 23.7417 23.2862 23.9965 23.3552C24.4204 23.4457 24.6235 23.4776 24.9771 23.3793C25.2887 23.2107 25.5538 23.0188 25.8183 22.8162C25.9688 22.7061 26.1195 22.5963 26.2703 22.4866C26.6993 22.1724 27.1213 21.8537 27.5397 21.5324C27.279 21.1929 27.1022 20.9949 26.6125 20.7923C25.0557 20.2505 23.4277 20.1814 21.8909 20.1263ZM38.6831 25.0722C38.5404 25.0802 38.3978 25.0882 38.2508 25.0964C38.4409 26.5068 38.8069 27.8498 39.5246 29.275C39.9631 30.2223 40.1463 31.0994 39.7509 31.9058C39.2685 32.9413 39.7055 33.7952 40.4596 34.9526C40.7499 35.4029 40.7366 35.5911 40.5804 35.9905C40.4888 35.9818 40.3971 35.9732 40.3026 35.9643C39.6703 35.9399 39.1316 36.072 38.5646 36.1733C38.4762 36.1862 38.3877 36.1991 38.2966 36.2125C37.3791 36.3563 36.4025 36.7093 36.0638 37.3265C35.894 37.8362 35.909 38.1862 36.3191 38.7548C37.0375 39.5453 38.3612 40.0137 39.4995 40.357C40.7887 40.6935 41.8063 40.5829 42.8158 40.225C44.2767 39.5942 45.5202 38.4024 45.6357 37.0675C45.6791 33.8919 43.9757 30.326 41.7552 27.1566C41.6885 27.0596 41.6218 26.9625 41.5532 26.8625C40.9246 25.9636 40.9246 25.9636 39.89 25.2576C39.444 25.0923 39.1084 25.0485 38.6831 25.0722ZM28.6717 22.2532C28.4176 22.3452 28.2556 22.4596 28.0677 22.6062C27.9939 22.6627 27.92 22.7192 27.844 22.7774C27.7257 22.8688 27.7257 22.8688 27.6051 22.9621C26.9475 23.4615 26.2634 23.9292 25.5253 24.3703C24.1993 25.166 23.0286 26.0305 23.1386 27.501C23.2989 28.3936 24.1092 29.3393 25.0181 30.0962C25.3332 30.3061 25.6603 30.4882 26.006 30.6685C26.0923 30.7137 26.1787 30.7589 26.2676 30.8055C26.4775 30.914 26.6888 31.0205 26.9005 31.1267C26.9422 31.3497 26.9422 31.3497 26.8708 31.6197C26.6025 31.7778 26.2819 31.8814 25.966 31.9959C25.7987 32.0657 25.6339 32.1379 25.4717 32.2123C25.3621 32.261 25.3621 32.261 25.2503 32.3106C24.7439 32.636 24.532 33.0798 24.3836 33.5762C24.3574 33.6583 24.3574 33.6583 24.3308 33.7421C24.2761 33.9147 24.2232 34.0878 24.1703 34.2609C24.1332 34.379 24.096 34.4971 24.0588 34.6151C23.9683 34.9024 23.8793 35.1901 23.7911 35.4781C24.0153 35.605 24.2398 35.7315 24.4645 35.858C24.652 35.9637 24.652 35.9637 24.8433 36.0716C27.1943 37.3483 30.8735 38.563 33.4671 38.4974C33.9274 38.4596 34.3409 38.4005 34.7484 38.2844C34.7424 38.2344 34.7365 38.1844 34.7303 38.1329C34.6739 37.5913 34.655 37.0581 34.6516 36.525C34.6508 36.4589 34.6501 36.3927 34.6493 36.3246C34.6488 35.927 34.6822 35.5457 34.7516 35.1636C34.7859 35.027 34.7859 35.027 34.6714 34.9083C34.4941 34.8216 34.3146 34.7376 34.1342 34.6552C33.2718 34.2491 33.2718 34.2491 33.0003 34.0302C32.8134 33.6397 32.9464 33.4588 33.1532 33.1583C33.2726 33.1788 33.3921 33.1992 33.5152 33.2203C35.0793 33.4763 36.3271 33.512 37.5142 32.9835C38.3719 32.4708 38.7624 31.7446 38.7293 30.8493C38.6254 30.0269 38.2653 29.1574 37.8527 28.3286C37.3532 27.298 37.0915 26.2393 37.0064 25.2288C36.9941 25.0107 36.9941 25.0107 36.7859 24.788C36.4852 24.6763 36.4852 24.6763 36.196 24.5963C36.2089 24.7601 36.2089 24.7601 36.222 24.9271C36.369 26.9572 36.2937 29.0522 34.2917 30.2926C33.5534 30.6958 32.6877 30.8893 31.5897 30.7774C30.5257 30.5563 29.6249 30.2128 28.8384 29.5781C28.7741 29.5298 28.7098 29.4815 28.6435 29.4317C27.7688 28.7164 27.4549 27.7225 27.355 26.9179C27.2775 25.1904 28.2733 23.6724 29.4714 22.4114C29.065 22.249 29.065 22.249 28.6717 22.2532ZM29.4212 24.5733C29.1807 24.8669 29.0737 25.195 28.968 25.5413C28.9503 25.5976 28.9326 25.6539 28.9144 25.7119C28.8711 25.8498 28.8285 25.988 28.7861 26.1263C29.249 26.1408 29.657 26.0915 30.0872 26.0359C30.2212 26.0187 30.3552 26.0016 30.4933 25.9839C30.5952 25.9706 30.697 25.9572 30.802 25.9435C30.453 25.5049 30.094 25.0604 29.6571 24.6499C29.5792 24.6246 29.5014 24.5993 29.4212 24.5733ZM30.7932 26.8988C30.6556 26.9231 30.5181 26.9475 30.3764 26.9725C30.27 26.9951 30.1637 27.0177 30.0541 27.0409C30.046 27.0659 30.0378 27.0909 30.0295 27.1167C31.0028 27.4329 31.9761 27.7492 32.9788 28.075C32.1746 26.9617 32.1746 26.9617 30.7932 26.8988ZM17.6323 24.251C16.1948 24.6428 15.5549 25.3721 15.2203 26.4333C15.1624 26.6232 15.1063 26.8136 15.0504 27.0041C14.9927 27.1956 14.9345 27.387 14.8757 27.5782C14.8395 27.6965 14.804 27.8149 14.7694 27.9336C14.6717 28.2578 14.5385 28.5128 14.3501 28.8081C17.231 29.7442 20.1119 30.6803 23.0802 31.6447C23.2956 31.3812 23.3864 31.1439 23.4825 30.8329C23.5126 30.7369 23.5426 30.6408 23.5736 30.5418C23.5959 30.4683 23.6183 30.3948 23.6413 30.3191C23.5309 30.2607 23.4204 30.2023 23.3065 30.1422C21.3229 29.0739 19.6679 27.781 18.8598 26.1683C18.5834 25.5109 18.345 24.8484 18.1971 24.1937C17.9807 24.1234 17.8109 24.2078 17.6323 24.251ZM38.4282 33.7832C38.3517 33.8207 38.3517 33.8207 38.2737 33.8589C37.8166 34.0675 37.4695 34.1669 36.8701 34.188C36.5401 34.2107 36.5401 34.2107 36.2893 34.3448C36.0394 34.7635 36.0085 35.2658 35.964 35.7472C36.3177 35.6549 36.6703 35.5618 37.0202 35.4649C37.7222 35.2729 38.414 35.117 39.1945 35.0375C39.1072 34.8569 39.0189 34.6765 38.9302 34.4961C38.8812 34.3956 38.8321 34.2951 38.7816 34.1915C38.67 33.9388 38.67 33.9388 38.4282 33.7832ZM13.2534 29.3734C13.0746 29.9235 12.8959 30.4737 12.7117 31.0405C13.1908 31.2037 13.1908 31.2037 13.6796 31.3703C13.9881 31.4757 14.2965 31.5813 14.605 31.6868C14.8197 31.7602 15.0345 31.8335 15.2494 31.9067C15.5578 32.0117 15.866 32.1172 16.1742 32.2228C16.2707 32.2555 16.3671 32.2882 16.4664 32.322C17.1461 32.5555 17.1461 32.5555 17.3815 32.7253C17.329 32.9037 17.2714 33.0805 17.2091 33.2558C16.9471 33.3246 16.6484 33.1891 16.3523 33.1109C14.9074 32.7315 13.7767 32.4728 12.5754 32.8884C11.9239 33.2183 11.7988 33.7269 11.6164 34.2909C11.5871 34.3792 11.5579 34.4674 11.5278 34.5583C11.4664 34.7448 11.4057 34.9315 11.3455 35.1184C11.2536 35.4026 11.1586 35.6857 11.0633 35.9687C11.0039 36.1506 10.9447 36.3325 10.8857 36.5145C10.8573 36.5983 10.8289 36.6821 10.7996 36.7685C10.5437 37.581 10.5498 38.4318 11.2564 39.3253C11.7717 39.8882 12.3089 40.1511 13.131 40.4175C13.259 40.4596 13.259 40.4596 13.3895 40.5025C13.5697 40.5616 13.7501 40.6202 13.9305 40.6785C14.203 40.7667 14.4746 40.857 14.7464 40.9474C16.3078 41.4596 17.6027 41.7222 18.9987 41.3867C20.3061 40.9915 20.8439 40.2628 21.1578 39.2708C21.1802 39.2033 21.2026 39.1358 21.2256 39.0663C21.2984 38.8458 21.3694 38.6249 21.4404 38.4038C21.4907 38.2494 21.5412 38.095 21.5917 37.9406C21.6968 37.6183 21.801 37.2957 21.9047 36.973C22.0376 36.5592 22.1727 36.1462 22.3084 35.7333C22.4127 35.4152 22.5159 35.0967 22.6187 34.7781C22.6681 34.6256 22.7178 34.4732 22.7679 34.3209C22.8376 34.1086 22.9057 33.8957 22.9735 33.6828C22.9944 33.62 23.0153 33.5573 23.0368 33.4926C23.1722 33.0808 23.1722 33.0808 23.0207 32.6307C22.696 32.3965 22.3062 32.3039 21.9081 32.1759C21.8149 32.1456 21.7217 32.1153 21.6256 32.0841C21.3166 31.9838 21.0075 31.884 20.6983 31.7842C20.4844 31.7148 20.2704 31.6454 20.0565 31.576C19.4928 31.3932 18.9289 31.2108 18.3651 31.0285C17.7899 30.8425 17.2149 30.656 16.6399 30.4696C15.5112 30.1038 14.3823 29.7385 13.2534 29.3734ZM5.76663 27.5272C5.25169 28.1089 4.89113 29.1958 5.09671 29.9904C5.51108 30.5359 6.13906 30.8662 6.88749 31.162C7.44628 31.337 7.98887 31.3796 8.46873 31.2536C8.58065 31.0212 8.58065 31.0212 8.66354 30.7324C8.68835 30.6544 8.68835 30.6544 8.71366 30.5748C8.76628 30.4083 8.81725 30.2414 8.86819 30.0744C8.90355 29.9615 8.93902 29.8487 8.97461 29.7359C9.06164 29.4591 9.14721 29.182 9.232 28.9045C9.15549 28.875 9.07898 28.8455 9.00015 28.8151C8.65002 28.68 8.30001 28.5447 7.94999 28.4094C7.76945 28.3398 7.76945 28.3398 7.58528 28.2688C6.97186 28.0315 6.36559 27.7911 5.76663 27.5272ZM37.7459 41.1015C37.8784 41.6363 38.0577 42.1668 38.2444 42.7034C38.2787 42.8071 38.313 42.9109 38.3483 43.0178C38.3833 43.1174 38.4183 43.217 38.4543 43.3197C38.4853 43.4105 38.5163 43.5012 38.5482 43.5948C38.7131 43.8884 38.8472 43.9875 39.2242 44.1789C39.5214 44.2762 39.5214 44.2762 39.8351 44.3388C39.9484 44.3637 40.0618 44.3887 40.1786 44.4144C40.2958 44.4391 40.4129 44.4637 40.5336 44.4892C40.6529 44.5152 40.7721 44.5412 40.895 44.5679C41.1884 44.6318 41.4819 44.6946 41.7755 44.7565C41.9521 44.3803 41.9521 44.3803 41.9011 43.9606C41.5725 43.7203 41.1954 43.6204 40.7901 43.4991C40.707 43.4732 40.6238 43.4473 40.5382 43.4207C40.3333 43.3571 40.1281 43.2949 39.9228 43.233C39.7886 42.7926 39.724 42.4228 39.6776 41.9804C39.0402 41.6904 38.4027 41.4003 37.7459 41.1015Z" fill="#626745"/>
<path d="M33.603 17.7211C33.7897 17.9493 33.7897 17.9493 33.7543 18.1839C33.642 18.404 33.642 18.404 33.4689 18.5101C33.0627 18.5201 32.7874 18.3558 32.413 18.1722C32.3197 18.0581 32.3197 18.0581 32.3733 17.7928C32.492 17.5277 32.492 17.5277 32.674 17.4193C33.0494 17.4133 33.2643 17.5405 33.603 17.7211Z" fill="#616545"/>
<path d="M36.0809 18.5244C36.1855 18.8133 36.0878 19.0003 35.9773 19.2447C35.5429 19.2841 35.4149 19.2688 34.9842 19.0896C34.7981 18.9349 34.7981 18.9349 34.7042 18.7473C34.7264 18.5032 34.7264 18.5032 34.8519 18.2926C35.3001 18.1344 35.5995 18.2629 36.0809 18.5244Z" fill="#616544"/>
<path d="M19.6727 33.277C20.0263 33.418 20.0263 33.418 20.2287 33.5728C20.3537 33.8747 20.1934 34.0299 20.016 34.2525C19.6561 34.2513 19.403 34.1531 19.0476 34.0216C18.8609 33.7934 18.8609 33.7934 18.9176 33.5186C19.0624 33.1986 19.1409 33.1435 19.6727 33.277Z" fill="#636846"/>
</g>
</svg>
