<svg width="17" height="17" viewBox="0 0 17 17" fill="none" xmlns="http://www.w3.org/2000/svg">
<path d="M11.0454 0.958409V2.73992C11.0455 2.90815 11.0917 3.07286 11.1786 3.21468C11.2655 3.3565 11.3895 3.46955 11.5359 3.54055L11.883 3.70933C11.8101 4.94914 11.4086 6.03873 10.8273 6.82521C10.1841 7.69653 9.35408 8.16312 8.49949 8.16312C7.6449 8.16312 6.81578 7.69653 6.1725 6.82521C5.59033 6.03873 5.18977 4.94914 5.11679 3.70933L5.46473 3.54143C5.61114 3.47005 5.73493 3.35662 5.82153 3.21447C5.90812 3.07232 5.95393 2.90738 5.95355 2.73904V0.958409C5.95355 0.526285 6.25397 0.158671 6.66641 0.110068C7.88469 -0.0366893 9.11514 -0.0366893 10.3334 0.110068C10.7459 0.158671 11.0463 0.526285 11.0463 0.958409M3.48993 4.50023L0.734379 5.83902C0.429908 5.98706 0.194002 6.25446 0.0781076 6.58289C-0.0377869 6.91133 -0.024268 7.27416 0.115716 7.59226L3.9168 16.2268C4.01832 16.4574 4.18128 16.6529 4.38631 16.7899C4.59135 16.927 4.82986 16.9999 5.07351 17H11.9263C12.17 16.9999 12.4085 16.927 12.6135 16.7899C12.8186 16.6529 12.9815 16.4574 13.083 16.2268L16.8841 7.59314C17.0243 7.27484 17.0378 6.9117 16.9218 6.58304C16.8057 6.25438 16.5694 5.9869 16.2646 5.83902L13.509 4.50023C13.3291 5.7966 12.859 6.97456 12.1733 7.90243C11.3985 8.95225 10.3232 9.70781 9.07742 9.88896L10.3572 11.7544C10.4343 11.8668 10.4758 12.0016 10.4758 12.1397C10.4758 12.2779 10.4343 12.4126 10.3572 12.525L8.67261 14.9817C8.65299 15.0103 8.62708 15.0336 8.59704 15.0497C8.567 15.0658 8.5337 15.0743 8.49991 15.0743C8.46613 15.0743 8.43283 15.0658 8.40279 15.0497C8.37275 15.0336 8.34684 15.0103 8.32721 14.9817L6.64265 12.525C6.56552 12.4126 6.52405 12.2779 6.52405 12.1397C6.52405 12.0016 6.56552 11.8668 6.64265 11.7544L7.92241 9.88896C6.67745 9.70781 5.60136 8.95225 4.82655 7.90331C4.14084 6.97544 3.67069 5.79749 3.48993 4.50023Z" fill="#636846"/>
</svg>
