<svg width="17" height="17" viewBox="0 0 17 17" fill="none" xmlns="http://www.w3.org/2000/svg">
<path d="M4.27136 0L0.156332 1.45593L0.441658 2.08773L3.1608 1.1253L2.72513 2.66361C1.9093 2.79586 1.28141 3.43068 1.28141 4.1902C1.28141 4.94216 1.89648 5.57321 2.70377 5.71302C2.33216 6.39696 1.8794 7.25851 1.42364 8.24853C0.661633 9.89604 0 11.7098 0 12.8056C0 13.6181 0.364347 14.1849 0.923467 14.5816C1.48302 14.9746 2.25528 15.1862 3.03266 15.1862C3.81005 15.1862 4.58317 14.9746 5.14271 14.5816C5.70226 14.1849 6.06533 13.6181 6.06533 12.8056C6.06533 11.7098 5.40327 9.89604 4.64296 8.24853C4.18593 7.25851 3.73317 6.39696 3.36156 5.71302C4.16884 5.57321 4.78392 4.94216 4.78392 4.1902C4.78392 3.48358 4.24146 2.88655 3.50678 2.70139L4.27136 0ZM15.206 0.00151152L11.0927 1.45782L11.3746 2.08962L14.0955 1.12756L13.6598 2.66361C12.844 2.79586 12.2161 3.43068 12.2161 4.1902C12.2161 4.94216 12.8312 5.57321 13.6384 5.71302C13.2668 6.39696 12.8141 7.25851 12.357 8.24853C11.5967 9.89604 10.9347 11.7098 10.9347 12.8056C10.9347 13.6181 11.2977 14.1849 11.8573 14.5816C12.4168 14.9746 13.1899 15.1862 13.9673 15.1862C14.7447 15.1862 15.5178 14.9746 16.0774 14.5816C16.6369 14.1849 17 13.6181 17 12.8056C17 11.7098 16.3379 9.89604 15.5776 8.24853C15.1206 7.25851 14.6678 6.39696 14.2962 5.71302C15.1035 5.57321 15.7186 4.94216 15.7186 4.1902C15.7186 3.48358 15.1761 2.88655 14.4415 2.70139L15.206 0.00151152ZM3.03266 3.3211C3.5794 3.3211 4.01508 3.70653 4.01508 4.1902C4.01508 4.67388 3.5794 5.0593 3.03266 5.0593C2.48593 5.0593 2.05025 4.67388 2.05025 4.1902C2.05025 3.70653 2.48593 3.3211 3.03266 3.3211ZM13.9673 3.3211C14.5141 3.3211 14.9497 3.70653 14.9497 4.1902C14.9497 4.67388 14.5141 5.0593 13.9673 5.0593C13.4206 5.0593 12.9849 4.67388 12.9849 4.1902C12.9849 3.70653 13.4206 3.3211 13.9673 3.3211ZM3.03266 15.8664C2.73367 15.8664 2.46884 15.9495 2.29799 16.0629C2.12286 16.18 2.05025 16.3047 2.05025 16.4332C2.05025 16.5617 2.12286 16.6864 2.29799 16.8035C2.46884 16.9169 2.73367 17 3.03266 17C3.33166 17 3.59648 16.9169 3.76734 16.8035C3.94246 16.6864 4.01508 16.5617 4.01508 16.4332C4.01508 16.3047 3.94246 16.18 3.76734 16.0629C3.59648 15.9495 3.33166 15.8664 3.03266 15.8664ZM13.9673 15.8664C13.6683 15.8664 13.4035 15.9495 13.2327 16.0629C13.0575 16.18 12.9849 16.3047 12.9849 16.4332C12.9849 16.5617 13.0575 16.6864 13.2327 16.8035C13.4035 16.9169 13.6683 17 13.9673 17C14.2663 17 14.5312 16.9169 14.702 16.8035C14.8771 16.6864 14.9497 16.5617 14.9497 16.4332C14.9497 16.3047 14.8771 16.18 14.702 16.0629C14.5312 15.9495 14.2663 15.8664 13.9673 15.8664Z" fill="#636846"/>
</svg>
