<svg width="17" height="17" viewBox="0 0 17 17" fill="none" xmlns="http://www.w3.org/2000/svg">
<path d="M11.6161 0L8.49385 3.6122L10.7531 2.40816L10.9119 2.32319L11.0706 2.40923L11.7257 2.76476L11.6162 0H11.6161ZM4.05135 0.850837L4.92332 5.51615L8.09702 3.82464L4.05135 0.850837ZM10.9096 3.08345L2.38902 7.62455L6.28151 9.68501L14.7765 5.1863L10.9096 3.08345ZM12.4389 4.68209L13.3545 5.14824L6.29603 8.86669L3.90372 7.58996L4.81035 7.11032L6.29607 7.90417L12.439 4.68213L12.4389 4.68209ZM15.7368 5.33391L16.062 6.19359L17 5.38307L15.7368 5.33388L15.7368 5.33391ZM15.1722 5.73298L6.54315 10.3032L6.33631 13.286L16.0688 8.10533L15.1722 5.73298ZM3.20393 6.43288L0 7.2981L1.31916 7.998L1.53713 7.41559L1.58184 7.29703L1.69367 7.23779L3.204 6.43285L3.20393 6.43288ZM1.97198 8.16125L0.941292 10.9159L5.65774 13.4258L5.87792 10.2284L1.97195 8.16128L1.97198 8.16125ZM13.9682 9.9813L7.73478 13.2994L9.69896 17L11.0516 11.9958L16.1482 12.9483L13.9682 9.98116L13.9682 9.9813ZM3.21069 12.8814L2.51534 14.4845L4.55883 13.5979L3.21062 12.8813L3.21069 12.8814Z" fill="#636846"/>
</svg>
