<svg width="11" height="17" viewBox="0 0 11 17" fill="none" xmlns="http://www.w3.org/2000/svg">
<path d="M6.58965 0H6.40524C5.14018 0.0197844 3.83455 0.40054 2.80923 1.00826C1.32288 1.88959 0.297553 3.70714 0.0430656 5.43174C-0.288874 7.69015 1.39295 9.79924 1.83923 12.0352C2.0052 12.9834 2.49942 13.8868 3.13379 14.3832C3.34033 13.4276 4.18493 12.7072 5.18813 12.7072C5.52744 12.7072 5.84832 12.7893 6.136 12.9349C7.50433 10.4898 10.8237 7.91785 10.9934 4.75982C11.0745 3.26293 10.407 1.44874 9.1419 0.672669C8.40056 0.218375 7.50802 0.011572 6.58965 0ZM6.41999 1.77649C7.55965 1.78022 8.69931 2.23078 9.54391 3.34878L9.02018 3.7594C8.0465 2.47417 6.74455 2.25094 5.44261 2.56749C4.14067 2.88217 2.8793 3.78927 2.21911 4.72996C1.93143 5.14431 1.83923 5.78264 1.9093 6.52922C1.97938 7.2758 2.20805 8.1157 2.48466 8.89587C2.56581 9.13105 2.65432 9.35875 2.74284 9.57899C3.17067 9.25423 3.67227 9.01533 4.2587 9.01533C4.94839 9.01533 5.71185 9.34009 6.59703 10.0941L6.16919 10.6093C5.3541 9.91869 4.74185 9.68725 4.2587 9.68725C3.79398 9.68725 3.41041 9.88883 3.00839 10.2211C3.41041 11.1356 3.76079 11.7739 3.76079 11.7739L3.18543 12.1024C3.18543 12.1024 2.42934 10.7474 1.85767 9.11985C1.57368 8.30981 1.33025 7.42511 1.24911 6.59267C1.17166 5.76024 1.24911 4.95766 1.68063 4.34174C2.44778 3.24426 3.80505 2.27408 5.28771 1.91423C5.65653 1.82427 6.03642 1.77649 6.41999 1.77649ZM8.82102 11.55C8.58866 12.7184 7.89159 13.185 6.73718 12.9498C7.89159 13.185 8.35262 13.8905 8.12026 15.0589C8.35262 13.8905 9.04969 13.4239 10.2041 13.6591C9.04969 13.4239 8.58866 12.7184 8.82102 11.55ZM5.18813 13.3791C4.39147 13.3791 3.74972 14.0286 3.74972 14.8349C3.74972 15.6412 4.39147 16.2907 5.18813 16.2907C5.98478 16.2907 6.62653 15.6412 6.62653 14.8349C6.62653 14.0286 5.98478 13.3791 5.18813 13.3791ZM1.08314 14.4392C1.48885 15.2941 1.27124 15.9249 0.42664 16.3355C1.27124 15.9249 1.89455 16.1452 2.30025 17C1.89455 16.1452 2.11216 15.5143 2.95676 15.1037C2.11216 15.5143 1.48885 15.2941 1.08314 14.4392Z" fill="#636846"/>
</svg>
