<svg width="14" height="17" viewBox="0 0 14 17" fill="none" xmlns="http://www.w3.org/2000/svg">
<path d="M14 10.625C14 12.3158 13.2625 13.9373 11.9497 15.1328C10.637 16.3283 8.85652 17 7 17C5.14348 17 3.36301 16.3283 2.05025 15.1328C0.737498 13.9373 0 12.3158 0 10.625C0.00111199 9.38283 0.400677 8.16801 1.14959 7.12983C1.89851 6.09166 2.96415 5.27536 4.21556 4.78125L4.48933 4.97533L5.69333 5.82675C4.51503 6.09204 3.46785 6.70832 2.71816 7.57767C1.96847 8.44702 1.55927 9.5196 1.55556 10.625C1.55556 13.3592 3.99778 15.5833 7 15.5833C10.0022 15.5833 12.4444 13.3592 12.4444 10.625C12.4407 9.5196 12.0315 8.44702 11.2818 7.57767C10.5321 6.70832 9.48497 6.09204 8.30667 5.82675L9.78444 4.78125C11.0358 5.27536 12.1015 6.09166 12.8504 7.12983C13.5993 8.16801 13.9989 9.38283 14 10.625ZM7 4.95833L10.8889 2.20292L9.33333 0H4.66667L3.11111 2.20292L5.44444 3.85617L7 4.95833Z" fill="#636846"/>
</svg>
